<?xml version="1.0" encoding="utf-8"?>
<!-- Generator: Adobe Illustrator 19.0.0, SVG Export Plug-In . SVG Version: 6.00 Build 0)  -->
<svg version="1.1" id="Layer_1" xmlns="http://www.w3.org/2000/svg" xmlns:xlink="http://www.w3.org/1999/xlink" x="0px" y="0px"
	 viewBox="0 0 540 300" style="enable-background:new 0 0 540 300;" xml:space="preserve">
<style type="text/css">
	.st0{fill:#26C4EF;}
	.st1{fill:#010101;}
	.st2{fill:#040303;}
	.st3{fill:#5D5D5D;}
	.st4{fill:#030202;}
	.st5{fill:#020101;}
	.st6{fill:#090A09;}
	.st7{fill:#22201F;}
	.st8{fill:#1E1D1B;}
	.st9{fill:#1C1B19;}
	.st10{fill:#0A0A0A;}
	.st11{fill:#3B3B3B;}
	.st12{fill:#08262F;}
	.st13{fill:#262420;}
	.st14{fill:#282724;}
	.st15{fill:#1E1C18;}
	.st16{fill:#2B211C;}
	.st17{fill:#1A2224;}
	.st18{fill:#43372B;}
	.st19{fill:#12110F;}
	.st20{fill:#0F1312;}
	.st21{fill:#0D0E0E;}
	.st22{fill:#0D1010;}
	.st23{fill:#0D0B08;}
	.st24{fill:#141312;}
	.st25{fill:#121516;}
	.st26{fill:#070808;}
	.st27{fill:#0E1213;}
	.st28{fill:#090B0C;}
	.st29{fill:#0F0914;}
	.st30{fill:#121313;}
	.st31{fill:#1B1914;}
	.st32{fill:#282120;}
	.st33{fill:#0F1314;}
	.st34{fill:#1E1F1B;}
	.st35{fill:#0C0E0E;}
	.st36{fill:#08232A;}
	.st37{fill:#0E1112;}
	.st38{fill:#1A1712;}
	.st39{fill:#1D201E;}
	.st40{fill:#072229;}
	.st41{fill:#102328;}
	.st42{fill:#09242B;}
	.st43{fill:#111616;}
	.st44{fill:#0F1415;}
	.st45{fill:#292929;}
	.st46{fill:#171616;}
	.st47{fill:#393939;}
	.st48{fill:#0C242A;}
	.st49{fill:#333738;}
	.st50{fill:#0F1212;}
	.st51{fill:#101314;}
	.st52{fill:#3B3528;}
	.st53{fill:#383838;}
	.st54{fill:#353535;}
	.st55{fill:#121617;}
	.st56{fill:#373737;}
	.st57{fill:#111517;}
	.st58{fill:#343434;}
	.st59{fill:#0B2026;}
	.st60{fill:#221F1D;}
	.st61{fill:#131210;}
	.st62{fill:#FE7821;}
	.st63{fill:#EFD097;}
	.st64{fill:#B78E65;}
	.st65{fill:#FCDC9E;}
	.st66{fill:#FB7D2B;}
	.st67{fill:#C49B6E;}
	.st68{fill:#120E12;}
	.st69{fill:#21181B;}
	.st70{fill:#08060E;}
	.st71{fill:#FCE3A0;}
	.st72{fill:#211A1C;}
	.st73{fill:#281D1C;}
	.st74{fill:#EED097;}
	.st75{fill:#211E1D;}
	.st76{fill:#80142F;}
	.st77{fill:#C7AD7F;}
	.st78{fill:#BE9C5F;}
	.st79{fill:#CEB171;}
	.st80{fill:#BF9F64;}
	.st81{fill:#191417;}
	.st82{fill:#0F1319;}
	.st83{fill:#7F6A43;}
	.st84{fill:#BA9A5C;}
	.st85{fill:#C19F5E;}
	.st86{fill:#181510;}
	.st87{fill:#D2B262;}
	.st88{fill:#271F1F;}
	.st89{fill:#201914;}
	.st90{fill:#42362B;}
	.st91{fill:#392D2A;}
	.st92{fill:#FCE1A1;}
	.st93{fill:#C09E5C;}
	.st94{fill:#D8B97C;}
	.st95{fill:#EDCF95;}
	.st96{fill:#E9CB92;}
	.st97{fill:#F8DC9F;}
	.st98{fill:#E4C084;}
	.st99{fill:#0F0C11;}
	.st100{fill:#3C312D;}
	.st101{fill:#816C45;}
	.st102{fill:#14110D;}
	.st103{fill:#2E2E2E;}
	.st104{fill:#08050F;}
	.st105{fill:#E2C58B;}
	.st106{fill:#FEE79E;}
	.st107{fill:#FCE7A6;}
	.st108{fill:#B9995B;}
	.st109{fill:#C2A262;}
	.st110{fill:#BD9F5D;}
	.st111{fill:#28201E;}
	.st112{fill:#ECCD93;}
	.st113{fill:#311E20;}
	.st114{fill:#7F1130;}
	.st115{fill:#15191C;}
	.st116{fill:#453727;}
	.st117{fill:#CDAA65;}
	.st118{fill:#BB9C5E;}
	.st119{fill:#BE9D5D;}
	.st120{fill:#281D21;}
	.st121{fill:#D1B072;}
	.st122{fill:#F1D199;}
	.st123{fill:#1C181A;}
	.st124{fill:#DEC283;}
	.st125{fill:#BF9F65;}
	.st126{fill:#271F21;}
	.st127{fill:#342A27;}
	.st128{fill:#CCAD71;}
	.st129{fill:#271A1D;}
	.st130{fill:#302523;}
	.st131{fill:#392424;}
	.st132{fill:#2A2221;}
	.st133{fill:#1E161B;}
	.st134{fill:#352C28;}
	.st135{fill:#292122;}
	.st136{fill:#241D1B;}
	.st137{fill:#342524;}
	.st138{fill:#07050F;}
	.st139{fill:#28201D;}
	.st140{fill:#3E352D;}
	.st141{fill:#2F1D1F;}
	.st142{fill:#FBDCA0;}
	.st143{fill:#090016;}
	.st144{fill:#F2CA8A;}
	.st145{fill:#FCE3A4;}
	.st146{fill:#3D312C;}
	.st147{fill:#392922;}
	.st148{fill:#372824;}
	.st149{fill:#090810;}
	.st150{fill:#F2D49C;}
	.st151{fill:#FDE5A4;}
	.st152{fill:#C1A561;}
	.st153{fill:#443A32;}
	.st154{fill:#111419;}
	.st155{fill:#1F1717;}
	.st156{fill:#151518;}
	.st157{fill:#C99C70;}
	.st158{fill:#C09F61;}
	.st159{fill:#BA9B5C;}
	.st160{fill:#F1D59A;}
	.st161{fill:#FEDBA3;}
	.st162{fill:#554B42;}
	.st163{fill:#F1D89F;}
	.st164{fill:#B31F35;}
	.st165{fill:#E9D098;}
	.st166{fill:#251C1C;}
	.st167{fill:#403529;}
	.st168{fill:#181717;}
	.st169{fill:#332518;}
	.st170{fill:#3C2E2E;}
	.st171{fill:#8A1530;}
	.st172{fill:#0C1210;}
	.st173{fill:#B89A5F;}
	.st174{fill:#0E0A11;}
	.st175{fill:#EED096;}
	.st176{fill:#261D1E;}
	.st177{fill:#2F2624;}
	.st178{fill:#3A2F25;}
	.st179{fill:#DFC28A;}
	.st180{fill:#141015;}
	.st181{fill:#0F0D12;}
	.st182{fill:#161316;}
	.st183{fill:#342A26;}
	.st184{fill:#261B1C;}
	.st185{fill:#282024;}
	.st186{fill:#4C3E31;}
	.st187{fill:#1F181F;}
	.st188{fill:#BD9D54;}
	.st189{fill:#EFD69D;}
	.st190{fill:#382E29;}
	.st191{fill:#F0D399;}
	.st192{fill:#322827;}
	.st193{fill:#05030D;}
	.st194{fill:#8B795E;}
	.st195{fill:#F7D89A;}
	.st196{fill:#0F0A13;}
	.st197{fill:#130F10;}
	.st198{fill:#FAD99D;}
	.st199{fill:#FCDFA2;}
	.st200{fill:#665742;}
	.st201{fill:#322824;}
	.st202{fill:#FBE1A2;}
	.st203{fill:#E7C98F;}
	.st204{fill:#372B24;}
	.st205{fill:#FDE3A3;}
	.st206{fill:#EBCC94;}
	.st207{fill:#100B11;}
	.st208{fill:#FDDFA2;}
	.st209{fill:#201815;}
	.st210{fill:#E6BF7D;}
	.st211{fill:#05000B;}
	.st212{fill:#E3C387;}
	.st213{fill:#1D1717;}
	.st214{fill:#E1C286;}
	.st215{fill:#FBDE9F;}
	.st216{fill:#0D0811;}
	.st217{fill:#473C30;}
	.st218{fill:#B11F35;}
	.st219{fill:#251E20;}
	.st220{fill:#EBCD95;}
	.st221{fill:#CAA361;}
	.st222{fill:#E2C68B;}
	.st223{fill:#211D1C;}
	.st224{fill:#080413;}
	.st225{fill:#302821;}
	.st226{fill:#2D1D1D;}
	.st227{fill:#322525;}
	.st228{fill:#15101A;}
	.st229{fill:#403429;}
	.st230{fill:#EED39A;}
	.st231{fill:#07040E;}
	.st232{fill:#251D23;}
	.st233{fill:#2A1B1D;}
	.st234{fill:#C9A663;}
	.st235{fill:#312422;}
	.st236{fill:#302220;}
	.st237{fill:#0E0B17;}
	.st238{fill:#E8B421;}
	.st239{fill:#D8A921;}
	.st240{fill:#3C2E20;}
	.st241{fill:#1C1620;}
	.st242{fill:#282220;}
	.st243{fill:#78122B;}
	.st244{fill:#D6AB21;}
	.st245{fill:#695542;}
	.st246{fill:#3E3328;}
	.st247{fill:#251F1F;}
	.st248{fill:#261C1D;}
	.st249{fill:#43372C;}
	.st250{fill:#EDCF96;}
	.st251{fill:#201A1E;}
	.st252{fill:#161218;}
	.st253{fill:#191416;}
	.st254{fill:#291F1E;}
	.st255{fill:#22191D;}
	.st256{fill:#312826;}
	.st257{fill:#3F3226;}
	.st258{fill:#251D21;}
	.st259{fill:#1F171C;}
	.st260{fill:#3D3123;}
	.st261{fill:#D1B987;}
	.st262{fill:#E9D398;}
	.st263{fill:#B51F36;}
	.st264{fill:#3A2D27;}
	.st265{fill:#A41C33;}
	.st266{fill:#FCEAA8;}
	.st267{fill:#010B0C;}
	.st268{fill:#C9B485;}
	.st269{fill:#281E20;}
	.st270{fill:#2A211F;}
	.st271{fill:#D7B372;}
	.st272{fill:#221A20;}
	.st273{fill:#161014;}
	.st274{fill:#F9DB9D;}
	.st275{fill:#110D13;}
	.st276{fill:#201818;}
	.st277{fill:#0B080F;}
	.st278{fill:#FCDEA0;}
	.st279{fill:#FBDBA0;}
	.st280{fill:#1F171B;}
	.st281{fill:#191218;}
	.st282{fill:#5C4E41;}
	.st283{fill:#261F1F;}
	.st284{fill:#0B0114;}
	.st285{fill:#261E1C;}
	.st286{fill:#22181B;}
	.st287{fill:#261F1B;}
	.st288{fill:#1A120F;}
	.st289{fill:#251E1E;}
	.st290{fill:#3F332B;}
	.st291{fill:#F4F1F1;}
	.st292{fill:#2D2521;}
	.st293{fill:#42362C;}
	.st294{fill:#ECCF96;}
	.st295{fill:#CEAF71;}
	.st296{fill:#3D3327;}
	.st297{fill:#FDE6A5;}
	.st298{fill:#292324;}
	.st299{fill:#E7D188;}
	.st300{fill:#6D583F;}
	.st301{fill:#BE2037;}
	.st302{fill:#251A1E;}
	.st303{fill:#0D0F12;}
	.st304{fill:#0E1317;}
	.st305{fill:#BFA062;}
	.st306{fill:#2F161E;}
	.st307{fill:#91764C;}
	.st308{fill:#291F22;}
	.st309{fill:#CFA31F;}
	.st310{fill:#1A1415;}
	.st311{fill:#1A1515;}
	.st312{fill:#DDDADA;}
	.st313{fill:#C3A362;}
	.st314{fill:#352C27;}
	.st315{fill:#2C2624;}
	.st316{fill:#DABB7C;}
	.st317{fill:#C7B483;}
	.st318{fill:#B9994D;}
	.st319{fill:#C2A25F;}
	.st320{fill:#E5CE95;}
	.st321{fill:#372E29;}
	.st322{fill:#382929;}
	.st323{fill:#0E1117;}
	.st324{fill:#231A1B;}
	.st325{fill:#D8D6D6;}
	.st326{fill:none;stroke:#0D0D0D;stroke-width:2;stroke-miterlimit:10;}
</style>
<g>
	<path class="st0" d="M179.2,52.9c15,7.7,28.4,17.5,39.4,30.4c7,8.2,12.8,17,17.1,26.9c0.7,1.3,0.1,3.2,1.8,4
		c0.2,0.2,0.3,0.4,0.2,0.7c0.3,1.9,1.2,3.6,1.1,5.5c1,0.9,2.2,1.7,1.9,3.3c0.8,1.9,0.2,4.2,1.4,6c-0.1,1.8,0.7,3.5,1,5.2
		c0.3,1.7-0.6,3.4,0.6,5c1.4,0.7,1,1.9,0.9,3c-0.9,2.2,0.4,4.4,0.2,6.6c0.4,0.8,0.2,1.8,0.7,2.6c0.2,0.3,0.1,0.5,0,0.8
		c-0.8,2.3-0.2,4.7-0.4,7c0,1.1,0.1,2.1-0.2,3.2c-0.5,2.3-0.4,4.8-1.2,7.1c0.5,1,1.8,2.1-0.1,3c-1.2,1.5-0.3,3.3-0.6,4.9
		c-0.3,1.7-1.1,3.3-1,5.1c-1.2,1.8-0.6,4-1.4,5.9c-0.4,1.2-0.7,2.5-1.1,3.7c-1.3,1.5-1.3,3.5-2,5.2l0-0.1c-1.3,1.3-1.4,3.1-1.9,4.7
		c-6.5,14.2-14.9,27-26.8,37.4c-2.7,1.2-4.1,0.2-4.6-2.6c-0.2-1.5-0.1-3-0.5-4.5c-0.2-0.5-0.3-1-0.4-1.5c-0.3-1.7-0.1-3.5-0.7-5.1
		c-0.2-0.7-0.3-1.4-0.5-2.1c-0.2-1.6-1.1-3.1-1.6-4.6c-0.9-6.5-4.7-12-6.4-18.3c-2-7.5-6.8-14.2-7.1-22.2c0.1-4-1.4-7.4-4-10.5
		c-4.4-5.3-7.1-11.6-9.6-17.9c-0.5-1.3-0.6-2.6-0.3-3.9c0.7-1.7,0.5-3.4,0.2-5.2c0.4-2.5,1-4.9,0.1-7.4c0.1-3.9-0.5-7.6-2.3-11.1
		c-0.8-2.9-2.1-5.5-3.5-8.1c-2-3.5-3-7.5-6.1-10.3c-1.7-1.7-3.6-3.4-1.6-6.1c1.2-1,2.9-1.3,4-2.4c0.7-0.6,1.5-1,2.3-1.4
		c4.3-3.1,9.1-5.8,8.1-12.3c0.3-4.3-2.4-5.8-6.1-6.2c-2.8-0.4-5.6-0.1-8.4-0.1c-1.8,0-3.5,0-5.3,0c-2.3,0.1-4.5-0.3-6.8,0.4
		c-0.5,0.1-1,0.2-1.4,0.3c-2.5,0-4.4,2-6.8,2.1c-2,0.2-4.1-0.3-6.1,0.7c-0.4,0.3-0.8,0.5-1.2,0.7c-0.6,0.3-1.3,0.4-2,0.4
		c-1.8-0.4-3.5-0.4-5.2,0.3c-0.6,0.2-1.3,0.4-1.9,0.6c-2.3,0.7-4.4,1.5-6.2,3.2c-1.7,1.5-3.5,2.7-5.5,3.8c-5.5,4.2-10,9.7-16.4,12.8
		c-1.3,0.9-2.3,2.1-3.6,3c-1.7,0.9-3.4,1.8-4.9,3.1c-0.7,0.5-1.5,1-2.3,1.2c-1.9,0.4-3.8,0.5-5.4,1.8c-1.2,1-2,2.3-2.5,3.7
		c-0.2,0.6-0.5,1.2-0.9,1.8c-1.2,1.2-2.7,2.1-3.8,3.3c-1.4,1.3-2.7,2.7-4,4c-1.3,1.2-2.3,2.5-3,4.1c-2.7,4.4-5.1,9-7.7,13.4
		c-1.2,1.6-2.2,3.3-3,5.1c-0.9,1.7-2.1,3.3-3,5c-1,1.5-1.3,3.1-0.9,4.8c0.1,0.7,0,1.3-0.1,1.9c-0.4,1.3-0.1,2.5,0.9,3.5
		c1.3,1.5,2.7,2.8,4.1,4.1c1.8,1.6,4,2.6,6,3.8c2.4,1.1,4.9,2.1,7.6,0.8c2.6-1.1,2.7-4.7,5.6-5.5c2.5,0.5,4.2,2.3,5.8,4.1
		c1.1,1.5,1.5,3.1,1.2,4.9c-0.4,2-1.9,3.3-3.1,4.7c-1.7,1.7-2.9,3.8-4.2,5.9c-1.2,1.5-2.2,3.2-2.7,5c-0.3,1-0.6,2.1-0.8,3.1
		c-0.7,1.9-0.7,3.8-0.2,5.8c0,1.7-0.6,3.2-0.8,4.8c-0.1,0.5-0.2,0.9-0.3,1.4c-0.7,2.1-0.3,4.3-0.6,6.5c-0.2,1.5-0.7,2.9-1.3,4.2
		c-1.3,2.6-1.7,5.4-1.8,8.3c-0.1,0.5-0.2,0.9-0.3,1.4c-0.7,2-0.8,3.9-0.1,5.9c0.2,0.5,0.3,0.9,0.3,1.4c0.3,2.2,0.3,4.4,0.1,6.7
		c-0.5,2.7,0.7,5.6-0.6,8.2c-0.8,1.2-1.8,1.8-3.2,1.8c-7.3-3.6-12.7-9.6-18-15.4c-7.9-8.8-14.3-18.7-19.1-29.6
		c-0.4-1.7-0.4-3.5-1.5-4.9c-0.2-0.4-0.4-0.8-0.5-1.2c-0.4-1.4-0.5-2.9-1.3-4.2c-1.3-1.5-0.9-3.5-1.8-5.2c-0.5-1.8-0.7-3.6-1.2-5.4
		c-0.2-1.4-0.4-2.9-0.9-4.3c-0.4-2.5-0.7-5-1-7.5c-0.4-2.7,0.9-5.6-1-8.1c0-1.3,0-2.7,0-4c0.8-1.7,0.8-3.3,0-5c0-1.3,0-2.7,0-4
		c1.9-2.8,0.6-5.9,1.1-8.9c0.5-2.2,0.6-4.5,1-6.7c0.4-1.4,0.7-2.8,0.9-4.3c0.5-1.8,0.7-3.6,1.3-5.4c1.1-1.4,0-3.3,1.1-4.7
		c1-1.4,1.6-2.9,1.9-4.6c0.1-0.4,0.3-0.8,0.5-1.2c1.1-1.5,1.1-3.3,1.5-4.9c8.2-19,21.7-33.7,38-46c7-5.3,14.1-10.6,22.9-12.9
		c2,0,3.8-0.8,5.6-1.6c1.6-0.7,3.3-1.3,5.1-1.8c0.4-0.1,0.9-0.2,1.3-0.3c2.3-0.5,4.6-1.1,6.8-1.8c0.5-0.2,0.9-0.3,1.4-0.3
		c2.9-0.9,6-1,8.9-1.6c3.2-0.5,6.7,1,9.8-1c1.3,0,2.7,0,4,0c1.1,1,2.4,0.3,3.6,0.5c0.8-0.1,1.7,0.2,2.4-0.5c0.7,0,1.3,0,2,0
		c0.5,0.5,1.2,0.7,1.9,0.9c2.4,0,4.8,0.6,7.2,0.6c2.3-0.1,4.3,1.3,6.6,1c1.7,0.1,3.3,1,5.1,1.1c2,0.8,4.2,1,6.2,1.9
		c1.7-0.1,3.1,1.2,4.8,1.2c1.8,1.5,4.3,1.6,6.3,2.8C176.1,52.1,177.7,52.5,179.2,52.9z"/>
	<path class="st1" d="M504.6,174.4c0-0.4,0-0.9,0.1-1.3c0-0.3-0.1-0.5-0.1-0.8c0-4.3,0.1-8.6,0.4-12.9c-0.1-3-0.1-6,0-8.9
		c-0.3-4.1-0.4-8.3-0.5-12.5c-0.2-0.8,0.1-1.7,0-2.4c-1.4-10.6-4.6-20.3-14.2-26.2c-13.4-8.2-27.5-9-41.2-1.2
		c-13.7,7.8-19.6,20.3-18.5,36c1.5,20.6,19.8,34.6,39.3,29.9c1.7-0.4,3.7-0.3,3.7-3c-0.1-7.6,0-15.2,0-23c-1.1,0.3-1.8,0.5-2.4,0.6
		c-6.7,1.2-11.9-2.1-12.6-8c-0.7-5.8,3.4-11.2,9.1-11.6c5.9-0.5,9.7,3.3,9.8,10.5c0.2,10.5,0.3,21,0,31.5c-0.4,10.4-6.6,16.1-16,16
		c-3.4-0.1-6.4-1.6-10.1-2.1c0,7,0.2,13.8-0.1,20.6c-0.1,3.2,1.1,4.2,4,5c21.8,6.2,43.4-6.9,48.4-29.7c0.3-1.4,0.3-2.9,0.6-4.3
		c0-0.4,0.1-0.8,0.2-1.2C504.6,175,504.6,174.7,504.6,174.4z"/>
	<path class="st2" d="M117.5,270.1c-2.7-0.1-5.4,0.1-7.8-1.2c0.4-2.7,2.9-1.7,4.3-2.6c0.4-0.2,0.9-0.3,1.3-0.4
		c0.9-0.2,1.8-0.5,2.6,0.1c0.9,2.2,2.7,1.7,4.4,1.6c6-0.2,12-0.1,18.1-0.1c1.9,0.5,4.5-0.6,5.2,2.4c-0.6,0.1-1.2,0.2-1.8,0.3
		c-2.3,1-4.9-0.4-7.1,0.9c-4.3,0-8.7,0-13,0C121.8,269.7,119.5,271.1,117.5,270.1z"/>
	<path class="st3" d="M136.7,271c2.2-1.5,4.7-1.1,7.1-0.9c-0.2,0.3-0.2,0.6-0.1,0.9C141.3,271,139,271,136.7,271z"/>
	<path class="st3" d="M117.5,270.1c2.1-0.3,4.3-0.7,6.2,0.9c-2,0-4,0-6,0C117.7,270.7,117.7,270.4,117.5,270.1z"/>
	<path class="st4" d="M297.6,149.8c6.4,3.9,9.4,4,13.2,0.6c3.6-3.3,4.8-8.3,2.9-12.7c-1.9-4.5-6.5-7.1-11.2-6.5
		c-5.5,0.7-8.7,4.8-8.8,12c-0.2,13.7-0.1,27.3-0.1,41c0,5.8-0.1,11.7,0,17.5c0.1,2.4-0.3,3.6-3.2,3.5c-7.2-0.2-14.3-0.1-21.5,0
		c-1.9,0-3.2-0.1-3.1-2.6c0.5-22-1.2-44,0.8-65.9c1.9-20.3,19.6-34,40.8-32.5c20.4,1.5,36,19.1,35,39.5c-1,20.3-17.9,36.7-37.7,36.5
		c-7.1-0.1-7.1-0.1-7.2-7.1C297.6,165.3,297.6,157.6,297.6,149.8z"/>
	<path class="st5" d="M418.3,129.9c0,7.7,0.9,15.5-0.2,22.9c-2.6,17.5-17.6,28.4-35.5,27.1c-16.3-1.2-28.2-14-28.8-31.4
		c-0.4-13.1-0.1-26.3-0.2-39.5c0-2.4,0.6-3.1,3.1-3.1c7,0.2,14,0.2,21,0c3.1-0.1,3.4,1.2,3.4,3.8c-0.1,11.7-0.1,23.3,0,35
		c0,1.6,0.1,3.3,0.5,4.9c0.6,2.5,2.5,3.4,4.9,3.3c2.2,0,3.9-1,4.5-3.2c0.4-1.6,0.5-3.3,0.5-4.9c0-11.7,0.1-23.3,0-35
		c0-3,0.6-4,3.8-3.9c6.7,0.3,13.3,0.3,20,0c3.4-0.2,3.8,1.2,3.7,4c-0.2,6.7-0.1,13.3-0.1,20C418.6,129.9,418.5,129.9,418.3,129.9z"
		/>
	<path class="st6" d="M201.7,220c1,1.2,2.1,2.3,1.8,4.1c-0.8,2,0.5,3.8,0.7,5.7c0,0.8,0,1.6,0.1,2.4c0.4,4,1.2,8.1-0.5,12
		c-0.2,1.1-0.9,1.8-2,2.1c-0.8-0.3-1.4-0.9-1.5-1.8c1.5-5.5,1.2-11-0.1-16.6c-0.5-1.9-0.9-3.8-0.6-5.8
		C199.9,220.9,200.1,219.7,201.7,220z"/>
	<path class="st7" d="M145.6,269.9c-1.5-1.6-3.5-0.4-5.2-1.1c1.1-2.8,3.6-1.8,5.6-2.2c1.9,0,3.7-0.9,5.5-0.4
		c1.3,0.4,2.6,0.6,3.4,1.9C152,269.3,148.9,269.9,145.6,269.9z"/>
	<path class="st8" d="M171.9,263.1c-2.7,1.6-5.7,2.5-8.8,3c-0.6,0.2-1.3,0.3-1.4-0.5c-0.2-1.1,0.8-1.6,1.5-2.2c2-1.1,4-2,6.4-2
		C170.5,261.7,171.4,262.1,171.9,263.1z"/>
	<path class="st9" d="M188.7,254.9c-2.3,1.4-4.3,3.3-7,3.9c-0.8-0.2-1.3-0.6-1.2-1.5c1.9-2.3,4.1-3.9,7.2-4
		C188.3,253.6,188.9,254,188.7,254.9z"/>
	<path class="st10" d="M155,268.2c-1.2-0.4-2.7,0.1-3.4-1.3c0.1-0.1,0.3-0.3,0.4-0.4c0.5-0.3,1.1-0.4,1.7-0.6
		c1.2-0.2,2.1-1.1,3.3-1.5c0.6-0.2,1.3-0.1,1.9,0.1c0.9,0.6,2.2,0.9,1.8,2.4C158.8,267.3,156.9,267.7,155,268.2z"/>
	<path class="st11" d="M203.8,244.1c0-4.4,0-8.7,0-13.1c0.2-0.5,0.5-0.6,0.8-0.1c0.1,0.3,0.2,0.5,0.1,0.8c1,2.9-0.1,6,0.8,8.9
		c0.1,1-0.3,1.8-0.8,2.5C204.4,243.5,204.1,243.8,203.8,244.1z"/>
	<path class="st12" d="M204.6,241c0-3.1,0.1-6.1,0.1-9.2c1.8,1.4,1,3.4,0.9,5.1c-0.2,2.7,1,3.5,3.4,3.2c-0.4,0.3-0.8,0.7-1.2,1
		C206.8,241.7,205.7,241.9,204.6,241z"/>
	<path class="st13" d="M197.8,249.3c-1.2,1.2-2.3,2.4-4.1,2.6c-0.7-0.2-1.3-0.7-1.3-1.5c0.9-2.1,2.4-3,4.7-2.8
		C197.8,247.9,198.3,248.4,197.8,249.3z"/>
	<path class="st14" d="M197.8,249.3c-0.4-0.4-0.8-0.9-1.2-1.3c0.4-2.4,1.8-3.2,4.1-3c0.4,0.4,0.7,0.8,1.1,1.2
		C200.8,247.7,199.4,248.6,197.8,249.3z"/>
	<path d="M178.7,260.2c-1.7,0.8-3.3,1.7-5,2.5c-0.6-0.6-0.7-1.4-0.5-2.2c1.4-2,3.2-2.7,5.5-1.8C179,259.3,179,259.8,178.7,260.2z"/>
	<path class="st15" d="M192.4,250.9c0.4,0.3,0.8,0.7,1.3,1c-1.7,1-3.3,2-5,3c-0.4-0.3-0.8-0.7-1.2-1
		C188.2,251.4,189.7,250.2,192.4,250.9z"/>
	<path class="st16" d="M160.6,266.9c-0.6-0.6-1.3-1.2-1.9-1.9c0.4-0.8,1-1.2,1.7-1.7c0.5-0.4,1-0.7,1.7-0.9c0.9,0,1.7,0.1,1.7,1.3
		c0.3,0.9-2.4,1-0.6,2.4C162.3,266.4,161.5,266.7,160.6,266.9z"/>
	<path d="M178.7,260.2c0-0.5-0.1-1-0.1-1.5c0.2-1.2,0.8-1.3,1.8-0.9c0.4,0.3,0.8,0.7,1.2,1C180.5,259.1,180,260.5,178.7,260.2z"/>
	<path d="M173.6,260.9c0,0.6,0,1.3,0,1.9c-0.6,0.1-1.2,0.2-1.8,0.4c-0.7-0.3-1.5-0.6-2.2-0.9C170.6,260.6,171.9,259.9,173.6,260.9z"
		/>
	<path class="st17" d="M204.6,241c1.1,0,2.1,0.1,3.2,0.1c-0.6,1.4-1.7,2-3.1,2.1C204.7,242.5,204.7,241.7,204.6,241z"/>
	<path class="st18" d="M130.6,80.1c0.6-0.1,1.3-0.1,1.9-0.2c10.4-1.5,20.6-4.6,31.3-3.9c4.8,0.3,9.7,0.5,11.3,6.5
		c0.8,5.7-3.4,8.2-6.9,11.2c-3,1.5-5.4,4-8.9,4.5c-5.3,0.8-10.1-1.1-14.9-3c-4.8-1.8-9.7-3.5-14.5-5.1c-1.6-0.7-3.1-1.7-4.9-1.7
		c-1.1,0-2.3,0-3.4-0.1c-1.4-0.1-3.3,0.1-3.8-1.4c-0.7-1.9,1.2-2.7,2.5-3.5c1.4-0.9,3.1-1.2,4.6-2C126.7,80.5,128.8,80.8,130.6,80.1
		z"/>
	<path class="st19" d="M174.5,147c0.9,6.8,4,12.7,7.8,18.3c2.8,4.2,7,7.8,6.2,13.7c-1.1,0.6-1.4-1.8-2.6-0.8c-1.6-1.1-1.7-3-2.4-4.6
		c-1.2-3.7-4.5-5.9-6.3-9.2c-0.5-0.8-0.9-1.5-1.3-2.3c-0.7-1.4-1.4-2.8-2.1-4.1c-0.8-1.6-1.4-3.4-2-5.1c-0.5-1.8-0.5-3.6-1.2-5.4
		c-0.4-1.4-1.3-2.5-1.7-3.8c-0.4-1.2-0.4-2.4,0.3-3.5c2.1-0.7,3.4-1.7,2.7-4.2c-0.5-1.9-0.5-3.9-0.8-5.9c0-0.5,0.1-1,0.3-1.4
		c0.5-0.6,1-1.1,1.9-1c2,1.8,0.2,4.3,1.3,6.3c2.1,2.7,0.8,5.3,0,8C174.1,143.7,174.1,145.3,174.5,147z"/>
	<path class="st20" d="M69.3,253.1c-3.1-1-5.4-3-7.8-5c1-0.4,2.1-0.8,3.1-1.2c1.6-2.6,0.2-5.2,0.2-7.9c-0.1-2.6-0.2-5.3-0.3-7.9
		c0.2-2.5,0.2-4.9,0.7-7.3c0.4-3,0.7-6.1,1.4-9c0.4-1.3,0.8-2.5,1.2-3.8c0.6-0.7,0.3-1.6,0.7-2.4c0.1-1.8,0.7-3.7,0.3-5.5
		c-0.8-1.9,1-3.3,1-5.1c-0.2-2,0.6-3.9,0.1-5.9c-0.4-1.3,0.4-2.1,0.9-3.1c2.1-3.4,2.1-3.4,3.6-1.5c0,3.8-1.7,7.3-1.6,11
		c-0.6,2.1-0.4,4.2-0.4,6.3c-0.6,3,0.1,6.2-1.6,8.9c-0.5,1.1-0.8,2.4-1.2,3.6c-1.7,6.7-1.6,13.4-1.5,20.2c-0.1,5.1,1.4,9.9,2.9,14.6
		C70.8,252.9,70.4,253.6,69.3,253.1z"/>
	<path class="st21" d="M186.5,178.3c1.3-1.6,1.2,0.8,2,0.7c1.1,8,5.6,14.9,7.6,22.6c1.6,6.2,6.3,11.6,5.6,18.4
		c-0.9,0.5-1,1.4-1.2,2.3c-1.2-0.1-1.7-1-2-1.9c-3.1-9.7-7.9-18.7-10.3-28.6c-1.9-3-1.6-6.4-2.4-9.7
		C185.6,180.7,185.5,179.4,186.5,178.3z"/>
	<path class="st22" d="M49.6,157.8c0.1-0.6,0.2-1.2,0.2-1.9c0.1-1.7,0-3.5,0.8-5.1c-0.1-2.2,2.1-3.1,2.9-4.9c1.6-1.3,1.9-3.4,3.2-5
		c2-5,4.8-9.6,7.8-14c1.2-1,1.9-2.7,3.5-3.3c0.8,0.3,1.1,0.8,1.2,1.6c-3.9,6.8-7.1,13.9-11.5,20.3c-1.3,1.9-2.6,3.9-3.6,6
		c-2,3.8-2.5,7.6,1.2,10.8c0.9,0.8,1.6,1.7,1.7,3c-0.5,1.2-1.4,1.4-2.4,0.6c-1.7-0.9-3-2.2-3.9-3.9
		C50.1,160.7,48.6,159.6,49.6,157.8z"/>
	<path class="st23" d="M159.7,97c2.6-1.4,5.3-2.7,7.9-4.1c2.2,1.8,0,2.1-0.9,2.8c-0.6,0.4-1.3,0.8-1.9,1.3c-1.2,1-2.9,1.1-4.1,2.1
		c-1.1,2.4,0.3,3.8,2,5.1c2.6,3.6,4,7.8,6.2,11.7c0.3,1.1-0.2,1.8-1.1,2.4c-0.5,0.1-1,0.1-1.4-0.1c-3.7-5.6-7.1-11.3-9.1-17.8
		C157.4,98.8,158.7,98,159.7,97z"/>
	<path class="st24" d="M94.5,100.9c6.6-3.2,11-9.2,17.1-13.1c0.4,0.3,0.6,0.7,0.7,1.1c0,0.5,0,0.9-0.1,1.3c-0.7,1.7-1.7,3.1-3.1,4.2
		c-1.1,0.7-1.6,1.8-1.9,3.1c-0.5,1.1-1.5,1.7-2.5,2.1c-3.3,0.7-5.8,3.4-9.2,3.9C93.8,103.2,94.6,101.9,94.5,100.9z"/>
	<path class="st25" d="M68.7,125c-0.3-0.3-0.7-0.7-1-1c-0.3-0.2-0.4-0.4-0.3-0.7c0.1-0.2,0.2-0.4,0.3-0.4c1.3-1.3,2.7-2.7,4-4
		c1.4-1,2.8-2,3.9-3.2c0.1-0.6,0.1-1.2,0.2-1.8c0.6-0.5,1.2-0.6,1.9-0.3c0.8,0.6,1.2,1.4,1.3,2.4c0,0.7-0.3,1.3-0.8,1.8
		c-1.7,1.5-1.3,3.5-1.5,5.4c-0.2,1.4-0.6,2.7-1.7,3.7c-0.4,0.2-0.8,0.3-1.2,0.3c-0.1-0.1-0.3-0.2-0.4-0.3c-0.1-0.1-0.1-0.3-0.2-0.4
		c-0.4,0.3-0.4,0.8-0.5,1.2c-0.5,1.2-1.2,2.7-2.8,2.2c-1.4-0.5-0.9-1.9-0.6-3C69.6,126,69.8,125.3,68.7,125z"/>
	<path class="st26" d="M164.6,76.9c-10.9-0.6-21.2,3.9-32.1,3c0.1-0.3,0.2-0.7,0.3-1c2.2-1.1,4.7,0.2,6.9-0.8c2.6,0.4,4.1-3.3,7-2
		c1.6,0.6,3.2-0.4,4.9-0.2c1.2-0.2,2.4-0.6,3.7-0.4c1.8,0,3.7,0,5.5,0C162,76.1,164.1,74.2,164.6,76.9z"/>
	<path class="st27" d="M164.6,76.9c-1.1-1.4-2.7-0.7-4-1c-0.3-0.2-0.3-0.4-0.2-0.6c0.1-0.2,0.2-0.2,0.3-0.2
		c3.7,0.1,7.5-0.6,11.2,0.8c3.5,1.3,4.8,3.5,3.7,7.1c-0.3,0.5-0.6,0.4-0.8,0C173.1,78.1,168.7,77.8,164.6,76.9z"/>
	<path class="st28" d="M74.4,165.2c-1.6,1.9-2.2,4.6-4.6,5.8c-1.8,0.6-3.6,1-5.2-0.3c-0.1-0.5,0.1-1,0.6-1.3
		c4.3-1.1,4.4-4.8,4.8-8.2c0.4-1.4,0.6-2.8,1.4-4c1-0.8,1.7-0.3,2.5,0.4c0.5,0.8,0.4,1.8,0.2,2.7c-0.2,1.1,0.1,2,1.1,2.6
		c0.5,0.5,0.9,1,0.8,1.7C75.6,165.2,75.1,165.6,74.4,165.2z"/>
	<path class="st29" d="M111.7,89c0-0.4-0.1-0.8-0.1-1.2c1.7-1.3,3.5-2.5,5.2-3.8c1.6-0.5,3-1.8,4.8-1.3c0.4,0.4,0.4,0.8,0,1.3
		c-1.1,0.6-2.2,1.3-3.3,1.9c0,0.4,0,0.8,0.1,1.2c2.4,0,4.8,0,7.2,0c0.6,0.7,0.6,1.4,0.1,2.2c-2.5,1.7-5.1-0.1-7.6,0.1
		c-1.5-0.1-2.9,0-4.4,0.3C113,89.7,112.3,89.6,111.7,89z"/>
	<path class="st30" d="M174.7,83c0.3,0,0.6,0,0.8,0c0.9,5-3.1,10.8-8.9,12.8c0.1-1,2.3-1.4,0.9-2.8C170.1,89.8,174.7,88,174.7,83z"
		/>
	<path class="st31" d="M77.8,114c-0.7,0-1.4,0-2,0c0.7-1.5,1.1-3.3,2.8-4.1c2-0.7,4-1.4,6.1-1.7c0.6-0.4,1.2-0.9,1.8-1.3
		c1.2-0.7,2.1-0.5,2.7,0.8c0.1,0.4,0,0.9-0.2,1.3c-0.5,0.7-1.2,1.2-1.8,1.8c-0.3,0.3-0.7,0.5-1.1,0.7c-1.2,0.3-2.5-0.1-3.7,0.4
		C80.7,112.3,79.8,114.4,77.8,114z"/>
	<path class="st32" d="M80.8,174c-0.2-1.7,0.1-3.5-1.2-4.9c-0.4-1,0.2-1.2,0.9-1.4c2.6,1.4,5.4,2.6,6.5,5.8c-0.2,1.1-1,1.9-1.6,2.8
		c-0.4,0.5-0.9,0.9-1.6,1c-0.7-0.2-1.2-0.6-1.6-1.1C81.6,175.6,81.3,174.8,80.8,174z"/>
	<path class="st33" d="M65.8,169.9c-0.4,0-0.7,0-1.1,0.1c-1.4,0.8-2.8,0.6-4.2,0.1c-2-1.3-4.6-1.7-5.9-4c0.8-0.1,1.7-0.2,2.1-1
		C60.3,165.6,63.9,166.1,65.8,169.9z"/>
	<path class="st34" d="M80.6,168c-0.3,0.4-0.6,0.7-1,1.1c-1.9-1.2-3-3.2-5.3-3.9c0.5-0.4,0.9-0.8,1.4-1.2c0.1-0.7,0.5-1.1,1.1-1.4
		c0.4-0.1,0.9-0.1,1.3-0.1c2.2,0.3,3,1.7,3.3,3.7C81.4,166.9,81.2,167.6,80.6,168z"/>
	<path class="st35" d="M168.5,116c-2.4-3.7-4.4-7.6-5.9-11.8c3.4,2.8,4.5,6.9,6.1,10.7c0.3,0.3,0.3,0.6,0.2,0.8
		C168.8,115.9,168.6,116,168.5,116z"/>
	<path class="st36" d="M168.5,116c0.1-0.4,0.1-0.7,0.2-1.1c1.6,2.5,4.1,4.6,3,8c-0.2,0.1-0.4,0.2-0.6,0.2c-2.5-0.9-3.2-3-3.3-5.4
		C168,117.2,168.2,116.6,168.5,116z"/>
	<path class="st37" d="M80.8,174c1.2,0.1,1.9,0.6,1.8,1.9c0,0.9-0.5,1.5-1,2.1c-0.4,0.5-0.7,1-1,1.5c-0.2,0.4-0.4,0.7-0.7,1
		c-0.5,0.5-1,0.8-1.7,0.8c-0.4-0.1-0.8-0.4-1-0.8c-0.2-0.9-0.1-1.8,0.6-2.5C78.7,176.7,79.8,175.4,80.8,174z"/>
	<path class="st38" d="M77.7,178c0,1,0,1.9,0,2.9c0.4,0.3,0.5,0.6,0.5,1.1c-0.2,0.8-0.6,1.6-1.1,2.3c-0.6,0.7-1.3,1.1-2.2,1.1
		c-0.7-0.2-1.1-0.7-1.2-1.4C74.3,181.5,75.6,179.5,77.7,178z"/>
	<path class="st39" d="M88.6,108.8c0-1.4-0.9-1.8-2.1-1.9c1.2-1.9,3.1-2.6,5.2-3c0.5-0.3,0.9-0.3,1.3,0.2
		C93.2,107.3,91.7,108.8,88.6,108.8z"/>
	<path class="st40" d="M174.6,134c-1.9-1.6,0.2-4.5-1.9-6c-1.2-1-1.2-2.4-1.5-3.8c0-0.5,0.2-0.9,0.5-1.2c0,0,0,0,0,0
		C175.2,126,175.2,129.9,174.6,134z"/>
	<path class="st41" d="M66.6,214.8c0.3,3.2,0.1,6.3-1,9.3c-0.3,0.4-0.6,0.3-0.8-0.1C64.3,220.7,64.7,217.6,66.6,214.8z"/>
	<path class="st42" d="M64.8,239c1.6,2.2,0.8,5,1.6,7.5c0.4,1.3-0.9,1.4-1.8,0.4C65.5,244.3,63.3,241.6,64.8,239z"/>
	<path class="st43" d="M73.6,184c0.4,0.4,0.8,0.8,1.1,1.2c0.5,1.1,0.3,1.8-1,2c-2-1.1-1.5,2-3,1.8C70.9,186.8,71.7,185.1,73.6,184z"
		/>
	<path class="st44" d="M60.5,170.1c1.4,0,2.8-0.1,4.2-0.1c1.4,1.7,3.4,0.8,5.1,1C66.3,173.6,63.5,171.3,60.5,170.1z"/>
	<path class="st45" d="M121.6,82.9c-1.6,0.4-3.2,0.8-4.8,1.1c1.8-1.9,4.1-3,6.7-3.2C124.3,82.8,122.5,82.4,121.6,82.9z"/>
	<path class="st46" d="M130.6,80.1c-1.2,1.9-3.4,0.9-5,1.8c-0.7-0.4-1.5-0.8-1-1.8C126.7,80.1,128.6,79,130.6,80.1z"/>
	<path class="st47" d="M69.8,192.1c1.1,2,1.3,3.9-0.1,5.9C67.8,196,69.2,194,69.8,192.1z"/>
	<path class="st48" d="M154.8,75.9c-1.1,0.3-2.1,0.7-3.2,1c-1.2-1-3,0.2-4.2-1c2.2-1.8,4.8-0.7,7.3-0.8c0.3,0.1,0.4,0.3,0.3,0.5
		C154.9,75.8,154.8,75.9,154.8,75.9z"/>
	<path class="st47" d="M64.8,224c0.3,0,0.5,0,0.8,0.1c-0.2,2.4,0.9,4.9-1,7.1c0,0,0.1-0.1,0.1-0.1c-0.7-2.1-0.7-4.2,0-6.2
		C64.6,224.5,64.6,224.3,64.8,224z"/>
	<path class="st36" d="M92.7,104c-0.3,0-0.7-0.1-1-0.1c0.7-1.3,1.5-2.4,2.8-3c1.3,0.6,0.2,1.4,0.1,2C94.7,104.7,93.9,104.6,92.7,104
		z"/>
	<path class="st49" d="M139.7,78.1c-2.1,1.7-4.6,0.6-6.9,0.8C134.9,77,137.4,78.4,139.7,78.1z"/>
	<path class="st50" d="M124.7,80.1c0.3,0.6,0.6,1.2,1,1.8c-1.3,0.7-2.7,1.4-4,2c0-0.4,0-0.8,0-1.1c0.6-0.7,1.3-1.4,1.9-2.1
		C123.7,80.2,124,79.9,124.7,80.1z"/>
	<path class="st51" d="M50.6,150.8c-0.1,1.7,0.7,3.6-0.8,5.1C47.9,153.9,49.4,152.4,50.6,150.8z"/>
	<path class="st40" d="M68.7,208.9c-0.3,0.7-0.6,1.4-0.9,2.1c0.1-2.4-0.9-5,0.8-7.2C69.5,205.5,69.4,207.2,68.7,208.9z"/>
	<path class="st52" d="M84.6,108.2c-1.9,1-3.8,1.8-6.1,1.7C80.3,108.1,82.3,107.6,84.6,108.2z"/>
	<path class="st51" d="M56.7,141c-0.4,2.1-0.9,4.1-3.2,5C54.2,144.1,54.5,142,56.7,141z"/>
	<path class="st53" d="M154.8,75.9c0-0.3-0.1-0.5-0.1-0.8c2,0,4,0,6,0c0,0.3,0,0.6-0.1,0.8C158.6,75.9,156.7,75.9,154.8,75.9z"/>
	<path class="st40" d="M64.6,224.8c0,2.1,0,4.2,0,6.2C63.1,229,63.2,226.9,64.6,224.8z"/>
	<path class="st54" d="M174.5,147c-1.2-1.7-1.3-3.3,0-5C175.4,143.7,175.1,145.3,174.5,147z"/>
	<path class="st55" d="M67.7,123c0,0.3,0,0.7,0,1c-0.8,1.3-1.7,2.5-3.2,2.9C64.7,124.9,66.1,123.9,67.7,123z"/>
	<path class="st56" d="M68.7,208.9c0-1.7-0.1-3.4-0.1-5.1c0-0.3,0-0.5,0.1-0.8C70.1,205,70.2,207,68.7,208.9z"/>
	<path class="st57" d="M75.6,115.8c-0.7,1.9-1.8,3.1-3.9,3.2C72.6,117.4,73.6,116,75.6,115.8z"/>
	<path class="st11" d="M147.4,75.9c1.4,0.3,3-0.5,4.2,1c-1.7-0.1-3.5,0.6-4.9-0.8C146.9,75.9,147.1,75.9,147.4,75.9z"/>
	<path class="st33" d="M49.6,157.8c0.3,1.4,0.7,2.9,1,4.3C49.2,161,47.5,159.8,49.6,157.8z"/>
	<path class="st35" d="M160.7,99.1c0.9-1.5,2.4-2,4.1-2.1C164,98.8,162.3,99,160.7,99.1z"/>
	<path class="st58" d="M203.7,229c-1.5-1.6-1.3-3.2-0.2-4.9c0.1,0.6,0.2,1.2,0.2,1.7C204.3,226.9,204.4,227.9,203.7,229z"/>
	<path class="st59" d="M203.7,229c0-1,0-2.1,0.1-3.1c1.7,1.5,0.8,3.4,0.9,5.2c-0.3,0-0.5,0-0.8,0.1
		C203.7,230.4,203.7,229.7,203.7,229z"/>
	<path class="st8" d="M102.7,267c-4.7-0.3-9.1-1.3-13-4.1c-0.3-0.5-0.2-1,0.3-1.3c4.9,0.2,9.7,0.3,13,4.8
		C102.9,266.5,102.8,266.8,102.7,267z"/>
	<path class="st60" d="M114.7,267.2c-1.3,1.7-3.7,0-5,1.7c-2.6,0.3-4.9-0.3-7-1.9c0,0-0.1,0.1-0.1,0.1c2.1-1.8,4.6-1.5,7-1.5
		C111.4,265.8,113.4,265.4,114.7,267.2z"/>
	<path class="st61" d="M69.3,253.1c0.4-0.3,0.9-0.7,1.3-1c3.3-0.2,5.7,1.3,7.3,4.2c-0.3,0.8-0.7,1.3-1.7,0.8
		C73.6,256.4,71.2,255.3,69.3,253.1z"/>
	<path d="M89.7,261.9c-0.2,0.3-0.2,0.6,0,0.9c-2.5,0.8-4.3-0.6-6-2.1c-0.1-1,0.6-1.3,1.4-1.6C87.2,259.1,89.3,259.1,89.7,261.9z"/>
	<path d="M85,259.8c-0.4,0.3-0.9,0.6-1.3,1c-1.3-0.6-3.1-0.3-4.1-1.7c-0.3-1,0.3-1.4,1-1.8C82.7,257.1,84.4,257.6,85,259.8z"/>
	<path class="st9" d="M81,257.8c-0.5,0.4-0.9,0.9-1.4,1.3c-1.6,0.2-2.4-1-3.4-1.9c0.5-0.4,0.9-0.8,1.4-1.1
		C79.4,255.5,80.5,256.1,81,257.8z"/>
	<path class="st62" d="M453.9,188.7c3.6,0.4,6.8,1.2,9.8,0.9c9.3-0.9,14.8-6.2,16-15.6c1.6-12.6,1.7-25.2,0-37.8
		c-0.9-6.4-5.2-9.9-11.1-10c-5.9,0-11.7,5.2-12.7,11.4c-0.9,5.6,2.8,12.5,8.3,13c7,0.6,7.3,4.3,6.7,9.4c-0.1,1.2,0,2.3,0,3.5
		c0,8.5,0,8-8.3,8.6c-12.4,0.9-25.8-9.4-28.5-24.5c-3.9-21.7,8.7-37.2,25.9-40.9c20.2-4.4,40.6,5.1,42,29.4
		c0.8,13.7,1.1,27.3-0.2,40.9c-2.1,21.5-23.4,36.6-43.8,31.3c-3-0.8-4.2-1.9-4-5C454.1,198.6,453.9,193.7,453.9,188.7z"/>
	<path class="st63" d="M81,257.8c-0.9-1-2-1.5-3.3-1.8c-2.3-1.3-4.7-2.6-7-3.9c-3.6-4.1-3.2-9.3-3.8-14.2c0.7-3.2,0.1-6.4,0.4-9.5
		c0.2-0.5,0.5-0.7,1.1-0.8c1,0.6,1.1,1.4,0.7,2.3c0.7-1-0.3-2.3,0.2-3.5c0.1-1.8,3.5,1.5,2.7-1.7c0-2.3-0.7-4.7,0.1-7
		c0.6-1.2,1.7-1.6,3-1.8c0.7-0.1,1.4,0,2,0c0.5-0.1,1.2-0.5,1-0.8c-3-5.5-2.2-11.6-3.1-17.4c1.2-5,2.8-5.4,7.8-2.1
		c0.4,0.2,0.8,0.5,1.2,0.8c1,0.8,2.1,1.6,3.1,2.6c1.2,1.6,3,2.6,4.4,4c0.3,0.3,0.6,0.7,0.9,1.1c5.2,3.6,11.3,5.2,17.3,6.7
		c1.5,0.4,3.4,0.1,4.3,1.8c0,0.1,0,0.3,0,0.5c-0.1,0.4-0.2,0.6,0,0.6c5.2,0,10.6-1.9,15.2,2.1c0.4,0.7,0.6,1.5,0.8,2.3
		c1.1,5.6,2.7,6.5,8.1,4.6c1.5-0.7,3-1.3,4.1-2.7c0.8-0.9,1.5-2,2.2-3c0.2-0.3,0.5-0.7,0.7-1c0.7-1.4,0.7-2.7-0.3-4
		c-0.3-0.3-0.5-0.7-0.8-1.1c-1-1.8-1.3-3.5,0.4-5.1c2.2-1.6,4.7-2.5,6.9-4.1c0.7-0.5,1.5-0.9,2.2-1.4c1.8-1.1,3.5-2.4,5-4
		c2.9-2.8,5.7-5.7,8.6-8.6c1.3-1.2,2.1-2.6,3.1-4c0.7-1,1.4-2.1,2-3.1c0.8-1.5,1.2-3.1,2-4.6c0.8-1.8,1.3-3.8,3.2-5
		c0.4-0.2,0.9-0.3,1.4-0.3c1.7,0.5,3.2,1.3,3.9,3c0.1,2.2-0.5,4.4-0.3,6.3c0.2-1-0.1-2.5,0.2-3.8c2-0.9,2.1,0.8,2.4,1.9
		c0.5,1.9,1,3.7,2,5.3c0.2,0.4,0.3,0.9,0.3,1.4c-0.5,3-1.1,6-0.7,9.1c0.6,0.6,0.7-0.2,0.9-0.5c0.7-0.8,0.5-2.6,2.4-2
		c1.7,8.1,5.4,15.4,8.2,23.1c0.9,2.6,1.9,5.2,2.8,7.8c0.7,5.8,2.5,11.5,2.1,17.5c-0.2,2.1-0.4,3.8-2,5.3c-1.4,1-2.7,2-4.1,3
		c-1.6,0.7-3.1,1.5-4.2,2.9c-2.1,0.2-3.3,2.1-5,3c-2.6,0.8-4.8,2.4-7.1,3.9c-0.6,0.3-1.2,0.6-1.8,0.9c-1.6,0.7-3.3,1.4-4.9,2.2
		c-1.3,0.4-2.6,0.9-3.9,1.3c-2,0.5-4,1.1-6,1.6c-0.4-1-1.2-0.8-2-0.7c-1.5-0.2-2.8,0.1-4,1.2c-0.8,0.2-1.6,0.5-2.5,0.5
		c-0.4,0-0.9-0.1-1.3-0.2c-1.9-0.5-3.8-0.6-5.7,0.3c-0.6,0.3-1.2,0.6-1.8,0.8c-0.7,0.1-1.3,0.1-1.9-0.2c-1.5-1.2-3.3-2-5.2-2.1
		c-0.9-0.1-1.7-0.3-2.5-0.7c-1.1-0.7-2.1-1.5-3.2-2.1c-1.2-0.9-2.3-1.7-3.6-0.2c-0.3,0.3-0.7,0.6-1,0.8c-2,1-3.8,2.3-5.6,3.5
		c-0.7,0.5-1.5,1-2.3,1.4c-1.1,0.5-2.2,0.9-3.3,0.1c-0.7,0.2-1.4,0.4-2,0.6c-2-0.4-3.9-0.5-5.9,0c-2.4,0.1-4.7,0.2-7.1,0.3
		c-0.2-3.3-3.2-2.2-4.9-2.9c-2.6-1-5.1-2.4-8-2.2c-1.2-1.5-2.9-1.9-4.6-2.1C83.9,258.7,82.5,258.2,81,257.8z"/>
	<path class="st64" d="M137.1,262c0.9,0,1.8,0,2.7,0.1c0.7,0.8,1.4,1.5,2.1,2.3c1.1,1.8,4.2,0.8,4.7,3.3c-2,0.5-4.3-0.1-6.2,1.1
		c-6.5,0-13,0-19.5,0c-0.8-0.4-2.2-0.1-2.3-1.2c-0.1-1.1,1.2-1.2,1.9-1.8c1.5-0.5,2.8-1.6,4.2-2.3c1.6-0.8,2.9-2.4,5-2.1
		c2,0.5,4.1,0.3,6.2,0.1C136.3,261.5,136.7,261.7,137.1,262z"/>
	<path class="st60" d="M120.7,266.2c-1.2,1-1.9,1.9,0.2,2.7c-2.2,0.4-4.3,0.8-3.3-2.7c1-0.4,2-0.8,3-1.1
		C121.2,265.4,121.3,265.8,120.7,266.2z"/>
	<path class="st65" d="M109.7,266.8c2-1.2,3.9-1.2,5.9,0c-0.3,0.1-0.6,0.3-0.9,0.4C113,267.1,111.4,266.9,109.7,266.8z"/>
	<path class="st62" d="M289.7,201.9c-6,0.1-12,0-18,0.2c-2.5,0.1-3.1-0.9-3-3.2c0.1-19.6-0.4-39.3,0.3-58.9
		c0.4-13.1,6.5-23.7,18.8-29.5c12.6-5.9,25.1-5.4,36.9,2.4c11.3,7.5,17.4,21.9,14.7,35c-3.1,15-12.4,24.7-27.1,28.7
		c-10,2.7-11.6,1.1-11.6-9.1c0-1.3,0-2.7,0-4c0.1-4.1-1.7-8.5,5.9-8.5c6.7,0,11.5-7.3,11-13.7c-0.5-7-5.9-12.4-12.8-13.1
		c-6.3-0.6-11.3,3.5-13.2,11c-0.4,1.6-0.6,3.2-0.9,4.9c-0.9,11.9-0.1,23.8-0.4,35.7C290,187.1,290.7,194.5,289.7,201.9z"/>
	<path class="st66" d="M289.7,201.9c0-17.6,0-35.1,0-52.7c0-1.8-0.6-3.7,0.8-5.2c0,18.5,0.1,37,0.1,55.4
		C290.6,200.4,291,201.5,289.7,201.9z"/>
	<path class="st62" d="M416,133.2c-0.5,6.5,1,14.5-1.2,22.4c-4.1,15.1-17.3,23.2-34.3,21.3c-13.2-1.5-23.7-13.7-23.9-28.2
		c-0.2-12,0-24-0.2-36c0-3.1,0.8-4.1,3.9-3.9c4.5,0.3,9,0.3,13.5,0c3.7-0.3,4.9,0.8,4.8,4.6c-0.3,11.3-0.2,22.7,0,34
		c0.1,6.5,5,9.8,10.8,7.5c3.7-1.5,4.5-4.5,4.5-8c0-11,0.2-22-0.1-33c-0.1-4.3,1.3-5.4,5.3-5.1c4.5,0.3,9,0.2,13.5,0
		c2.7-0.1,3.4,0.9,3.4,3.4C415.9,118.8,416,125.3,416,133.2z"/>
	<path class="st67" d="M146.6,267.7c-1.8-1.3-4.6-0.5-6-2.8c1.4-1.2,2.8-0.9,4.2,0.1c0.5,0,1,0,1.6-0.1c1.8,0.3,4.4-1.2,5.1,2
		c0,0,0-0.1,0-0.1C149.9,267.2,148.3,267.5,146.6,267.7z"/>
	<path class="st68" d="M151.6,266.9c-1.2-2-4,0.2-5.1-2c0.4-0.4,0.8-0.8,1.2-1.1c1.5,0.1,3-0.6,4.5,0c1.4,0.6,2.6,1.3,1.5,3.1
		C153,267,152.3,266.9,151.6,266.9z"/>
	<path class="st69" d="M153.7,267c0.1-1.5-1.3-1.9-2-2.8c0.9-1,2-0.7,3-0.3l0,0.4c0.6,0.5,1.5,0.1,2,0.8
		C156.1,266.3,155.1,267,153.7,267z"/>
	<path class="st70" d="M156.6,265c-0.7-0.3-1.3-0.6-2-0.8c1-0.1,2-0.3,3-0.4c1.1-0.6,2.1-0.6,3,0.4c-0.6,0.3-1.3,0.6-1.9,0.9
		C158,265,157.3,265,156.6,265z"/>
	<path class="st71" d="M160.6,264.2c-1-0.1-2-0.3-3-0.4c0.9-2.9,2.5-1.9,4.1-0.7C161.4,263.4,161,263.8,160.6,264.2z"/>
	<path class="st72" d="M159.7,97c0,1.4-0.7,2.3-1.8,3c-0.7,0.1-1.4,0.2-2.2,0.1c-4.1-0.7-8.1-1.6-12-3.3c-3.6-1.4-7.4-2.5-11.1-3.8
		c-1.4-0.6-2.8-1.1-3.4-2.8c-0.1-0.5,0.1-1,0.4-1.4c6.5,1.6,12.7,3.9,18.8,6.4C152.1,96.9,155.8,97.1,159.7,97z"/>
	<path class="st73" d="M129.7,89c0,0.4-0.1,0.9-0.1,1.3c-1.7,0.7-3,0.1-3.9-1.4c0-0.6,0-1.2,0-1.8C127.2,87.1,128.6,87.7,129.7,89z"
		/>
	<path class="st74" d="M171.7,123c-0.1,0.3-0.2,0.6-0.2,0.9c0.7,1.6,0.9,3.3,0.4,5.1c-0.1,0.3-0.1,0.5-0.1,0.8
		c0.2,2.6,1,5.2-0.5,7.6c-0.4,0.2-0.9,0.4-1.4,0.4c-0.7,0-1.4-0.1-2.1-0.2c-0.7,0-1.4,0-2.1-0.2c-1.9-0.8-2.9-2.2-3-4.3
		c-0.1-3.4,1.2-6.6,1.3-10c0.2-2.1-0.7-4.7,2.6-5.2c0.3,0.1,0.6,0.1,1,0C169.5,119.2,169.1,122.2,171.7,123z"/>
	<path class="st75" d="M171.7,147c1.2,1.9,0.9,4.1,1.1,6.2c1.8,5.2-1.2,9.4-2.9,13.9c-2.9,5.8-7,10.8-10.6,16.1
		c-1.2,1.8-2.6,4-5.5,3c-0.9-1.5-0.2-2.9,0.4-4.3c3.8-5.8,9-10.6,11.8-17c1.8-4.1,3.3-8.3,3.4-12.8c0.2-1.7-0.9-3.5,0.2-5.2
		C170.3,146.4,171,146.4,171.7,147z"/>
	<path class="st76" d="M168.7,167c1.4-4.6,4-8.8,4-13.8c1.4,1.3,1.3,3.2,2,4.8c1.2,3.3,2.8,6.6,1.9,10.3c-0.6,1.7-0.6,3.6-2.2,4.8
		c-2.1,0-2.1-1.8-2.4-3.1C171.7,168.1,170.4,167.4,168.7,167z"/>
	<path class="st77" d="M163.6,133.1c0,2.1,1.6,2.9,3.1,3.9c0.1-0.1,0.3-0.2,0.4-0.4c0.2,0,0.4,0,0.5,0.1c0.3,0.2,0.6,0.4,0.9,0.6
		c0.1,0.1,0.3,0.2,0.4,0.3c0.2,0.3,0.4,0.6,0.5,0.9c0.2,0.5,0.4,1,0.4,1.5c0,1.3-0.1,2.6-0.1,3.9c-3,0.5-4.1-2.6-6.4-3.4
		c-1.6-1.3-3.7-2.1-4.3-4.4c0-1.8,1.1-3.1,2.4-4.2C162.6,131.5,163.2,132.2,163.6,133.1z"/>
	<path class="st78" d="M182.8,176.2c-0.1,1.6-0.2,3.1-0.3,4.7c-0.2,0-0.4,0-0.7,0c-0.1-2.6-0.2-5.2-0.4-7.9
		c-1.2-0.8-1.8-2.4-3.4-2.6c-0.4-0.2-0.7-0.5-0.9-0.9c-0.2-1.9-1.2-4,0.5-5.7c2.2,3.1,5.7,5.3,6.7,9.2
		C183.6,173.9,183.8,175.4,182.8,176.2z"/>
	<path class="st79" d="M182.8,176.2c-0.1-1.4-0.5-2.9,1.6-3.2c0.7,1.7,1.4,3.5,2.1,5.2c0.1,1.3,0.2,2.5,0.3,3.8
		c0.4,0.7,0.4,1.4-0.2,2C183.6,182.3,184.2,178.7,182.8,176.2z"/>
	<path class="st80" d="M169.8,140.1c-0.4-0.4-0.7-0.8-1.1-1.3c0.3-0.3,0.4-0.6,0.4-1c0-0.4,0.2-0.7,0.6-0.8c3.9-1.5,1-5,2.1-7.3
		c0.8,3.1,1.8,6.1,1.4,9.3C172.8,142.1,171.3,141,169.8,140.1z"/>
	<path class="st81" d="M163.7,139.9c2.9,0,3.6,3.4,6,4.1c1.3,0.5,1.9,1.6,1.9,3c-0.8,0-1.5,0.1-2.3,0.1c-3.1-0.9-4.5-3.6-6.2-5.9
		C163.2,140.7,163.4,140.3,163.7,139.9z"/>
	<path class="st82" d="M175.6,169c0.3-3.7-0.3-7.3-0.8-10.9c1.3,1.1,1.8,2.5,2,4.2c0.8,2.6,0.2,5.3,0.7,7.9l0.2-0.1
		c0.3,0.2,0.5,0.4,0.4,0.7c-0.1,0.3-0.1,0.4-0.2,0.4l-0.3-0.1C175.2,171.9,175,170.8,175.6,169z"/>
	<path class="st83" d="M177.4,170.1c-1.6-2.5-0.4-5.3-0.7-7.9c0.8,0.3,0.9,0.9,1,1.6C177.1,165.9,178.7,168.1,177.4,170.1z"/>
	<path d="M171.9,128.9c-0.2-1.7-1-3.3-0.4-5.1c1.6,1,0.9,2.7,1.2,4.1C172.4,128.3,172.2,128.6,171.9,128.9z"/>
	<path class="st84" d="M82.9,196.9c-5.3-3.6-5.7-3.5-7.1,1.1c-0.5,3.1-1.8,3.6-3.9,1.1c-0.4-4.1,0.9-7.9,2-11.8c0.3-0.7,0.7-1.3,1-2
		c0.6-0.5,1.2-1,1.8-1.5c0.9,0.5,0.8,1.3,0.8,2.2c0.1,0.7,0.4,0.9,0.1,0.3c-0.3-0.6,0.8-0.4,0.1-0.5c0.4-0.1,0.8-0.1,1.2,0
		c0.3,0.3,0.5,0.6,0.7,1c0.4,1.4,0.9,2.8,1.7,4c0.2,0.4,0.4,0.8,0.5,1.2C82.1,193.6,83.9,194.9,82.9,196.9z"/>
	<path class="st85" d="M71.8,199c1.7,1.2,3.1,0.9,3.9-1.1c1.9,3.6,0.9,7.8,1.8,11.6c0.4,1.8,1.1,3.3,2,4.6c1.2,1.9,0.2,2.6-1.2,3.4
		c-0.1,0-0.3-0.1-0.4-0.2c-0.1-0.1-0.1-0.3-0.2-0.5c-3.2-3.4-5.6-7.1-5.8-12C71.4,203,69.9,201,71.8,199z"/>
	<path class="st86" d="M71.8,204.9c1.9,4,3.9,8,5.8,12c-0.6,0-1.1-0.1-1.7-0.1c-1.1-0.2-1.7-1.8-2.8-1.3c-0.7,0.3-1.1,1.5-0.5,2.5
		c-0.6,2.3,1.5,4.7,0,7c-0.4,0.3-0.8,0.3-1.2,0.1c-0.8-0.9-1.1-2-1.5-3c-0.5-1.2-1.1-2.5-0.8-3.9c0.6-1.6,1.1-3.3,0.7-5
		C72.3,210.9,69.4,207.2,71.8,204.9z"/>
	<path class="st87" d="M69.9,218c-1,1.6,1.2,2.6,0.7,4c-0.1,0.6-0.3,1.2-0.6,1.8c-1,1.3-1.4,3-2.3,4.3c-0.6,3.3,0.7,6.7-0.9,9.9
		c-0.2-7.4-0.4-14.7,1.9-21.9C70.6,215.7,70,217,69.9,218z"/>
	<path class="st88" d="M69.9,218c-0.2-0.8,0.1-1.8-1.2-1.9c0.3-1,0.7-2,1-3C71.2,214.6,71,216.3,69.9,218z"/>
	<path class="st89" d="M186.6,184c0.1-0.7,0.2-1.4,0.2-2c1.7,2.9,0.2,6.7,2.7,9.3c-1.5,0.4-0.7,2.3-1.8,2.9
		c-1.1-0.6-1.4-1.7-1.8-2.7c-0.1-2.2,0-4.4,0.7-6.5C186.8,184.7,186.8,184.3,186.6,184z"/>
	<path class="st90" d="M65.8,169.9c-3-1.6-6.1-3.3-9.1-4.9c-6.9-5.7-7.6-7.8-2.7-15.4c5.2-8.1,8.9-17,14.7-24.6
		c0.8-0.5,1.7-0.9,2.8-1.6c-0.6,2.2-1,4-1.6,6.1c1.9-0.9,2.1-2.5,2.7-3.8c0.2-0.6,0.4-1.5,1-0.2c0.2,0.4,0.1,1,0.1,1.5
		c1.3,1.6,0,3.6,0.8,5.2c0.2,1,0.1,1.9-0.3,2.8c-0.6,1-1.4,1.9-1.8,3.1c-2.2,7.5-0.8,15.3-1.6,23C70.2,164.6,72.3,169.7,65.8,169.9z
		"/>
	<path class="st63" d="M166.7,117.8c-1.8,1.3-1,3.6-2.1,5.2c0.2,1.9-1,1.6-2,1.1c-1-0.5-1.8-1.4-2.8-1.8c-2.4-2.5-4.4-5.3-5.9-8.4
		c-0.4-1.1-0.4-2.3-0.1-3.4c0.3-1.4,0.9-2.8-0.3-4.1c-0.6-0.5-1.2-0.9-1.9-0.9c-0.6,0.1-1.1,0.2-1.7,0.3c-0.6,0.1-1.2,0.2-1.9,0.1
		c-1.9-0.3-3.8-0.9-5.8-0.6c-1.4,0.2-2.7,0.5-3.9-0.4c-0.8-0.4-1.5-1.3-2.5-1.2c0,0,0.4,0.6,0.2,1c-3.6,2.6-7.6,4.5-10.9,7.6
		c-1.4,0.7-2.9,0.7-4.4,1.1c-0.6,0.2-0.2-0.4-0.5,0.1c-0.2,0.4-0.5,0.3,0.1,0.2c0.8,0,1.5,0.3,2.3,0.7c0.4,0.3,0.7,0.6,0.9,1
		c0.5,2.3,1.6,4.7-0.5,6.8c-1.9,0.9-3.2-0.4-4.7-1.1c-1-0.5-1.8-1.3-3.1-1.5c-0.4,1.3,0.1,2.9-1.3,3.8c-1.5,0.9-3.1,1.4-4.4-0.3
		c-0.7-1.5-1.7-2.7-2.5-4.1c-0.6-1.8-0.2-3.8-0.6-5.7c-0.1-0.4-0.3-0.7-0.4-1c0,0-0.4-0.3-0.4-0.3s-0.5,0.1-0.5,0.2
		c-0.4,1-0.4,2.1-1.3,2.8c-2,0.7-4-0.3-6,0.2c0,0,0.1,0.4,0.1,0.4s0.4,0.1,0.4,0c2,0,3.8,0.1,5.6,1c1.3,0.7,2.4,1.5,3.1,2.8
		c0.9,1.1,1.7,2.2,2.2,3.6c0.7,1.3,1,2.7,0.9,4.1c-0.2,0.8-0.8,1.2-1.5,1.5c-1.2,0.4-2.4,0.4-3.5,0.2c-1.3-0.3-2.9-1.1-2.5,1.5
		c0.1,0.9-0.1,1.9-0.8,2.6c-2.6,1.2-4.6-1.1-7-1.1c-0.4-0.1-0.7-0.3-1.1-0.5c-0.2-0.2-0.4-0.7-0.4-0.7c-0.4,0.1-0.2,0.6-0.4,0.8
		c-0.6,0.9-1.3,1.6-2.4,2c-1,0.2-1.8-0.1-2.4-0.9c-0.1-2.1-2.5-2.1-3.2-3.6c-0.9-4.1-0.6-8,1.7-11.7c1.1-1.4,3.1-2.4,2.5-4.8
		c-0.2-0.8-0.5-1.6-0.7-2.4c-0.1-0.4,0.1-0.8,0.4-1.1c0,0-0.1-0.3-0.1-0.3c0.9-2,4.2-1.9,4.1-4.8c0.8-0.1,1.7,0,1.9-1
		c3.6-0.6,5.8-4.4,9.7-4.1c0.9-0.4,1.7-0.6,2.4,0.2c0.7,1.4-0.2,2.1-1.2,2.8c-0.3,0.2-0.3,0.5,0,0.7c2,0.3,3.9,0,5.9-0.3
		c0.5-0.1,0.9-0.1,1.4,0c2.1,0.2,4.2,1,6.2-0.4c-1.2-3-4.7-2-6.6-3.7c-0.4-0.6-0.5-1.2-0.3-1.9c0.7-1,1.2-2.2,1.4-3.5
		c0.3-0.3,0.7-0.5,1.1-0.7c1.2-0.7,2.8,0.4,3.7-1.1c-0.1-0.3-0.1-0.7,0-1c0.8-1-1.3-1-0.6-1.9c2.8-1,5.2,1.6,7.9,0.7
		c1.3,0.5,2.6,1,3.9,1.4c1,0.6,2,1.3,3,1.9c3.2,1.7,6.5,2.9,9.8,4.2c4.5,2.2,9.2,3.5,14.3,2.7c0.7-0.1,1,0.4,1.1,0.9
		C160.8,106,163.8,111.9,166.7,117.8z"/>
	<path class="st91" d="M113.8,93c1.9,1.9,2,3.1-1.2,3.2c-1.8,1.6-3.7,2.6-6,0.9c-1.2-2.2-0.2-3,1.9-3.1
		C110.4,93.8,111.4,89.9,113.8,93z"/>
	<path class="st92" d="M106.7,97.1c2-0.3,4-0.6,6-0.9c0,0.6,0,1.2,0,1.8c-1.4,2.5-3.2,3.7-6,2c-0.5-0.8-1.4-1-2.3-1
		C105.2,98.3,105.9,97.7,106.7,97.1z"/>
	<path class="st93" d="M113.8,93c-2.1-1.6-3.3,1.5-5.2,1c1-1.4,1.9-2.7,2.9-4.1c1.3-0.6,2.3,0.1,3.4,0.8c0.4,0.7,0.4,1.4-0.1,2.1
		C114.5,93,114.2,93,113.8,93z"/>
	<path class="st94" d="M115,91.2c-1.2-0.4-2.3-0.8-3.5-1.2c0.1-0.3,0.1-0.6,0.2-0.9c0.7,0,1.4,0,2.2,0c1.9-1,3.3,0.2,4.8,1
		c0,0.3,0,0.6,0,0.8C117.6,92.2,116.3,92.1,115,91.2z"/>
	<path class="st95" d="M73.5,135c0-1,0.1-2,0.1-3.1c-0.2-0.2-0.3-0.5-0.3-0.7c0-0.3,0.1-0.4,0.2-0.4c2-0.3,0.9-1.6,0.9-2.6
		c-0.2-0.4-0.1-0.9,0.1-1.3c0.4-1.3,0.9-2.7,1.3-4c1.4-0.7,2.9-1.3,4.2,0.3c0.3,1.4-0.4,2.9,0.3,4.4c1.1,0.9,3,0.9,3.4,2.8
		c0.4,2.4,0.8,4.8,0.8,7.2c-0.4,2.1-1.2,4.2-1.7,6.3c-0.3,1.2-0.7,2.3-0.7,3.5c-0.1,1.4-0.1,2.8-0.6,4.2c1,1.3-4.8,1.6-0.4,3.3
		c0.4,0.6,0.6,1.2,0.7,1.9c-0.6,2.5,0.9,4.7,1,7.2c0,0.7-0.2,1.4-0.6,2c-0.4,0.3-0.8,0.4-1.3,0c-0.8-1.3-1.8-2.2-3.1-2.8
		c-1-1.1-1.6-2.4-2.8-3.3c-0.3-0.3-0.5-0.7-0.7-1.1c-0.1-1.1-0.7-2.1-1-3.2c-0.9-1.4-2.1-2.7-2.4-4.4c-0.2-3.4-0.4-6.9,0.8-10.2
		C71.8,138.8,71.5,136.6,73.5,135z"/>
	<path class="st96" d="M77.7,117.2c0.3-0.4,0.6-0.7,0.8-1.1c1.4-1.3,4.5,0.4,4.8-2.8c1-1.3,2.1-2.5,3.8-1c0.6,4.1-1.1,7.4-3.4,10.6
		C78.2,122.8,77,121.6,77.7,117.2z"/>
	<path class="st97" d="M77.7,117.2c0,4.2,2.7,5,6.2,4.9c0.9,1.1,0.9,2.3,0.5,3.5c-2.6,3.3-3.3,1-4-1.3c-0.1-0.4-0.3-0.8-0.6-1.2
		c-1.3-0.1-2.6,1-3.9,0C75.9,120.9,74.5,118.3,77.7,117.2z"/>
	<path class="st98" d="M83.7,114.1c0,5.1-3.2,2-5.2,2c-1-0.4-0.7-1.3-0.7-2c1.9-0.7,2.3-3.6,4.9-3.1C85.2,111.3,83,113.1,83.7,114.1
		z"/>
	<path class="st99" d="M73.9,131c-0.1,0.3-0.2,0.6-0.3,1c-2-1.7,0.3-3.3,0.1-5c0.3,0,0.5,0,0.8,0c0.1,0.3,0.2,0.7,0.3,1
		C75.5,129.3,74.9,130.2,73.9,131z"/>
	<path class="st100" d="M72.5,140.9c-1.1,3.6-0.6,7.2-0.6,10.9c0.2,1.7,1.3,3.4-0.2,5c-0.2,1.5,0.4,3.1-0.9,4.3
		c-1.5-8.1-1.9-16.1,0.9-24C72.8,138.1,71.6,139.8,72.5,140.9z"/>
	<path class="st101" d="M71.7,156.8c0.1-1.7,0.1-3.3,0.2-5c0.9,1.1,1.8,2.2,2.7,3.3c-0.8,0.8,0.1,2.1-0.9,2.8
		C73,157.5,72.3,157.1,71.7,156.8z"/>
	<path class="st102" d="M74.7,158.9c0.3,0.1,0.5,0.1,0.8,0.1c0.9,1.1,2.1,2.1,1.3,3.8c-0.3,0.4-0.7,0.8-1,1.2
		c-0.4-0.4-0.8-0.8-1.1-1.2c-0.8-0.8-0.9-1.7-0.7-2.7C74.1,159.6,74.3,159.2,74.7,158.9z"/>
	<path class="st103" d="M74.6,160.2c0,0.9,0,1.8,0,2.7c-3.6,1.2-1.2-1.8-1.9-2.6C73.4,159.4,74,159.4,74.6,160.2z"/>
	<path class="st104" d="M74.6,160.2c-0.6,0-1.3,0-1.9,0c0.3-0.7,0.6-1.5,0.9-2.3c0.2-1-0.4-2.2,0.9-2.8c0.1,1.3,0.1,2.5,0.2,3.8
		C74.7,159.3,74.6,159.7,74.6,160.2z"/>
	<path class="st105" d="M118.7,90c-1.6-0.3-3.2-0.6-4.8-1c1.1-1,2.5-1,3.9-0.9C117.6,89,119.8,88.6,118.7,90z"/>
	<path class="st52" d="M83.7,114.1c-2.4-0.4,0-2.3-1-3.1c1.3-1.8,2.8,0.8,4.1-0.1c0.1,0.2,0.2,0.3,0.2,0.5c0,0.4-0.2,0.7-0.5,0.9
		C84.8,111.6,84.5,113.3,83.7,114.1z"/>
	<path class="st106" d="M88.7,109.1c0,0.3,0,0.6,0,0.9c0.3,0.2,0.4,0.5,0.3,0.8c0,0.3-0.1,0.4-0.2,0.4c-0.2,0.1-0.4,0.1-0.6,0.2
		c-0.2-0.1-0.4-0.1-0.7-0.2c-0.3-0.4-0.5-0.8-0.6-1.2C87.1,108.8,88,109.2,88.7,109.1z"/>
	<path class="st107" d="M86.9,110c0.3,0.2,0.5,0.4,0.8,0.6c-0.2,0.5-0.5,0.6-0.9,0.2c0,0,0,0,0,0C86.7,110.5,86.7,110.3,86.9,110z"
		/>
	<path class="st108" d="M83.6,176.8c0.7,0.2,1-0.2,1.2-0.8c0.4-0.2,0.8-0.2,1.2,0.1c0.4,0.5,0.6,1.2,0.7,1.8
		c0.1,1.5,0.7,2.8,1.7,3.9c2,2.1,4.6,3.3,6.5,5.5c0.7,0.6,1.2,1.3,1.7,2.1c0.7,1.2,1.7,2.3,1.8,3.8c0,1-0.4,1.8-1.3,2.3
		c-0.6,0.3-1.3,0.3-2,0.2c-1.4-0.4-2.5-1.5-4-1.4c-1.3-0.5-1.8-1.7-2.5-2.8c-1.2-2-2.7-3.9-3.9-5.9c-0.6-1.2-1.2-2.4-1.9-3.5
		c-0.4-0.8-0.8-1.7-1-2.6C81.9,178.1,81.8,176.8,83.6,176.8z"/>
	<path class="st109" d="M80.8,165.9c0.3,0,0.6,0,0.9,0c1.4-0.7,1.5-1.7,1-3.1c-0.2-1.6-1.2-3.1-0.4-4.7c3.5-1.2,4.7,1.2,5.8,3.7
		c0.1,0.4,0.1,0.9,0.1,1.4c-0.3,2.1,0.5,3.8,1.8,5.4c0.2,0.4,0.4,0.8,0.5,1.3c0.1,0.7,0,1.4-0.2,2c-0.3,0.6-0.7,1.2-1.3,1.6
		c-0.8,0.5-1.6,1.1-2.5,0.3c-0.9-3-4.6-3.2-5.8-5.9C80.7,167.3,80.7,166.6,80.8,165.9z"/>
	<path class="st110" d="M86.4,173.9c0.7-0.3,1.4-0.6,2.1-0.9c1.7,0.7,2.1,1.8,1.1,3.3c-1.4,0.9-2.7,0.7-4-0.3c-0.3,0-0.5,0-0.8,0
		C84.6,174.7,85,173.9,86.4,173.9z"/>
	<path class="st111" d="M83.6,176.8c-1.4,0.8-0.9,2.1-0.9,3.2c-0.3,0.3-0.7,0.4-1.1,0.2c-0.7-0.6-0.9-1.3-0.9-2.2
		c0.6-0.7,1.2-1.4,1.9-2.1C82.9,176.2,83.3,176.5,83.6,176.8z"/>
	<path class="st112" d="M76.8,162.8c-0.4-1.3-0.8-2.5-1.3-3.8c2.1,0.7,2.2,2.3,2.1,4.1C77.3,163,77.1,162.9,76.8,162.8z"/>
	<path class="st113" d="M80.7,178c0.8,0.4,1,1.2,1,2c0.7,0.6,1,1.6,2,1.9c0.6,1,1.2,2.1,1.8,3.1c-0.3,0.7,0,1.7-0.9,2.3
		c-0.4,0.1-0.9,0.1-1.3-0.1c-1-0.5-1.8-1.3-2.5-2.2c-1.7-1.7-0.7-3.9-1-5.9C80.1,178.8,80.4,178.4,80.7,178z"/>
	<path class="st114" d="M79.8,179.2c1.8,1.5,0.2,4.2,1.9,5.8c0.3,1.1-0.4,1.4-1.3,1.6c-0.6,0-1-0.3-1.3-0.9
		c-1.2-1.9-0.4-3.8,0.4-5.6C79.6,179.7,79.7,179.4,79.8,179.2z"/>
	<path class="st115" d="M79.6,180c0.1,2,0.1,4,0.2,5.9c-0.4,0.4-0.7,0.4-1.2,0.1l-0.1,0.1c-1.1-1.8-0.8-3.5,0.2-5.2
		C79,180.7,79.3,180.3,79.6,180z"/>
	<path class="st116" d="M78.7,181c-0.1,1.7-0.1,3.4-0.2,5.2c-0.3-0.1-0.5-0.2-0.8-0.3c-0.9-1.3-0.7-2.5-0.1-3.8c0-0.4,0-0.8,0-1.1
		C78,180.9,78.3,181,78.7,181z"/>
	<path class="st117" d="M77.7,182.1c0,1.3,0,2.5,0.1,3.8c-0.9,1.5-0.9,1.5-1.1-0.8c0-0.5-0.1-0.9-0.1-1.4
		C76.7,183,76.6,182.2,77.7,182.1z"/>
	<path class="st118" d="M113.8,212.9c-5.7-1.4-11.4-2.6-16.7-5c-2.3-1-5.2-1.3-6.3-4.1c1.3-0.9,2.7-0.1,4,0c0.7,0.1,1.3,0.3,1.9,0.7
		c1.5,1.3,3.2,2.1,5.2,1.9c0.4,0.1,0.8,0.2,1.2,0.4c1.6,1.2,3.4,2,5.4,1.8c1-0.1,1.9-0.2,2.8,0.1c3.3,1.7,7.1,0.4,10.5,1.4
		c1.2,0.9,4.2,0.2,3.3,3.2C121.4,214,117.6,214.1,113.8,212.9z"/>
	<path class="st119" d="M138.7,223.2c-6.7,3.8-9.9,1.5-10.2-7.2c-0.4-0.6-0.5-1.3-0.1-1.9c3.4-0.3,1.6,3.8,3.8,4.4
		c1.1,0.6,2,1.5,3,2.3C136.2,221.8,137.9,221.8,138.7,223.2z"/>
	<path class="st120" d="M144.7,206.1c-1.9,1.5,0.3,3.4-0.5,5c0,0.5-0.2,0.9-0.5,1.2c-0.6,0.3-1.3,0.4-1.9,0.1
		c-0.8-0.6-0.6-1.5-0.9-2.3c-1.1-2.3-3.3-1.3-5.1-1.8c-0.4-0.3-0.7-0.6-0.8-1c-0.2-0.7-0.2-1.4,0.1-2c0.3-0.6,0.8-1.1,1.4-1.4
		c1-0.3,2.1-0.5,3.1-1.1c0.4-0.1,0.9-0.2,1.3-0.1c1.3,0.8,2.2,2.2,3.6,3C144.6,205.7,144.7,205.9,144.7,206.1z"/>
	<path class="st121" d="M89,249.8c-6.4-0.4-9.4-3.4-8.2-8c0.4-0.2,0.9-0.2,1.3,0c1.9,1.3,3.3,3.1,4.9,4.6
		C87.9,247.4,89.1,248.2,89,249.8z"/>
	<path class="st122" d="M128.9,214.1c-0.1,0.6-0.2,1.2-0.3,1.8c-4.9-2.8-10.5-0.9-15.6-2c-0.1,0-0.2-0.3-0.2-0.3
		c0.4-0.2,0.7-0.4,1.1-0.7c3.9,0,7.9,0,11.8,0C127.1,212.1,128.5,211.8,128.9,214.1z"/>
	<path class="st123" d="M167.7,188.1c-2.4,3.6-5.4,6.6-9,9c-0.8-0.2-1.2-0.7-1.4-1.5c2.7-3.5,5.4-7,9.5-9.1
		C167.6,186.9,168.2,187.2,167.7,188.1z"/>
	<path class="st124" d="M67.8,228.1c-0.2-2,0.3-3.8,1.9-5.1c1,0.3,1.3,1.4,2.1,1.9c0.3,0.1,0.6,0.1,0.9,0.1c0.5,1.2,2,2.8,0.1,3.7
		c-2.3,1.1-1.8-2.1-3.1-2.7c-0.7,0.5-0.3,1.6-1.1,2l-0.4,0L67.8,228.1z"/>
	<path class="st125" d="M72.7,218c-1.5-1.7-0.7-3.7-1.2-6.2c2.7,1.3,3.5,3.2,4.5,5C74.8,217,73.5,216.8,72.7,218z"/>
	<path class="st126" d="M138.7,223.2c-1.5-0.3-3.8,0.6-4-2.2c0.2-0.2,0.3-0.3,0.5-0.5c2-0.9,4.2-0.9,6.3-1.1
		c0.5,0.1,0.9,0.3,1.2,0.7C142.4,222.4,140.4,222.6,138.7,223.2z"/>
	<path class="st127" d="M86.6,247c-2.1-1.2-3.9-2.8-4.9-5.1c-0.5-0.9,0.1-1.2,0.9-1.5c0.5,0,0.9,0.3,1,0.8c1.4,1.6,2.8,3.1,4.1,4.7
		C87.9,246.9,87.6,247.4,86.6,247z"/>
	<path class="st128" d="M186.7,185c0,2.4,0.1,4.7,0.1,7.1c0.2,1.2,1.3,2.7-1.1,3C184.1,191.5,184.9,188.2,186.7,185z"/>
	<path class="st129" d="M151.9,202.1c-2,1.9-4.3,3.4-7.2,4c0,0-0.1-0.1-0.1-0.1c-0.7-4.5,3.2-4.1,5.6-5.4
		C151.1,200.8,151.7,201.3,151.9,202.1z"/>
	<path class="st130" d="M86.6,247c0.4-0.4,0.8-0.7,1.1-1.1c2.4,0.6,3.7,2.3,4.7,4.5c-1.5,1.5-2.2-0.8-3.3-0.7
		C88.2,248.9,87.4,248,86.6,247z"/>
	<path class="st131" d="M175.6,169c0.1,1.2,0.6,2,1.9,2c-0.9,1.7-1.7,3.4-2.6,5.2c-0.5,0.4-1,0.3-1.5,0c-0.6-1.1-0.6-2.1,0.3-3
		C174.3,171.7,175,170.3,175.6,169z"/>
	<path class="st132" d="M157.9,196c0.3,0.4,0.6,0.8,0.9,1.1c-1.2,1.9-3.1,3-5.1,3.9c-0.8-0.2-1.2-0.7-1.3-1.5
		C153.7,197.6,154.9,195.5,157.9,196z"/>
	<path class="st133" d="M129.7,262.1c-1.6,0.7-3.3,1.3-4.9,2c-0.8,0.5-1.6,0.6-2.3-0.1c1.8-1.7,3.7-3.1,6.2-3.8
		c0.5,0.2,1,0.3,1.3,0.9c0,0.2,0,0.4,0,0.5C129.9,261.8,129.8,261.9,129.7,262.1z"/>
	<path class="st134" d="M179.8,217.6c-0.6,2.5-2.7,2.8-4.9,4C176.1,217.8,176.1,217.8,179.8,217.6z"/>
	<path class="st135" d="M144.9,265c-1.4,0-2.8,0-4.2-0.1c-0.3-1-0.6-1.9-0.9-2.9C141.7,262.7,144.4,261.9,144.9,265z"/>
	<path class="st136" d="M82.9,196.9c-0.3-1.9-2.4-3-2.1-5.1c0.4-0.3,0.9-0.4,1.4-0.3c1.9,1,2.9,2.5,3.1,4.6
		c-0.3,0.7-0.6,1.3-1.5,0.9C83.3,197.1,83.1,197,82.9,196.9z"/>
	<path class="st137" d="M167.7,188.1c-0.3-0.4-0.6-0.7-0.9-1.1c-0.9-2.7,0.7-3.8,2.8-4.5c0.8,0.2,1.5,0.5,1,1.6
		C170.2,185.8,169.3,187.2,167.7,188.1z"/>
	<path class="st138" d="M129.9,261.2c-0.4-0.3-0.8-0.6-1.2-1c0.3-0.1,0.6-0.3,0.9-0.4c1.3-0.9,2.7-0.8,4,0c1.5,0.2,3,0.3,3.4,2.2
		c-0.5,0-1,0.1-1.5,0.1c-0.4,0.2-0.8,0.3-1.3,0.1C132.9,261.7,131.2,262.4,129.9,261.2z"/>
	<path class="st139" d="M90.5,203.1c-1.7-1-4-1.4-3.9-4.1c0.2-0.1,0.4-0.3,0.6-0.4c2.6-0.1,3.9,1.5,4.7,3.7
		C91.8,203,91.5,203.6,90.5,203.1z"/>
	<path class="st140" d="M143.7,211.6c0.1-0.3,0.3-0.5,0.6-0.5c0.4,0,0.8,0,1.1,0c1.3,1.9,1,3.9,0.2,5.9c-0.3,0.1-0.5,0.2-0.8,0.2
		c-1.1-0.5-1.6-1.5-1.9-2.5C142.6,213.5,143,212.5,143.7,211.6z"/>
	<path class="st141" d="M173.6,176c0.5,0,0.9,0.1,1.4,0.1c-0.2,1.9-0.9,3.5-2.3,4.9c-0.8-0.1-1.3-0.6-1.6-1.3
		C171.1,177.8,171.2,176.2,173.6,176z"/>
	<path class="st142" d="M133.7,259.8c-1.3,0-2.7,0-4,0c-0.3-0.8-0.7-1.7,0.6-1.8C131.7,258,133.4,257.6,133.7,259.8z"/>
	<path class="st143" d="M143.9,215.1c0.3,0.7,0.6,1.4,0.9,2.2c-0.1,1.4-0.6,2.5-2.1,2.8c-0.4,0-0.9-0.1-1.3-0.1
		C141.1,217.8,141.4,215.9,143.9,215.1z"/>
	<path class="st144" d="M177.8,171.1c-0.1-0.4-0.1-0.7-0.2-1.1c3.1-1.3,3.2,1.2,3.8,3C179.9,173.1,179.1,171.6,177.8,171.1z"/>
	<path class="st145" d="M154.7,263.8c-1,0.1-2,0.2-3,0.3c-1.3-0.6-2.8,1.4-4-0.3C150,262.5,152.4,262.6,154.7,263.8z"/>
	<path class="st146" d="M180.8,215.9c-0.1-2.6,0.5-3.9,2.2-5C183.9,213.1,182.9,214.2,180.8,215.9z"/>
	<path class="st147" d="M90.5,203.1c0.4-0.3,0.8-0.7,1.1-1c2.1-0.3,3.8-0.2,3,2.7c-1.3-0.3-2.6-0.7-3.8-1
		C90.7,203.6,90.6,203.3,90.5,203.1z"/>
	<path class="st148" d="M171.6,180c0.3,0.3,0.7,0.6,1,1c-0.1,1.4-0.8,2.4-1.9,3.2c-0.3-0.4-0.7-0.7-1-1.1
		C169.2,181.2,169.5,180,171.6,180z"/>
	<path class="st149" d="M185.7,195c1.4-0.6,0.6-2,1.1-3c0.3,0.7,0.7,1.4,1,2.2c-0.1,1,0.6,2.5-1.1,2.6
		C185.5,196.9,185.7,195.8,185.7,195z"/>
	<path class="st150" d="M83.5,241.3c-0.3-0.1-0.6-0.2-0.9-0.3c-1-0.6-1.9-1.2-1.2-2.6c1.1-1.9,1.7,1.1,2.7,0.2
		C84.8,239.7,83.7,240.4,83.5,241.3z"/>
	<path class="st151" d="M145.6,217c-0.1-2-0.2-4-0.2-5.9C147.4,213,147.1,215,145.6,217z"/>
	<path class="st152" d="M68.6,228c0.1-0.8,0.3-1.6,1.1-2c0,1.6,0,3.3,0,5.1C68.1,230.3,68.9,229,68.6,228z"/>
	<path class="st153" d="M81.5,238.4c0.4,0.9,0.8,1.7,1.2,2.6c-0.3,0.3-0.7,0.7-1,1c-0.3-0.1-0.6-0.2-0.9-0.2
		C80.8,240.6,78.5,239,81.5,238.4z"/>
	<path class="st154" d="M83.6,197c0.3-0.3,0.7-0.6,1-0.9c2.4-0.3,2.9,0.8,2,2.8c0,0,0,0,0,0C85,199.3,84.2,198.4,83.6,197z"/>
	<path class="st155" d="M122.6,264c0.8,0,1.5,0.1,2.3,0.1c-1.1,1.3-2.5,1.9-4.1,2.1c0-0.4,0-0.8-0.1-1.1
		C121.3,264.7,121.9,264.3,122.6,264z"/>
	<path class="st156" d="M152.6,200c0.4,0.4,0.7,0.7,1.1,1.1c-0.6,0.4-1.2,0.7-1.8,1.1c-0.4-0.3-0.8-0.6-1.2-0.9
		C150.9,200.2,151.5,199.6,152.6,200z"/>
	<path class="st157" d="M134.8,261.8c0.3,0,0.6,0.1,0.9,0.3c-2,1.3-3.9,1.4-5.9,0c0,0-0.1-0.1-0.1-0.1
		C131.3,261.2,133,261.4,134.8,261.8z"/>
	<path class="st158" d="M156.7,99.1c-5.4,1.9-10.4,1.1-15.1-2c-0.1-2,1-1.6,2.2-1.1C148.1,96.9,152.2,98.9,156.7,99.1z"/>
	<path class="st159" d="M143.8,95.9c-0.9,0.1-1.7,0.2-2.2,1.1c-3.2-1.2-6.5-2.3-9-4.9C136.6,92.7,140.2,94.3,143.8,95.9z"/>
	<path class="st160" d="M160.6,122.1c1.9-2.2,2.1,3.5,4.1,0.9c1.9,3.6-1.2,6.7-1.1,10.1c-0.6-0.4-1.2-0.8-1.8-1.2
		c-0.1-0.2-0.2-0.4-0.4-0.6c0.1-2.5-0.1-5-1.3-7.3C160,123.4,160.1,122.7,160.6,122.1z"/>
	<path class="st161" d="M167.7,136c0.3,0.3,0.6,0.6,0.9,0.9c-0.2,0.2-0.3,0.3-0.5,0.5c-0.2-0.1-0.4-0.3-0.5-0.4l0.1,0.1
		c-0.3-0.2-0.3-0.5-0.3-0.7C167.6,136.1,167.7,136,167.7,136z"/>
	<path class="st162" d="M167.7,136c0,0.3,0,0.7,0,1c-0.3,0-0.7,0-1,0C166.6,136.1,166.9,135.8,167.7,136z"/>
	<path class="st163" d="M169.7,137c0,0.4-0.1,0.7-0.1,1.1c-0.4,0.2-0.7,0.2-1-0.2l0.1,0.1c-0.2-0.2-0.3-0.4-0.3-0.6
		c0-0.2,0.1-0.3,0.2-0.3c0,0,0.1-0.1,0.1-0.1C169,137,169.4,137,169.7,137z"/>
	<path class="st18" d="M170.7,152.2c-1.2,12.2-7.7,21.5-16.1,29.9c-1,2.6-3.9,3.8-5.2,6.2c-0.4,0.6-0.9,1-1.6,1.2
		c-3.7,0.9-6.8,3.3-10.4,4.4c-1.3,0.6-2.7,1.1-4.1,1.3c-2.5,0.4-5,1.2-7.5,1c-1,0-2,0-3,0c-5.2-1.2-9.7-3.7-13.5-7.5
		c-0.2-2.9-1.7-5.3-3-7.8c-1.6-5.3-1.5-10.8-1-16.2c0.7-4.5,2.5-8.7,3.2-13.2c0.3-1.1,0.7-2.2,0.9-3.3c0.5-2.3,1.8-3.2,3.8-1.7
		c1.3,1,2.5,1.5,3.9,0.2c3.2-0.2,0.8-3,1.9-4.1c0.4-0.7,0.9-1.1,1.8-0.9c0.7,0.3,1.2,0.9,1.6,1.5c4.1,6.3,3.6,12.7,0.5,19.4
		c-3.6,7.7-5.3,15.7-1.8,24.8c0-0.1,0.7-0.9,0.1-0.6c-0.2,0.1-0.3,0-0.4-0.3c-3.1-7.4-1.5-14.7,1.1-21.8c1.3-3.4,1.9-7.4,4.1-10.1
		c2.6-3.1,6.2,1.1,9.7,0.4c3.3-0.6,6.9-0.2,10.4,0.6c7.5,1.9,9.6,3.1,13.2,8.6c-3.4-7.2-10.7-8.7-18.3-9.4c-2.8-0.2-5.7,0.3-8.5-0.2
		c-3.1-0.5-6.2-1.6-7.4-5.1c0.4-3.1,1.8-5.6,5-6.7c0.8-0.3,1.6-0.6,1.9-1.4c1.5-3.3,3.4-4.3,6.1-1c0.5,0.7,1.5,1,2.2,0.3
		c2.9-3,7-3.1,10.7-4.1c1.6-0.5,3.2-0.3,4.8-0.2c0.7,0.3,1.1,0.8,1.3,1.5c0.9,3.5,4.3,4.3,6.8,6
		C167.7,145.7,168.7,149.3,170.7,152.2z"/>
	<path class="st164" d="M152.6,200c-0.6,0.4-1.3,0.8-1.9,1.2c-2,1.6-5.2,1.7-6,4.8c-1.8-0.4-3.7-0.6-3.7-3.1
		c-0.9-0.2-1.7-0.7-1.8-1.7c-0.2-2.1,1.8-3.5,1.9-5.5c0.4-0.9,1.1-1.3,1.9-1.6c1.5-0.3,2.5-1.3,3.5-2.3c0.4-0.4,0.8-0.8,1.2-1.3
		c0.5-0.6,1.1-1.1,1.6-1.8c0.3-0.5,0.7-1,1.1-1.4c1-0.6,1.7-2,3.2-1.2c2.9,0,3.8-2.4,5.1-4.2c3.4-4.9,6.7-9.9,10-14.9
		c1.6-1.3,3.1-2.2,3.8,0.8c0.4,1.8,0.8,3.5,1.2,5.3c-0.1,1-0.1,1.9-0.2,2.9c-1.1,1.1-1.6,2.5-1.9,4c-0.6,1-1.3,2-1.9,3
		c-1.3,1.1-2.3,2.4-2.9,4c-3,3-6,6-9,9C156.1,197.3,154.4,198.7,152.6,200z"/>
	<path class="st165" d="M170.7,152.2c-3.6-1.2-3.3-6-6.9-7.2c-1.5-0.9-3.1-1.8-3.5-3.7c0.2-0.7,0.6-1.2,1.2-1.5
		c1.1-0.3,1.6,0.6,2.1,1.3c1.9,2,3.8,4.1,5.7,6.1C169.8,148.8,170.3,150.5,170.7,152.2z"/>
	<path class="st166" d="M153.6,186.1c-1,0.7-2,1.4-3,2c-0.3,0.2-0.6,0.3-0.9,0.4c-0.3,0.1-0.7,0-1-0.1c0.1-3.9,4-4.2,5.9-6.4
		C154.8,183.5,154.3,184.8,153.6,186.1z"/>
	<path class="st167" d="M161.7,132c-0.1,1.7-1.4,2.7-2.2,4.1c-1.4,1.1-3,0.1-4.4,0.5c-3.2-0.4-4.7-2.7-6.1-5.3
		c0-3.1,3.8-3.8,4.2-6.7c2-0.1,2.1,1.6,2.7,2.9c0.6,1.3,0.6,3.5,3,3c1.2-0.2,2.1,0.3,2.4,1.5L161.7,132z"/>
	<path class="st168" d="M155.6,136c1.3-0.9,2.7-0.2,4,0c0.4,2.3,3.7,1.5,4.1,3.9c0,0.4,0,0.7,0,1.1c-0.7-0.3-1.3-0.6-2-0.9
		c-1.4-0.2-2.8-0.7-4.1-1.4c-0.3-0.2-0.6-0.6-0.8-0.9c-0.3-0.3-0.6-0.6-0.9-0.9c-0.4-0.1-0.5-0.3-0.5-0.5
		C155.4,136.2,155.5,136,155.6,136z"/>
	<path class="st169" d="M168.6,137.9c0.3,0.1,0.7,0.1,1,0.2c-0.3,0.2-0.6,0.5-0.9,0.7C168.7,138.5,168.7,138.2,168.6,137.9z"/>
	<path class="st170" d="M168.6,137.1c0,0.3,0.1,0.6,0.1,1c-0.4-0.4-0.7-0.7-1.1-1.1C168,137,168.3,137,168.6,137.1z"/>
	<path class="st171" d="M81.7,191.8c-0.3,0-0.7,0-1,0c-0.1-0.2-0.1-0.3,0-0.5c-0.5-1.8-2.3-3.5-0.1-5.3c0.4-0.4,0.8-0.7,1.1-1.1
		c0.7,0.7,1.3,1.4,2,2.1C84.9,189.4,83.3,190.6,81.7,191.8z"/>
	<path class="st172" d="M80.6,186c-1.1,1.8,0.6,3.5,0.1,5.3c-1.9-1.3-2.1-3.3-2.1-5.3c0.4,0,0.8-0.1,1.2-0.1
		C80,186,80.3,186,80.6,186z"/>
	<path class="st173" d="M71.8,224.9c-1.4,0.1-2-0.6-2.1-1.9c0.3-0.3,0.7-0.7,1-1C72,222.6,71.6,223.9,71.8,224.9z"/>
	<path class="st174" d="M72.5,140.9c-1.4-1.1-0.7-2.6-0.9-3.9c0.1-1.1,0.6-2,1.9-1.9C73.2,137,72.8,139,72.5,140.9z"/>
	<path class="st175" d="M155.6,136c0.1,0.3,0.2,0.6,0.3,0.9c-1.3,1.6-2.8,0.3-4.2,0.2c-0.6,0.4-1.3,0.5-2,0.3
		c-2.1-1.5-4.7-1.6-7.1-2.2c-0.5-0.1-0.9-0.2-1.4-0.3c-0.5-0.1-1-0.2-1.4-0.4c-3.5-0.7-7,0.1-10.5-0.7c-7.6-3.5-13.5,0.1-19.1,4.7
		c-0.7,0.6-1,1.6-1.5,2.4c-1.2,2.2,1.1,0.1,1,0.9c2,2.3-0.6,4.6,0,6.9c-1,1.9-0.6,4.4-2,6.2c-2.2,0.6-3,3.6-5.7,3.4
		c-0.4-0.3-0.7-0.6-0.9-1c-0.4-1.1-0.6-2.2-0.8-3.3c-0.1-0.9,0.2-1.8,0.7-2.6c0.3-0.4,0.6-0.6,1.1-0.7c2.9,1-0.5-1.8,1-1.7
		c0.5-1.6,0.2-3.5,1.4-4.7c2-2.1-1.4-0.3-0.8-1.3c-0.5-1.5-0.7-3.2-1-4.8c-0.2-2.3-0.2-4.6,0.5-6.8c0.2-0.5,0.5-0.9,0.9-1.2
		c1.6-1.1,3.7-1.2,5.2-2.4c0.2-0.1,0.4-0.2,0.6-0.4c-0.4-3.2,2.5-3.1,4.2-4c1.3-0.8,1-3.3,3.2-3.1c2.5,1.2,4.7,3.3,7.8,3
		c0.9,0.1,1.8,0.4,2.6,0.7c1.9,0.8,4,0.6,6,0.9c1.8,0.3,3.3,1.6,5.3,1.5c4.5-0.6,8.1,1,10.7,4.7C151.9,132.4,152.7,135.4,155.6,136z
		"/>
	<path class="st18" d="M126.7,124.9c-0.6-0.2-1.3-0.5-1.9-0.7c-1.2-0.3-2-1-2.2-2.2c1.7-2.1-0.6-4.7,0.7-6.9
		c0.5-0.4,1.1-0.7,1.5-1.1c0.1-0.3,0.2-0.6,0.1-1c-0.2-0.3-0.4-0.6-0.5-0.9c2.8-4.1,7-6.3,11.5-8c0.9-0.8,1.9-0.8,2.8,0
		c1,2,2.1-0.4,3.1,0c1.6,0.8,3.7-0.1,5.1,1.4c1.4,0.7,3,1.1,4.2,2.2c1,2.7,2,1,3.1,0c1.2,0.5,1.3,1.3,0.6,2.2
		c0.1,1.3,0.1,2.6,0.2,3.9c-0.4,2.1,2.1,3.6,1.3,5.9c-0.2,0.6-0.5,1.2-0.8,1.8c-0.6,1.1-0.6,2.5-1.7,3.4c-0.4,2.7-1.6,4.9-4.1,6.2
		c-3.6-1.3-6.4-5.3-11.1-3.6c-1.7-0.7-3.2-1.6-4.7-2.6c-1.3-1-2.1-2.4-2.7-3.6C133.3,126.8,128.7,124.2,126.7,124.9z"/>
	<path class="st90" d="M101.7,152c-0.3,0.6-0.6,1.2-0.8,1.8c-0.4,0.3-0.8,0.3-1.2,0.1c-1.6-1.4-0.7-4-2.4-5.4
		c-0.5-0.5-0.9-1-1.3-1.6c-1.3-2-3-3.2-5.4-1.8c-2.3,1.3-2.7,3.6-2.4,6.1c0.3,2.2,2.2,3.7,2.1,6c-0.1,0.5-0.5,0.9-1,1.1
		c-4,0.3-5.2-2.4-5.7-5.5c-0.5-3.4,0.5-6.6,2.1-9.6c2.3-4.4,4.9-8.7,8.1-12.5c2.9-0.6,5.2,1.5,7.8,2.1c0.2,0.2,0.4,0.4,0.6,0.5
		c0.3,0.5,0.4,1,0.5,1.5c0.1,2.4,0,4.7,0.1,7.1C103.7,145.5,101.2,148.6,101.7,152z"/>
	<path class="st176" d="M93.8,130.9c-0.7,3.7-3.1,6.5-5,9.5c-2.2,3.4-3.9,6.9-4.1,11c-0.1,3.6,1.1,6.1,5,6.6
		c1.6-0.3,3.2-0.3,4.8,0.1c3.8,1.3-0.7,3.7,0.7,5.3c0.5,0.7,1,1.4,1.5,2.2c0.6,1.2,1.3,2.4,1.8,3.7c0.3,1.2,0.4,2.3,0.5,3.5
		c0,0.5,0,1,0,1.5c-0.1,1.7,0.1,3.5-0.3,5.2c-0.1,0.5-0.3,1-0.6,1.4c-0.6,0.6-1.4,0.7-2.2,0.5c-0.5-0.3-0.8-0.6-1-1.1
		c-0.7-2-0.4-4-0.5-6c1-5.8-3.5-8.3-6.9-11.4c-0.9-2.3-2.2-4.2-4.9-4.8c-1.3,0.3-1.6-0.6-1.8-1.5c0-0.5,0-1.1,0-1.6
		c-0.7-0.5-0.7-1.2-0.5-1.9c1.6-1.9,1-4,0.6-6c-0.3-1.2,0.2-2.1,0.8-3c2.8,0.5,1.3,2.3,1.3,3.9c0.9-6,3.9-10.7,7.5-15.2
		c0.6-0.6,1.3-1.1,1.9-1.7C92.9,130.4,93.3,130.4,93.8,130.9L93.8,130.9z"/>
	<path class="st177" d="M86.8,110.8c0.3,0.1,0.6,0.1,0.9-0.2c0,0-0.1,0.4-0.1,0.4c0.3,0.3,0.7,0.5,1.1,0.7c0.3,0.3,0.5,0.7,0.6,1.1
		c0.3,1.7-0.7,2.9-1.5,4.1c-2.6,4-1.7,8.6-2.7,12.9c0.7,1.4,1.3,2.8,1.6,4.4c0.2,1.3,0.3,2.7-0.4,3.8c-0.9,1.4-2,2.2-2.7-0.2
		c-0.3-2.5-0.5-5.1-0.8-7.6c0.4-1.4-0.3-2.9,0.6-4.3c0.1-1.3,0.3-2.6,0.4-4c0.9-3.3,1.8-6.5,2.7-9.8
		C86.6,111.8,86.7,111.3,86.8,110.8z"/>
	<path class="st178" d="M83.6,137.9c0.9,1,1.7,0.9,1.9-0.5c0.2-1.4,0.1-2.9,0.1-4.4c0.6-1.5,1.6-1.9,3-1.2c0.2,1.2,1.1,0.9,1.8,0.8
		c-1.4,5.6-5.9,9.7-7,16c-1.4-1.7-0.2-3.8-1.8-4.6C81.5,141.7,82.3,139.7,83.6,137.9z"/>
	<path class="st167" d="M155.7,120c0.1-2.1-2.7-3.8-0.8-6.1c1.9,2.7,3.8,5.5,5.7,8.2c0.1,0.5,0.1,0.9,0.2,1.4c0.2,1.7,1.5,4-0.8,4.7
		c-2.7,0.8-3.3-1.9-4.1-3.9C155.3,122.9,155.6,121.5,155.7,120z"/>
	<path class="st179" d="M106.7,99.9c2.3,0.2,4-1.1,6-2c3.2,0.9,7.9-0.7,8,5.1c-0.4,0.3-0.8,0.3-1.2,0.1c-0.8-0.5-1.7-0.8-2.7-0.8
		c-3-0.2-6-0.4-8.9,0.3c-1.4,0.4-3,0.6-4.1-0.8C104.7,101.2,105.7,100.6,106.7,99.9z"/>
	<path class="st180" d="M103.6,101.9c5-0.3,9.9-1.7,15-0.8c-0.5,2.9-3.1,1.3-4.5,2.1c-0.5,0.2-0.9,0.2-1.4,0c-0.4,0-0.7,0-1.1,0
		c-2.7-0.3-5.8,1.9-8.1-1.3L103.6,101.9z"/>
	<path class="st181" d="M117.4,121.1c-2.4-0.4-0.9,2.8-2.7,2.9c-1.1,0.4-1.3-0.1-1.1-1.1c1.7-2.1-1.2-3.7-0.8-6.2
		c2.1,1.2,3.9,2.3,5.8,3.4C118.6,121,118.5,121.6,117.4,121.1z"/>
	<path class="st182" d="M117.4,121.1c0.4-0.3,0.8-0.6,1.2-1c1.6-0.1,2,2.5,3.9,1.8c1.1,0.4,1.8,1.2,2.2,2.2
		C121.5,125.1,119.4,123.2,117.4,121.1z"/>
	<path class="st183" d="M104.6,130.9c-0.3,0.1-0.6,0.1-0.9,0.1c-0.9,0.5-0.2,2.2-1.8,2.1c0,0-0.4-0.2-0.4-0.2c1-2.3-1.3-4.3-0.7-6.5
		c1.8-0.6,2.3,1.6,3.7,1.7C104.3,129,103.6,130,104.6,130.9z"/>
	<path class="st184" d="M113.7,123c0.4,0.4,0.7,0.7,1.1,1.1c-1.4,1.6-4.6,0.6-5.1,3.5c-1.6-1.3-0.7-3-0.8-4.6c0.3-0.4,0.5-0.3,0.8,0
		C111,124.3,112.3,123.2,113.7,123z"/>
	<path class="st185" d="M115,91.2c1.2-0.1,2.5-0.2,3.7-0.4c0.7,0.2,1.9,0.3,2.1,0.7c0.3,1.3-0.6,1.5-1.7,1.4
		c-1.4-0.1-2.8-0.1-4.3-0.1C114.9,92.3,114.9,91.7,115,91.2z"/>
	<path class="st186" d="M104.6,130.9c-1.5-0.9-1.3-1.8,0-2.7c1.5-0.1,3-0.1,4.4-0.2C108.2,129.8,107,131.3,104.6,130.9z"/>
	<path class="st187" d="M106.6,120.1c-1-0.7-2-1.5-3-2.2c-0.4-0.9,0-1.7,0.6-2.4c0.9-1-0.2-3.4,2.2-3.3l0.3-0.1
		c0.8,2.2,0.2,4.4,0.4,6.6C107.2,119.1,107,119.7,106.6,120.1z"/>
	<path class="st188" d="M120.1,108.5c-0.8,1.5-1.7,2.6-3.5,2.1c-0.6-0.2-1-0.9-0.5-1.6C117.2,107.5,118.6,107.9,120.1,108.5z"/>
	<path class="st189" d="M88.7,131.9c-1.4-0.5-2,0.8-3,1.2c-1.5-0.8-1.1-2-0.5-3.2C87.4,128.6,88.3,129.9,88.7,131.9z"/>
	<path class="st190" d="M92.7,123c1,0.2,2.6-0.5,2.7,1c0.1,1.5-2.1,1.1-2.7,2.2c-0.7,0.4-1.4,0.5-2.2,0
		C89.3,123.8,91.6,123.8,92.7,123z"/>
	<path class="st179" d="M103.5,102c2.3,3,5.5,0.5,8.1,1.3c-2.3,1.5-5,0.7-7.4,0.7C103.1,103.9,102.6,103.1,103.5,102z"/>
	<path class="st191" d="M87.9,117c-0.7-1.8,1.8-2.9,1-4.7c0.1-0.6,0.4-0.7,0.8-0.3C91.5,114.5,90.1,115.9,87.9,117z"/>
	<path class="st74" d="M158.1,111.9c-0.8-0.1-1.2-0.6-1-1.3c0.3-1,1-1.8,2-1.9c0.8-0.1,1.1,0.7,0.9,1.4
		C159.7,110.9,159.3,111.9,158.1,111.9z"/>
	<path class="st192" d="M150.7,108c-1.6-0.1-3-0.7-4-2c0.4-0.7,1.4-0.3,1.9-0.8c0.7,0,1.4-0.1,2-0.1c0.3,0.2,0.6,0.4,0.8,0.7
		c0.3,0.5,0.4,1,0.5,1.6C151.7,107.9,151.4,108.4,150.7,108z"/>
	<path class="st193" d="M104.6,116.3c-0.3,0.5-0.6,1-0.9,1.5c-2.2-1-4.6-0.7-6.9-0.9c0.4-2.7,2.5-1.6,4-1.9c0.7,0,1.4,0.2,2.1,0.4
		c0.5,0,0.9,0.1,1.4,0.2C104.4,115.9,104.5,116.1,104.6,116.3z"/>
	<path class="st194" d="M101.8,115.8c-1.6,0.7-3.7-0.8-5,1.1c-0.9,0.1-1.9-0.1-2.1-1.2c-0.2-0.8,0.6-0.9,1.1-1.1
		C97.8,114.9,100.1,113.4,101.8,115.8z"/>
	<path class="st195" d="M101.8,115.8c-1.8-1.6-4.1-0.3-6-1.1c2.7-1.3,5.3-0.9,7.9,0.3c0.2,0.2,0.3,0.4,0.3,0.6
		c-0.1,0.2-0.1,0.3-0.2,0.3C103,115.8,102.4,115.8,101.8,115.8z"/>
	<path class="st196" d="M148.6,105.2c-0.6,0.3-1.3,0.5-1.9,0.8c-1.6-0.6-3.3-1.2-4.9-1.8C144.2,103.7,146.4,104.1,148.6,105.2z"/>
	<path class="st197" d="M121.7,114.7c-1.8,0.6-2.7,0.3-2-1.8c1.5-0.6,3-0.3,4.5-0.3c0.5,0.2,0.8,0.5,0.8,1.1
		C124.3,115.2,122.7,114.2,121.7,114.7z"/>
	<path class="st198" d="M92.7,123c-0.3,1.3-2.7,1.1-2.2,3c-0.1,0.4-0.4,0.7-0.9,0.9C87.5,123.2,90.2,123.2,92.7,123z"/>
	<path class="st199" d="M112.7,103.2c0.3-0.1,0.6-0.2,1-0.3c1.9-0.5,3.9-0.6,5.8,0c0.4,0.1,0.8,0.1,1.2,0.2
		C118,104.6,115.4,104.4,112.7,103.2z"/>
	<path class="st200" d="M106.5,112.1c-1.6,1-0.4,3.2-1.9,4.2c0,0-0.2-0.2-0.2-0.2l0.2-0.2c-0.5-2-1.2-4,0.4-5.8
		C106.1,110.3,106.8,110.9,106.5,112.1z"/>
	<path class="st74" d="M161.7,116.7c-0.7-0.1-1.4-0.4-1.4-1.1c0-1,0.7-1.5,1.6-1.3c0.5,0.1,1.1,0.8,1.1,1.3
		C163.1,116.3,162.4,116.6,161.7,116.7z"/>
	<path class="st179" d="M118.9,96.1c-0.7-0.3-1.7,0-1.3-1c0.2-0.4,0.9-0.8,1.5-0.9c0.6-0.1,1.4,0.2,1.1,1
		C120,95.6,119.2,95.8,118.9,96.1z"/>
	<path class="st201" d="M106.6,120.1c0-0.4,0.1-0.8,0.1-1.3c0.4-0.2,0.7-0.1,0.9,0.3c0.8,1.2,2.1,2.2,2,3.9l-0.4,0c0,0-0.4,0-0.4,0
		C107.6,122.4,107.3,121.1,106.6,120.1z"/>
	<path class="st202" d="M107.6,119.1c-0.3-0.1-0.6-0.2-0.9-0.3c0-2.3,0-4.6,0-6.8C108.5,114.2,107.3,116.8,107.6,119.1z"/>
	<path class="st74" d="M154.7,110c-0.3-0.7-0.5-1.5-0.8-2.2c-0.7-0.3-0.8-0.9-0.9-1.6c0.1-0.4,0.3-0.8,0.6-1.1
		C155.9,106.3,156.5,107.9,154.7,110z"/>
	<path class="st203" d="M89.6,127c0.3-0.3,0.6-0.6,0.9-0.9c0.7,0,1.4,0.1,2.2,0.1C91.8,127,91.6,130.3,89.6,127z"/>
	<path class="st204" d="M121.7,114.7c0.8-1.1,1.9-0.6,3-0.7c0.4-0.3,0.7-0.3,1,0c-0.9,0.1-0.2,4.1-2.4,1
		C122.7,114.9,122.2,114.8,121.7,114.7z"/>
	<path class="st205" d="M105,110.1c-0.1,1.9-0.3,3.9-0.4,5.8c-0.3,0-0.6,0-1,0c0-0.3,0-0.6,0-0.9C104,113.3,102.8,111.2,105,110.1z"
		/>
	<path class="st206" d="M124.6,112.7c-1.6,0-3.2,0.1-4.9,0.1c1.4-1.4,3.1-0.7,4.7-0.8c0.2,0.1,0.4,0.1,0.6-0.1
		C125.1,112.3,125,112.6,124.6,112.7z"/>
	<path class="st207" d="M93.7,131c-0.4,0-0.9,0-1.3-0.1c0.4-0.8-0.4-2.7,1.3-2.4C94.9,128.7,93.5,130.1,93.7,131z"/>
	<path class="st208" d="M138.6,104.1c-0.9,0-1.9,0-2.8,0c-0.3-0.1-0.7-0.1-0.9-0.3c-0.5-0.4-0.2-0.8,0.3-0.8
		C136.5,103,137.9,102.7,138.6,104.1z"/>
	<path class="st209" d="M153.5,105c0,0.3,0,0.7,0,1c-0.3,0.3-0.6,0.5-1,0.6c-0.2,0-0.4-0.1-0.6-0.1c-0.4-0.2-0.6-0.5-0.7-0.9
		c-0.1-0.6,0-1.2,0.6-1.6C152.4,104.4,153,104.7,153.5,105z"/>
	<path class="st210" d="M151.8,104.1c-0.1,0.7-0.1,1.3-0.2,2c-0.3,0.3-0.5,0.4-0.8,0c-0.1-0.3-0.2-0.6-0.2-0.9
		C151,104.7,151.4,104.4,151.8,104.1z"/>
	<path class="st211" d="M89.6,112c-0.3,0.1-0.5,0.2-0.8,0.3c0,0-0.1-0.3-0.1-0.3c-0.3-0.2-0.4-0.5-0.4-0.8c0-0.3,0.1-0.5,0.1-0.5
		c0.1-0.2,0.1-0.5,0.2-0.7C89.9,110.2,89.6,111.2,89.6,112z"/>
	<path class="st96" d="M83.4,126c0.2,1.5,0.1,2.9-0.6,4.3c-0.7-2.3-3.3,0.7-4.1-1.4c1.6-1.7,0.4-4.3,2-5.9
		C82.8,123,80.1,127.1,83.4,126z"/>
	<path class="st112" d="M80.8,156.6c0.6,0.5,1.2,1,1.8,1.5c0.3,1.6,0.7,3.3,1,4.9c-0.5,0.7-0.9,1.6-2,1
		C81.6,161.5,79.6,159.2,80.8,156.6z"/>
	<path class="st212" d="M80.9,152.9c0,0.7-0.1,1.4-0.1,2c-1.1,0.5-2.2,1-3.9,1.8c0.6-2.5,1-4.4,3.7-4.8c0.4,0.1,0.6,0.3,0.6,0.5
		C81,152.8,81,152.9,80.9,152.9z"/>
	<path class="st213" d="M80.7,123c0.1,2.2,1.2,4.8-2,5.9c0.3-2-0.4-4.1,1-5.9C80.1,123,80.4,122.9,80.7,123z"/>
	<path class="st214" d="M81.7,164c0.7-0.3,1.3-0.7,2-1c0.3,1,1.5,2,0.6,3c-0.4,0.4-1.7,0-2.6-0.1C81.7,165.3,81.7,164.7,81.7,164z"
		/>
	<path class="st215" d="M73.9,131c0.3-1,0.6-2,0.9-3c0.4,0.9,0.8,1.7,1.1,2.6c0.3,0.6,0.3,1.4-0.3,1.7
		C74.6,132.7,74.6,131.2,73.9,131z"/>
	<path class="st216" d="M80.9,152.9c-0.1-0.3-0.3-0.6-0.4-1c0.1-1.6,0.2-3.3,0.4-4.9C82.1,149,82.1,151,80.9,152.9z"/>
	<path class="st217" d="M88.5,110.7c0.1,0.4,0.2,0.8,0.3,1.3c-0.4-0.3-0.7-0.6-1.1-1C87.9,110.8,88.1,110.7,88.5,110.7z"/>
	<path class="st218" d="M81.7,191.8c0.6-1.6,1.3-3.2,1.9-4.8c0.3,0,0.6,0.1,1,0.1c2.4,0.4,2.9,3.2,4.9,4.1c0.5,0.9,1.1,1.8,1.6,2.7
		c1.4,0,2.3,1.2,3.5,1.6c1.2,0.5,2.5,0.9,3.7,1.5c1.9,0.8,3.9,1.4,5.9,1.9c1.2,0.3,2.3,0.9,3.3,1.7c4,1.6,8.1,2.1,12.5,1.6
		c4.6-0.5,9.5-2.2,13.8,1.4c0.7,0.9,0.8,1.9,0.5,3c-1,2.3-3.3,2.4-5.2,3c-1,0.3-2,0.3-3,0.2c-0.5-0.1-1-0.2-1.5-0.3
		c-4.2-0.5-8.5-0.2-12.7-0.1c-0.5,0-1-0.1-1.4-0.4c-0.5,0.3-1.1,0.5-1.6,0.8c-2-1.3-4.6-1.3-6.5-2.8l-0.2,0c-2-0.2-3.9-0.7-5.5-2
		c-0.7-0.1-1.3-0.2-2-0.3c-0.1-1.9-1.7-2.1-3-2.7c-1.6-1.1-2.8-2.9-5-3.1c-0.2-1.3-0.7-2.3-2-2.8C83.7,194.7,82.7,193.2,81.7,191.8z
		"/>
	<path class="st219" d="M94.9,188.3c-2.4-2.1-5.7-3.1-7.3-6.3c0.3-0.4,0.6-0.7,1-0.9c1-0.4,2.1-0.8,3.2-0.7c0.7,0.2,1.2,0.6,1.6,1.2
		c0.2,0.4,0.4,0.8,0.6,1.3C94.6,184.7,96,186.3,94.9,188.3z"/>
	<path class="st220" d="M94.9,188.3c-0.7-1.7-1.4-3.5-2.1-5.2c1-0.7,1-2.8,3-2.1l0,0c1.2,1.3,1,3.1,1.8,4.6c0.5,1.1,1,2.3,0.5,3.5
		c-0.6,0.8-1.3,1.5-2.4,0.8C95.4,189.3,95.1,188.8,94.9,188.3z"/>
	<path class="st221" d="M91.7,180.6c-0.8,0.8-1.6,1.4-2.8,1.3c-1.6-0.8-1.9-2.6-3.1-3.8c0-0.7,0-1.4-0.1-2.1c1.3,0,2.6,0,3.9,0
		c1.1,0.5,1.4,1.7,1.9,2.6C91.7,179.3,91.8,179.9,91.7,180.6z"/>
	<path class="st222" d="M96.6,195c1-0.4,1-1.3,1.1-2.1c0.8-0.4,1.7,0.5,2.4-0.3c0.4,0,0.8,0.2,1.1,0.5c0.8,1,1.7,2,2.1,3.3
		c0.1,0.7,0,1.4-0.6,1.9c-1.4,0.2-2.7-0.3-4-0.8C97.8,196.8,96.2,196.7,96.6,195z"/>
	<path class="st223" d="M89.5,191.2c-3.1,0.3-3.2-2.8-4.9-4.1c0.3-0.7,0.6-1.4,0.9-2C86.8,187.1,88.2,189.2,89.5,191.2z"/>
	<path class="st224" d="M99.8,193c-0.8,1.9-1.4-0.3-2.1-0.1c-0.4-1.2-2.2-1.5-2-3.1c0.7-0.2,1.3-0.4,2-0.6c0.9-0.1,1.6,0.2,2.1,0.9
		C100,191,100.2,192,99.8,193z"/>
	<path class="st225" d="M85.7,178.1c2.4,0.1,2.7,2,3.1,3.8c-0.4,0-0.8,0.1-1.2,0.1C86,181.2,85.4,179.9,85.7,178.1z"/>
	<path class="st226" d="M96.6,195c0.7,0.6,1.4,1.3,2.1,1.9c-0.2,0.4-0.6,0.8-1,0.9c-1.1-0.4-2.4-0.7-3-1.9c-0.3-0.2-0.3-0.4-0.3-0.7
		c0.1-0.2,0.2-0.3,0.3-0.3C95.3,195,96,195,96.6,195z"/>
	<path class="st227" d="M94.7,195c0,0.3,0,0.7,0,1c-1.5,0-2.6-0.9-3.5-2C92.8,192.7,93.7,194,94.7,195z"/>
	<path class="st228" d="M83.7,181.9c-2.2,0.9-1.7-0.9-2-1.9c0.3,0,0.7,0,1-0.1C83.7,180.3,83.6,181.2,83.7,181.9z"/>
	<path class="st229" d="M87.5,162.9c6.3,2.2,8,4.4,8.2,11c-0.2,0.4-0.6,0.6-1.1,0.5c-1.8-1.2-3.5-2.7-5-4.3c-0.1-0.3-0.1-0.5,0-0.8
		C88.2,167.4,87.7,165.2,87.5,162.9L87.5,162.9z"/>
	<path class="st230" d="M89.7,170c2.7-0.2,3.8,2,5.2,3.6c0.1,3,1.1,6.2-2.1,8.3c-0.4-0.5-0.7-0.9-1.1-1.4c-0.4-0.6-0.7-1.1-1.1-1.7
		c0.4-2.4-0.7-4.6-0.9-7C89.7,171.3,89.7,170.7,89.7,170z"/>
	<path class="st231" d="M89.7,171.9c1.2,2.2,3.2,4.3,0.9,7c-1.4-0.6-0.5-2-1.1-2.9c0.4-1.2-0.6-2-1-3
		C88.9,172.6,89.3,172.3,89.7,171.9z"/>
	<path class="st232" d="M87.6,162.9c1.5,1.9,1.5,4.2,2.1,6.4C87.2,167.7,85.9,165.8,87.6,162.9z"/>
	<path class="st233" d="M110.4,209.1c0.4-0.1,0.9-0.2,1.3-0.2c0.7-0.4,1.4-0.3,2.2-0.1c3.2,0.4,6.4,0.4,9.6,0
		c0.7-0.2,1.5-0.2,2.2,0.1l0,0.4c0.6,0.7,2.4-0.2,2.1,1.6c-1.9,1.6-4,0.5-6,0.4C118,210.1,113.6,212.8,110.4,209.1z"/>
	<path class="st234" d="M121.7,211.2c2-0.5,4.2,0.2,6.1-1.1c0.3-0.4,0.7-0.4,1.1-0.2c1,0.9,1.7,2,2.3,3.3c0.5,1.5,0.6,3.1,0.8,4.6
		c0,0.5-0.2,0.9-0.5,1.2c-3.6-0.1-0.8-3.9-2.8-4.9c-0.7-1.4-2.1-1-3.3-1.2C124.7,211.4,122.7,212.6,121.7,211.2z"/>
	<path class="st235" d="M102.3,207c2.2,0.8,5.3-0.3,6.5,2.8C106.4,209.5,103.5,210.2,102.3,207z"/>
	<path class="st236" d="M96.6,205.1c2,0.2,3.9,0.8,5.5,2C99.5,208.5,97.7,207.6,96.6,205.1z"/>
	<path class="st237" d="M131.7,219c0-0.3,0-0.7-0.1-1c-0.7-1.5-0.2-3-0.4-4.6c-0.1-0.5,0-1,0.3-1.5c1.4-0.5,1.7,0.6,2.2,1.5
		c0.5,2.1,1.5,4.1,1.6,6.3c-0.1,0.5-0.3,0.9-0.7,1.2c0,0,0.1,0,0.1,0C133.2,221,132.5,220,131.7,219z"/>
	<path class="st238" d="M134.6,221c0.2-0.4,0.3-0.8,0.5-1.1c-0.2-1.6,0.2-3.1,1.4-4.2c1.2-0.8,2.6-1.4,3.2-2.9
		c0.2-0.4,0.5-0.7,0.8-1c0.4-0.2,0.8-0.2,1.3-0.1c0.6,0,1.3,0,1.9,0c0.1,1.2,0.1,2.3,0.2,3.5c-0.8,1.6-1.6,3.3-2.4,4.9
		C139.4,221.4,137,221.1,134.6,221z"/>
	<path class="st239" d="M136.7,216.5c-0.5,1.1-1.1,2.3-1.6,3.4c-2.2-1.3-1.7-3.7-2.3-5.6c0.6-2.1-0.2-4.7,2.3-6
		c0.2-0.1,0.4-0.1,0.7-0.2c3-2.1,5.3-1.4,6.9,1.9C139.2,210.8,136.7,212.5,136.7,216.5z"/>
	<path class="st240" d="M136.7,216.5c-1.6-5.2,0.1-7,6-6.5c-0.3,0.6-0.6,1.1-0.9,1.7c-0.4,0.2-0.7,0.3-1.1,0.5
		c-0.3,0.2-0.4,0.4-0.3,0.6c0.1,0.2,0.2,0.3,0.2,0.3C141,216.1,138.4,215.9,136.7,216.5z"/>
	<path class="st241" d="M139.6,201c0.5,0.6,0.9,1.2,1.4,1.9c-0.5,0-0.9,0.1-1.4,0.1c-0.9,0.7-2.1,0.1-2.9,1c-0.3,0.3-0.6,0.7-0.9,1
		c-1.2-0.4-1.7-1.3-1.5-2.6C135.5,200,137.3,199.3,139.6,201z"/>
	<path class="st242" d="M128.5,208.9c1.7-0.6,3.4-1.3,5.2-1.9c0.6-0.5,1.3-0.6,2-0.1c0,0.4,0.1,0.8,0.1,1.2c0,0,0,0,0,0
		c-1.3,0.2-1.4,2-2.7,2.3c-0.8-0.8-1.7,0.2-2.5,0C129.6,210.1,129,209.6,128.5,208.9z"/>
	<path class="st243" d="M135.6,206.8c-0.7,0-1.3,0.1-2,0.1c0-1,0-2,0-3c-0.3-0.9,0.1-1.1,0.9-1c0.4,0.7,0.8,1.4,1.2,2
		C135.7,205.6,135.6,206.2,135.6,206.8z"/>
	<path class="st244" d="M136.7,204c0.2-2.7,1.8-1.2,2.9-1C139.5,206.1,138.1,204.9,136.7,204z"/>
	<path class="st245" d="M134.8,261.8c-1.7,0-3.4,0.1-5.1,0.1c0.1-0.3,0.2-0.5,0.3-0.8C131.6,261,133.3,260.4,134.8,261.8z"/>
	<path class="st246" d="M155.7,120c1.5,1,0.7,2.7,1.5,3.9c0.8,1.2,0.3,3.8,2.5,3.4c1.7-0.3,0.7-2.5,1.1-3.8c2,2.7,2.7,5.5,0.7,8.5
		c-0.9-0.3-1.9-0.7-2.8-1c-4.2-2.2-3.6-6.3-4-10C155,120.6,155.3,120.3,155.7,120z"/>
	<path class="st247" d="M108.7,138c2.6-2.8,6.3-4,9.4-6.1c3.6-2.5,7.2-0.5,10.6,0.9c0.3,0.4,0.5,0.8,0.5,1.2c0,1-0.1,1.9,1,2.6
		c1.2,0.8,3.1,1.5,2.3,3.2c-0.8,1.6-2.8,1.2-4.5,1.1c-1.1-0.1-2.3-0.2-3.3-0.7c-0.7-0.2,0-1.7-0.9-1.4c-0.7,0.2,0.1,1,0.2,1.5
		c-0.6,1.6-2,1.5-3.3,1.6c-0.3,0.3-0.7,0.7-1,1c-0.6,1.4-0.6,3-2,4c-0.6,1.1-1.3,2.2-2.2,3.9c-1-2.1-2.2-3.6-4.2-4.1
		c-1.3,1.1,0.1,3.3-1.6,4.3c-0.8-0.4-0.4-1.5-1-2c-1-2.5,1.6-4.8,0.2-7.3C108.7,140.5,107.6,139.3,108.7,138z"/>
	<path class="st248" d="M125.7,149c2.2,4,5.6,5.3,10,5.1c6.4-0.3,12.6,0.3,18.3,3.6c4,2.4,6.6,5.7,8,10.4c-1.9,0-2.3-1.2-2.5-1.8
		c-3.6-8.5-11.1-9.7-18.9-10.2c-3.9-0.3-8,0.9-11.7-1.4c-0.8-0.5-1.7-0.5-2,0.6c-2.7,9.1-8.1,17.6-5.9,27.7c0.6,2.6,2.1,5,2.7,7.8
		c-3.6-1.7-4.4-5.3-4.8-8.6c-0.8-6.5-0.4-13,2.8-18.9c3.2-6,4.9-12,0.2-18.2c-0.3-0.4-0.1-1.3-0.2-2
		C125.1,143.6,126.5,145.6,125.7,149z"/>
	<path class="st249" d="M125.7,149c-0.7-2.4-1.9-4.5-4-6c-0.3-0.3-0.7-0.7-1-1c1-0.7,2-1.3,3-2c0.3-0.4,0.6-0.4,1-0.1
		c2.4-1.1,4.9,1.1,7.3-0.4c-0.3-2.3-7-0.9-3.3-5.5c2.3,0,4.6,0,7,0c2-0.3,4,0.6,6,0c0.3,0.1,0.7,0.1,1,0.2c1.9,2,5,1,6.9,2.9
		c0.7,0.1,1.4,0.1,2.1,0.2c-1.4,3.7-5.4-0.2-7.3,2.6c-0.1,0.1-1.5,0.4-1.9,1c-2.3,4-4.5,1.8-6.1-0.3c-0.9-1.1-1.7-1.5-1.9-0.4
		C133.6,145.1,127.3,144.7,125.7,149z"/>
	<path class="st250" d="M99.8,193c-1-0.9-1.1-1.9-0.3-2.9c0-0.2,0-0.4,0-0.6c0.1-0.4,0.2-0.8,0.4-1.1c0.2-0.3,0.5-0.6,0.8-0.9
		c0.5-0.4,1-0.7,1.5-1c1-1.3,2.1-2.3,3.7-0.8c0.8,0.8,1.2,2.1,2.7,2c0.4,0,0.8,0.1,1.1,0.3c3.9,3.2,8,5.9,13,7.1
		c0.2,1-0.5,1.5-1.3,1.9c-2.1,0.7-4.3,0.4-6.5,0.5c-2.9,0.1-5.7-0.3-8.5-1c-0.5-0.1-1-0.2-1.4-0.4c-1.6-0.6-3-1.5-4.2-2.8
		C100.5,193.1,100.2,193,99.8,193z"/>
	<path class="st251" d="M106.6,165c-0.6,5.4-0.8,10.8,1,16c-0.5,1-1.2,1.6-2.4,0.9c-2.4-2.3-1.4-5.5-2.3-8.3
		c-0.3-0.9-0.7-1.7-1.2-2.5c-1.3-2.8-2.9-5.5-2.5-8.8c0.3-0.4,0.6-0.7,1.1-0.9c0.5,0,1,0,1.4,0.2c0.4,0.3,0.6,0.7,0.9,1.1
		c1.3-0.1-0.9,4,2.2,1.8C105.5,164.4,106.1,164.5,106.6,165z"/>
	<path class="st252" d="M106.6,165c-0.6,0-1.2,0-1.7,0c-1-1.1-0.5-2.4-0.5-3.6c0.2-2.3,1.1-4.4,2.1-6.4c1.5-1.7,0.5-4.3,2.2-6
		c0.8,0.4,0.9,1.2,1,2C109.7,155.9,107.1,160.2,106.6,165z"/>
	<path class="st253" d="M122.1,196.2c0.6-0.2,0.8-0.6,0.7-1.2c1,0,1.9,0.1,2.9,0.1c1.1,0.6,1.8,1.3,1.3,2.7
		c-1.4,1.9-3.5,1.5-5.4,1.6c-2.5,0-5.1,0.1-7.6-0.1c-0.9-0.1-1.7-0.4-2.3-1.1c0-2.4,1.9-1.3,3-1.6
		C117.1,196.4,119.6,196.8,122.1,196.2z"/>
	<path class="st254" d="M131.7,167c-1,0.3-1.9,1.5-3.4,0.5c2.2-3.9,5.8-4.6,9.8-5c0.3,2-1.5,1.8-2.3,2.5
		C134.4,165.9,133,166.4,131.7,167z"/>
	<path class="st255" d="M137.6,193c3.5-1,6-4.5,10.1-3.9c0.6,0.6,0.5,1.2,0.2,1.9c-0.9,0.7-1.9,1.3-2.9,2c-2,0.7-3.9,1.6-6,1.5
		C138.2,194.2,137.8,193.7,137.6,193z"/>
	<path class="st256" d="M126.7,197c-0.3-0.6-0.7-1.3-1-1.9c2.7-0.4,5.4-0.7,8.1-1.1c0.7,0.5,1.4,0.8,1.1,1.9
		C132.3,198.1,129.7,199.1,126.7,197z"/>
	<path class="st257" d="M156.8,137.9c0.3,0.1,0.6,0.2,0.9,0.2c1.1,0.9,2.5,1.5,2.9,3c1,1.3,2.1,2.6,3.1,4c-3-0.2-4.5-3.1-7.1-4.1
		C155.1,140.2,156.5,138.9,156.8,137.9z"/>
	<path class="st258" d="M105.9,182c0.6-0.3,1.2-0.7,1.7-1c0.6,2.3,3.5,4,2.2,6.9c-0.3-0.1-0.6-0.3-1-0.4c-1.4-0.4-2-1.5-2.8-2.6
		C105.7,184,104.9,183,105.9,182z"/>
	<path class="st249" d="M117.7,147c0.1-1.6,0.7-3,2-4c0.9,1.2,0.3,2.5,0.3,3.7C119.8,150.5,118.5,147,117.7,147z"/>
	<path class="st259" d="M134.7,195c-0.4-0.3-0.7-0.7-1.1-1c1.3-0.3,2.6-0.7,3.9-1c0.4,0.3,0.7,0.6,1.1,0.9
		C137.9,195.9,136.5,196.2,134.7,195z"/>
	<path class="st260" d="M131.7,167c0.8-1.8,2.3-2.1,4-2C134.7,166.5,133.9,168.3,131.7,167z"/>
	<path class="st261" d="M147.8,191c0-0.6-0.1-1.3-0.1-1.9c0.4-0.2,0.7-0.4,1.1-0.6c0.3-0.1,0.7-0.1,1-0.2l0.3,0.4l-0.3,0.4
		c-0.4,0.7-0.7,1.3-1.1,2c-0.1,0.1-0.3,0.3-0.4,0.4C148,191.2,147.9,191.1,147.8,191z"/>
	<path class="st262" d="M134.7,195c1.5,0.2,2.7-0.6,3.9-1.2c2-0.5,3.7-1.9,5.9-1.7c0.9,1.3-0.1,2-0.9,2.8c-0.7,0.3-1.7,0.1-2.1,1.1
		c-0.9,1.3-2.2,2-3.7,2.2c-1.4,0.2-2.9,0.5-4.3,0.9c-2.4,0.5-4.8,1.2-7.1,1.8c-1,0.3-2,0.4-3,0.4c-4.1,0.1-8.1-0.2-12.2,0.2
		c-0.5,0.1-1,0.1-1.5,0c-1.9-0.4-3.2-1.9-5.1-2.2c-0.8-0.4-1.8-0.5-2.1-1.6c0-0.6,0-1.1,0-1.7c0.6-1,1.5-1.2,2.5-1.1l-0.1,0
		c2,1.4,4.7,1.3,6.6,2.8c0.7,0.1,1.3,0.2,2,0.4c2.6,0.5,5.3,0.5,7.9,0c1.6-0.7,3.6,0.4,5-1.2C129.5,197,132.3,196.7,134.7,195z"/>
	<path class="st263" d="M137.5,197.2c1.4-0.4,2.7-0.9,4.1-1.3c2.3,2.9-2,3.1-2,5.1c-2-0.2-4-0.4-5.1,1.9c-0.3,0.3-0.6,0.7-0.9,1
		c-4.9-1.4-9.8-1-14.8-0.4c-4.1,0.5-8.6,0.9-12.1-2.5c1-0.9,2-0.7,3.1-0.1l-0.1-0.1c5,0.3,9.9,0,14.9,0.1c1.3,0.1,2.5-0.2,3.6-0.8
		c2.1-0.1,3.9-1.1,5.9-1.4C135.2,198.1,136.6,198.1,137.5,197.2z"/>
	<path class="st264" d="M143.7,194.8c0.3-0.9,0.6-1.9,0.9-2.8c1.1-0.4,2.2-0.7,3.2-1.1c0,0-0.1,0-0.1,0c0.2,0.2,0.3,0.4,0.2,0.6
		c-0.1,0.2-0.1,0.3-0.2,0.3C146.5,193,146.1,195.3,143.7,194.8z"/>
	<path class="st265" d="M169.5,172.7c-0.4,1.2-1.2,0.6-1.7,0.8c-0.5,0.1-1-0.2-0.8-0.7c0.2-0.5,0.9-1.1,1.3-1.1
		C168.7,171.7,169.2,172.3,169.5,172.7z"/>
	<path class="st266" d="M149.7,189c0.1-0.2,0.1-0.5,0-0.7c0.3,0,0.6-0.1,0.9-0.1C150.3,188.4,150,188.7,149.7,189z"/>
	<path class="st267" d="M147.7,191.9c0-0.3,0-0.6-0.1-0.9c0.3,0,0.6,0,0.9,0C148.6,191.6,148.3,191.9,147.7,191.9z"/>
	<path class="st268" d="M160.7,141c-1.3-0.7-2.7-1.2-2.9-3c1.7-0.1,2.9,0.9,3.9,2.1C161.3,140.4,161,140.7,160.7,141z"/>
	<path class="st269" d="M154.7,121c1.8,3.2,1.2,7.3,4,10c0.5,1.4,0.6,2.5-1.3,1.2c-2.5-1.7-2.2-4.9-3.7-7.2
		C153.8,123.6,153.2,122,154.7,121z"/>
	<path class="st270" d="M126.7,124.9c1-1.5,2.8-0.4,4.2-1.4c-0.5-1.9-2.4-3.9,0.1-6.5c0.5,3.3,1.5,6,3.7,8c-0.1,0.6-0.6,0.7-1,1
		C131.3,125.9,128.8,126.7,126.7,124.9z"/>
	<path class="st271" d="M106.5,155c0.7,2.5-1.1,4.6-1,6.9c-1.3,0.1-2.3,1.2-3.6,1c-0.1-0.3-0.2-0.6-0.3-0.9
		c-0.9-1.4-1.1-2.8,0.3-4.1C103.8,157.6,104.2,154.8,106.5,155z"/>
	<path class="st272" d="M135.7,134.9c-2.4-0.3-4.9,0.9-7.1-0.9c0-0.4,0-0.8,0.1-1.1c4,0.5,8.2-0.4,12.1,1
		C139.3,135.2,137.3,133.8,135.7,134.9z"/>
	<path class="st273" d="M101.7,152c-2.7-3.3,1-6.7,0-10c0.8-0.9,0.2-2.1,0.7-3c0.4-0.3,0.7-0.3,1.1,0c0,1.3,1.3,2.6,0,4
		c0.2,1.7,0.2,3.3,0,5c-0.3,1.1-0.5,2.3-1.6,3.1C101.9,151.4,101.8,151.7,101.7,152z"/>
	<path class="st274" d="M102.8,148c0.1-1.7-1-3.6,0.7-5.1c0.7,0.4,2.7-0.1,2,0.8c-1.2,1.7,0,4-1.8,5.2
		C103.3,148.8,103,148.5,102.8,148z"/>
	<path class="st275" d="M149.6,137c-2.4-0.8-5.4,0.1-6.9-2.9C145.1,134.9,148.3,133.7,149.6,137z"/>
	<path class="st276" d="M100.7,162c-0.3,0-0.7,0-1,0c-2-2.3-1.6-4.8-0.7-7.4c0.2-0.2,0.4-0.4,0.6-0.6c0.4,0,0.8-0.1,1.2-0.1
		c1.3,0.8,0.6,2,0.6,3.1C100.6,158.6,101.7,160.4,100.7,162z"/>
	<path class="st277" d="M103.5,139c-0.3,0-0.6,0-0.8,0c-1.2-1.5,0.2-3.5-1-5c0-0.3,0.1-0.6,0.3-0.9c0.6-0.7,1.2-1.4,1.8-2.1
		C103.7,133.7,103.6,136.3,103.5,139z"/>
	<path class="st278" d="M102.8,148c0.3,0.3,0.5,0.6,0.8,1c0,1.3,0,2.6,0,3.9c-1.5,0.1-0.7-1.6-1.7-1.9
		C102.3,150,102.6,149,102.8,148z"/>
	<path class="st279" d="M108.7,138c-0.9,1.3,1.7,2.4,0.1,3.7c-0.1,0.3-0.1,0.7-0.3,0.9c-0.3,0.4-0.8,0.5-0.8-0.2
		C107.8,140.9,107.1,139.2,108.7,138z"/>
	<path class="st280" d="M133.7,125.9c0.3-0.3,0.7-0.6,1-1c1.3,0.8,2.9,1.2,3.8,2.6C136.5,128.2,135.2,126.8,133.7,125.9z"/>
	<path class="st281" d="M135.7,134.9c1.5-1.6,3.4-0.6,5.1-1c0.3-0.2,0.6-0.1,0.8,0.1C139.9,135.9,137.7,134.7,135.7,134.9z"/>
	<path class="st282" d="M100.7,162c0.1-1.7-0.6-3.5,0.8-5c0.1,0.3,0.2,0.7,0.3,1c-0.1,1.4-0.2,2.7-0.3,4.1
		C101.3,162,101,162,100.7,162z"/>
	<path class="st283" d="M147.7,117c1.4,1.1,0.8,2.3,0.2,3.5c-0.3,0.7-1.1,1.5-0.2,2.1c0.7,0.5,2.6-1.5,2.4,0.8
		c-0.1,1.7-2.3,1.7-3.6,2.1c-4.4,1.2-7.8-1-10.4-4.1c-1.8-2.2-1.1-5.2,0.6-7.3c1.8-2.3,4.2-3,6.9-1.1c0,0.6-1.9,0.4-0.5,1.4
		c0.3,1.8,1.4,2.8,3.2,3.1C147.4,119,147.1,116.8,147.7,117z"/>
	<path class="st284" d="M152.7,106c0.3,0,0.6,0,0.8,0c0.1,0.6,0.2,1.2,0.3,1.8c-0.2,1.4-0.3,2.9-0.6,4.6c-1.9-1-2.2-2.7-2.6-4.4
		c0.3-0.3,0.6-0.7,0.9-1c0.1-0.2,0.1-0.3,0.2-0.5C152.2,106.4,152.5,106.2,152.7,106z"/>
	<path class="st285" d="M138.3,107.5c-1.6,2-3.7,2.4-5.7,3.5C134,108.3,134,108.3,138.3,107.5z"/>
	<path class="st213" d="M142.9,114.1c-0.2-0.2-0.3-0.5-0.5-0.7c0.4-0.1,0.9-0.3,1.3-0.4c1,0.7,2,1.4,2.9,2c-0.3,0.6-0.6,1.2-1.4,1.3
		C143.9,116.2,143.2,115.3,142.9,114.1z"/>
	<path class="st286" d="M124.6,112.7c0-0.3,0.1-0.6,0.4-0.8c0.7,0.4,1.7,0.6,1.9,1.2c0.4,0.9-0.6,0.8-1.2,0.9c-0.3,0-0.7,0-1,0
		C124.6,113.6,124.6,113.1,124.6,112.7z"/>
	<path class="st287" d="M144.1,108.6c-0.1-0.7,0.1-1.2,0.7-1.1c0.3,0.1,0.6,0.6,0.8,1c0.1,0.2-0.3,0.5-0.4,0.8
		C144.7,109.1,144.3,108.8,144.1,108.6z"/>
	<path class="st288" d="M145.7,116c0.3-0.3,0.7-0.7,1-1c0.4,0.7,0.7,1.3,1.1,2c-0.1,0.4-0.3,0.9-0.4,1.3c-0.2-0.2-0.5-0.3-0.7-0.5
		C145.7,117.5,145.2,117,145.7,116z"/>
	<path class="st289" d="M97.7,148c3.6,1,1.4,4,2,6c0,0,0,0,0,0c-1,1.5-1.7,3.4-3.8,3.9c-2.1,0-4.3,0.7-6.2-0.9
		c-2.3-3.1-4.1-6.3-2.3-10.4c1-2.2,2.7-3.4,4.9-3.5c2.5-0.2,4,1.2,4.4,3.7C96.2,147.9,96.2,148.5,97.7,148z"/>
	<path class="st290" d="M89.7,157c2.3,0,4.7,0,7,0c0.2,0.2,0.3,0.5,0.3,0.7c0,0.3,0,0.4-0.1,0.4c-0.5,0.7-1.6,0.3-2.2,0.9
		c-1.7-0.2-3.6,0.7-5-1C89.7,157.7,89.7,157.3,89.7,157z"/>
	<path class="st291" d="M97.7,148c-0.1,0.9-0.1,1.9-0.2,3c-2.1-1-3.2-2.3-2.5-4.5c0-0.1,1.1,0.2,1.7,0.4
		C97,147.2,97.3,147.6,97.7,148z"/>
	<path class="st292" d="M101.7,134c1.7,1.4,0.7,3.3,1,5c-0.1,1.1,0.1,2.3-1,3C101.7,139.3,101.7,136.7,101.7,134z"/>
	<path class="st293" d="M96.7,158c0-0.3,0-0.7,0-1c0.7-1.3,1.7-2.3,3-3c0,2.7,0,5.3,0.1,8c1,3,2,6,2.9,9c-0.9,2.4-2.4,3.4-4.9,2.2
		c-0.1-1.4-0.1-2.8-0.2-4.2c-0.3-1.2-0.2-2.8-2-3c-0.3-0.7-0.7-1.3-1-2C93.4,161.4,97.7,160.6,96.7,158z"/>
	<path class="st294" d="M97.8,173.2c2.1,0.3,3.5-0.9,4.9-2.2c0.3,0.7,0.7,1.3,1,2c-0.1,4.1,0.9,8.2-0.5,12.2c-2.8,1.3-3.3,1-5.9-2.8
		c-0.1-0.6,0-1.1,0.3-1.5c-0.2-0.3-0.1-0.6,0.1-0.9c0.8-2,0.6-3.9,0.2-5.9C97.8,173.8,97.7,173.5,97.8,173.2z"/>
	<path class="st90" d="M96.7,158c2.5,3.1-2.1,3.8-2,6c-0.4-1-5.4-1.9-0.1-3.2c1.1-0.3,0.9-1.2,0.1-1.8C95.1,158.2,95.9,158,96.7,158
		z"/>
	<path class="st295" d="M92.8,182c1.5-2.6,1.8-5.4,2.1-8.3c0.3,0.1,0.6,0.1,0.8,0.2c0,2.3,0,4.7,0,7c-1,0.6-1.5,2.1-3,2.1
		C92.8,182.7,92.8,182.3,92.8,182z"/>
	<path class="st296" d="M95.7,166c4.1-1.2,2.8,1.1,2,3C97,168,96.3,167,95.7,166z"/>
	<path class="st295" d="M97.6,180.9c0.2,0.2,0.2,0.3,0.1,0.5c0,0.9,0,1.8,0,2.8c-0.1,0.7-0.4,1.3-1,1.8c-1.6-1.5-1-3.3-0.9-5.1
		C96.4,180.9,97,180.9,97.6,180.9z"/>
	<path class="st297" d="M97.9,174.1c1.2,2,1.4,4-0.2,5.9C97.8,178,97.8,176,97.9,174.1z"/>
	<path class="st298" d="M119.5,102.9c-1.9,0-3.9,0-5.8,0c1.3-1.6,3.7-0.1,5-1.8C120.1,101.1,119.6,102.1,119.5,102.9z"/>
	<path class="st299" d="M150.8,106c0.3,0,0.5,0,0.8,0c0,0,0.2-0.1,0.2-0.1c0.2,0.4,0.1,0.7-0.2,1c0,0,0.1,0.1,0.1,0.1
		C151.1,106.9,150.6,106.7,150.8,106z"/>
	<path class="st300" d="M151.6,106.9c0.1-0.3,0.2-0.7,0.2-1c0.3,0,0.6,0.1,0.9,0.1C152.3,106.3,152,106.6,151.6,106.9z"/>
	<path class="st301" d="M125.7,208.8c-0.7,0.1-1.4,0.3-2.1,0.4c-3.3,0.4-6.6,0.5-9.8,0c-0.7-0.1-1.3-0.2-2-0.4
		C116.4,207.5,121,207.6,125.7,208.8z"/>
	<path class="st302" d="M102.7,197.8c0.8,0.3,1.6,0.6,2.3,1c-0.2,0.7-0.8,0.7-1.3,1.1c-2.2-0.2-4.1-1-6-2c0.3-0.3,0.7-0.6,1-0.9
		C100.1,197.2,101.4,197.5,102.7,197.8z"/>
	<path class="st303" d="M103.7,199.9c0.4-0.4,0.8-0.7,1.3-1.1c1.9,0.1,3.5,0.8,4.7,2.2c-1,0-2.1,0.1-3.1,0.1
		C105.7,200.7,104.7,200.3,103.7,199.9z"/>
	<path class="st304" d="M128.5,208.9c0.7,0.3,1.4,0.6,2.2,0.9c-0.5,0.8-1.2,0.9-2,0.6c-0.3-0.1-0.5-0.1-0.8-0.2
		c-0.7-0.3-1.5-0.6-2.2-1C126.6,209.1,127.5,209,128.5,208.9z"/>
	<path class="st305" d="M96.7,186c0-0.7,0-1.4,0-2.1c2.2,0.6,4.1,1.4,4,4.1c0,0.3-0.1,0.7-0.1,1c-0.3,0.3-0.6,0.6-0.8,1
		c0,0-0.2,0-0.2,0c-0.7-0.1-1.6,0.2-1.9-0.9C97.3,188.1,97,187.1,96.7,186z"/>
	<path class="st264" d="M105.2,195c-0.8,0.4-1.7,0.7-2.5,1.1c-1.4-0.5-2.2-1.4-1.8-3C102.5,193.4,104.1,193.7,105.2,195z"/>
	<path class="st306" d="M113.7,209.2c3.3,0,6.6,0,9.8,0C120.3,210.5,117,210.5,113.7,209.2z"/>
	<path class="st118" d="M128.6,210.3c0.7-0.2,1.3-0.4,2-0.6c0.7,0.3,1.5-0.8,2.1,0.3c0.6,1-0.3,1.5-0.8,2.1
		c-0.2,0.3-0.3,0.6-0.4,0.9c-0.2,0.5-0.5,0.5-0.8,0.1C129.5,212.5,128.8,211.7,128.6,210.3z"/>
	<path class="st307" d="M130.7,213c0.3,0,0.5,0,0.8-0.1c0,1.7,0,3.4,0,5.1C130.1,216.6,130.8,214.7,130.7,213z"/>
	<path class="st308" d="M131.9,212.1c0.3-0.7,0.6-1.4,0.8-2.1c1-0.7,1.4-2.2,3-1.9c-1,2.1-2,4.1-2.9,6.2
		C132.5,213.5,132.2,212.8,131.9,212.1z"/>
	<path class="st309" d="M140.6,213.1c-0.6-0.4-1.1-0.7,0.1-0.9C140.7,212.4,140.7,212.8,140.6,213.1z"/>
	<path class="st310" d="M114.7,144.3c-2.6,1-2.8-0.5-2.7-2.5c0,0,0.3-0.1,0.4,0c0.1,0,0.2,0.2,0.4,0.3
		C113.7,142.5,114.7,143,114.7,144.3z"/>
	<path class="st311" d="M124.6,139.9c-0.3,0-0.7,0.1-1,0.1c-2.4-1.7,0.9-1.9,1-3C124.6,138,124.6,139,124.6,139.9z"/>
	<path class="st312" d="M114.7,144.3c-0.6-0.7-1.3-1.5-1.9-2.2c0.7-0.6,1.4-1.6,2.3-0.4C115.6,142.5,116.3,143.6,114.7,144.3z"/>
	<path class="st313" d="M102.7,186.1c-0.1-4.4-0.1-8.8,1-13.1c1.5,2.8,0.2,6.3,2.2,9c0.3,0.9,0.6,1.9,0.8,2.8
		c0.4,1.1-0.1,1.3-1.1,1.2c-2.4-1.6-1.8,1.7-3.1,2C102.1,187.3,102.1,186.7,102.7,186.1z"/>
	<path class="st314" d="M102.7,186.1c0,0.6,0,1.2-0.1,1.8c-0.6,0-1.3,0.1-1.9,0.1c-1.3-1.4-2.6-2.7-4-4.1c-0.1-1,0-1.9,1-2.5
		C99,183.4,100.5,185.1,102.7,186.1z"/>
	<path class="st315" d="M111.7,197.8c-2.3-0.7-5.4,0.5-6.6-2.8c3.1,0.4,6.1,0.8,9.2,1.2c0.4,0,0.6,0.3,0.6,0.6
		C113.9,197.1,112.6,196.8,111.7,197.8z"/>
	<path class="st316" d="M105.7,186c0.4-0.4,0.7-0.8,1.1-1.2c0.7,0.9,1.4,1.8,2.1,2.8c-0.2,0.7,0,2-1.2,1.6
		C106.3,188.7,105.7,187.4,105.7,186z"/>
	<path class="st317" d="M114.9,196.8c-0.2-0.2-0.4-0.4-0.6-0.6c2.6,0,5.2,0,7.7,0C119.8,197.2,117.3,196.6,114.9,196.8z"/>
	<path class="st318" d="M99.7,190c0.3-0.3,0.6-0.6,0.8-1C100.3,189.4,100,189.7,99.7,190z"/>
	<path class="st319" d="M101.8,162.9c1.2-0.5,1.5-4.2,3.6-1c-0.2,1-0.4,2-0.6,3.1c-0.2,1.3-0.3,2.5-0.6,4.4
		C102.4,167.2,102,165.1,101.8,162.9z"/>
	<path class="st320" d="M121.6,198.2c-2.6,1.3-5.3,1.3-7.9,0C116.3,198.2,119,198.2,121.6,198.2z"/>
	<path class="st321" d="M125.6,201.7c-5.3,0-10.7,1.3-16-0.8c4.6-1.9,9.4-0.2,14.1-0.7C124.3,200.8,125.9,200.1,125.6,201.7z"/>
	<path class="st322" d="M134.9,199.2c-2,1-4,1.8-6.3,1.7c-0.6-0.4-1.6-0.1-2-0.9c2.2-1.1,4.6-1.5,7.1-1.8
		C134.2,198.4,134.8,198.5,134.9,199.2z"/>
	<path class="st323" d="M126.6,200c0.7,0.3,1.3,0.6,2,0.9c-0.9,0.5-1.7,1.5-3,0.9c-0.6-0.5-1.3-1-1.9-1.5
		C124.7,200.1,125.7,200.1,126.6,200z"/>
	<path class="st324" d="M134.9,199.2c-0.4-0.3-0.8-0.7-1.2-1c1.1-1,2.4-1.3,3.8-1C137.6,199.1,136.1,199,134.9,199.2z"/>
	<path class="st325" d="M145.7,116c0.3,0.6,0.6,1.2,0.9,1.8c-3.7,1.2-4.8-0.1-3.7-3.7C143.8,114.8,144.7,115.4,145.7,116z"/>
	<circle class="st326" cx="130.4" cy="156.2" r="115"/>
</g>
</svg>
