<?xml version="1.0" encoding="utf-8"?>
<!-- Generator: Adobe Illustrator 19.0.0, SVG Export Plug-In . SVG Version: 6.00 Build 0)  -->
<svg version="1.1" id="Layer_1" xmlns="http://www.w3.org/2000/svg" xmlns:xlink="http://www.w3.org/1999/xlink" x="0px" y="0px"
	 viewBox="0 0 298.5 152" style="enable-background:new 0 0 298.5 152;" xml:space="preserve">
<style type="text/css">
	.st0{fill:#010101;}
	.st1{fill:#030202;}
	.st2{fill:#020101;}
	.st3{fill:#FE7821;}
	.st4{fill:#FB7D2B;}
</style>
<g>
	<path class="st0" d="M268.5,98.4c0-0.4,0-0.9,0.1-1.3c0-0.3-0.1-0.5-0.1-0.8c0-4.3,0.1-8.6,0.4-12.9c-0.1-3-0.1-6,0-8.9
		c-0.3-4.1-0.4-8.3-0.5-12.5c-0.2-0.8,0.1-1.7,0-2.4c-1.4-10.6-4.6-20.3-14.2-26.2c-13.4-8.2-27.5-9-41.2-1.2
		c-13.7,7.8-19.6,20.3-18.5,36c1.5,20.6,19.8,34.6,39.3,29.9c1.7-0.4,3.7-0.3,3.7-3c-0.1-7.6,0-15.2,0-23c-1.1,0.3-1.8,0.5-2.4,0.6
		c-6.7,1.2-11.9-2.1-12.6-8c-0.7-5.8,3.4-11.2,9.1-11.6c5.9-0.5,9.7,3.3,9.8,10.5c0.2,10.5,0.3,21,0,31.5c-0.4,10.4-6.6,16.1-16,16
		c-3.4-0.1-6.4-1.6-10.1-2.1c0,7,0.2,13.8-0.1,20.6c-0.1,3.2,1.1,4.2,4,5c21.8,6.2,43.4-6.9,48.4-29.7c0.3-1.4,0.3-2.9,0.6-4.3
		c0-0.4,0.1-0.8,0.2-1.2C268.4,99,268.4,98.7,268.5,98.4z"/>
	<path class="st1" d="M61.5,73.8c6.4,3.9,9.4,4,13.2,0.6c3.6-3.3,4.8-8.3,2.9-12.7c-1.9-4.5-6.5-7.1-11.2-6.5
		c-5.5,0.7-8.7,4.8-8.8,12c-0.2,13.7-0.1,27.3-0.1,41c0,5.8-0.1,11.7,0,17.5c0.1,2.4-0.3,3.6-3.2,3.5c-7.2-0.2-14.3-0.1-21.5,0
		c-1.9,0-3.2-0.1-3.1-2.6c0.5-22-1.2-44,0.8-65.9c1.9-20.3,19.6-34,40.8-32.5c20.4,1.5,36,19.1,35,39.5c-1,20.3-17.9,36.7-37.7,36.5
		c-7.1-0.1-7.1-0.1-7.2-7.1C61.5,89.3,61.5,81.6,61.5,73.8z"/>
	<path class="st2" d="M182.2,53.9c0,7.7,0.9,15.5-0.2,22.9c-2.6,17.5-17.6,28.4-35.5,27.1c-16.3-1.2-28.2-14-28.8-31.4
		c-0.4-13.1-0.1-26.3-0.2-39.5c0-2.4,0.6-3.1,3.1-3.1c7,0.2,14,0.2,21,0c3.1-0.1,3.4,1.2,3.4,3.8c-0.1,11.7-0.1,23.3,0,35
		c0,1.6,0.1,3.3,0.5,4.9c0.6,2.5,2.5,3.4,4.9,3.3c2.2,0,3.9-1,4.5-3.2c0.4-1.6,0.5-3.3,0.5-4.9c0-11.7,0.1-23.3,0-35
		c0-3,0.6-4,3.8-3.9c6.7,0.3,13.3,0.3,20,0c3.4-0.2,3.8,1.2,3.7,4c-0.2,6.7-0.1,13.3-0.1,20C182.4,53.9,182.3,53.9,182.2,53.9z"/>
	<path class="st3" d="M217.7,112.7c3.6,0.4,6.8,1.2,9.8,0.9c9.3-0.9,14.8-6.2,16-15.6c1.6-12.6,1.7-25.2,0-37.8
		c-0.9-6.4-5.2-9.9-11.1-10c-5.9,0-11.7,5.2-12.7,11.4c-0.9,5.6,2.8,12.5,8.3,13c7,0.6,7.3,4.3,6.7,9.4c-0.1,1.2,0,2.3,0,3.5
		c0,8.5,0,8-8.3,8.6c-12.4,0.9-25.8-9.4-28.5-24.5c-3.9-21.7,8.7-37.2,25.9-40.9c20.2-4.4,40.6,5.1,42,29.4
		c0.8,13.7,1.1,27.3-0.2,40.9c-2.1,21.5-23.4,36.6-43.8,31.3c-3-0.8-4.2-1.9-4-5C217.9,122.6,217.7,117.7,217.7,112.7z"/>
	<path class="st3" d="M53.5,125.9c-6,0.1-12,0-18,0.2c-2.5,0.1-3.1-0.9-3-3.2c0.1-19.6-0.4-39.3,0.3-58.9
		c0.4-13.1,6.5-23.7,18.8-29.5c12.6-5.9,25.1-5.4,36.9,2.4c11.3,7.5,17.4,21.9,14.7,35C100,87,90.8,96.7,76,100.6
		c-10,2.7-11.6,1.1-11.6-9.1c0-1.3,0-2.7,0-4c0.1-4.1-1.7-8.5,5.9-8.5c6.7,0,11.5-7.3,11-13.7c-0.5-7-5.9-12.4-12.8-13.1
		c-6.3-0.6-11.3,3.5-13.2,11c-0.4,1.6-0.6,3.2-0.9,4.9c-0.9,11.9-0.1,23.8-0.4,35.7C53.8,111.1,54.6,118.5,53.5,125.9z"/>
	<path class="st4" d="M53.5,125.9c0-17.6,0-35.1,0-52.7c0-1.8-0.6-3.7,0.8-5.2c0,18.5,0.1,37,0.1,55.4
		C54.5,124.4,54.9,125.5,53.5,125.9z"/>
	<path class="st3" d="M179.8,57.2c-0.5,6.5,1,14.5-1.2,22.4c-4.1,15.1-17.3,23.2-34.3,21.3c-13.2-1.5-23.7-13.7-23.9-28.2
		c-0.2-12,0-24-0.2-36c0-3.1,0.8-4.1,3.9-3.9c4.5,0.3,9,0.3,13.5,0c3.7-0.3,4.9,0.8,4.8,4.6c-0.3,11.3-0.2,22.7,0,34
		c0.1,6.5,5,9.8,10.8,7.5c3.7-1.5,4.5-4.5,4.5-8c0-11,0.2-22-0.1-33c-0.1-4.3,1.3-5.4,5.3-5.1c4.5,0.3,9,0.2,13.5,0
		c2.7-0.1,3.4,0.9,3.4,3.4C179.7,42.8,179.8,49.3,179.8,57.2z"/>
</g>
</svg>
