<?xml version="1.0" encoding="utf-8"?>
<!-- Generator: Adobe Illustrator 19.0.0, SVG Export Plug-In . SVG Version: 6.00 Build 0)  -->
<svg version="1.1" id="Layer_1" xmlns="http://www.w3.org/2000/svg" xmlns:xlink="http://www.w3.org/1999/xlink" x="0px" y="0px"
	 viewBox="0 0 400 200" style="enable-background:new 0 0 400 200;" xml:space="preserve">
<style type="text/css">
	.st0{fill:#03050B;}
	.st1{fill:#03050A;}
	.st2{fill:#5D5D5D;}
	.st3{fill:#5F5F5F;}
	.st4{fill:#2D65E8;}
	.st5{fill:#010101;}
	.st6{fill:#0A0907;}
	.st7{fill:#050404;}
	.st8{fill:#101216;}
	.st9{fill:#161513;}
	.st10{fill:#111317;}
	.st11{fill:#12141A;}
	.st12{fill:#1E1D1B;}
	.st13{fill:#15171B;}
	.st14{fill:#0C0F15;}
	.st15{fill:#151920;}
	.st16{fill:#191D25;}
	.st17{fill:#1C1B19;}
	.st18{fill:#0A0A0A;}
	.st19{fill:#3B3B3B;}
	.st20{fill:#1E2128;}
	.st21{fill:#262420;}
	.st22{fill:#191D26;}
	.st23{fill:#282724;}
	.st24{fill:#2B211C;}
	.st25{fill:#1E1C18;}
	.st26{fill:#0B0C0E;}
	.st27{fill:#131414;}
	.st28{fill:#070A10;}
	.st29{fill:#0E1421;}
	.st30{fill:#141821;}
	.st31{fill:#161A24;}
	.st32{fill:#1B1D21;}
	.st33{fill:#0B0909;}
	.st34{fill:#030405;}
	.st35{fill:#03060C;}
	.st36{fill:#050505;}
	.st37{fill:#0C0A09;}
	.st38{fill:#030305;}
	.st39{fill:#060605;}
	.st40{fill:#040508;}
	.st41{fill:#090807;}
	.st42{fill:#060608;}
	.st43{fill:#271F1E;}
	.st44{fill:#05070B;}
	.st45{fill:#0B0A0B;}
	.st46{fill:#080A10;}
	.st47{fill:#060A13;}
	.st48{fill:#17140D;}
	.st49{fill:#070D1D;}
	.st50{fill:#0B0908;}
	.st51{fill:#030711;}
	.st52{fill:#090805;}
	.st53{fill:#06070A;}
	.st54{fill:#030506;}
	.st55{fill:#050B19;}
	.st56{fill:#070D1B;}
	.st57{fill:#0C0C0C;}
	.st58{fill:#19140B;}
	.st59{fill:#050C1C;}
	.st60{fill:#050913;}
	.st61{fill:#040914;}
	.st62{fill:#070D1C;}
	.st63{fill:#080E1A;}
	.st64{fill:#040912;}
	.st65{fill:#090D17;}
	.st66{fill:#F6F6F6;}
	.st67{fill:#EFD097;}
	.st68{fill:#C19F5E;}
	.st69{fill:#D2B262;}
	.st70{fill:#342A25;}
	.st71{fill:#271F1F;}
	.st72{fill:#0E0C09;}
	.st73{fill:#363636;}
	.st74{fill:#383838;}
	.st75{fill:#3F3F3F;}
	.st76{fill:#373737;}
	.st77{fill:#323232;}
	.st78{fill:#0E0C0C;}
	.st79{fill:#B78F66;}
	.st80{fill:#C49B6E;}
	.st81{fill:#221F1D;}
	.st82{fill:#FCDC9E;}
	.st83{fill:#120E12;}
	.st84{fill:#21181B;}
	.st85{fill:#08060E;}
	.st86{fill:#FCE3A0;}
	.st87{fill:#EDCE96;}
	.st88{fill:#211E1D;}
	.st89{fill:#80142F;}
	.st90{fill:#C7AD7F;}
	.st91{fill:#BE9C5F;}
	.st92{fill:#CEB171;}
	.st93{fill:#191417;}
	.st94{fill:#BF9F64;}
	.st95{fill:#7F6A43;}
	.st96{fill:#262115;}
	.st97{fill:#353535;}
	.st98{fill:#303030;}
	.st99{fill:#43372B;}
	.st100{fill:#11100E;}
	.st101{fill:#211A1C;}
	.st102{fill:#392D2A;}
	.st103{fill:#070605;}
	.st104{fill:#FCE1A1;}
	.st105{fill:#C09E5C;}
	.st106{fill:#42362B;}
	.st107{fill:#EDCF95;}
	.st108{fill:#3C312D;}
	.st109{fill:#816C45;}
	.st110{fill:#14110D;}
	.st111{fill:#2E2E2E;}
	.st112{fill:#080706;}
	.st113{fill:#B9995B;}
	.st114{fill:#C2A262;}
	.st115{fill:#311E20;}
	.st116{fill:#BD9F5D;}
	.st117{fill:#15101A;}
	.st118{fill:#020101;}
	.st119{fill:#2F2624;}
	.st120{fill:#E9CB92;}
	.st121{fill:#E4C084;}
	.st122{fill:#1B1913;}
	.st123{fill:#FEE79E;}
	.st124{fill:#FCE7A6;}
	.st125{fill:#1F1D19;}
	.st126{fill:#ECCD93;}
	.st127{fill:#090706;}
	.st128{fill:#302725;}
	.st129{fill:#BA9A5C;}
	.st130{fill:#7F1130;}
	.st131{fill:#15191C;}
	.st132{fill:#CDAA65;}
	.st133{fill:#453727;}
	.st134{fill:#BB9C5E;}
	.st135{fill:#BE9D5D;}
	.st136{fill:#281D21;}
	.st137{fill:#D1B072;}
	.st138{fill:#F1D199;}
	.st139{fill:#1C181A;}
	.st140{fill:#DEC283;}
	.st141{fill:#CCAD71;}
	.st142{fill:#BF9F65;}
	.st143{fill:#271F21;}
	.st144{fill:#342A27;}
	.st145{fill:#302523;}
	.st146{fill:#271A1D;}
	.st147{fill:#392424;}
	.st148{fill:#2A2221;}
	.st149{fill:#1E161B;}
	.st150{fill:#352C28;}
	.st151{fill:#292122;}
	.st152{fill:#3E352D;}
	.st153{fill:#28201D;}
	.st154{fill:#342524;}
	.st155{fill:#090016;}
	.st156{fill:#241D1B;}
	.st157{fill:#07050F;}
	.st158{fill:#FBDCA0;}
	.st159{fill:#2F1D1F;}
	.st160{fill:#3D312C;}
	.st161{fill:#FDE4A5;}
	.st162{fill:#F2CA8A;}
	.st163{fill:#392922;}
	.st164{fill:#F2D49C;}
	.st165{fill:#372824;}
	.st166{fill:#C1A561;}
	.st167{fill:#443A32;}
	.st168{fill:#FDE5A4;}
	.st169{fill:#111419;}
	.st170{fill:#1F1717;}
	.st171{fill:#151518;}
	.st172{fill:#B89A5F;}
	.st173{fill:#C99C70;}
	.st174{fill:#F1D59A;}
	.st175{fill:#F1D89F;}
	.st176{fill:#554B42;}
	.st177{fill:#FEDBA3;}
	.st178{fill:#B31F35;}
	.st179{fill:#E9D098;}
	.st180{fill:#251C1C;}
	.st181{fill:#0F1319;}
	.st182{fill:#403529;}
	.st183{fill:#181717;}
	.st184{fill:#332518;}
	.st185{fill:#3C2E2E;}
	.st186{fill:#0F0914;}
	.st187{fill:#281D1C;}
	.st188{fill:#EED096;}
	.st189{fill:#261D1E;}
	.st190{fill:#3A2F25;}
	.st191{fill:#DFC28A;}
	.st192{fill:#C09F61;}
	.st193{fill:#141015;}
	.st194{fill:#BA9B5C;}
	.st195{fill:#0F0D12;}
	.st196{fill:#161316;}
	.st197{fill:#342A26;}
	.st198{fill:#261B1C;}
	.st199{fill:#282024;}
	.st200{fill:#1F181F;}
	.st201{fill:#4C3E31;}
	.st202{fill:#EFD69D;}
	.st203{fill:#382E29;}
	.st204{fill:#BD9D54;}
	.st205{fill:#F0D399;}
	.st206{fill:#322827;}
	.st207{fill:#F7D89A;}
	.st208{fill:#8B795E;}
	.st209{fill:#05030D;}
	.st210{fill:#D8B97C;}
	.st211{fill:#130F10;}
	.st212{fill:#665742;}
	.st213{fill:#FAD99D;}
	.st214{fill:#FCDFA2;}
	.st215{fill:#0F0A13;}
	.st216{fill:#322824;}
	.st217{fill:#FBE1A2;}
	.st218{fill:#E2C58B;}
	.st219{fill:#372B24;}
	.st220{fill:#FDE3A3;}
	.st221{fill:#E7C98F;}
	.st222{fill:#FDDFA2;}
	.st223{fill:#EBCC94;}
	.st224{fill:#100B11;}
	.st225{fill:#201815;}
	.st226{fill:#E6BF7D;}
	.st227{fill:#05000B;}
	.st228{fill:#0F0C11;}
	.st229{fill:#0E0A11;}
	.st230{fill:#F8DC9F;}
	.st231{fill:#E3C387;}
	.st232{fill:#1D1717;}
	.st233{fill:#E1C286;}
	.st234{fill:#FBDE9F;}
	.st235{fill:#0D0811;}
	.st236{fill:#B11F35;}
	.st237{fill:#251E20;}
	.st238{fill:#CAA361;}
	.st239{fill:#EBCD95;}
	.st240{fill:#E2C68B;}
	.st241{fill:#211D1C;}
	.st242{fill:#080413;}
	.st243{fill:#302821;}
	.st244{fill:#2D1D1D;}
	.st245{fill:#322525;}
	.st246{fill:#403429;}
	.st247{fill:#EED39A;}
	.st248{fill:#07040E;}
	.st249{fill:#251D23;}
	.st250{fill:#8A1530;}
	.st251{fill:#473C30;}
	.st252{fill:#0C1210;}
	.st253{fill:#2A1B1D;}
	.st254{fill:#C9A663;}
	.st255{fill:#312422;}
	.st256{fill:#302220;}
	.st257{fill:#0E0B17;}
	.st258{fill:#E8B421;}
	.st259{fill:#D8A921;}
	.st260{fill:#3C2E20;}
	.st261{fill:#1C1620;}
	.st262{fill:#282220;}
	.st263{fill:#D6AB21;}
	.st264{fill:#78122B;}
	.st265{fill:#695542;}
	.st266{fill:#3E3328;}
	.st267{fill:#251F1F;}
	.st268{fill:#261C1D;}
	.st269{fill:#43372C;}
	.st270{fill:#EDCF96;}
	.st271{fill:#201A1E;}
	.st272{fill:#161218;}
	.st273{fill:#291F1E;}
	.st274{fill:#191416;}
	.st275{fill:#22191D;}
	.st276{fill:#3F3226;}
	.st277{fill:#312826;}
	.st278{fill:#251D21;}
	.st279{fill:#1F171C;}
	.st280{fill:#3D3123;}
	.st281{fill:#D1B987;}
	.st282{fill:#E9D398;}
	.st283{fill:#B51F36;}
	.st284{fill:#3A2D27;}
	.st285{fill:#A41C33;}
	.st286{fill:#FCEAA8;}
	.st287{fill:#010B0C;}
	.st288{fill:#C9B485;}
	.st289{fill:#281E20;}
	.st290{fill:#2A211F;}
	.st291{fill:#D7B372;}
	.st292{fill:#221A20;}
	.st293{fill:#161014;}
	.st294{fill:#F9DB9D;}
	.st295{fill:#110D13;}
	.st296{fill:#201818;}
	.st297{fill:#0B080F;}
	.st298{fill:#1F171B;}
	.st299{fill:#FCDEA0;}
	.st300{fill:#FBDBA0;}
	.st301{fill:#191218;}
	.st302{fill:#5C4E41;}
	.st303{fill:#261F1F;}
	.st304{fill:#0B0114;}
	.st305{fill:#261E1C;}
	.st306{fill:#261F1B;}
	.st307{fill:#1A120F;}
	.st308{fill:#22181B;}
	.st309{fill:#251E1E;}
	.st310{fill:#3F332B;}
	.st311{fill:#F4F1F1;}
	.st312{fill:#2D2521;}
	.st313{fill:#42362C;}
	.st314{fill:#ECCF96;}
	.st315{fill:#CEAF71;}
	.st316{fill:#3D3327;}
	.st317{fill:#FDE6A5;}
	.st318{fill:#292324;}
	.st319{fill:#E7D188;}
	.st320{fill:#6D583F;}
	.st321{fill:#BE2037;}
	.st322{fill:#251A1E;}
	.st323{fill:#0D0F12;}
	.st324{fill:#0E1317;}
	.st325{fill:#BFA062;}
	.st326{fill:#2F161E;}
	.st327{fill:#91764C;}
	.st328{fill:#291F22;}
	.st329{fill:#CFA31F;}
	.st330{fill:#1A1515;}
	.st331{fill:#1A1415;}
	.st332{fill:#DDDADA;}
	.st333{fill:#C3A362;}
	.st334{fill:#352C27;}
	.st335{fill:#2C2624;}
	.st336{fill:#DABB7C;}
	.st337{fill:#C7B483;}
	.st338{fill:#B9994D;}
	.st339{fill:#C2A25F;}
	.st340{fill:#E5CE95;}
	.st341{fill:#372E29;}
	.st342{fill:#382929;}
	.st343{fill:#0E1117;}
	.st344{fill:#231A1B;}
	.st345{fill:#D8D6D6;}
</style>
<g>
	<path class="st0" d="M0.5,90c0.1-3.6,0.6-7.1,1.8-10.4c1.4,0,1.4,1.1,1.7,2C3,92,2,102.4,3.4,112.8c0.4,3.2,1.8,6.3,1.5,9.6
		c-0.3,0.9-0.4,2-1.7,2c-1.6-4.4-2.5-9-2.7-13.7c-0.7-1.3,0.3-2.9-0.7-4.2c0-4.1,0-8.2,0-12.2C0.8,92.9-0.2,91.3,0.5,90z"/>
	<path class="st1" d="M76.5,8.6c2.1-0.3,4.3-0.7,6.4-1c1.9-0.8,4,0.3,5.8-0.7c3.3,0,6.5,0,9.8,0c1.8,1.1,4-0.1,5.8,0.7
		c1.9,1.7,4.7-0.3,6.4,1.6c0.3,0.5,0.2,0.9-0.3,1.3c-1.3,0.7-2.6,0.4-4,0.2c-8.1-1.1-16.1-1.4-24.2-0.2c-1.8,0.3-3.7,0.7-5.6,0
		C76.1,9.9,76.1,9.3,76.5,8.6z"/>
	<path class="st2" d="M104.4,7.5c-2,0.2-4,0.5-5.8-0.7c1.9,0,3.8,0,5.7,0C104.3,7.1,104.3,7.3,104.4,7.5z"/>
	<path class="st2" d="M88.8,6.8C87,8.1,85,7.7,83,7.5c0.1-0.2,0.2-0.5,0.1-0.7C85,6.8,86.9,6.8,88.8,6.8z"/>
	<path class="st3" d="M0.5,90c0.3,1.5,0.6,3-0.7,4.2c0-1.4,0-2.7,0-4.1C0,89.8,0.2,89.8,0.5,90z"/>
	<path class="st3" d="M-0.2,106.4c1.3,1.2,0.9,2.7,0.7,4.2l-0.4,0.1l-0.3-0.2C-0.2,109.2-0.2,107.8-0.2,106.4z"/>
	<path class="st4" d="M76.5,10c11.4-2.1,22.9-1.9,34.3,0c2.9-0.9,5.5,1.2,8.4,1h0.3c1.9,1.1,4.1,1.5,6.2,2.3
		c1.1,0.3,2.1,0.8,3.1,1.2c1.3,0.8,2.8,0.9,4.1,1.8c3.8,2,7.7,3.8,11.2,6.3c1.2,0.8,2.6,1.4,3.7,2.4c1.2,0.8,2.6,1.4,3.3,2.7
		c1.8,1.5,3.7,2.7,5.4,4.3c2,2.1,4.6,3.5,5.9,6.3c1.5,1.5,3.2,2.9,4.2,4.8c1.7,0.9,2.2,2.8,3.4,4c0.5,0.5,0.7,1.2,1.2,1.8
		c1.8,2.2,2.6,5.2,4.4,7.4c0.7,1.1,1.2,2.2,1.8,3.3c0.4,0.8,0.7,1.7,1.2,2.5c1,1.7,0.9,3.8,2.1,5.4c1.8,4.6,3.3,9.3,4.1,14.1
		c2.8,12.2,2.8,24.5,0,36.7c-0.3,1.3-0.4,2.6-0.7,3.9c-0.8,3.6-2.2,7-3.4,10.5c-1.2,1.6-1,3.7-2.1,5.3c-0.7,1.3-1.2,2.7-2,3.9
		c-0.3,0.7-0.6,1.3-1,1.9c-1.8,2.2-2.5,5.1-4.4,7.4c-0.4,0.6-0.7,1.3-1.2,1.8c-1.2,1.5-2.1,3.3-3.6,4.6l0.1-0.1
		c-1.4,1.7-2.9,3.2-4.2,4.9c-1.6,2.2-2.7,4.9-5.6,5.8c-3.2,0.5-2.7-2-2.7-3.7c-0.2-7.3-2.1-14.2-4.3-21c-0.5-1.2-0.7-2.4-1.3-3.6
		c-1.3-3.3-2.1-6.8-3.7-10c-0.4-1.1-1.1-2.1-1.7-3.1c-1.2-4.3-1.9-8.7-3.2-13c-0.4-1.7-0.7-3.3-2.3-4.4c-0.9-1.9-3.1-2.7-3.7-4.8
		c-0.2-1.1-0.4-2.3-1-3.3c-0.9-2.2-2.3-4.3-3.1-6.6c-1-4.1,0.6-8.1,0.1-12.1c-0.2-7.3-2.8-13.8-6.2-20c-0.7-1.2-1.2-2.4-2.4-3.2
		c-3.3-4.1-3.2-5.5,0.6-7.8c1.7-0.6,3.4-1.4,4.3-3.1c2.1-2.7,5.7-4.5,4.8-8.8c0-4-2.6-5.3-5.9-6c-1.6-0.3-3.2-0.1-4.9-0.1
		c-8.4-0.4-16.4,1.8-24.6,3c-2.2,0.7-4.5,0.6-6.7,1.1c-2.5,0.2-4.6,1.3-6.3,3.1c-0.9,0.6-2,0.8-3,1.3c-1.8,0.9-3.2,2.1-4.2,3.9
		c-2.2,3.2-5.3,5.3-8.8,6.9c-2.3,0.8-3.5,3.1-5.7,4c-1.3,0.6-2.5,1.4-3.6,2.3c-1.2,0.9-2.7,1.1-4,1.6c-0.8,0.3-1.7,0.5-2.4,1.1
		c-1.8,2.5-3.3,5.3-5.5,7.6c-0.9,1-1.8,1.9-2.9,2.7c-2.4,1.3-3.3,3.7-4.4,5.9c-0.6,0.9-1.2,1.7-1.7,2.6c-0.3,0.6-0.6,1.2-1,1.8
		c-0.9,1.3-1.7,2.7-2.4,4c-1.2,1.6-2,3.4-3.1,5c-0.6,0.9-1.1,1.8-1.5,2.9c-0.4,3.4-2.1,6.7-0.2,10.1c0.8,1.7,2.4,2.6,3.9,3.6
		c2.3,2.4,5.3,3.3,8.3,4c2.4,0.4,4.2-0.4,5.5-2.4c0.9-1.3,1.9-2.3,3.6-1.8c1.2,0.5,2.2,1.1,3,2.2c0.5,0.9,0.6,2,0.5,3
		c-0.1,1.5-1,2.5-2,3.5c-1.3,1-2.4,2-3,3.6c-0.4,0.8-0.8,1.6-1.2,2.3c-0.6,0.9-1.2,1.8-1.5,2.8c-0.4,1.1-0.5,2.4-0.8,3.5
		c-0.8,6.8-1.4,13.6-3.3,20.3c-1.9,6.8-1,13.9-0.8,20.9c0,1.2,0.4,2.4-0.4,3.5c-1.7,1.3-2.7-0.3-4-1.1c-2.2-1-3.3-3.2-5.3-4.4
		c-2.4-1.4-4.5-3.1-5.7-5.8c-1.2-1.8-3.1-2.9-4.2-4.8c-1.1-1.6-2.2-3.2-3.4-4.7c-0.5-0.5-0.7-1.2-1.2-1.8c-1.8-2.3-3-5-4.7-7.4
		c-0.7-1.3-1.2-2.7-2-4c-1-2.1-1.8-4.3-2.8-6.3c-1.4-3.6-2.7-7.2-2.8-11.2c-2.7-11.8-3.1-23.7-1.7-35.8c0.2-1.8,1-3.6,0.9-5.5
		c0.7-1.2-0.3-2.4,0.2-3.6c1.1-3.6,1.9-7.4,3.4-10.9c0.6-1.6,1.6-3,2.1-4.7c0.6-1.3,1.2-2.6,1.9-4c0.4-0.6,0.6-1.3,1-1.9
		c1.9-2.2,2.6-5.2,4.6-7.3c0.5-0.7,0.8-1.6,1.3-2.3c1-1,1.4-2.5,2.6-3.4c2-2.6,4.4-4.9,6.8-7.1c1.2-2,3.1-3.1,4.7-4.7
		c1.4-2,3.9-2.8,5.4-4.6c1.5-1.2,3-2.2,4.6-3.3c6.1-4.4,12.8-7.7,19.9-10.1c2-0.7,4.1-1.4,6.1-2.1c1.1-0.5,2.4-0.2,3.5-0.9
		C73,10.3,74.7,9.1,76.5,10z"/>
	<path class="st5" d="M373.7,93.4c0,6.2-0.1,11.9,0.1,17.6c0.1,2.5-0.9,3.2-3.1,3.7c-15.9,3.7-30.9-7.7-32-24.5
		c-0.9-12.8,3.9-23,15.1-29.4s22.7-5.7,33.6,1c6.1,3.7,9.6,9.4,10.6,16.2c2.1,14,2.5,28.3,0,42.2c-3.4,18.8-21.9,29.5-39.7,24
		c-1.5-0.5-2.8-0.6-2.8-2.7c0.1-5.9,0-11.9,0-18c3,0.5,5.5,1.7,8.3,1.8c7.7,0.1,12.7-4.6,13-13.1c0.3-8.6,0.2-17.1,0-25.7
		c-0.1-5.9-3.3-8.9-8.1-8.5c-4.6,0.4-7.9,4.7-7.4,9.5c0.6,4.8,4.9,7.5,10.3,6.4C372.3,93.8,372.8,93.6,373.7,93.4z"/>
	<path class="st5" d="M230,94.9c5.2,3.2,7.7,3.2,10.8,0.4c3-2.7,3.9-6.8,2.4-10.4c-1.6-3.7-5.3-5.8-9.2-5.4
		c-4.5,0.5-7.2,3.9-7.2,9.8c-0.1,11.2-0.1,22.3-0.1,33.5c0,4.8-0.1,9.5,0,14.3c0,1.9-0.2,3-2.6,2.9c-5.8-0.2-11.7-0.1-17.5,0
		c-1.5,0-2.6,0-2.5-2.1c0.4-18.1-1-36.2,0.7-54.2c1.6-16.4,16.6-27.7,33.6-26.1c16.6,1.5,29,15.7,28.2,32.2
		c-0.8,16.6-14.6,30-30.8,29.8c-5.8-0.1-5.8-0.1-5.8-5.8C230,107.5,230,101.2,230,94.9z"/>
	<path class="st5" d="M328.5,78.5c0,6.2,0.8,12.6-0.2,18.7c-2.1,14.1-14,23-28.6,22.2c-13.2-0.7-23.2-10.7-23.9-24.8
		c-0.6-11.1-0.1-22.3-0.3-33.4c0-2,0.8-2.2,2.4-2.1c5.7,0.1,11.4,0.2,17.1,0c2.4-0.1,2.9,0.8,2.8,3c-0.1,9.2-0.1,18.5,0,27.7
		c0,1.1,0,2.2,0.1,3.3c0.2,2.6,1.4,4.4,4.3,4.4c3,0,4.1-2,4.1-4.5c0.1-7.3,0-14.7,0.1-22c0-3.8-1.3-8.9,0.6-11
		c2.2-2.4,7.4-0.7,11.3-0.7c3.4,0,7.9-1.5,9.7,0.6c1.7,2,0.6,6.4,0.6,9.8c0,3,0,6,0,9C328.7,78.5,328.6,78.5,328.5,78.5z"/>
	<path class="st6" d="M39,174.3c1.6-2.7-0.1-5.4-0.2-8.1c-0.1-8,0.5-15.8,2.8-23.5c1-3.4,0.9-7.1,1.3-10.7c0.2-1.3-0.4-2.7,0.8-3.8
		c0.3,0.2,0.6,0.5,0.8,0.9c0.1,0.4,0.2,0.8,0.3,1.1c0.1,1.1,0,2.3,0.2,3.4c0.1,0.8,0.4,1.5,0.7,2.2c0.6,2.3,1.8,4.4,1.5,6.8
		c-0.1,0.4-0.2,0.7-0.4,1.1c-1.7,1.8-2.1,4.2-2.9,6.5c-1.4,5.3-1.5,10.6-1.4,16c-0.2,5.9,2,10.7,6.5,14.5c-0.1,0.7-0.4,1.2-1.3,0.8
		c-3.7-1.1-6.3-4-9.6-5.9C37.8,174.9,38.3,174.6,39,174.3z"/>
	<path class="st7" d="M150.1,143.1c3.3,6.9,4.5,14.2,5,21.7c0.1,1.3-1.2,3.5,1.5,3.8c0.1,1.7-1.1,2.2-2.5,2.5c-1-3.2,0-6.4-0.5-9.1
		c-0.2,2.9,0.4,6.4-0.3,9.9c-0.2,0.9-0.7,1.5-1.6,1.7c-0.7-0.3-1.1-0.7-1.2-1.4c2.2-8.6-0.6-16.6-3.2-24.6
		c-2.1-6.2-5.4-11.9-6.2-18.4c0.1-0.4,0.2-0.8,0.5-1.2c0.8-0.9,1.5,0,2.2,0.2c1.2,0.5,0.8,1.7,1.2,2.5c1.3,3.5,2.2,7.2,4,10.6
		C149.8,141.5,149.2,142.8,150.1,143.1z"/>
	<path class="st8" d="M184.2,119.2c0.6-7.1,2-14.1,1.7-21.3c-0.2-5.5-1.6-10.9-1.7-16.4c-0.2-0.9-0.8-1.9,0.9-1.9
		c3.4,13.9,3.4,27.7,0,41.6C183.4,121.1,184,120,184.2,119.2z"/>
	<path class="st9" d="M112.8,191.5c-9.2,2.8-18.7,2.7-28.1,1.9c-4.7-0.4-9.6-0.3-13.8-2.9c0.1-0.1,0.3-0.3,0.4-0.4
		c1.5-0.7,3-0.5,4.5-0.3c0.4,0.1,0.7,0.2,1.1,0.3c1.2,0.4,2.3,0.5,3.5,0c0.3-0.1,0.7-0.3,1-0.4c0.7-0.2,1.4-0.4,2,0.1
		c0.2,0.9,0.7,1.5,1.8,1.1c7-0.1,14,0.7,21-0.6c1.5,0,3-0.2,4.6-0.2C111.5,190.3,112.3,190.6,112.8,191.5z"/>
	<path class="st10" d="M185.1,79.5c-0.7,0.5-0.8,1.2-0.9,1.9c-1.4-4.6-2.7-9.2-4.1-13.8c-0.3-0.5-0.2-1,0.2-1.4
		C183.2,70.2,184.1,74.9,185.1,79.5z"/>
	<path class="st11" d="M144.1,23.3c-3.8-2.2-7.7-4.3-11.5-6.5c0.4-0.5,0.9-0.6,1.5-0.3c4.4,0.7,7.5,3.7,11,5.9
		C145.1,23.2,145,23.7,144.1,23.3z"/>
	<path class="st10" d="M4,122.6c1.1,3.7,2.2,7.5,3.3,11.2c0.5,1-0.1,1.1-0.9,1.2c-1.4-3.4-2.8-6.9-3.3-10.6
		C3.8,124,3.9,123.3,4,122.6z"/>
	<path class="st12" d="M70.8,190.5c-3.8-0.2-7.4-1.1-10.6-3.4c-0.2-0.5-0.1-0.8,0.4-1.1c3.5-0.7,6.5,1.2,9.6,2.3
		C71.1,188.6,71.6,189.5,70.8,190.5L70.8,190.5z"/>
	<path class="st10" d="M180.1,133c1.1-3.5,2.2-7,3.3-10.5c0.8,0.4,0.3,1.4,0.9,1.8c-0.9,3.5-1.6,7.1-3.9,10
		C179.9,134,179.8,133.5,180.1,133z"/>
	<path class="st13" d="M12.2,143.9c1.6,2.5,3.1,4.9,4.7,7.4c-0.3,0.4-0.3,1-0.9,1.1c-2-2.3-3.7-4.7-4.8-7.6
		C10.9,144,11.4,143.7,12.2,143.9z"/>
	<path class="st13" d="M170.5,151.4c1.6-2.5,3.1-5,4.7-7.6c0.5,0.4,0.6,0.9,0.2,1.4c-1.2,2.5-1.9,5.3-4,7.3
		C170.8,152.4,170.7,151.8,170.5,151.4z"/>
	<path class="st14" d="M6.4,135c0.3-0.4,0.6-0.8,0.9-1.2c1.8,1.6,2.1,4,3,6.1c-0.3,0.5-0.1,1.3-0.7,1.7C7.9,139.7,7.6,137.2,6.4,135
		z"/>
	<path class="st13" d="M175.2,56.9c-1.6-2.5-3.1-5.1-4.7-7.6c0.3-0.4,0.3-1,0.9-1.1c1.8,2.2,2.9,4.8,4,7.3
		C175.8,56,175.7,56.5,175.2,56.9z"/>
	<path d="M119.2,11c-3,1.3-5.6-0.9-8.4-1c0-0.3,0-0.6,0-0.8C113.9,8.9,116.7,9.4,119.2,11z"/>
	<path class="st15" d="M125.6,14c-2.1-0.9-4.8-0.4-6-3c2.9-0.3,5.3,1,7.8,2.2C127,14.1,126.1,13.6,125.6,14z"/>
	<path class="st12" d="M127.4,187.4c-2.2,1.3-4.7,2.1-7.2,2.5c-0.5,0.2-1,0.2-1.1-0.4c-0.2-0.9,0.6-1.3,1.2-1.8
		c1.6-0.9,3.3-1.6,5.2-1.6C126.2,186.2,127,186.5,127.4,187.4z"/>
	<path d="M21.1,157.8c1.8,1.3,3.7,2.6,3.9,5.1c-2.7-0.6-4-2.7-5-4.9C20.3,157.6,20.7,157.5,21.1,157.8z"/>
	<path d="M30.7,168.6c2.7,0,3.7,2.2,5.1,3.8c0.3,0.4,0.3,0.7-0.1,1.1C33.3,172.6,31.4,171.2,30.7,168.6z"/>
	<path class="st16" d="M169.5,47.8c-1.1-1.4-2.1-2.8-3.2-4.2c-0.4-0.4-0.4-0.8,0.2-1.1c2.4,0.5,3,2.6,4,4.3
		C170.4,47.4,170,47.7,169.5,47.8z"/>
	<path class="st17" d="M141,180.7c-1.9,1.1-3.5,2.7-5.8,3.2c-0.6-0.2-1-0.5-1-1.2c1.5-1.8,3.3-3.2,5.9-3.2
		C140.8,179.6,141.2,179.9,141,180.7z"/>
	<path class="st16" d="M166.4,158c0.1-2.3,1.8-3.6,3.1-5.2c0.5,0.1,0.9,0.5,1,1C169.4,155.4,169.1,157.9,166.4,158z"/>
	<path class="st16" d="M21.1,157.8c-0.4,0-0.8,0.1-1.1,0.1c-1.4-1.1-2.4-2.5-3.1-4.1c0.1-0.6,0.4-0.9,1-1
		C19.3,154.3,20.7,155.7,21.1,157.8z"/>
	<path class="st18" d="M112.8,191.5c-0.8-0.1-1.6-0.3-2.1-1.1c0.1-0.1,0.2-0.2,0.4-0.3c0.4-0.2,0.9-0.4,1.4-0.5
		c1-0.2,1.8-0.9,2.7-1.2c0.5-0.1,1.1-0.1,1.6,0.1c0.7,0.5,1.8,0.7,1.5,2C116.4,191.1,114.7,191.7,112.8,191.5z"/>
	<path d="M60.2,186.4c-0.1,0.2-0.1,0.5,0,0.7c-2.1,0.7-3.5-0.5-4.9-1.7c0-0.8,0.5-1.1,1.1-1.3C58.2,184.1,59.9,184.1,60.2,186.4z"/>
	<path d="M156.5,32.2c-2.4-0.8-4.2-2.3-5.8-4.1c0.4-0.4,0.8-0.4,1.2-0.1C153.8,29,155.9,29.8,156.5,32.2z"/>
	<path class="st19" d="M153.4,171.9c0-3.3,0-6.6,0-10c0.3,0,0.5,0,0.8,0c0,3.1,0,6.1,0,9.2C153.9,171.3,153.6,171.6,153.4,171.9z"/>
	<path class="st20" d="M151.9,27.9c-0.4,0-0.8,0.1-1.2,0.1c-1.1-0.8-2.1-1.6-3.2-2.4c0.1-0.6,0.4-0.9,1-1.1
		C149.9,25.5,151.7,25.8,151.9,27.9z"/>
	<path class="st21" d="M148.5,176.1c-1,1-1.9,2-3.4,2.1c-0.6-0.2-1.1-0.5-1-1.3c0.7-1.7,2-2.5,3.8-2.3
		C148.5,175,148.9,175.3,148.5,176.1z"/>
	<path class="st17" d="M47.8,181.6c0.3-0.3,0.7-0.5,1-0.8c2.1-0.7,3.4,0.3,4.3,2c-0.1,0.7-0.5,1.1-1.1,1.2
		C50.2,183.9,49.1,182.5,47.8,181.6z"/>
	<path d="M132.9,185c-1.4,0.7-2.7,1.4-4.1,2.1c-0.5-0.5-0.6-1.1-0.4-1.8c1.1-1.6,2.6-2.2,4.5-1.5C133.2,184.2,133.2,184.6,132.9,185
		z"/>
	<path class="st14" d="M180.1,133c0.1,0.5,0.1,0.9,0.2,1.4c0.3,1.9-0.2,3.5-1.7,4.8c-0.5-0.1-0.6-0.5-0.8-0.9
		C178.4,136.5,178.9,134.6,180.1,133z"/>
	<path class="st22" d="M148.5,24.6c-0.3,0.4-0.6,0.7-1,1.1c-1.1-0.8-2.3-1.6-3.4-2.4c0.3-0.3,0.7-0.6,1-0.8
		C146.6,22.6,147.5,23.6,148.5,24.6z"/>
	<path d="M162.2,162.8c0.7-2.3,2.1-3.9,4.2-4.9C165.7,160.1,164.6,162,162.2,162.8z"/>
	<path class="st14" d="M180.3,66.3c-0.1,0.5-0.1,0.9-0.2,1.4c-1.2-1.6-1.7-3.5-2.2-5.3c0.2-0.3,0.3-0.8,0.8-0.9
		C180.1,62.7,180.6,64.4,180.3,66.3z"/>
	<path d="M9.6,141.6c0.2-0.6,0.5-1.1,0.7-1.7c0.6,1.3,1.3,2.7,1.9,4c-0.3,0.3-0.7,0.6-1,1C10.4,144,9.7,142.9,9.6,141.6z"/>
	<path class="st23" d="M148.5,176.1c-0.3-0.4-0.7-0.7-1-1.1c0.3-1.9,1.5-2.7,3.4-2.4c0.3,0.3,0.6,0.7,0.9,1
		C150.9,174.8,149.8,175.5,148.5,176.1z"/>
	<path class="st24" d="M118.2,190.4c-0.5-0.5-1-1-1.6-1.5c0.3-0.6,0.9-1,1.4-1.4c0.4-0.3,0.8-0.6,1.3-0.7c0.7,0,1.4,0.1,1.4,1.1
		c0.2,0.8-2,0.9-0.5,1.9C119.5,190,118.8,190.2,118.2,190.4z"/>
	<path class="st25" d="M144.1,177.3c0.3,0.3,0.7,0.6,1,0.8c-1.4,0.8-2.7,1.6-4.1,2.5c-0.3-0.3-0.7-0.6-1-0.8
		C140.7,177.8,141.9,176.8,144.1,177.3z"/>
	<path d="M166.5,42.5c-0.1,0.4-0.1,0.8-0.2,1.1c-1.3-1.7-3.1-3.1-4-5.2C164.7,38.8,165.7,40.6,166.5,42.5z"/>
	<path d="M52,184.1c0.4-0.4,0.7-0.7,1.1-1.1c1.7-0.6,2.8,0,3.3,1.6c-0.4,0.3-0.7,0.5-1.1,0.8C54.3,184.9,52.9,185.2,52,184.1z"/>
	<path d="M177.9,138.3c0.3,0.3,0.5,0.6,0.8,0.9c-0.1,1.3-0.6,2.4-1.6,3.2c-0.4,0.3-0.7,0.3-1-0.1C176.6,141,177.2,139.6,177.9,138.3
		z"/>
	<path d="M35.7,173.5c0-0.4,0.1-0.7,0.1-1.1c1.4,0,2.2,1.1,3.2,1.9c-0.3,0.5-0.5,0.9-0.8,1.4C36.9,175.5,36.4,174.4,35.7,173.5z"/>
	<path class="st26" d="M134.1,16.5c-0.5,0.1-1,0.2-1.5,0.3c-1.4-0.4-2.8-0.7-3.9-1.7c0.1-0.5,0.6-0.6,0.9-0.8
		C131.2,14.8,133.1,14.8,134.1,16.5z"/>
	<path class="st10" d="M184.3,124.4c-0.7-0.4-0.8-1.1-0.9-1.8c0-1.2,0.1-2.4,0.8-3.4c0.1,0.7,0.1,1.5,0.9,1.9
		C184.8,122.2,184.5,123.3,184.3,124.4z"/>
	<path d="M175.2,56.9c0.1-0.5,0.2-0.9,0.2-1.4c1.2,0.9,1.8,2.3,2.2,3.7c-0.2,0.4-0.2,0.9-0.7,1C176,59.2,175.5,58.1,175.2,56.9z"/>
	<path d="M129.6,14.3c-0.3,0.3-0.6,0.5-0.9,0.8c-1-0.3-2.1-0.7-3.1-1c0.6-0.3,1.2-0.5,1.8-0.8C128.1,13.6,128.9,14,129.6,14.3z"/>
	<path d="M128.8,185.5c0,0.5,0,1,0,1.5c-0.5,0.1-1,0.2-1.4,0.3c-0.6-0.3-1.2-0.5-1.8-0.8C126.3,185.3,127.3,184.7,128.8,185.5z"/>
	<path d="M132.9,185c0-0.4,0-0.8-0.1-1.2c0.1-0.9,0.7-1.1,1.5-0.7c0.3,0.3,0.7,0.5,1,0.8C134.4,184.1,134,185.2,132.9,185z"/>
	<path d="M176.9,60.1c0.2-0.3,0.5-0.6,0.7-1c0.4,0.7,1.2,1.3,1,2.3c-0.3,0.3-0.5,0.6-0.8,0.9C177.5,61.6,177.2,60.8,176.9,60.1z"/>
	<path class="st27" d="M17.9,152.8c-0.3,0.3-0.7,0.7-1,1c-0.3-0.4-0.6-0.9-0.9-1.3c0.3-0.4,0.6-0.8,0.9-1.1
		C17.2,151.8,17.6,152.3,17.9,152.8z"/>
	<path class="st27" d="M170.5,153.8c-0.3-0.3-0.7-0.7-1-1c0.3-0.5,0.7-1,1-1.4c0.3,0.4,0.6,0.8,0.9,1.1
		C171.1,152.9,170.8,153.4,170.5,153.8z"/>
	<path d="M176,142.3c0.3,0,0.7,0.1,1,0.1c0,1.2-0.7,2.1-1.6,2.8c-0.1-0.5-0.2-0.9-0.2-1.4C175.5,143.3,175.7,142.8,176,142.3z"/>
	<path class="st27" d="M169.5,47.8c0.3-0.3,0.7-0.7,1-1c0.3,0.4,0.6,0.9,0.9,1.3c-0.3,0.4-0.6,0.8-0.9,1.1
		C170.2,48.8,169.8,48.3,169.5,47.8z"/>
	<path class="st28" d="M61.8,14.1C54.7,16.6,48,20,41.7,24.2c-0.9,0.4-1.1-0.2-1.1-0.9c5.8-4.6,12.2-8,19.3-10
		C60.8,13.1,61.8,12.5,61.8,14.1z"/>
	<path class="st10" d="M7.3,66.8C6.2,70.6,5.1,74.3,4,78.1c-0.8-0.4-0.5-1.3-0.9-1.8c0.5-3.7,1.8-7.2,3.3-10.6
		C7.2,65.7,7.8,65.8,7.3,66.8z"/>
	<path class="st29" d="M27,36.2c-1.5,3.2-4,5.5-6.7,7.7c-0.5-0.4-0.5-0.9-0.2-1.4C21.9,39.8,23.3,36.7,27,36.2z"/>
	<path class="st13" d="M16.9,49.3c-1.6,2.5-3.1,5.1-4.7,7.6c-0.7-0.7-0.6-1.4-0.2-2.2c0.6-2.6,2.3-4.6,4-6.5
		C16.6,48.3,16.6,48.9,16.9,49.3z"/>
	<path class="st30" d="M37.4,27.3c-1.6,1.8-3.2,3.6-5.8,4.1c0.3-2.9,2.9-3.6,4.8-5.1C37.3,26.1,37.6,26.5,37.4,27.3z"/>
	<path class="st11" d="M61.8,14.1c-0.6-0.3-1.2-0.5-1.8-0.8c2.1-1.2,4.3-2.1,6.8-2.2c0.4,0.2,0.9,0.3,1,0.9
		C65.8,12.6,63.8,13.3,61.8,14.1z"/>
	<path d="M76.5,10c-1.9,0.3-3.8,0.7-5.7,1c-0.2-0.2-0.3-0.4-0.3-0.7c0.1-0.2,0.1-0.3,0.2-0.3c1.7-1.3,3.9-0.7,5.7-1.5
		C76.5,9,76.5,9.5,76.5,10z"/>
	<path class="st31" d="M37.4,27.3c-0.3-0.3-0.7-0.6-1-1c1.3-1.2,2.5-2.5,4.2-3.1c0.4,0.3,0.7,0.6,1.1,0.9
		C40.4,25.3,39.2,26.7,37.4,27.3z"/>
	<path class="st14" d="M7.3,66.8C7,66.4,6.7,66,6.4,65.6C7.2,64,8,62.3,8.8,60.7c0.7,0.4,0.4,1.1,0.7,1.6C9,63.9,8.8,65.7,7.3,66.8z
		"/>
	<path d="M9.5,62.3c-0.2-0.5-0.5-1.1-0.7-1.6c0.2-1.3,0.6-2.4,1.6-3.3c0.5,0.1,0.8,0.4,1,0.9C10.8,59.7,10.1,61,9.5,62.3z"/>
	<path d="M70.8,10c0,0.3,0,0.7,0.1,1c-0.9,0.8-2,0.8-3.1,0.9c-0.3-0.3-0.7-0.6-1-0.9C67.9,10,69.4,10,70.8,10z"/>
	<path class="st32" d="M20.1,42.5c0.1,0.5,0.1,0.9,0.2,1.4c-0.6,1.2-1,2.5-2.3,3.1c-0.4,0.3-0.8,0.3-1.1-0.1
		C17.6,45.1,18.8,43.7,20.1,42.5z"/>
	<path class="st10" d="M3.1,76.2C3.8,76.6,3.9,77.3,4,78c0,1.2-0.1,2.3-0.8,3.3c-0.1-0.7-0.2-1.4-0.9-1.9
		C2.3,78.3,2.3,77.2,3.1,76.2z"/>
	<path d="M11.4,58.3c-0.3-0.3-0.6-0.6-1-0.9c0-1.2,0.6-2.1,1.5-2.8c0.1,0.7,0.2,1.5,0.2,2.2C11.9,57.4,11.7,57.8,11.4,58.3z"/>
	<path class="st27" d="M16.9,46.8c0.4,0,0.7,0.1,1.1,0.1c-0.1,0.9-0.4,1.7-1.1,2.4c-0.3-0.4-0.6-0.8-0.9-1.1
		C16.3,47.7,16.6,47.3,16.9,46.8z"/>
	<path class="st33" d="M143.5,128.5c-0.5-0.3-1.1-0.5-1.6-0.8c-3.2-1-2.2-4.1-3.1-6.3c-0.5-2.3-1.1-4.6-1.9-6.8
		c-0.8-3.2-3.7-5-5.1-7.7c-0.4-0.6-0.7-1.3-1-1.9c-0.5-1.2-1.1-2.3-1.9-3.3c-0.8-1.3-1-2.8-1.5-4.2c-0.4-1.5-0.4-3-1-4.4
		c-0.3-1.1-1-2-1.4-3.1c-0.3-0.9-0.3-1.9,0.1-2.8c2.4-0.4,2.9-1.9,2.1-4c-0.2-1.7-0.6-3.4-0.4-5.2c0.7-0.9,1.4-1.5,2.3-0.4
		c0.6,1.2,0.2,2.6,0.5,3.9c0.2,0.5,0.3,1,0.9,1.3c2.1,2.6-0.7,5.2-0.1,7.9c0.4,1.6,0.1,3.4,0.1,5.1c-0.1,2.4,1.7,4.1,2.4,6.2
		c0.6,0.9,0.8,2,1.4,2.8c0.4,2.1,3.9,2.1,3.4,4.9c1.7,0.8,1.5,2.9,2.7,4.1c1.8,4.4,2.7,9,3.1,13.7C144,127.8,144,128.2,143.5,128.5z
		"/>
	<path class="st34" d="M94.5,36.9c0.3-0.4,0.5-1.3,0.8-1.3c8.5-0.4,16.7-4,25.5-2.4c0.8,0.2,1.5,0.3,2.3,0.5
		c0.7,0.2,1.7-0.4,1.9,0.7c0.2,1.4-0.9,1.7-1.9,2c-6.9,0.2-13.7,1.1-20.4,2.4c-2.6,0.5-5.4,0.8-7.9-0.6
		C94.3,37.8,94.2,37.4,94.5,36.9z"/>
	<path class="st35" d="M130.6,82.7c-0.4-0.3-0.7-0.6-1.1-0.9c-0.8-1.2,0.2-2.6-0.7-3.8c-0.4-1-0.9-0.4-1.4-0.1c-2-2.5-2.8-5.6-4-8.4
		c0.1-1.7,0-3.3-1.2-4.7c-0.8-1.8-2.2-3.5-0.7-5.6c4,3.3,5.2,8.2,7.2,12.6C130.2,75.1,131,78.8,130.6,82.7z"/>
	<path class="st36" d="M121.4,59.1c0,2,0.9,3.8,1.6,5.7c0.3,1-0.2,1.5-1,1.8c-3.6-3.3-5.3-7.7-6.7-12.2c0.3-1.2,1-2.2,1.8-3.1
		c2.1-1.5,4.1-3.1,6.8-3.5c0.8,0,1.6,0.3,1.8,1.2c-0.4,1.3-1.4,2.1-2.6,2.1c-1.5,0-0.2,1.2-0.8,1.5
		C117.8,54.3,119.6,56.7,121.4,59.1z"/>
	<path class="st37" d="M65.9,52.7c3.4-1.7,6.4-3.9,8.9-6.6c0.7-0.6,1.4-0.7,2.3-0.4c0.3,0.2,0.6,0.6,0.7,1c0.1,1.3-0.7,2.2-1.6,3
		c-1,0.6-1.4,1.5-1.7,2.6c-0.5,0.9-1.3,1.4-2.1,1.8c-2.8,0.4-4.8,3.4-8,2.8C63.4,54.9,65.2,54,65.9,52.7z"/>
	<path class="st38" d="M49.6,108.9c-1.4-0.4-1.9,0.2-2.6,1.5c-1.5,2.7-3.8,4.3-7.1,3.2c-0.6-1.4-0.4-2.5,1.1-3.1
		c2.6-0.7,2.7-3,3.1-5.1c0.5-1.5,0.2-3.1,1-4.5c1-0.9,1.8-0.3,2.7,0.2c0.3,0.3,0.5,0.6,0.6,1c0,0.4,0,0.8-0.1,1.1
		c-0.4,0.7-1,1.5,0.1,2.2c0.7,0.6,1.4,1.1,1.7,2C50.2,108,50.1,108.5,49.6,108.9z"/>
	<path class="st39" d="M27.6,105.7c-3.2-3.9-0.7-7.6,0.2-11.4c1.4-0.2,1.8-1.4,2.5-2.3c0.7-0.7,1.3-1.5,2.4-1
		c0.2,0.3,0.4,0.7,0.5,1.1c-0.9,3.6-3.3,6.6-3.5,10.4c-0.2,0.8-0.3,1.5-0.7,2.2C28.6,105.2,28.2,105.6,27.6,105.7z"/>
	<path class="st40" d="M123.8,35.5c0.5-0.4,1.3-1.1,0-1.1s-2.2-0.5-3.1-1.1c6-0.8,9.4,0.7,11,4.7c0.4,1,0.7,1.7-0.4,2.4
		c-0.5,0.5-1.1,0.5-1.7,0.3C128.4,38.1,124.9,38.1,123.8,35.5z"/>
	<path class="st41" d="M40.7,111.3c-0.3,0.8-0.5,1.5-0.8,2.3c-3-1.2-6.8-0.9-8.2-4.7c-0.2-0.3-0.3-0.7,0-1c0.6-0.6,1.3-0.9,2.1-0.9
		C36,108.4,39.5,108,40.7,111.3z"/>
	<path class="st42" d="M129.7,40.3c0.5,0,1,0,1.6,0c1.9,4.9-2.4,6.5-4.9,9c-0.3,0.3-0.6,0.3-0.9,0c-0.4-0.6-1-0.8-1.6-0.8
		c-0.4-1.1,0.2-1.9,1-2.4C127.1,44.6,128.2,42.3,129.7,40.3z"/>
	<path class="st43" d="M52.2,113.9c-0.1-1.1-0.2-2.1-0.4-3.2c0.2-0.3,0.6-0.5,1-0.6c2.4,0.6,4.4,1.6,5.2,4.1
		c-0.2,0.9-0.9,1.6-1.3,2.4c-0.7,1-1.3,2.1-2.1,3c-0.3,0.2-0.7,0.2-1.1,0.1c-0.6-0.5-1-1.1-1.2-1.8
		C51.7,116.6,53.3,115.2,52.2,113.9z"/>
	<path class="st39" d="M32.5,91.8c0-0.3,0-0.6,0-0.9c-1-1.1-0.7-2.2,0.1-3.3c1.3-1.4,1.9-3.2,2.3-5c0-0.6,0-1.3,0.8-1.6
		c0.9-0.2,1.4-1.8,2.7-1c0.5,0.3,0.8,0.8,1,1.4C38,85.5,36.6,89.5,32.5,91.8z"/>
	<path class="st44" d="M52.8,60.7c1.1-1.3,3-0.6,4.2-1.5c0.9-0.5,1.7-0.1,2.4,0.4c0.4,0.4,0.5,0.9,0.5,1.4c-0.1,0.3-0.2,0.6-0.4,0.9
		c-0.3,0.4-0.6,0.7-0.9,1.2c-0.1,0.3-0.3,0.6-0.5,0.9s-0.5,0.5-0.8,0.6c-0.5,0.1-1,0.1-1.6,0c-1.2-0.3-2.5-0.3-3.6-0.9
		c-0.3-0.3-0.4-0.6-0.4-1C51.9,61.8,52.6,61.4,52.8,60.7z"/>
	<path class="st45" d="M52.1,62.4c0,0.3,0.1,0.7,0.1,1c0,0.9-0.8,1.3-1.3,1.9c-0.6,0.7-1,1.7-1.5,2.5c-0.8,1.2-1.6,2.3-3,2.8
		c-0.8,0.1-1.4-0.2-1.7-1c1.9-2.7,3.4-5.8,5.8-8.2C51.1,61.6,51.7,61.7,52.1,62.4z"/>
	<path class="st46" d="M148.5,141.5c-2.3-3.2-3-7-4.1-10.7c0.3-0.3,0.4-0.8,0.9-0.9c2,3,2.6,6.6,3.8,10
		C148.8,140.5,149,141.2,148.5,141.5z"/>
	<path class="st47" d="M82.1,41c1.2-3.2,4.1-3.1,6.7-3.8c0.8,1,0.2,1.8-0.5,2.6c-1.6,1-3.2,2.2-5.3,1.9C82.6,41.6,82.3,41.3,82.1,41
		z"/>
	<path class="st48" d="M53.2,110.4c-0.4,0.1-0.9,0.1-1.3,0.2c-1.2,0-1.9-0.7-2.2-1.7c0-0.6,0-1.2,0-1.7c-0.5-0.4-0.5-0.9-0.3-1.5
		c0.3-0.3,0.6-0.4,1-0.5c2.1-0.1,3,1.3,3.3,3.1C53.7,109.1,53.7,109.8,53.2,110.4z"/>
	<path class="st49" d="M37.3,78.7c1-2.7,1.6-5.6,4.9-6.6c0.5,0.4,0.6,1,0.5,1.5c-0.7,1.5-1.6,2.9-2.5,4.4c-0.5,0.6-1.1,1.1-1.9,1.1
		C37.9,79.1,37.6,78.9,37.3,78.7z"/>
	<path class="st50" d="M42.2,73.8c0-0.6,0-1.1,0-1.7c0.5-1.1,1.4-1.9,2.4-2.4c0.6,0.3,1.1,0.6,1.7,0.8c0.1,0.2,0.2,0.3,0.2,0.5
		c0,1.7-0.6,3-2.2,3.8c-0.4,0.1-0.7,0.2-1.1,0.2C42.7,74.8,42.4,74.4,42.2,73.8z"/>
	<path class="st51" d="M65.9,52.7c-0.5,1.4-1.1,2.7-1.6,4.1c0.1,1.1-0.8,1.3-1.6,1.5c-0.8,0.1-1.6,0-2.4-0.4
		c-0.2-0.2-0.3-0.4-0.3-0.7s0.1-0.4,0.1-0.4C62.5,55.9,63.5,53.3,65.9,52.7z"/>
	<path class="st52" d="M43.9,129.3c0-0.3-0.1-0.7-0.1-1c0.1-1.1-0.4-2.4,0.8-3.2c1-0.3,1.1-1.8,2.4-1.7c0.3,0.2,0.6,0.5,0.8,0.8
		c0.5,1.8,0.2,3.4-0.8,4.9C46,129.8,45,129.7,43.9,129.3z"/>
	<path class="st53" d="M88,39.5c0.3-0.8,0.6-1.5,0.8-2.3c1.9-0.3,3.7-1.2,5.7-0.3c0,0.3,0,0.6,0.1,0.9c-1.7,2-4.1,2.3-6.4,2.7
		c-0.2-0.2-0.3-0.4-0.3-0.6C87.8,39.6,87.9,39.5,88,39.5z"/>
	<path class="st54" d="M52.2,113.9c3.2,0.8-0.1,2.8,0.7,4c0,0.5-0.1,1-0.4,1.5c-0.2,0.3-0.5,0.5-0.8,0.6c-0.4,0.1-0.7,0-1.1-0.1
		c-0.3-0.2-0.6-0.5-0.7-0.8c-0.2-0.8-0.1-1.5,0.5-2C50.1,115.5,52.3,115.3,52.2,113.9z"/>
	<path class="st55" d="M33.2,87.7c-0.5,1-0.9,2.1-0.8,3.3c-0.6,0.5-1.1,1.1-1.7,1.6c-0.9,0.4-1.3-0.1-1.6-0.8c1-1.7,1.5-3.7,3.2-5
		C32.9,86.8,33,87.3,33.2,87.7z"/>
	<path class="st56" d="M77.4,46c-0.8,0-1.6,0-2.5,0c0.3-2.4,2.4-3.1,4.1-4.1c0.8,0.3,1.1,0.8,1.1,1.7C79.5,44.8,78.7,45.7,77.4,46z"
		/>
	<path class="st57" d="M132.9,102.4c-1.1-2.1-3.8-3.6-2.3-6.6c1.4,1.7,2.1,3.8,2.9,5.8C133.4,102,133.2,102.2,132.9,102.4z"/>
	<path class="st58" d="M46.3,122.7c0.3-0.8,0.7-1.6,1-2.4c0.9-0.6,1.7-1.9,3.1-0.9l0,0c0.3,0.2,0.4,0.5,0.5,0.9c0,0.3,0,0.7-0.2,1
		c-0.3,0.6-0.6,1.3-1.1,1.7c-0.7,0.5-1.5,0.9-2.4,0.5l-0.3-0.1C46.7,123.4,46.4,123.1,46.3,122.7z"/>
	<path class="st59" d="M125.5,49.3c0.3,0,0.6,0,0.9,0c-0.4,2.3-2.3,2.8-4.1,3.4C121.3,49.6,124.6,50.6,125.5,49.3z"/>
	<path class="st60" d="M33.2,87.7c-0.3-0.3-0.6-0.6-0.8-0.9c0.5-1.6,1-3.1,2.4-4.1C35.7,84.7,35.1,86.4,33.2,87.7z"/>
	<path class="st61" d="M31.7,108.1c0,0.3,0,0.5,0,0.8c-2.2,0-3.2-1.5-4.1-3.2c0.3-0.3,0.6-0.6,0.8-0.9
		C29.9,105.4,31.6,105.9,31.7,108.1z"/>
	<path class="st62" d="M50.4,119.5c-1,0.3-2.1,0.6-3.1,0.9c0.5-1.6,1-3.2,3.1-3.3C50.4,117.9,50.4,118.7,50.4,119.5z"/>
	<path class="st63" d="M60.2,56.8c0,0.2,0,0.4,0,0.7c0.8,1.2,0.3,1.9-0.8,2.4c-0.8-0.3-1.6-0.5-2.4-0.8C57.6,57.7,59,57.3,60.2,56.8
		z"/>
	<path class="st64" d="M29.2,91.7c0.5,0.3,1.1,0.5,1.6,0.8c-1.2,0.3-0.4,4-3.1,1.7C28.2,93.4,28.7,92.6,29.2,91.7z"/>
	<path d="M37.3,78.7c0.3,0,0.6,0.1,0.9,0.1c0.5,0.5,0.4,1,0,1.5c-1.2-1.2-1,3-2.5,0.7C35.9,80,36.2,79.1,37.3,78.7z"/>
	<path d="M140.5,113.7c-1.7-0.8-1.8-2.7-2.7-4.1C140.4,109.9,140.2,111.9,140.5,113.7z"/>
	<path d="M52.1,62.4c-0.7,0-1.3-0.2-1.6-0.9c0.6-0.9,1.5-0.9,2.3-0.9C54.1,61.9,53.2,62.2,52.1,62.4z"/>
	<path class="st65" d="M79.8,43.6c-0.3-0.5-0.5-1.1-0.8-1.6c0.8-1.2,2.1-0.7,3.1-0.9l0.2,0.2C82.2,42.8,81.5,43.7,79.8,43.6z"/>
	<path d="M132.9,102.4c0.2-0.3,0.4-0.5,0.6-0.8c0.7,1,1.3,1.9,0.9,3.2C133.4,104.3,132.9,103.5,132.9,102.4z"/>
	<path d="M46.3,122.7c0.2,0.3,0.5,0.5,0.7,0.8c-1.1,0-0.8,2.3-2.4,1.5C44.8,124,45.1,123.1,46.3,122.7z"/>
	<path d="M148.5,141.5c0.2-0.5,0.4-1.1,0.6-1.6c0.6,1,1.2,1.9,1,3.1C148.5,143.7,149.5,141.5,148.5,141.5z"/>
	<path d="M145.2,130c-0.3,0.3-0.6,0.6-0.9,0.9c0-0.9,0.1-1.8-0.8-2.4c0-0.3,0-0.7,0.1-1C145,127.7,145.3,128.7,145.2,130z"/>
	<path class="st66" d="M396.6,99.3c0,6.9,0.8,13.9-0.8,20.7c-3.8,16.3-19,26.1-34.6,22.5c-2.2-0.5-3.3-1.2-3.2-3.7
		c0.2-3.3,0.1-6.5,0-9.8c-0.1-1.8,0.4-2.2,2.3-2c11.5,1.7,18.4-3.5,19-14.8c0.4-8.7,0.3-17.4,0-26.1c-0.2-5.9-2.8-9.2-7.4-10.4
		c-4.5-1.1-9,0.9-11.5,5.1c-4,6.7,0,15,8,15.6c2.7,0.2,3,1.2,2.9,3.4c-0.1,2.8-0.3,5.8,0,8.6c0.5,3.6-1.5,4.3-4.3,4.5
		c-13.2,1.3-24.8-8.9-25.9-22.5c-1-12,3.4-21.5,13.8-27.4c10.6-6,21.4-5.3,31.6,1.2c7,4.5,9.4,11.7,9.9,19.6
		C396.8,88.9,396.6,94.1,396.6,99.3z"/>
	<path class="st66" d="M232.4,99.4c5.7,0.9,9.8-0.9,12.2-5c2.5-4.4,2.2-9.6-1-13.3c-3-3.6-8-5-12.6-3.3c-5.4,2.1-6.8,6.7-6.8,11.9
		c-0.1,14.6-0.2,29.1,0,43.7c0,3.4-0.8,4.6-4.2,4.2c-4.4-0.5-10.3,1.9-12.8-0.9c-2.2-2.5-0.7-8.3-0.7-12.6
		c0.2-13.2-0.8-26.4,0.5-39.6c1.6-15.7,15.6-26.3,31.8-24.4c15.7,1.9,27.1,16.2,25.1,31.6c-1.9,14.6-14.2,25.7-28.2,25.5
		c-2.6,0-3.6-0.7-3.4-3.4C232.6,109,232.4,104.4,232.4,99.4z"/>
	<path class="st66" d="M326.1,79.8c0,5.8,0.7,11.8-0.2,17.5c-2,12.7-12.9,20.5-26.3,19.7c-11.8-0.7-20.8-9.9-21.3-22.6
		c-0.4-10.2-0.1-20.4-0.2-30.6c0-1.8,0.6-2.5,2.3-2.2c0.1,0,0.3,0,0.4,0c4.7,0.1,11-1.6,13.8,0.7c2.9,2.4,0.7,8.9,0.9,13.6
		c0.2,5.7-0.2,11.4,0.1,17.1c0.3,5.8,5.9,8.8,10.3,5.9c2.7-1.8,3-4.7,3-7.6c0-8.7,0.1-17.4-0.1-26.1c-0.1-2.7,0.4-3.9,3.5-3.7
		c3.6,0.3,7.4,0.3,11,0c2.7-0.2,3.1,0.9,3,3.2C326.1,69.7,326.2,74.8,326.1,79.8C326.3,79.8,326.2,79.8,326.1,79.8z"/>
	<path class="st67" d="M134.3,183c-0.5,0.2-1,0.5-1.5,0.7c-1.3,0.6-2.7,1.2-4,1.8c-1.1,0.4-2.1,0.7-3.2,1.1
		c-1.6,0.4-3.2,0.9-4.9,1.3c-0.3-0.8-1-0.7-1.6-0.6c-1.2-0.1-2.3,0.1-3.2,1c-0.7,0.2-1.3,0.4-2.1,0.4c-0.4,0-0.7-0.1-1.1-0.2
		c-1.6-0.4-3.1-0.5-4.6,0.2c-0.5,0.3-1,0.5-1.5,0.7c-0.5,0.1-1.1,0.1-1.6-0.2c-1.3-1-2.7-1.6-4.3-1.7c-0.7-0.1-1.4-0.2-2-0.6
		c-0.9-0.6-1.7-1.2-2.6-1.7c-1-0.7-1.9-1.4-3-0.1c-0.3,0.2-0.5,0.5-0.8,0.6c-1.6,0.8-3.1,1.9-4.6,2.9c-0.6,0.4-1.2,0.8-1.9,1.2
		c-0.9,0.4-1.8,0.7-2.7,0.1c-0.6,0.2-1.1,0.3-1.7,0.5c-1.6-0.1-3.2,0.5-4.8,0.1c-1.9,0.1-3.9,0.1-5.8,0.2c-0.1-2.7-2.6-1.8-4-2.4
		c-2.1-0.8-4.2-2-6.6-1.8c-1-1.3-2.3-1.6-3.8-1.7c-0.9-0.9-2.1-1.3-3.3-1.6c-1.3-1.1-2.7-1.9-4.3-2.2c-6.7-2.5-6.6-8.4-7.2-14
		c0.6-2.6,0.1-5.2,0.3-7.8c0.2-0.4,0.4-0.6,0.9-0.6c0.8,0.5,0.9,1.2,0.6,1.9c0.6-0.8-0.3-1.9,0.2-2.9c0.1-1.5,2.9,1.3,2.2-1.4
		c0-1.9-0.6-3.8,0.1-5.7c0.5-1,1.4-1.3,2.4-1.4c0.6,0,1.1,0,1.7,0c0.4-0.1,1-0.4,0.8-0.7c-2.4-4.5-1.8-9.5-2.5-14.2
		c1-4.1,2.3-4.4,6.4-1.8c0.3,0.2,0.6,0.4,1,0.6c0.9,0.7,1.7,1.3,2.6,2.1c1,1.3,2.4,2.1,3.6,3.2c0.3,0.3,0.5,0.6,0.7,0.9
		c4.3,3,9.2,4.2,14.2,5.5c1.3,0.3,2.7,0,3.5,1.5c0,0.1,0,0.3,0,0.4c-0.1,0.3-0.1,0.5,0,0.5c4.2,0,8.7-1.6,12.4,1.7
		c0.4,0.6,0.5,1.2,0.6,1.9c0.9,4.5,2.2,5.3,6.7,3.8c1.1-0.5,2.2-0.9,3.2-1.7c0.9-0.8,1.2-1.9,1.9-2.9c0.2-0.3,0.4-0.5,0.6-0.8
		c0.6-1.1,0.6-2.2-0.2-3.3c-0.2-0.3-0.4-0.6-0.6-0.9c-0.8-1.4-1.1-2.8,0.3-4.1c1.8-1.3,3.9-2,5.6-3.4c0.6-0.4,1.2-0.7,1.8-1.1
		c1.5-0.9,2.9-1.9,4.1-3.3c2.4-2.3,4.7-4.7,7-7c1-1,1.7-2.2,2.5-3.3c0.6-0.8,1.1-1.7,1.6-2.6c0.7-1.3,1.1-2.6,1.7-3.9
		c0.7-1.6,1.2-3.4,3.2-3.9c1.6,0,2.7,0.8,3.6,2.1c0.5,1.9-0.4,3.7,0,5.6c0-1.1-0.1-2.1,0.1-3.2c1.6-0.7,1.7,0.6,1.9,1.5
		c0.4,1.5,0.8,3,1.6,4.3c0.2,0.3,0.3,0.7,0.3,1.1c-0.7,4.6-0.7,4.6,0.1,6.7c0.7-0.4,0.6-2,2-1.3c1.3,6.4,4.2,12.2,6.5,18.3
		c2.5,6.9,4.4,13.9,4.2,21.3c0,1.7-0.3,3.2-1.6,4.3c-1.1,0.8-2.2,1.6-3.4,2.4c-1.3,0.6-2.5,1.2-3.4,2.4c-1.8,0.2-2.7,1.7-4,2.5
		C137.9,180.5,136.1,181.8,134.3,183z"/>
	<path class="st68" d="M48.8,134.1c1.6,2.9,0.7,6.3,1.4,9.5c0.4,1.4,0.9,2.7,1.6,3.8c1,1.5,0.2,2.1-0.9,2.8c-0.1,0-0.3,0-0.4-0.1
		c-0.1-0.1-0.1-0.2-0.2-0.3c-2.1-1.7-2.5-4.5-4.1-6.5c0.2-2.6-1-4.8-1.5-7.3c0.2-0.5,0.3-1,0.9-1.3
		C46.7,134.5,47.8,134.2,48.8,134.1z"/>
	<path class="st69" d="M42.4,158.7c-0.5,2.7,0.6,5.5-0.8,8.1c-0.4-6-0.1-12,1.5-17.9c1.1-0.3,1.3,0.5,1.6,1.2
		c0.3,1.1,0.7,2.2,0.5,3.4c-0.2,0.5-0.4,1-0.7,1.5C43.5,156.1,43.1,157.5,42.4,158.7z"/>
	<path class="st70" d="M46.3,143.2c2.7,1.3,3.3,4,4.1,6.5c-0.5-0.1-1-0.1-1.4-0.2c-1.7-0.9-2.6-2.3-3.2-4.1c-0.1-0.6,0-1.2,0.4-1.7
		C46.2,143.6,46.2,143.4,46.3,143.2z"/>
	<path class="st71" d="M46.2,143.8c0,0.6,0.1,1.1,0.1,1.7c0,0.7,0,1.4-0.3,2.1c-0.6,1-0.2,2.6-1.9,2.9c-0.2-0.6,0.1-1.5-1-1.6
		C44.5,147.5,43.6,144.5,46.2,143.8z"/>
	<path class="st72" d="M45.6,135c-0.3,0.3-0.6,0.6-0.8,0.9c-0.3-0.6-0.6-1.3-0.8-1.9c0.6-1.3,0.6-2.6,0-3.8c0-0.3,0-0.6,0-0.9
		c0.7-0.4,1.5-0.6,2.3,0C47.1,131.3,46.9,133.2,45.6,135z"/>
	<path class="st73" d="M40.3,159.4c-0.5-1.3-0.7-2.6-0.1-4.1C41.1,156.8,40.4,158.1,40.3,159.4z"/>
	<path class="st74" d="M43.5,142.9c-0.5-1.8-0.5-2.8-0.1-4C44.2,140.1,44,141.2,43.5,142.9z"/>
	<path class="st75" d="M41.4,150.6c0,0.7-0.1,1.5-0.1,2.2c-1-0.1-0.4-0.9-0.5-1.3c-0.1-0.3,0.1-0.7,0.2-1.1
		C41.1,150.5,41.2,150.5,41.4,150.6z"/>
	<path class="st76" d="M43.9,130.2c1.1,1.3,1.1,2.6,0,3.8C43.9,132.8,43.9,131.5,43.9,130.2z"/>
	<path class="st77" d="M41.1,174.9c-0.6-0.8-0.7-1.7-0.1-2.5C41.8,173.2,41.3,174.1,41.1,174.9z"/>
	<path class="st78" d="M141.8,128.7c-1.3,0.4-0.7,1.9-1.5,2.6c-2.8-2.3-1-5-0.8-7.6c0.1-0.3,0.1-0.5-0.1-0.8
		c-0.4-0.6-0.5-1.2,0.2-1.7c1.3,2,0.4,4.8,2.3,6.5C141.8,128,141.8,128.3,141.8,128.7z"/>
	<path class="st79" d="M99,186.5c0.7,0,1.4,0,2.2,0c0.6,0.6,1.2,1.2,1.7,1.9c0.9,1.5,3.5,0.6,3.9,2.8c-7.4,1.5-14.9,0.8-22.3,0.8
		c-1.2-0.9-1.2-1,0.8-2.2c1.2-0.6,2.4-1.3,3.6-2c1.4-0.7,2.4-2,4.1-1.8c1.7,0.4,3.4,0.3,5.1,0.1C98.3,186.1,98.6,186.2,99,186.5z"/>
	<path class="st80" d="M106.7,191.1c-1.5-1.1-3.8-0.4-4.9-2.3c1.2-1,2.3-0.8,3.5,0.1c0.4,0,0.9,0,1.3-0.1c1.5,0.3,3.5-1,4.1,1.6l0,0
		C109.5,191.3,108.2,191.4,106.7,191.1z"/>
	<path class="st81" d="M85.6,189.8c-0.2,0.8-1.8,0.8-1.2,2.1c-2.5,0.6-1.2-1.2-1.3-2.1c0.8-0.3,1.6-0.6,2.5-0.9
		C86,189.2,86,189.5,85.6,189.8z"/>
	<path class="st82" d="M76.6,190.4c1.6-1,3.2-1,4.8-0.1c-0.3,0.1-0.5,0.2-0.8,0.4c-1.4,0.4-2.7,0.4-4.1-0.1L76.6,190.4z"/>
	<path class="st81" d="M76.5,190.6c1.4,0,2.7,0,4.1,0.1C79.2,191.7,77.9,191.7,76.5,190.6z"/>
	<path class="st83" d="M110.7,190.4c-0.9-1.6-3.2,0.2-4.1-1.6c0.3-0.3,0.7-0.6,1-0.9c1.2,0.1,2.4-0.5,3.7,0c1.1,0.5,2.2,1,1.2,2.5
		C111.9,190.5,111.3,190.5,110.7,190.4z"/>
	<path class="st84" d="M112.5,190.5c0.1-1.2-1.1-1.6-1.7-2.3c0.7-0.8,1.6-0.5,2.5-0.3v0.3c0.5,0.4,1.2,0.1,1.6,0.7
		C114.5,190,113.7,190.5,112.5,190.5z"/>
	<path class="st85" d="M114.9,188.9c-0.5-0.2-1.1-0.5-1.6-0.7c0.8-0.1,1.6-0.2,2.5-0.4c0.9-0.5,1.7-0.5,2.4,0.3
		c-0.5,0.2-1,0.5-1.6,0.7C116,188.9,115.5,188.9,114.9,188.9z"/>
	<path class="st86" d="M118.2,188.2c-0.8-0.1-1.6-0.2-2.4-0.3c0.8-2.4,2-1.6,3.3-0.5C118.8,187.6,118.5,187.9,118.2,188.2z"/>
	<path class="st87" d="M123.9,68.9c1.4,2.9,3.2,5.7,3.5,9c0.3,1.9,0.6,3.8,0.9,5.7c-0.4,0.9-1.1,1.4-2,1.5c-0.3,0-0.7,0-1,0
		c-0.5-0.1-1-0.2-1.5-0.3c-0.5,0-1,0-1.5-0.1c-1.5-0.7-2.3-1.8-2.2-3.5c0.6-3.5,0.9-6.9,0.2-10.4c0.5-1.2,1.5-1.7,2.6-2.1
		C123.2,68.5,123.6,68.6,123.9,68.9z"/>
	<path class="st88" d="M127.2,92.6c1,1.6,0.8,3.4,0.9,5.1c1.3,4.2-0.9,7.7-2.4,11.3c-2.4,4.7-5.7,8.8-8.6,13.1
		c-1,1.5-2.1,3.3-4.5,2.5c-0.7-1.3-0.1-2.4,0.3-3.6c3.1-4.7,7.4-8.6,9.7-13.9c1.5-3.4,2.7-6.8,2.8-10.5c0.1-1.4-0.8-2.8,0.2-4.2
		C126,92.1,126.6,92.1,127.2,92.6z"/>
	<path class="st89" d="M124.8,108.9c1.1-3.7,3.3-7.2,3.3-11.2c1.4,1,0.4,2.9,1.6,3.9c0.5,1.1,0.6,2.5,1.3,3.6
		c0.5,1.7,0.7,3.3,0.3,5.1c-0.5,1.3-0.5,2.9-1.8,3.8c-1.7-0.1-1.7-1.5-1.9-2.6C127.2,109.8,126.1,109.2,124.8,108.9z"/>
	<path class="st90" d="M120.6,81.2c0,1.7,1.3,2.4,2.5,3.2c0.1-0.1,0.2-0.2,0.3-0.3c0.1,0,0.3,0,0.4,0.1c0.2,0.2,0.5,0.3,0.7,0.5
		c0.1,0.1,0.2,0.2,0.3,0.3c0.2,0.2,0.3,0.5,0.4,0.7c0.2,0.4,0.3,0.8,0.3,1.2c0,1.1,0,2.1-0.1,3.2c-2.5,0.4-3.4-2.1-5.2-2.8
		c-1.3-1.1-3.1-1.7-3.5-3.6c0-1.5,0.9-2.5,1.9-3.4C119.8,79.9,120.2,80.5,120.6,81.2z"/>
	<path class="st91" d="M136.2,116.4c-0.1,1.3-0.1,2.5-0.2,3.8c-0.2,0-0.4,0-0.5,0c-0.1-2.1-0.2-4.3-0.3-6.4
		c-1.1-0.8-1.2-2.8-3.2-2.5c-0.7-1.7-1.3-3.3,0.1-4.9c2,2.4,4.4,4.4,5.5,7.4C136.9,114.6,137,115.7,136.2,116.4z"/>
	<path class="st92" d="M136.2,116.4c-0.1-1.1-0.4-2.4,1.3-2.6c0.7,2.4,1.3,4.9,2,7.3c-0.1,0.6-0.1,1.1-0.2,1.7
		C136.9,121.4,137.4,118.5,136.2,116.4z"/>
	<path class="st93" d="M120.7,86.8c2.4,0,2.9,2.8,5,3.4c1.1,0.4,1.6,1.3,1.6,2.4c-0.6,0-1.2,0.1-1.9,0.1c-2.6-0.7-3.7-2.9-5.1-4.8
		C120.2,87.4,120.4,87.1,120.7,86.8z"/>
	<path class="st94" d="M125.7,86.9c-0.3-0.3-0.6-0.7-0.9-1c0.2-0.2,0.4-0.5,0.3-0.8c0-0.3,0.2-0.6,0.5-0.7c0.9-0.3,1.8-0.6,2.7-0.9
		c1.4,1.7-0.4,3-0.5,4.4C127.1,87.6,126.4,87.3,125.7,86.9z"/>
	<path class="st95" d="M132.1,106.4c0.1,1.7,0.1,3.4,0.2,5.1c-0.2,0-0.4,0.1-0.6,0.1c-1.5-1.9-0.5-4.1-0.7-6.2
		c0.1-0.2,0.3-0.3,0.4-0.5C132,105.2,132,105.8,132.1,106.4z"/>
	<path class="st96" d="M130.4,104.8c-1-0.9-0.7-2.1-0.7-3.3c1,0.9,1.5,2.1,1.7,3.4l0,0C131,105.3,130.7,105.2,130.4,104.8z"/>
	<path class="st97" d="M129.1,88c0.8,1.6,0.5,2.7,0.3,4.2C128.5,90.7,128.9,89.6,129.1,88z"/>
	<path class="st98" d="M128.8,78c1.3,1.1,0.6,2.5,0.7,3.8C128.3,80.7,129,79.3,128.8,78z"/>
	<path class="st99" d="M88,40.3c1.9-1.6,4.3-1.8,6.5-2.5c6,0.9,11.8-1,17.6-1.8c3.9-0.5,7.8-0.5,11.7-0.6c2,1.6,5.6,1.2,5.9,4.9
		c0.6,4.5-4.1,5.3-5.8,8.2c-2.2,1.1-4.3,2.2-6.5,3.3c-2.7,1.9-5.5,1.1-8.2,0.1c-5.3-2-10.7-3.8-16.1-5.8c-1.3-0.6-2.6-1.4-4.1-1.4
		c-2.1-0.3-4.4,0.6-6.1-1.4C83.7,40.9,86,40.8,88,40.3z"/>
	<path class="st76" d="M107.5,34.8c1.1,0,2.2,0,3.7,0C109.8,35.8,108.7,35.3,107.5,34.8z"/>
	<path class="st74" d="M113.8,34.4c1-0.9,1.9-0.4,3.5-0.5C115.7,34.9,114.9,34.6,113.8,34.4z"/>
	<path class="st74" d="M99.6,36.7c-0.9,0.6-1.8,0.5-2.9,0C97.8,36.1,98.7,36,99.6,36.7z"/>
	<path class="st100" d="M123.9,68.9c-0.3,0-0.5,0-0.8-0.1c-1.1-0.4-1.7-1.1-0.9-2.3c0.3-0.6,0.6-1.1,0.8-1.7
		C124.4,66,125,67.2,123.9,68.9z"/>
	<path class="st67" d="M122.2,66.5c-0.2,0.9,0.5,1.5,0.9,2.3c-0.5,1-1.6,1.3-2.5,1.8c-2.2,0.7-3.5-1.3-5.3-1.8
		c-1.3-0.7-2.1-1.8-2.6-3.1c-0.3-0.9-0.3-1.9-0.2-2.8c0.3-1.1,0.5-2.3-0.4-3.3c-0.4-0.4-0.9-0.8-1.5-0.8c-0.5,0.1-0.9,0.2-1.4,0.3
		s-1,0.1-1.5,0.1c-1.6-0.3-3.1-0.8-4.8-0.5c-1.1,0.2-2.2,0.4-3.2-0.3c-0.7-0.3-1.2-1-2-1c0,0,0.3,0.5,0.1,0.8
		c-2.9,2.1-6.2,3.7-8.9,6.2c-1.1,0.6-2.4,0.6-3.6,0.9c-0.5,0.2-0.2-0.4-0.4,0.1c-0.2,0.3-0.4,0.2,0.1,0.2c0.7,0,1.3,0.2,1.8,0.5
		c0.3,0.2,0.6,0.5,0.7,0.8c0.4,1.9,1.3,3.8-0.4,5.6c-1.5,0.7-2.6-0.3-3.8-0.9c-0.8-0.4-1.5-1.1-2.5-1.2c-0.3,1,0.1,2.4-1.1,3.1
		c-1.3,0.8-2.5,1.2-3.6-0.2c-0.6-1.2-1.4-2.2-2-3.3c-0.5-1.5-0.1-3.1-0.5-4.6c-0.1-0.3-0.2-0.6-0.3-0.8L73,64.4c0,0-0.4,0.1-0.4,0.2
		c-0.4,0.8-0.3,1.7-1,2.3c-1.6,0.5-3.3-0.3-4.9,0.1l0.1,0.3h0.3c1.6,0,3.1,0.1,4.6,0.8c1,0.5,1.9,1.2,2.6,2.3
		c0.7,0.9,1.4,1.8,1.8,2.9c0.6,1.1,0.8,2.2,0.7,3.4c-0.2,0.6-0.6,1-1.2,1.2c-1,0.3-1.9,0.3-2.9,0.1c-1.1-0.3-2.3-0.9-2,1.2
		c0.1,0.8-0.1,1.5-0.7,2.1c-2.1,1-3.7-0.9-5.7-0.9c-0.3-0.1-0.6-0.2-0.9-0.4c-0.1-0.2-0.3-0.6-0.4-0.6c-0.3,0.1-0.2,0.5-0.4,0.7
		c-0.5,0.7-1.1,1.3-1.9,1.6c-0.8,0.1-1.5-0.1-2-0.7c-0.1-1.7-2-1.7-2.6-2.9c-0.7-3.4-0.5-6.6,1.4-9.5c0.9-1.2,2.5-2,2.1-3.9
		c-0.2-0.6-0.4-1.3-0.6-1.9c0-0.4,0.1-0.6,0.3-0.9l-0.1-0.3c0.7-1.7,1.9-2.9,3.5-3.8c0.6,0,1.3,0,1.5-0.8c2.8-0.7,4.6-3.7,7.9-3.5
		c0.7-0.3,1.4-0.5,2,0.2c0.6,1.2-0.2,1.8-1,2.3c-0.2,0.2-0.2,0.4,0,0.6c1.6,0.2,3.2,0,4.8-0.2c0.4,0,0.7,0,1.1,0
		c1.7,0.1,3.5,0.8,5.1-0.3c-1-2.4-3.8-1.7-5.4-3.1c-0.3-0.5-0.4-1-0.3-1.6c0.6-0.8,0.9-1.8,1.1-2.8c0.3-0.2,0.6-0.4,0.9-0.6
		c1-0.5,2.2,0.3,3-0.8c-0.1-0.3-0.2-0.6-0.2-0.9c0-0.7-1.4-1.6,0.2-2.1c1.9-0.2,3.8,0.6,5.7,0.4c1.2,0,2.2,0.7,3.3,1.2
		c1,0.5,2.1,1,3,1.6c2.1,1.8,4.7,2.8,7.1,4c1.7,0.7,3.4,1.3,4.7,2.7c1.1,2.1,1.2-1.2,2.1-0.4c1.7-0.3,3.5-0.3,5.2-0.4
		c0.7,0.1,1.1,0.4,1,1.2C118,58.3,120.1,62.4,122.2,66.5z"/>
	<path class="st101" d="M115.9,54.2c-0.2-0.5-0.4-0.8-0.9-0.7c-3.7,0.5-7.2-0.3-10.5-1.8c-3.1-1.2-6.2-2.4-9.2-3.8
		c-0.8-0.5-1.7-1-2.5-1.6c-0.3-0.4-0.3-0.7,0.1-1.1c5.3,1.3,10.3,3.2,15.3,5.3c3,1.3,6,1.3,9.2,1.3
		C117.4,52.9,116.8,53.7,115.9,54.2z"/>
	<path class="st102" d="M79.9,48.5c1.6,1.6,1.6,2.6-1,2.6c-1.5,1.3-3,2.1-4.9,0.7c-1.1-1.8-0.2-2.4,1.5-2.5
		C77.1,49.2,78,45.9,79.9,48.5z"/>
	<path class="st103" d="M88,40.3c-1.6,0.8-3.2,1.7-4.8,2.5c-0.5,0.6-0.8,1.4-1.4,1.9c-0.3,0.4-0.7,0.7-1.1,0.9
		c-0.6,0.3-1.1,0.7-1.7,1c-0.6,0.2-1.2,0.9-1.7,0c0-0.2,0-0.4,0-0.6c0.5-1.1,1.4-1.9,2.5-2.5c0.8-0.8,1.7-1.6,2.5-2.4
		c2.1,0.2,3.6-1.5,5.7-1.7C88,39.8,88,40,88,40.3z"/>
	<path class="st104" d="M74.1,51.8c1.6-0.2,3.2-0.5,4.9-0.7c0,0.5,0,1,0,1.4c-1.1,2.1-2.6,3-4.9,1.6c-0.4-0.7-1.2-0.8-1.9-0.9
		C72.9,52.8,73.5,52.3,74.1,51.8z"/>
	<path class="st105" d="M77.3,46.7c0.5-0.2,1.1-0.5,1.6-0.7c0.7,0.1,1.5,0.2,2,0.9c0.2,0.6,0.2,1.1-0.2,1.6
		c-0.3,0.1-0.5,0.1-0.8,0.1c-1.8-1.4-2.7,1.4-4.3,0.8C76.2,48.4,76.8,47.5,77.3,46.7z"/>
	<path class="st106" d="M43.1,74.6c0.3,0,0.6,0,0.8,0c1.9,1.1,0.6,2.6,0.6,4c0.8-1.4,0-4.1,3-3.9c1.3,1.8-0.3,3.8,0.4,5.7
		c0.1,0.8,0.1,1.6-0.3,2.4c-0.5,0.9-1.2,1.6-1.5,2.6c-1.9,6.7-0.5,13.6-1.4,20.4c0,2.9,0.1,5.7-4.1,5.7c-2.1-2-5.3-2-7.4-4
		c-3-0.3-3.9-2.7-4.9-5c0.6-3.8,2.3-7.1,4.1-10.5c2.6-3.3,4.7-6.9,6.4-10.7c-0.6-1,0-1.8,0.7-2.5C41,77.5,40.9,75.1,43.1,74.6z"/>
	<path class="st107" d="M47,82.8c0-0.8,0.1-1.7,0.1-2.5c-0.2-0.2-0.3-0.4-0.2-0.6c0-0.2,0.1-0.3,0.1-0.3c1.8-0.5,0.7-1.7,0.7-2.6
		c-0.1-0.7-0.1-1.4,0-2.1c0.1-0.8,0.4-1.4,1-1.9c1.2-0.3,2.4-0.7,3.6,0.1c0.5,1.2-0.3,2.6,0.3,3.8c0.9,0.7,2.5,0.7,2.8,2.3
		c0.3,2,0.6,3.9,0.6,5.9c-0.3,1.8-1,3.4-1.4,5.2C54.3,91,54,91.9,54,92.9c-0.1,1.1-0.1,2.3-0.5,3.4c0.8,1-3.9,1.3-0.3,2.7
		c0.3,0.5,0.5,1,0.5,1.5c-0.5,2,0.8,3.9,0.8,5.8c0,0.6-0.2,1.1-0.5,1.6c-0.3,0.3-0.7,0.3-1,0c-0.9-0.8-1.7-1.5-2.6-2.3
		c-0.7-0.8-1.2-1.7-1.7-2.6c-0.2-0.3-0.4-0.6-0.6-0.8c0-0.2-0.1-0.4-0.2-0.6c-1-1.8-2.4-3.4-3-5.4c-0.2-2.9-0.4-5.7,0.6-8.5
		C45.6,85.9,45.4,84.1,47,82.8z"/>
	<path class="st108" d="M46.2,87.6c-0.9,2.9-0.5,5.9-0.5,8.9c0.2,1.4,1.1,2.8-0.2,4.1c-0.2,1.7,0.5,3.6-0.8,5.1
		c-0.7-7.1-1.8-14.3,0.7-21.3C46.4,85.3,45.5,86.6,46.2,87.6z"/>
	<path class="st109" d="M45.5,100.6c0.1-1.4,0.1-2.7,0.2-4.1c1.2,1.5,3,2.8,2.2,5.2C47.1,101.3,46.3,100.9,45.5,100.6z"/>
	<path class="st110" d="M48,102.3c0.2,0.1,0.4,0.1,0.7,0.1c0.7,0.9,1.7,1.7,1,3.1c0,0.6,0,1.2-0.1,1.7c-0.9-0.3-1.4-0.9-1.7-1.7
		c-0.7-0.7-0.6-1.4,0-2.2C48,103,48,102.6,48,102.3z"/>
	<path class="st111" d="M47.9,103.3c0,0.7,0,1.4,0,2.2c-0.5,0.2-1.3,0.9-1.5-0.1C46.1,104.2,46.5,103.3,47.9,103.3z"/>
	<path class="st112" d="M28.4,102.3c1.6,1.7,3.2,3.3,4.9,5c-0.3,0.6-0.9,0.8-1.6,0.8c-1-1.2-2.7-1.6-3.3-3.3
		C28.4,104,28.4,103.1,28.4,102.3z"/>
	<path class="st113" d="M54.6,119.5c-0.7-1.7,0.8-2.3,1.7-3.2c0.3-0.2,0.7-0.2,1,0.1c0.3,0.4,0.5,1,0.6,1.5c0.1,1.2,0.6,2.3,1.4,3.2
		c1.6,1.7,3.8,2.7,5.3,4.5c0.5,0.5,1,1.1,1.4,1.7c0.6,1,1.3,1.9,1.5,3.1c0,0.8-0.3,1.5-1.1,1.9c-0.5,0.2-1.1,0.2-1.6,0.1
		c-1.1-0.3-2.1-1.2-3.3-1.2c-1.1-0.4-1.5-1.5-2-2.3c-1-1.6-2.1-3-3-4.6c-0.5-0.9-0.9-1.9-1.4-2.8C54.6,120.8,54.5,120.2,54.6,119.5z
		"/>
	<path class="st114" d="M52.9,108c0.2,0,0.5,0,0.7,0c1.1-0.5,1.3-1.4,0.9-2.5c-0.2-1.3-1-2.5-0.3-3.9c2.8-1,3.8,0.9,4.7,3
		c0.1,0.4,0.1,0.7,0.1,1.1c-0.3,1.7,0.4,3.1,1.4,4.4c0.2,0.3,0.3,0.7,0.4,1c0.1,0.6,0,1.1-0.2,1.7c-0.2,0.5-0.6,1-1,1.3
		c-0.6,0.4-1.3,0.9-2.1,0.3c-0.7-2.2-3.1-2.5-4.4-4.1C53.1,109.6,53,108.8,52.9,108z"/>
	<path class="st115" d="M55.4,121.1c0.5,0.8,1,1.7,1.5,2.5c-0.3,0.6,0,1.4-0.8,1.8c-0.4,0.1-0.7,0.1-1.1-0.1
		c-0.8-0.4-1.5-1.1-2.1-1.8c-1.4-1.4-0.6-3.2-0.8-4.8c0.2-0.3,0.5-0.6,0.7-0.9c0.7,0.4,0.8,1,0.9,1.7
		C54.3,120,54.6,120.8,55.4,121.1z"/>
	<path class="st116" d="M57.6,114.5c0.6-0.3,1.1-0.5,1.7-0.8c1.4,0.6,1.7,1.5,0.9,2.7c-1.1,0.7-2.2,0.5-3.2-0.3c-0.2,0-0.4,0-0.6,0
		C56.1,115.2,56.4,114.5,57.6,114.5z"/>
	<path class="st117" d="M55.4,121.1c-1.8,0.8-1.4-0.7-1.6-1.6c0.3,0,0.6,0,0.8-0.1C55.4,119.8,55.2,120.5,55.4,121.1z"/>
	<path class="st118" d="M39.8,78.7c-0.3,0.8-0.6,1.6-0.9,2.4c-0.2-0.3-0.5-0.5-0.7-0.8c0-0.5,0-1,0-1.5c0.5-0.3,1.1-0.6,1.6-0.9
		c0.3,0.2,0.3,0.4,0.3,0.6C40,78.6,39.9,78.7,39.8,78.7z"/>
	<path class="st119" d="M55.3,85.1c-0.2-2.1-0.4-4.2-0.7-6.2c0.5-1.3-0.6-2.4-0.3-3.6c0-1,0.1-2.1,0.3-3.1c0.9-2.7,1-5.8,3.1-8.1
		c0-0.4,0.1-0.7,0.1-1.1c0.2-0.1,0.3-0.1,0.5-0.2c0.2,0,0.3,0.1,0.5,0.1c0.3,0.2,0.5,0.5,0.7,0.8c0.2,0.3,0.3,0.6,0.4,1
		c0.3,1.4-0.6,2.3-1.3,3.4c-2.1,3.2-1.4,7-2.2,10.5c0.6,1.1,1.1,2.3,1.3,3.6c0.2,1.1,0.2,2.2-0.3,3.1C56.8,86.4,55.9,87,55.3,85.1z"
		/>
	<path class="st120" d="M57.7,64.1c-0.8,2.7-1.5,5.4-2.3,8.1c-3.7,1-4.8,0.4-5.7-3.5c0.1-0.6,0.5-1.2,1-1.6c3.3,1.6,3.2-2.8,5.4-3.1
		C56.7,64,57.2,64.1,57.7,64.1z"/>
	<path class="st121" d="M56.2,64c-0.2,0.3-0.7,0.6-0.7,0.9c-0.2,2.8-1.2,4.3-4.1,2.4c-1-0.6-0.9-1.5-0.9-2.5
		c0.5-0.5,1.1-0.9,1.6-1.4C53.5,63.4,55,62.8,56.2,64z"/>
	<path class="st122" d="M62.8,57.5c-0.2,2.1-2.5,2.4-3.5,3.8c0-0.5,0-1,0.1-1.5c0.3-0.8,0.5-1.6,0.8-2.4
		C61.1,57.5,62,57.5,62.8,57.5z"/>
	<path class="st123" d="M59.4,61.6c0,0.2,0,0.5,0,0.7c0.2,0.2,0.3,0.4,0.2,0.6c0,0.2-0.1,0.3-0.1,0.3c-0.3,0.2-0.6,0.2-0.9-0.1v-0.3
		c-0.3,0-0.5-0.2-0.7-0.5C58.1,61.3,58.8,61.6,59.4,61.6z"/>
	<path class="st124" d="M58,62.4c0.2,0.2,0.4,0.3,0.7,0.5c-0.3,0.1-0.5,0.1-0.8,0.2C57.7,62.8,57.8,62.6,58,62.4z"/>
	<path class="st125" d="M50.5,64.8c1,0.6,0.5,1.7,0.9,2.5c-0.3,0.3-0.6,0.6-1,0.9c-0.3,0.2-0.5,0.2-0.8,0.1
		c-0.4-0.3-0.5-0.8-0.8-1.1C49.4,66.4,49.9,65.6,50.5,64.8z"/>
	<path class="st50" d="M48.8,67.2c0.3,0.3,0.6,0.7,0.9,1c0.2,0.4,0.2,0.7,0,1.1c-0.8,1.1-1.6,2.3-3.3,1.3l0,0
		C47.2,69.4,48,68.3,48.8,67.2z"/>
	<path class="st126" d="M49.7,105.5c-0.3-1-0.7-2.1-1-3.1c1.7,0.5,1.8,1.9,1.7,3.3C50.1,105.7,49.9,105.6,49.7,105.5z"/>
	<path class="st127" d="M39.8,78.7c0-0.3,0-0.6,0-0.8c0.3-1.7,0.8-3.2,2.4-4.1c0.3,0.3,0.5,0.5,0.8,0.8C42,75.9,41.5,77.7,39.8,78.7
		z"/>
	<path class="st128" d="M46.4,70.6c1.4,0.1,2.1-1.1,3.1-1.7c0.9,1.5,1.2,2.9-0.5,4.1c-0.2,0.6,0,1.4-0.9,1.6c-0.3,0.5-0.6,0.5-0.9,0
		c-2,1.5-1.4,4.5-3.6,6.2c-0.3-2.2,1.4-4.2,0.4-6.3C45.3,73.6,45.7,71.9,46.4,70.6z"/>
	<path class="st129" d="M45.6,135c0.1-1.9-0.3-3.9,0.5-5.7c0.7-1.8,1.4-3.6,1.1-5.7c0.7-0.4,1.5-0.7,2.2-1.1
		c0.6,0.4,0.7,0.9,0.6,1.5c0,0.3,0,0.3,0,0.2c-0.2-0.5,0.8,0.1,0.3-0.2c0.3-0.1,0.6,0,0.9,0.1c0.2,0.2,0.4,0.5,0.5,0.8
		c0.3,1.2,0.7,2.2,1.4,3.2c0.2,0.3,0.3,0.6,0.4,1c0.3,1.3,1.8,2.4,0.9,4c-4.4-2.9-4.7-2.9-5.8,0.9C48.1,135.8,47,136,45.6,135z"/>
	<path class="st130" d="M52.1,118.8c1.5,1.2,0.2,3.5,1.6,4.7c0.2,0.9-0.3,1.2-1.1,1.3c-0.5,0-0.8-0.3-1-0.8
		c-0.9-1.6-0.5-3.1,0.3-4.6C52,119.2,52.1,119,52.1,118.8z"/>
	<path class="st131" d="M51.9,119.5c0.1,1.6,0.1,3.3,0.2,4.9c-0.3,0.3-0.6,0.3-0.9,0.1l-0.1,0.1c-1.2-1.3,0-2.9-0.7-4.3
		c0-0.3,0-0.5,0-0.8C50.9,119.5,51.4,119.5,51.9,119.5z"/>
	<path class="st132" d="M50.5,124.3c-1.8,1.8-0.5-0.5-0.9-0.7c-0.2-0.1-0.1-0.7-0.1-1.1c0.1-0.6,0.1-1.3,0.9-1.4
		C51,122.2,51,123.3,50.5,124.3z"/>
	<path class="st133" d="M50.5,124.3c0-1,0-2.1-0.1-3.1c0-0.3,0-0.6,0-0.9c1.3,1.2,0.7,2.8,0.7,4.3C50.9,124.5,50.7,124.4,50.5,124.3
		z"/>
	<path class="st134" d="M79.9,146.4c-4.6-1.1-9.3-2.2-13.7-4.1c-1.9-0.8-4.2-1.1-5.1-3.4c1.1-0.7,2.2-0.1,3.3,0
		c0.5,0.1,1.1,0.3,1.5,0.5c1.2,1.1,2.6,1.7,4.2,1.6c0.4,0,0.7,0.2,1,0.3c1.3,0.9,2.8,1.6,4.4,1.4c0.8-0.1,1.6-0.1,2.3,0.1
		c2.7,1.4,5.8,0.3,8.6,1.2c1,0.8,3.4,0.1,2.7,2.7C86.1,147.2,83,147.3,79.9,146.4z"/>
	<path class="st135" d="M100.3,154.7c-5.4,3.1-8.1,1.3-8.3-5.9c-0.3-0.5-0.4-1-0.1-1.6c2.8-0.2,1.3,3.1,3.1,3.6
		c0.9,0.5,1.6,1.3,2.4,1.9C98.2,153.6,99.6,153.6,100.3,154.7z"/>
	<path class="st136" d="M105.2,140.8c-1.5,1.2,0.2,2.8-0.4,4.1c0,0.4-0.2,0.7-0.4,1c-0.5,0.3-1,0.3-1.6,0.1
		c-0.6-0.5-0.5-1.3-0.7-1.9c-0.9-1.9-2.7-1.1-4.1-1.5c-0.3-0.2-0.5-0.5-0.7-0.9c-0.2-0.6-0.1-1.1,0.1-1.7c0.3-0.5,0.7-0.9,1.2-1.2
		c0.9-0.2,1.7-0.4,2.5-0.9c0.4-0.1,0.7-0.1,1.1-0.1c1.1,0.7,1.8,1.8,2.9,2.4C105.1,140.5,105.1,140.6,105.2,140.8z"/>
	<path class="st137" d="M59.7,176.5c-5.2-0.4-7.7-2.8-6.7-6.5c0.4-0.1,0.7-0.1,1.1,0c1.5,1.1,2.7,2.5,4,3.8
		C58.8,174.5,59.8,175.2,59.7,176.5z"/>
	<path class="st138" d="M92.2,147.4c-0.1,0.5-0.2,1-0.3,1.5c-4-2.3-8.5-0.7-12.7-1.7c-0.1,0-0.2-0.3-0.2-0.3
		c0.3-0.2,0.6-0.4,0.9-0.5c3.2,0,6.4,0,9.6,0C90.8,145.7,91.9,145.5,92.2,147.4z"/>
	<path class="st139" d="M124,126.1c-2,2.9-4.4,5.4-7.4,7.4c-0.6-0.2-1-0.6-1.1-1.2c2.2-2.8,4.4-5.7,7.8-7.4
		C123.8,125.1,124.3,125.4,124,126.1z"/>
	<path class="st140" d="M42.4,158.7c-0.2-1.6,0.2-3.1,1.5-4.1c0.6,0.2,1.2,0.6,1.7,0.9c0.3,0.2,0.5,0.4,0.7,0.7c0.4,1,1.6,2.3,0.1,3
		c-1.9,0.9-1.5-1.7-2.6-2.2c-0.6,0.4-0.2,1.3-0.9,1.7h-0.3L42.4,158.7z"/>
	<path class="st6" d="M46.3,156.2H46h-0.3c-0.9-0.6-0.9-1.5-0.9-2.4c0.4-1.2-1.4-2-0.6-3.3c0.4-1.1,0.9-2.2,1.3-3.2
		c1.4,0.8,0.4,2.2,0.9,3.2C45.8,152.4,47.6,154.3,46.3,156.2z"/>
	<path class="st141" d="M139.4,123.6c1,2.5-1.3,5.3,0.8,7.6c-1.1,1.7-2.1,1.4-2.2-0.4C137.9,128.3,137.8,125.7,139.4,123.6z"/>
	<path class="st142" d="M46.3,150.5c-1.1-0.9-0.6-2.2-0.9-3.2c0.2-0.7,0.1-1.5,0.9-1.8c0.9,1.4,1.8,2.7,2.7,4.1
		C48.1,149.7,47,149.6,46.3,150.5z"/>
	<path class="st143" d="M100.3,154.7c-1.3-0.3-3.1,0.5-3.3-1.8c0.1-0.1,0.3-0.3,0.4-0.4c1.6-0.7,3.4-0.7,5.2-0.9
		c0.6,0.2,1.1,0.4,0.9,1.2C102.8,154.1,101.5,154.3,100.3,154.7z"/>
	<path class="st144" d="M57.7,174.2c-1.7-1-3.2-2.3-4-4.1c-0.4-0.8,0.1-1,0.7-1.2c0.4,0,0.7,0.2,0.8,0.6c1.1,1.3,2.3,2.5,3.4,3.8
		C58.8,174.1,58.5,174.5,57.7,174.2z"/>
	<path class="st145" d="M57.7,174.2c0.3-0.3,0.6-0.6,0.9-0.9c2,0.5,3.1,1.9,3.8,3.7c-1.2,1.2-1.8-0.6-2.7-0.5
		C59,175.7,58.4,175,57.7,174.2z"/>
	<path class="st146" d="M111,137.6c-1.7,1.6-3.5,2.8-5.8,3.2l-0.1-0.1c-0.6-3.7,2.6-3.4,4.6-4.4C110.4,136.5,110.8,136.9,111,137.6z
		"/>
	<path class="st147" d="M128.8,113.8c0.5-1.1,1-2.2,1.5-3.4c0.5,0.4,0.7,1.2,1.5,1.3c0.1,0.1,0.3,0.2,0.4,0.3c-1.4,1-1.2,3-2.4,4.2
		c-0.4,0.3-0.8,0.3-1.2,0C128.1,115.4,128.1,114.6,128.8,113.8z"/>
	<path class="st148" d="M115.9,132.6c0.2,0.3,0.5,0.6,0.7,0.9c-1,1.5-2.5,2.4-4.1,3.1c-0.6-0.2-1-0.6-1.1-1.2
		C112.5,133.8,113.5,132.1,115.9,132.6z"/>
	<path class="st149" d="M92.9,186.5c-1.3,0.5-2.7,1.1-4,1.6c-0.6,0.4-1.3,0.5-1.9-0.1c1.5-1.4,3.1-2.5,5-3.1c0.4,0.2,0.8,0.3,1,0.7
		c0,0.1,0,0.3,0,0.4C93.1,186.3,93,186.4,92.9,186.5z"/>
	<path class="st150" d="M133.8,150.2c-0.5,2.1-2.2,2.2-4,3.3C130.8,150.3,130.8,150.3,133.8,150.2z"/>
	<path class="st151" d="M105.3,188.9c-1.2,0-2.3,0-3.5-0.1c-0.2-0.8-0.5-1.6-0.7-2.3C102.7,187,104.9,186.4,105.3,188.9z"/>
	<path class="st152" d="M104.3,145.3c0.1-0.3,0.2-0.4,0.5-0.4s0.6,0,0.9,0c1.1,1.6,0.8,3.2,0.2,4.8c-0.2,0.1-0.4,0.1-0.6,0.2
		c-0.9-0.4-1.3-1.2-1.6-2.1C103.5,146.9,103.7,146.1,104.3,145.3z"/>
	<path class="st153" d="M60.9,138.3c-1.4-0.8-3.2-1.2-3.1-3.3c0.2-0.1,0.3-0.2,0.5-0.3c2.1-0.1,3.2,1.2,3.9,3
		C61.9,138.3,61.7,138.8,60.9,138.3z"/>
	<path class="st154" d="M124,126.1c-0.2-0.3-0.5-0.6-0.7-0.9c-0.7-2.2,0.6-3.1,2.3-3.7c0.7,0.2,1.2,0.4,0.8,1.3
		C125.9,124.2,125.2,125.4,124,126.1z"/>
	<path class="st155" d="M104.5,148.1c0.3,0.6,0.5,1.2,0.8,1.8c-0.2,1.2-0.7,2.3-1.8,2.9c-0.3-0.2-0.6-0.5-0.9-0.7
		C102.2,150.3,102.5,148.8,104.5,148.1z"/>
	<path class="st156" d="M54.7,133.3c-0.2-1.5-2-2.4-1.7-4.1c0.3-0.2,0.7-0.3,1.1-0.2c1.5,0.8,2.4,2,2.5,3.7
		c-0.2,0.6-0.5,1.1-1.3,0.8C55.1,133.4,54.9,133.4,54.7,133.3z"/>
	<path class="st157" d="M93.1,185.8c-0.3-0.3-0.6-0.5-1-0.8c0.3-0.1,0.5-0.2,0.8-0.3c1.1-0.8,2.2-0.7,3.3,0c1.2,0.2,2.5,0.3,2.8,1.8
		c-0.4,0-0.8,0.1-1.2,0.1c-0.3,0.2-0.7,0.2-1,0.1C95.5,186.2,94.1,186.7,93.1,185.8z"/>
	<path class="st158" d="M96.1,184.6c-1.1,0-2.2,0-3.3,0c-0.2-0.6-0.6-1.4,0.5-1.4C94.5,183.1,95.9,182.8,96.1,184.6z"/>
	<path class="st159" d="M128.7,116.2c0.4,0,0.7,0.1,1.1,0.1c-0.2,1.5-0.8,2.9-1.9,4c-0.6-0.1-1.1-0.5-1.3-1.1
		C126.7,117.7,126.8,116.4,128.7,116.2z"/>
	<path class="st160" d="M134.7,148.5c-0.2-2,0.6-2.8,1.8-4.1C136.9,146.6,136.5,147.6,134.7,148.5z"/>
	<path class="st161" d="M113.3,187.9c-0.8,0.1-1.7,0.2-2.5,0.3c-1-0.5-2.3,1.1-3.2-0.3C109.5,186.9,111.4,186.9,113.3,187.9z"/>
	<path class="st162" d="M132.3,111.4c2.6-1.2,2.3,1.1,2.9,2.3c-1.3,0-2-1.1-2.9-1.7l-0.3,0.1c-0.2-0.2-0.2-0.4-0.2-0.6
		c0.1-0.2,0.1-0.3,0.2-0.3l0.1,0.2H132.3z"/>
	<path class="st163" d="M60.9,138.3c0.3-0.3,0.6-0.5,0.9-0.8c1.7-0.3,3.1-0.2,2.4,2.2c-1-0.3-2.1-0.5-3.1-0.8
		C61,138.7,61,138.5,60.9,138.3z"/>
	<path class="st164" d="M55.2,169.5c-0.2,0-0.5-0.1-0.7-0.2c-0.8-0.5-1.6-1-1-2.1c0.9-1.6,1.4,0.9,2.2,0.2
		C56.3,168.3,55.3,168.8,55.2,169.5z"/>
	<path class="st165" d="M127.1,119.5c0.3,0.3,0.6,0.5,0.8,0.8c-0.1,1.1-0.7,2-1.6,2.6c-0.3-0.3-0.5-0.6-0.8-0.9
		C125.1,120.5,125.4,119.5,127.1,119.5z"/>
	<path class="st166" d="M43,158.7c0.1-0.7,0.2-1.3,0.9-1.7c0,1.3,0,2.7,0,4.2C42.6,160.5,43.3,159.5,43,158.7z"/>
	<path class="st167" d="M53.5,167.2c0.3,0.7,0.7,1.4,1,2.1c-0.3,0.3-0.6,0.5-0.8,0.8c-0.2-0.1-0.5-0.2-0.7-0.2
		C53,169,51.1,167.6,53.5,167.2z"/>
	<path class="st168" d="M105.9,149.7c-0.1-1.6-0.1-3.2-0.2-4.8C107.3,146.4,107.1,148,105.9,149.7z"/>
	<path class="st169" d="M55.3,133.4c0.3-0.2,0.6-0.5,0.8-0.7c2-0.2,2.4,0.6,1.6,2.3l0,0C56.4,135.3,55.7,134.5,55.3,133.4z"/>
	<path class="st170" d="M87.1,188c0.6,0,1.3,0.1,1.9,0.1c-0.9,1-2,1.5-3.4,1.7c0-0.3,0-0.6-0.1-0.9C86,188.6,86.6,188.3,87.1,188z"
		/>
	<path class="st171" d="M111.6,135.8c0.3,0.3,0.6,0.6,0.9,0.9c-0.5,0.3-1,0.6-1.4,0.9c-0.3-0.3-0.7-0.5-1-0.8
		C110.2,136,110.7,135.5,111.6,135.8z"/>
	<path class="st172" d="M44.8,153.8c1.1,0.5,0.7,1.6,0.9,2.4c-1.1,0.1-1.7-0.5-1.7-1.6C44.2,154.3,44.5,154,44.8,153.8z"/>
	<path class="st173" d="M97,186.3c0.2,0,0.5,0.1,0.7,0.2c-1.6,1.1-3.2,1.1-4.8,0l-0.1-0.1C94.2,185.8,95.6,186,97,186.3z"/>
	<path class="st174" d="M115.6,68.1c2,0,3.2,1.9,5,2.4c2.1,3.6,1,7.1-0.1,10.7c-0.5-0.3-1-0.6-1.5-1c-0.1-0.2-0.2-0.3-0.3-0.5
		c0.1-2.1,0-4.2-1.3-6C116.9,71.9,115.2,70.4,115.6,68.1z"/>
	<path class="st175" d="M125.6,84.4c0,0.3-0.1,0.6-0.1,0.9c-0.3,0.2-0.6,0.1-0.8-0.1l0.1,0.1c-0.1-0.1-0.2-0.3-0.3-0.4
		c0.1-0.2,0.2-0.3,0.3-0.5C125,84.4,125.3,84.4,125.6,84.4z"/>
	<path class="st176" d="M123.9,84.4c-0.3,0-0.5,0-0.8,0c-0.1-0.7,0.2-0.9,0.9-0.8c0.2,0.2,0.2,0.4,0.2,0.6
		C124.1,84.3,124,84.4,123.9,84.4z"/>
	<path class="st177" d="M123.9,84.4c0-0.3,0-0.6,0-0.8c0.2,0.3,0.5,0.5,0.7,0.8v0.1C124.4,84.6,124.1,84.6,123.9,84.4L123.9,84.4z"
		/>
	<path class="st99" d="M126.4,96.8c-1,10-6.3,17.6-13.1,24.4c-0.9,2.2-3.2,3.1-4.2,5.1c-0.3,0.5-0.7,0.8-1.3,1
		c-3,0.8-5.5,2.7-8.5,3.6c-1.1,0.5-2.2,0.9-3.4,1.1c-2,0.3-4,1-6.1,0.9c-0.8,0-1.7,0-2.5,0c-4.2-1-7.9-3-11-6.1
		c-0.2-2.4-1.4-4.3-2.4-6.4c-1.3-4.3-1.2-8.8-0.8-13.2c0.5-3.7,2-7.1,2.6-10.7c0.2-0.9,0.5-1.8,0.7-2.7c0.4-1.9,1.4-2.6,3.1-1.4
		c1.1,0.8,2.1,1.2,3.2,0.2c2.6-0.2,0.7-2.4,1.5-3.4c0.3-0.6,0.8-0.9,1.5-0.7c0.6,0.3,1,0.7,1.3,1.3c3.4,5.2,3,10.3,0.4,15.8
		c-2.9,6.3-4.3,12.8-1.4,20.3c-0.1-0.2,0.5-0.9,0.1-0.6c-0.1,0.1-0.2,0-0.3-0.2c-2.6-6.1-1.2-12,0.9-17.8c1-2.8,1.5-6.1,3.4-8.2
		c2.1-2.5,5.1,0.9,7.9,0.4c2.7-0.5,5.6-0.1,8.5,0.5c4.8,1,8.8,2.9,11,7.7c-3-6.6-9-7.8-15.2-8.3c-2.3-0.2-4.7,0.2-6.9-0.1
		c-2.6-0.4-5.1-1.3-6-4.1c0.4-2.6,1.5-4.5,4-5.4c0.6-0.2,1.3-0.5,1.6-1.2c1.3-2.7,2.8-3.5,5-0.9c0.4,0.5,1.2,0.8,1.8,0.2
		c2.4-2.4,5.7-2.5,8.7-3.4c1.3-0.4,2.6-0.3,3.9-0.1c0.6,0.2,0.9,0.6,1.1,1.2c0.8,2.9,3.5,3.5,5.6,4.9
		C123.9,91.5,124.8,94.5,126.4,96.8z"/>
	<path class="st178" d="M111.6,135.8c-0.5,0.3-1,0.7-1.6,1c-1.7,1.3-4.3,1.4-4.9,3.9c-1.4-0.3-3-0.5-3-2.5c-0.8-0.2-1.4-0.5-1.5-1.4
		c-0.2-1.8,1.5-2.8,1.6-4.5c0.3-0.7,0.9-1.1,1.6-1.3c1.2-0.3,2.1-1,2.8-1.9c0.3-0.3,0.7-0.7,1-1c0.4-0.5,0.9-0.9,1.3-1.4
		c0.3-0.4,0.6-0.8,0.9-1.2c0.8-0.5,1.4-1.7,2.6-1c2.4,0,3.1-2,4.1-3.4c2.8-4,5.4-8.1,8.2-12.1c1.3-1.1,2.5-1.8,3.1,0.6
		c0.4,1.4,0.6,2.9,0.9,4.3c0,0.8-0.1,1.6-0.1,2.4c-0.9,0.9-1.3,2.1-1.6,3.3c-0.5,0.8-1,1.6-1.5,2.5c-1.1,0.9-1.9,2-2.3,3.3
		c-2.5,2.4-4.9,4.9-7.4,7.3C114.5,133.7,113,134.7,111.6,135.8z"/>
	<path class="st179" d="M126.4,96.8c-2.9-1-2.7-4.9-5.7-5.9c-1.2-0.8-2.5-1.4-2.9-3.1c0.1-0.6,0.5-1,1-1.2c0.9-0.2,1.3,0.5,1.7,1.1
		c1.6,1.7,3.1,3.3,4.7,5C125.7,94,126,95.4,126.4,96.8z"/>
	<path class="st180" d="M112.5,124.5c-0.8,0.6-1.6,1.1-2.4,1.7c-0.2,0.2-0.5,0.3-0.8,0.3c-0.3,0.1-0.5,0-0.8-0.1
		c0.1-3.2,3.3-3.4,4.8-5.2C113.4,122.4,113,123.4,112.5,124.5z"/>
	<path class="st181" d="M131.9,111.3c0,0.3,0,0.6,0,0.9c-1.1-0.1-1.5-0.8-1.5-1.7c0-1.9,0-3.8,0-5.6c0.3,0,0.6,0,1,0
		C131.5,107,130.5,109.3,131.9,111.3z"/>
	<path class="st182" d="M119.1,80.3c-0.1,1.4-1.2,2.2-1.8,3.3c-1.1,0.9-2.4,0.1-3.6,0.4c-2.6-0.3-3.9-2.2-4.9-4.3
		c0-2.5,3.1-3.1,3.5-5.4c1.7-0.1,1.7,1.3,2.2,2.4s0.5,2.9,2.5,2.4c1-0.1,1.7,0.3,2,1.3L119.1,80.3z"/>
	<path class="st183" d="M114,83.6c1.1-0.8,2.2-0.1,3.3,0c0.3,1.9,3.1,1.3,3.4,3.2c0,0.3,0,0.6,0,0.9c-0.6-0.2-1.1-0.5-1.7-0.7
		c-1.2-0.2-2.3-0.6-3.3-1.1c-0.3-0.2-0.5-0.5-0.6-0.8c-0.2-0.2-0.5-0.5-0.7-0.7c-0.3-0.1-0.4-0.2-0.4-0.4
		C113.9,83.7,114,83.6,114,83.6z"/>
	<path class="st184" d="M124.7,85.2c0.3,0,0.5,0.1,0.8,0.1c-0.2,0.2-0.5,0.4-0.7,0.6C124.7,85.7,124.7,85.4,124.7,85.2z"/>
	<path class="st185" d="M123.9,84.3c0.3,0,0.5,0.1,0.8,0.1c0,0.3,0.1,0.5,0.1,0.8C124.5,84.9,124.2,84.6,123.9,84.3z"/>
	<path class="st186" d="M81.4,44.4c0.3-0.8,0.9-1.4,1.8-1.6c2,1.5,4.3,0.4,6.4,0.8c0.5,0.5,0.5,1,0,1.5c-2.2,0.8-4.2-1.3-6.5-0.5
		C82.5,44.9,82,44.8,81.4,44.4z"/>
	<path class="st187" d="M89.6,45.1c0-0.5,0-1,0-1.5c1.3,0.1,2.4,0.5,3.3,1.6c0,0.4-0.1,0.7-0.1,1.1C91.7,45.9,90.7,45.5,89.6,45.1z"
		/>
	<path class="st188" d="M114,83.6c0.1,0.3,0.1,0.5,0.3,0.8c-1.1,1.3-2.3,0.3-3.5,0.2c-0.5,0.3-1.1,0.4-1.6,0.2
		c-1.8-1.2-3.8-1.3-5.8-1.8c-0.4-0.1-0.8-0.1-1.2-0.2c-0.4-0.1-0.8-0.2-1.2-0.3c-2.8-0.6-5.7,0.1-8.6-0.5c-6.2-2.9-11,0.1-15.6,3.8
		c-0.6,0.5-0.8,1.3-1.2,1.9c-1,1.8,0.9,0.1,0.8,0.7c1.7,1.9-0.5,3.7,0,5.6c-0.9,1.6-0.5,3.6-1.7,5c-1.8,0.5-2.5,2.9-4.7,2.7
		c-0.3-0.2-0.6-0.5-0.7-0.8c-0.3-0.9-0.5-1.8-0.6-2.7c0-0.8,0.2-1.5,0.6-2.1c0.2-0.3,0.5-0.5,0.9-0.6c2.4,0.8-0.4-1.5,0.8-1.4
		c0.4-1.3,0.2-2.8,1.1-3.8c1.6-1.7-1.2-0.2-0.7-1c-0.4-1.3-0.6-2.6-0.8-3.9c-0.1-1.9-0.1-3.7,0.4-5.5c0.2-0.4,0.4-0.7,0.8-0.9
		c1.3-0.9,3-1,4.3-2c0.2-0.1,0.3-0.2,0.5-0.3c-0.3-2.6,2-2.5,3.5-3.3c1.1-0.7,0.8-2.7,2.7-2.6c2,1,3.8,2.7,6.3,2.5
		c0.7,0.1,1.4,0.3,2.1,0.5c1.6,0.7,3.3,0.5,4.9,0.8c1.5,0.3,2.7,1.3,4.3,1.2c3.7-0.5,6.6,0.8,8.7,3.8C111,80.6,111.7,83.1,114,83.6z
		"/>
	<path class="st99" d="M109.1,79.7c-3-1.1-5.3-4.3-9-2.9c-1.4-0.5-2.6-1.3-3.8-2.1c-1-0.8-1.7-2-2.2-2.9c1.8,4.4-2,2.3-3.6,2.8
		c-0.5-0.2-1.1-0.4-1.6-0.6c-1-0.3-1.6-0.8-1.8-1.8c1.4-1.7-0.5-3.8,0.6-5.6c0.4-0.3,0.9-0.6,1.2-0.9c0.1-0.3,0.1-0.5,0.1-0.8
		c-0.2-0.2-0.3-0.5-0.4-0.7c2.3-3.4,5.7-5.1,9.4-6.5c0.8-0.7,1.5-0.7,2.3,0c0.8,1.6,1.7-0.3,2.5,0c1.3,0.6,3-0.1,4.2,1.1
		c1.2,0.6,2.5,0.9,3.4,1.8c0.8,2.3,1.7,0.8,2.5,0c0.9,0.4,1,1.1,0.4,1.8c0.1,1.1,0.1,2.1,0.2,3.2c-0.3,1.7,1.7,3,1,4.8
		c-0.1,0.5-0.4,1-0.6,1.5c-0.5,0.9-0.5,2.1-1.4,2.8C112.1,76.8,111.1,78.6,109.1,79.7z"/>
	<path class="st106" d="M70.1,96.7c-0.2,0.5-0.4,1-0.7,1.5c-0.3,0.3-0.7,0.3-1,0.1c-1.3-1.2-0.6-3.3-2-4.4c-0.4-0.4-0.7-0.8-1.1-1.3
		c-1.1-1.7-2.5-2.6-4.4-1.5s-2.2,2.9-2,4.9c0.2,1.8,1.8,3,1.7,4.9c-0.1,0.4-0.4,0.7-0.8,0.9c-3.2,0.2-4.2-1.9-4.6-4.5
		c-0.4-2.8,0.4-5.4,1.7-7.8c1.9-3.6,4-7.1,6.6-10.2c2.4-0.5,4.2,1.2,6.4,1.7c0.2,0.1,0.3,0.3,0.5,0.4c0.2,0.4,0.3,0.8,0.4,1.2
		c0.1,1.9,0,3.9,0.1,5.8C71.7,91.4,69.7,93.9,70.1,96.7z"/>
	<path class="st189" d="M63.6,79.4c-0.6,3-2.5,5.3-4.1,7.8c-1.8,2.7-3.2,5.6-3.3,8.9c-0.1,2.9,0.9,5,4.1,5.4
		c1.3-0.3,2.6-0.3,3.9,0.1c3.1,1.1-0.5,3,0.6,4.3c0.4,0.6,0.8,1.1,1.2,1.8c0.5,1,1.1,2,1.5,3c0.3,0.9,0.3,1.9,0.4,2.9
		c0,0.4,0,0.8,0,1.2c0,1.4,0,2.8-0.2,4.2c-0.1,0.4-0.3,0.8-0.5,1.1c-0.5,0.5-1.1,0.6-1.8,0.4c-0.4-0.2-0.7-0.5-0.8-0.9
		c-0.6-1.6-0.4-3.3-0.4-4.9c0.8-4.7-2.8-6.7-5.6-9.3c-0.8-1.9-1.8-3.4-4-3.9c-1.1,0.3-1.3-0.5-1.5-1.2c0-0.4,0-0.9,0-1.3
		c-0.5-0.4-0.6-1-0.4-1.6c1.3-1.5,0.8-3.2,0.5-4.9c-0.2-1,0.2-1.7,0.7-2.5c2.3,0.4,1,1.9,1.1,3.2c0.7-4.9,3.3-8.8,6.1-12.5
		c0.5-0.5,1-0.9,1.6-1.4C62.8,79,63.2,79,63.6,79.4L63.6,79.4z"/>
	<path class="st190" d="M60.9,80.8c-1.1,4.5-4.8,7.9-5.7,13.1c-1.1-1.4-0.2-3.1-1.5-3.8c-0.1-1.9,0.5-3.5,1.6-5
		c0.8,0.8,1.4,0.7,1.6-0.4c0.2-1.2,0.1-2.4,0.1-3.6c0.5-1.3,1.3-1.6,2.5-1C59.6,81.2,60.3,80.9,60.9,80.8z"/>
	<path class="st182" d="M114.1,70.5c0.1-1.7-2.2-3.1-0.6-5c1,0.6,0.8,2.2,2.2,2.6c0.9,1.8,1.8,3.5,2.7,5.3c0.2,1.4,1.2,3.3-0.6,3.8
		c-2.2,0.6-2.7-1.6-3.3-3.2C113.8,72.9,114.1,71.7,114.1,70.5z"/>
	<path class="st191" d="M74.1,54.1c1.9,0.2,3.3-0.9,4.9-1.6c2.6,0.7,6.4-0.5,6.5,4.1c-0.3,0.3-0.7,0.3-1,0.1
		c-0.7-0.4-1.4-0.6-2.2-0.6c-2.4-0.2-4.9-0.3-7.3,0.3c-1.2,0.3-2.4,0.5-3.4-0.7C72.5,55.2,73.3,54.7,74.1,54.1z"/>
	<path class="st192" d="M104.4,50.9c3.5,0.8,6.8,2.4,10.5,2.6c-1.8,1.3-3.8,0.4-5.7,0.7c-0.6-0.5-1.1-0.1-1.7,0
		c-1.6-0.8-3.3-1.6-4.9-2.4C102.6,50.2,103.5,50.5,104.4,50.9z"/>
	<path class="st193" d="M71.6,55.7c4.1-0.2,8.1-1.4,12.2-0.6c-0.4,2.4-2.5,1.1-3.7,1.7c-0.4,0.1-0.8,0.2-1.1,0c-0.3,0-0.6,0-0.9,0
		c-2.2-0.2-4.8,1.5-6.6-1L71.6,55.7z"/>
	<path class="st194" d="M104.4,50.9c-0.7,0.1-1.4,0.2-1.8,0.9c-2.6-1-5.3-1.9-7.4-4C98.5,48.2,101.5,49.6,104.4,50.9z"/>
	<path class="st195" d="M82.9,71.4c-2-0.3-0.7,2.3-2.2,2.4c-0.9,0.3-1.1-0.1-0.9-0.9c1.1-1.7-0.7-3-0.9-5.2c1.9,1.1,3.4,2,4.9,2.9
		C83.9,71.3,83.8,71.8,82.9,71.4z"/>
	<path class="st196" d="M82.9,71.4c0.3-0.3,0.7-0.5,1-0.8c1.3-0.1,1.6,2,3.2,1.4c0.9,0.3,1.5,1,1.8,1.8
		C86.2,74.7,84.5,73.1,82.9,71.4z"/>
	<path class="st197" d="M72.4,79.4c-0.2,0.1-0.5,0.1-0.7,0.1c-0.7,0.4-0.2,1.8-1.4,1.7L70,81.1c0.8-1.9-1-3.5-0.6-5.3
		c1.5-0.5,1.9,1.3,3.1,1.4C72.2,77.9,71.6,78.7,72.4,79.4z"/>
	<path class="st198" d="M79.8,73c0.3,0.3,0.6,0.6,0.9,0.9c-1.2,1.3-3.8,0.5-4.2,2.9c-1.3-1-0.6-2.5-0.7-3.7c0.2-0.3,0.4-0.3,0.6,0
		C77.6,74,78.7,73.2,79.8,73z"/>
	<path class="st199" d="M80.7,48.4c0.1-0.5,0.1-0.9,0.2-1.4c0.9-1.1,2-0.9,3-0.3c0.6,0.2,1.6,0.3,1.7,0.6c0.3,1-0.5,1.2-1.4,1.1
		C83.1,48.4,81.9,48.4,80.7,48.4z"/>
	<path class="st200" d="M74.1,70.6c-0.8-0.6-1.6-1.2-2.4-1.8c-0.3-0.8,0-1.4,0.5-2C72.9,66,72,64,74,64.1l0.2-0.1
		c0.7,1.8,0.2,3.6,0.3,5.4C74.5,69.8,74.4,70.2,74.1,70.6z"/>
	<path class="st201" d="M72.4,79.4c-1.2-0.7-1.1-1.5,0-2.2c1.2-0.1,2.4-0.1,3.6-0.2C75.3,78.5,74.4,79.7,72.4,79.4z"/>
	<path class="st202" d="M59.4,80.2c-1.1-0.4-1.6,0.6-2.5,1c-1.2-0.7-0.9-1.6-0.4-2.6C58.4,77.5,59.1,78.6,59.4,80.2z"/>
	<path class="st203" d="M62.7,73c0.8,0.1,2.1-0.4,2.2,0.8c0.1,1.2-1.7,0.9-2.2,1.8c-0.6,0.3-1.2,0.4-1.8,0
		C59.9,73.6,61.8,73.6,62.7,73z"/>
	<path class="st204" d="M85.2,61c-0.9,1.4-1.6,2.3-3.1,1.8c-0.2-0.1-0.5-0.7-0.4-1C82.4,60.3,83.7,60.7,85.2,61z"/>
	<path class="st205" d="M58.7,68.1c-0.6-1.4,1.5-2.4,0.8-3.8c0.1-0.5,0.3-0.6,0.7-0.3C61.7,66.1,60.6,67.2,58.7,68.1z"/>
	<path class="st191" d="M71.5,55.8c1.9,2.5,4.5,0.4,6.6,1c-1.9,1.3-4,0.6-6.1,0.6C71.2,57.4,70.7,56.7,71.5,55.8z"/>
	<path class="st206" d="M110.1,60.7c-1.3-0.1-2.5-0.6-3.3-1.6c0.4-0.6,1.1-0.3,1.6-0.6c0.6,0,1.1-0.1,1.7-0.1
		c0.3,0.1,0.5,0.3,0.6,0.6c0.2,0.4,0.4,0.8,0.4,1.3C110.8,60.7,110.6,61.1,110.1,60.7z"/>
	<path class="st207" d="M65.1,66.2c2.2-1,4.4-0.8,6.5,0.2c0.3,0.4,0.3,0.7-0.1,1.1c-0.6,0.3-1.2,0.2-1.8,0
		C68.3,66.8,66.3,68,65.1,66.2z"/>
	<path class="st208" d="M65.1,66.2c1.6,0.7,3.5-0.4,5,0.9C69,68.4,67.2,67,66,68c-0.7,0.1-1.4-0.1-1.7-0.7
		C64,66.5,64.7,66.4,65.1,66.2z"/>
	<path class="st209" d="M66,68c1.1-1.5,2.8-0.4,4.1-0.9c0.5,0,1,0,1.5,0.1c0.3-0.2,0.5-0.3,0.8-0.1c0,0.2,0,0.3-0.1,0.5
		c-0.3,0.4-0.5,0.8-0.8,1.3C69.8,68,67.9,68.2,66,68z"/>
	<path class="st210" d="M83.9,46.7c-1,0.1-2,0.2-3,0.3c-0.7-0.2-1.6-0.2-2-1.1c0.3-0.8,1-0.8,1.7-0.7c1.2-0.3,2.3,0.2,3.3,0.8
		C83.9,46.3,83.9,46.5,83.9,46.7z"/>
	<path class="st211" d="M86.4,66.2c-1.4,0.5-2.2,0.2-1.6-1.5c1.2-0.5,2.5-0.2,3.7-0.2c0.4,0.1,0.7,0.4,0.7,0.9
		C88.5,66.6,87.2,65.8,86.4,66.2z"/>
	<path class="st212" d="M74,64.1c-1.3,0.8-0.3,2.6-1.5,3.4l-0.1-0.2l0.2-0.2c-0.4-1.6-1-3.2,0.3-4.7C73.7,62.6,74.2,63.1,74,64.1z"
		/>
	<path class="st213" d="M62.7,73c-0.3,1.1-2.2,0.9-1.8,2.5c-0.1,0.4-0.4,0.6-0.7,0.7C58.5,73.1,60.6,73.1,62.7,73z"/>
	<path class="st214" d="M79,56.8c0.3-0.1,0.5-0.2,0.8-0.3c1.6-0.4,3.2-0.5,4.7,0c0.3,0,0.6,0.1,1,0.1C83.4,58,81.2,57.8,79,56.8z"/>
	<path class="st215" d="M108.3,58.5c-0.5,0.2-1,0.4-1.6,0.6c-1.3-0.5-2.7-1-4-1.5C104.7,57.2,106.6,57.6,108.3,58.5z"/>
	<path class="st216" d="M74.1,70.6c0-0.3,0.1-0.7,0.1-1c0.3-0.2,0.6-0.1,0.7,0.3c0.7,1,1.7,1.8,1.6,3.2h-0.3h-0.3
		C74.9,72.5,74.6,71.5,74.1,70.6z"/>
	<path class="st217" d="M74.9,69.8c-0.2-0.1-0.5-0.2-0.7-0.3c0-1.9,0-3.7,0-5.6C75.6,65.8,74.7,67.9,74.9,69.8z"/>
	<path class="st218" d="M83.9,46c-1.2,0.1-2.3-0.3-3.3-0.8c0.3-0.3,0.5-0.5,0.8-0.8c0.6,0,1.1,0.1,1.7,0.1
		C83,45.2,84.8,44.9,83.9,46z"/>
	<path class="st191" d="M84,50.9c-0.5-0.1-1.2,0.1-1-0.6c0.1-0.3,0.7-0.7,1.1-0.8c0.5-0.1,1.1,0,1.1,0.7
		C85.1,50.8,84.5,50.9,84,50.9z"/>
	<path class="st219" d="M86.4,66.2c0.6-0.9,1.6-0.5,2.4-0.6c0.3-0.3,0.6-0.3,0.8,0c-0.7,0.1-0.2,3.3-2,0.8
		C87.2,66.4,86.8,66.3,86.4,66.2z"/>
	<path class="st220" d="M72.8,62.4c-0.1,1.6-0.2,3.2-0.3,4.7c-0.3,0-0.5,0-0.8,0c0-0.2,0-0.5,0-0.7C71.9,65.1,70.9,63.3,72.8,62.4z"
		/>
	<path class="st87" d="M113.3,62.4c-0.2-0.6-0.4-1.2-0.7-1.8c-0.5-0.3-0.7-0.8-0.7-1.3c0.1-0.4,0.2-0.7,0.5-0.9
		C113.5,59.5,114.9,60.6,113.3,62.4z"/>
	<path class="st221" d="M60.2,76.2c0.2-0.2,0.5-0.5,0.7-0.7c0.6,0,1.2,0.1,1.8,0.1C62,76.2,61.8,78.9,60.2,76.2z"/>
	<path class="st87" d="M107.6,54.2c0.5-0.8,1.1-0.8,1.7,0c-0.6,0.5-1.2,1.3-1.7,1.3C106.9,55.4,107.5,54.6,107.6,54.2z"/>
	<path class="st222" d="M100.2,57.6c-0.8,0-1.5,0-2.3,0c-0.3-0.1-0.6-0.1-0.7-0.2c-0.4-0.4-0.2-0.6,0.2-0.6
		C98.4,56.7,99.6,56.4,100.2,57.6z"/>
	<path class="st223" d="M88.7,64.6c-1.3,0-2.7,0.1-4,0.1c1.1-1.2,2.5-0.6,3.8-0.6c0.2,0.1,0.4,0.1,0.5-0.1
		C89.1,64.3,89,64.5,88.7,64.6z"/>
	<path class="st224" d="M63.5,79.5c-0.4,0-0.7,0-1.1,0c0.4-0.7-0.3-2.2,1-2C64.5,77.6,63.3,78.8,63.5,79.5z"/>
	<path class="st225" d="M112.4,58.3c0,0.3,0,0.5,0,0.8c-0.2,0.3-0.5,0.4-0.8,0.5c-0.2,0-0.3-0.1-0.5-0.1c-0.3-0.2-0.5-0.4-0.6-0.7
		c0-0.5,0-1,0.5-1.3C111.4,57.8,111.9,58,112.4,58.3z"/>
	<path class="st226" d="M110.9,57.5c-0.1,0.5-0.1,1.1-0.2,1.6c-0.2,0.3-0.4,0.3-0.6,0c-0.1-0.2-0.2-0.5-0.1-0.8
		C110.3,58.1,110.6,57.8,110.9,57.5z"/>
	<path class="st227" d="M60.2,64c-0.2,0.1-0.4,0.2-0.7,0.3L59.4,64c-0.2-0.2-0.3-0.4-0.3-0.6c0-0.3,0.1-0.4,0.1-0.4
		c0-0.2,0.1-0.4,0.2-0.6C60.5,62.5,60.2,63.3,60.2,64z"/>
	<path class="st228" d="M47.2,74.6c0.3,0,0.6,0,0.9,0c0,0.8,0,1.6,0.1,2.5c0.5,1.1,0.1,1.8-0.8,2.4c0,0.3-0.1,0.5-0.2,0.8
		C45.4,78.4,47.9,76.5,47.2,74.6z"/>
	<path class="st229" d="M46.2,87.6c-1.1-0.9-0.6-2.1-0.8-3.2c0.1-0.9,0.5-1.6,1.6-1.6C46.8,84.4,46.5,86,46.2,87.6z"/>
	<path class="st230" d="M48.9,73c0.1-1.4,0.9-2.7,0.5-4.1c0.1-0.2,0.2-0.4,0.2-0.7c0.2-0.1,0.5-0.1,0.7,0c0,3.5,2.3,4.1,5.1,4
		c-0.1,1.1-0.2,2.2-0.4,3.2c-2.2,1.8-2-0.4-2.5-1.5c-0.1-0.3-0.3-0.7-0.5-1C51.1,72.9,50,73.9,48.9,73z"/>
	<path class="st120" d="M52.9,73c1.7,0-0.5,3.4,2.2,2.5c0.1,1.2,0.1,2.4-0.5,3.5c-0.6-1.9-2.7,0.6-3.3-1.1
		C52.6,76.4,51.6,74.3,52.9,73z"/>
	<path class="st126" d="M53,100.4c0.5,0.4,1,0.8,1.5,1.2c0.3,1.3,0.6,2.7,0.9,4c-0.4,0.6-0.7,1.3-1.6,0.8
		C53.7,104.4,52,102.6,53,100.4z"/>
	<path class="st231" d="M53,97.4c0,0.6,0,1.1-0.1,1.7c-0.9,0.4-1.8,0.8-3.2,1.5c0.5-2,0.8-3.6,3-3.9c0.3,0.1,0.5,0.2,0.4,0.4
		C53.2,97.3,53.1,97.4,53,97.4z"/>
	<path class="st232" d="M52.9,73c0.1,1.8,0.9,3.9-1.7,4.8c0.2-1.6-0.3-3.3,0.8-4.8C52.4,72.9,52.7,72.9,52.9,73z"/>
	<path class="st233" d="M53.7,106.4c0.5-0.3,1.1-0.5,1.6-0.8c0.3,0.8,1.2,1.7,0.5,2.5c-0.3,0.3-1.4,0-2.1-0.1
		C53.7,107.5,53.7,107,53.7,106.4z"/>
	<path class="st234" d="M47.4,79.5c0.3-0.8,0.5-1.6,0.8-2.4c0.3,0.7,0.6,1.4,0.9,2.1c0.2,0.5,0.3,1.1-0.3,1.3
		C47.9,80.9,47.9,79.7,47.4,79.5z"/>
	<path class="st235" d="M53,97.4c-0.1-0.3-0.2-0.5-0.3-0.8c0.1-1.3,0.2-2.7,0.3-4C54.1,94.2,54.1,95.8,53,97.4z"/>
	<path class="st236" d="M57.8,135c-0.2-1-0.6-1.9-1.6-2.3c-0.8-1.2-1.6-2.4-2.4-3.6c-1.1-1.9,0.3-2.9,1.6-3.9c0.3,0,0.5,0.1,0.8,0.1
		c2,0.3,2.4,2.6,4,3.4c0.4,0.7,0.9,1.5,1.3,2.2c1.2,0,1.9,1,2.9,1.3c1,0.4,2.1,0.7,3,1.2c1.5,0.7,3.2,1.2,4.8,1.5
		c1,0.3,1.9,0.8,2.7,1.4c3.3,1.3,6.6,1.7,10.2,1.3c3.8-0.4,7.8-1.8,11.2,1.2c0.6,0.8,0.7,1.6,0.4,2.5c-0.8,1.8-2.7,2-4.3,2.5
		c-0.8,0.2-1.6,0.3-2.5,0.2c-0.4,0-0.8-0.1-1.2-0.3c-3.5-0.4-6.9-0.2-10.4-0.1c-0.4,0-0.8-0.1-1.2-0.3c-0.4,0.2-0.9,0.4-1.3,0.7
		c-1.6-1.1-3.7-1.1-5.3-2.3h-0.1c-1.7-0.1-3.2-0.6-4.5-1.6c-0.5-0.1-1.1-0.2-1.6-0.2c-0.1-1.6-1.4-1.7-2.4-2.2
		C60.5,136.6,59.6,135.1,57.8,135z"/>
	<path class="st237" d="M64.5,126.2c-2-1.7-4.7-2.6-5.9-5.1c0.2-0.3,0.5-0.5,0.8-0.7c0.8-0.4,1.7-0.7,2.7-0.6c0.6,0.2,1,0.5,1.3,1
		c0.2,0.3,0.4,0.7,0.5,1C64.3,123.3,65.4,124.6,64.5,126.2z"/>
	<path class="st238" d="M61.9,120c-0.6,0.7-1.3,1.2-2.3,1.1c-1.3-0.6-1.6-2.2-2.6-3.1c0-0.6,0-1.2-0.1-1.8c1.1,0,2.1,0,3.2,0
		c0.9,0.4,1.1,1.4,1.5,2.1C61.9,118.9,62,119.4,61.9,120z"/>
	<path class="st239" d="M64.5,126.2c-0.6-1.4-1.1-2.9-1.7-4.3c0.8-0.6,0.8-2.3,2.4-1.7l0,0c1,1.1,0.8,2.5,1.5,3.7
		c0.4,0.9,0.8,1.8,0.4,2.9c-0.5,0.7-1.1,1.3-2,0.7C64.9,127.1,64.7,126.7,64.5,126.2z"/>
	<path class="st240" d="M65.9,131.8c0.8-0.3,0.8-1,0.9-1.7c0.6-0.3,1.4,0.4,1.9-0.2c0.3,0,0.6,0.2,0.9,0.4c0.7,0.8,1.4,1.6,1.7,2.7
		c0.1,0.6,0,1.1-0.5,1.5c-1.2,0.1-2.2-0.2-3.3-0.6C66.9,133.2,65.6,133.2,65.9,131.8z"/>
	<path class="st241" d="M60.1,128.7c-2.5,0.3-2.6-2.3-4-3.4c0.2-0.6,0.5-1.1,0.7-1.7C57.9,125.3,59,127,60.1,128.7z"/>
	<path class="st242" d="M68.5,130.1c-0.6,1.5-1.2-0.3-1.7-0.1c-0.3-1-1.8-1.2-1.7-2.5c0.5-0.2,1.1-0.3,1.6-0.5
		c0.7-0.1,1.3,0.2,1.7,0.7C68.7,128.5,68.9,129.3,68.5,130.1z"/>
	<path class="st243" d="M57,118c1.9,0.1,2.2,1.6,2.6,3.1c-0.3,0-0.7,0.1-1,0.1C57.2,120.5,56.8,119.4,57,118z"/>
	<path class="st244" d="M65.9,131.8c0.6,0.5,1.1,1.1,1.7,1.6c-0.2,0.4-0.5,0.6-0.8,0.7c-0.9-0.3-1.9-0.6-2.5-1.5
		c-0.2-0.2-0.3-0.4-0.2-0.5c0.1-0.2,0.1-0.3,0.2-0.3C64.8,131.7,65.4,131.8,65.9,131.8z"/>
	<path class="st245" d="M64.3,131.7c0,0.3,0,0.5,0,0.8c-1.3,0-2.1-0.7-2.9-1.7C62.8,129.9,63.5,130.9,64.3,131.7z"/>
	<path class="st246" d="M58.5,105.5c5.1,1.8,6.5,3.6,6.7,9c-0.2,0.4-0.5,0.5-0.9,0.4c-1.5-1-2.8-2.2-4.1-3.5c-0.1-0.2-0.1-0.4,0-0.6
		C59,109.2,58.6,107.4,58.5,105.5L58.5,105.5z"/>
	<path class="st247" d="M60.2,111.4c2.2-0.2,3.1,1.6,4.3,3c0.1,2.4,0.9,5.1-1.7,6.8c-0.3-0.4-0.6-0.8-0.9-1.1
		c-0.3-0.5-0.6-0.9-0.9-1.4c0.3-2-0.5-3.8-0.7-5.7C60.2,112.4,60.2,111.9,60.2,111.4z"/>
	<path class="st248" d="M60.3,112.9c1,1.8,2.6,3.5,0.7,5.7c-1.1-0.5-0.4-1.6-0.9-2.3c0.3-1-0.5-1.6-0.8-2.5
		C59.6,113.5,59.9,113.2,60.3,112.9z"/>
	<path class="st249" d="M58.5,105.5c1.2,1.5,1.2,3.4,1.7,5.2C58.2,109.5,57.1,107.9,58.5,105.5z"/>
	<path class="st250" d="M55.3,125.2c-0.5,1.3-1.1,2.6-1.6,3.9c-0.3,0-0.6,0-0.8,0c-0.1-0.1-0.1-0.3,0-0.4c-0.4-1.4-1.9-2.8-0.1-4.3
		c0.3-0.3,0.6-0.6,0.9-0.9C54.3,124.1,54.8,124.6,55.3,125.2z"/>
	<path class="st251" d="M59.2,62.9c0.1,0.3,0.1,0.7,0.2,1c-0.3-0.3-0.6-0.5-0.9-0.8C58.8,63,59,62.9,59.2,62.9z"/>
	<path class="st252" d="M52.8,124.4c-0.9,1.5,0.5,2.9,0.1,4.3c-1.5-1.1-1.7-2.7-1.7-4.3c0.3,0,0.6,0,0.9-0.1
		C52.4,124.4,52.6,124.4,52.8,124.4z"/>
	<path class="st253" d="M77.2,143.2c0.4-0.1,0.7-0.1,1.1-0.2c0.6-0.3,1.2-0.3,1.8-0.1c2.6,0.3,5.2,0.4,7.8,0
		c0.6-0.2,1.2-0.2,1.8,0.1v0.3c0.5,0.6,1.9-0.1,1.7,1.3c-1.6,1.3-3.3,0.4-4.9,0.3C83.4,144.1,79.8,146.3,77.2,143.2z"/>
	<path class="st254" d="M86.4,145c1.7-0.4,3.5,0.2,5-0.9c0.3-0.3,0.6-0.3,0.9-0.1c0.8,0.8,1.4,1.7,1.9,2.7c0.4,1.2,0.5,2.5,0.7,3.8
		c0,0.4-0.1,0.7-0.4,1c-3-0.1-0.7-3.1-2.3-4c-0.6-1.1-1.7-0.8-2.7-1C88.8,145.1,87.2,146.1,86.4,145z"/>
	<path class="st255" d="M70.5,141.6c1.8,0.7,4.3-0.3,5.3,2.3C73.9,143.6,71.5,144.1,70.5,141.6z"/>
	<path class="st256" d="M65.9,140c1.7,0.1,3.2,0.7,4.5,1.6C68.3,142.8,66.8,142,65.9,140z"/>
	<path class="st257" d="M94.5,151.3c0-0.3,0-0.5-0.1-0.8c-0.6-1.2-0.2-2.5-0.3-3.7c-0.1-0.4,0-0.8,0.2-1.2c1.1-0.4,1.4,0.5,1.8,1.2
		c0.4,1.7,1.2,3.4,1.3,5.2c-0.1,0.4-0.3,0.7-0.6,1h0.1C95.8,153,95.2,152.1,94.5,151.3z"/>
	<path class="st258" d="M96.9,153c0.1-0.3,0.3-0.6,0.4-0.9c-0.2-1.3,0.2-2.5,1.2-3.5c1-0.6,2.1-1.2,2.6-2.4c0.2-0.3,0.4-0.6,0.7-0.8
		c0.3-0.2,0.7-0.2,1-0.1c0.5,0,1,0,1.6,0c0.1,0.9,0.1,1.9,0.2,2.8c-0.6,1.3-1.3,2.7-1.9,4C100.8,153.2,98.9,153,96.9,153z"/>
	<path class="st259" d="M98.6,149.3c-0.4,0.9-0.9,1.9-1.3,2.8c-1.8-1-1.4-3-1.9-4.6c0.5-1.7-0.2-3.8,1.8-4.9c0.2,0,0.4-0.1,0.5-0.1
		c2.5-1.7,4.3-1.2,5.6,1.5C100.7,144.6,98.6,146,98.6,149.3z"/>
	<path class="st260" d="M98.6,149.3c-1.3-4.2,0.1-5.7,4.9-5.3c-0.2,0.5-0.5,0.9-0.7,1.4c-0.3,0.1-0.6,0.3-0.9,0.4
		c-0.2,0.2-0.3,0.3-0.2,0.5c0.1,0.2,0.1,0.3,0.2,0.3C102.1,149,100,148.8,98.6,149.3z"/>
	<path class="st261" d="M101,136.7c0.4,0.5,0.7,1,1.1,1.5c-0.4,0-0.8,0.1-1.1,0.1c-0.7,0.6-1.7,0.1-2.4,0.8
		c-0.3,0.3-0.5,0.5-0.8,0.8c-1-0.4-1.4-1.1-1.3-2.1C97.6,135.8,99.1,135.3,101,136.7z"/>
	<path class="st262" d="M91.9,143.1c1.4-0.5,2.8-1,4.2-1.6c0.5-0.4,1-0.5,1.6-0.1c0,0.3,0.1,0.7,0.1,1l0,0c-1.1,0.2-1.2,1.6-2.2,1.9
		c-0.7-0.7-1.4,0.1-2.1,0C92.9,144.1,92.3,143.7,91.9,143.1z"/>
	<path class="st263" d="M98.6,139.1c0.2-2.2,1.5-1,2.4-0.8C100.9,140.8,99.7,139.9,98.6,139.1z"/>
	<path class="st264" d="M97.7,141.4c-0.5,0-1.1,0.1-1.6,0.1c0-0.8,0-1.6,0-2.4c-0.2-0.7,0.1-0.9,0.8-0.8c0.3,0.6,0.6,1.1,1,1.7
		C97.8,140.4,97.8,140.9,97.7,141.4z"/>
	<path class="st265" d="M97,186.3c-1.4,0-2.8,0.1-4.2,0.1c0.1-0.2,0.1-0.4,0.2-0.6C94.4,185.7,95.8,185.2,97,186.3z"/>
	<path class="st266" d="M114.1,70.5c1.2,0.8,0.6,2.2,1.2,3.2s0.2,3.1,2.1,2.8c1.4-0.3,0.6-2,0.9-3.1c1.6,2.2,2.2,4.5,0.6,6.9
		c-0.8-0.3-1.5-0.6-2.3-0.8c-3.4-1.8-2.9-5.2-3.3-8.2C113.6,71,113.8,70.8,114.1,70.5z"/>
	<path class="st267" d="M75.8,85.2c2.1-2.3,5.1-3.3,7.7-5c2.9-2,5.8-0.4,8.6,0.8c0.2,0.3,0.4,0.6,0.4,1c0,0.8-0.1,1.6,0.8,2.1
		c0.9,0.6,2.5,1.2,1.9,2.6c-0.7,1.3-2.3,1-3.6,0.9c-0.9-0.1-1.9-0.2-2.7-0.6c-0.6-0.2,0-1.4-0.8-1.2c-0.6,0.2,0.1,0.8,0.2,1.2
		c-0.5,1.3-1.6,1.3-2.7,1.3c-0.3,0.3-0.5,0.5-0.8,0.8c-0.5,1.1-0.5,2.5-1.6,3.3c-0.5,0.9-1,1.8-1.8,3.2c-0.8-1.7-1.8-3-3.4-3.4
		c-1.1,0.9,0.1,2.7-1.3,3.5c-0.7-0.3-0.4-1.2-0.8-1.7c-0.8-2,1.3-3.9,0.1-6C75.7,87.2,74.9,86.3,75.8,85.2z"/>
	<path class="st268" d="M89.6,94.2c1.8,3.2,4.6,4.3,8.2,4.1c5.2-0.3,10.3,0.2,14.9,3c3.2,1.9,5.5,4.6,6.4,8.5
		c-1.4,0-1.7-0.9-1.9-1.5c-2.9-6.9-9-7.9-15.4-8.3c-3.2-0.2-6.5,0.7-9.6-1.1c-0.6-0.4-1.4-0.4-1.6,0.5c-2.2,7.4-6.6,14.4-4.9,22.6
		c0.5,2.1,1.7,4.1,2.2,6.4c-2.9-1.4-3.6-4.3-3.9-7c-0.6-5.3-0.3-10.6,2.3-15.5c2.6-4.9,4-9.8,0.2-14.8c-0.3-0.4-0.1-1.1-0.1-1.6
		C89.1,89.8,90.3,91.4,89.6,94.2z"/>
	<path class="st269" d="M89.6,94.2c-0.6-2-1.6-3.7-3.3-4.9c-0.3-0.3-0.6-0.6-0.8-0.8c0.8-0.5,1.6-1.1,2.4-1.6
		c0.2-0.3,0.5-0.3,0.8-0.1c1.9-0.9,4,0.9,6-0.4c-0.2-1.9-5.7-0.7-2.7-4.5c1.9,0,3.8,0,5.7,0c1.6-0.3,3.3,0.5,4.9,0
		c0.3,0,0.6,0.1,0.9,0.1c1.5,1.6,4.1,0.8,5.6,2.3c0.6,0.1,1.1,0.1,1.7,0.2c-1.1,3-4.4-0.1-5.9,2.1c-0.1,0.1-1.3,0.3-1.5,0.8
		c-1.8,3.2-3.7,1.4-5-0.2c-0.7-0.9-1.4-1.2-1.5-0.4C96.1,91,90.9,90.7,89.6,94.2z"/>
	<path class="st270" d="M68.5,130.1c-0.8-0.7-0.9-1.5-0.2-2.4c0-0.2,0-0.3,0-0.5c0.1-0.3,0.2-0.6,0.3-0.9c0.2-0.3,0.4-0.5,0.6-0.7
		c0.4-0.3,0.8-0.6,1.2-0.9c0.8-1.1,1.7-1.9,3-0.6c0.7,0.6,1,1.7,2.2,1.6c0.3,0,0.6,0.1,0.9,0.3c3.2,2.6,6.5,4.8,10.6,5.8
		c0.1,0.9-0.4,1.2-1,1.5c-1.7,0.6-3.5,0.3-5.3,0.4c-2.4,0.1-4.7-0.2-6.9-0.9c-0.4-0.1-0.8-0.2-1.2-0.3c-1.3-0.5-2.5-1.2-3.4-2.3
		C69.1,130.2,68.8,130.1,68.5,130.1z"/>
	<path class="st271" d="M74.1,107.2c-0.5,4.4-0.6,8.8,0.8,13.1c-0.4,0.8-1,1.3-1.9,0.8c-1.9-1.9-1.1-4.5-1.9-6.7
		c-0.3-0.7-0.6-1.4-1-2.1c-1-2.3-2.4-4.5-2-7.2c0.2-0.4,0.5-0.6,0.9-0.7c0.4,0,0.8,0,1.2,0.2c0.3,0.2,0.5,0.5,0.7,0.9
		c1.1,0-0.7,3.3,1.8,1.5C73.1,106.8,73.6,106.8,74.1,107.2z"/>
	<path class="st272" d="M74.1,107.2c-0.5,0-0.9,0-1.4,0c-0.8-0.9-0.4-1.9-0.4-2.9c0.2-1.9,0.9-3.6,1.7-5.2c1.3-1.4,0.4-3.5,1.8-4.9
		c0.7,0.4,0.8,1,0.8,1.7C76.6,99.8,74.5,103.4,74.1,107.2z"/>
	<path class="st273" d="M94.5,108.9c-0.8,0.2-1.5,1.2-2.8,0.4c1.8-3.2,4.8-3.8,8-4.1c0.3,1.6-1.2,1.5-1.9,2.1
		C96.8,108,95.6,108.4,94.5,108.9z"/>
	<path class="st274" d="M86.7,132.7c0.5-0.1,0.7-0.5,0.5-1c0.8,0,1.6,0,2.3,0.1c0.9,0.5,1.5,1.1,1.1,2.2c-1.2,1.5-2.9,1.2-4.4,1.3
		c-2.1,0-4.2,0.1-6.2-0.1c-0.7-0.1-1.4-0.3-1.9-0.9c0-2,1.5-1.1,2.5-1.3C82.6,132.9,84.7,133.2,86.7,132.7z"/>
	<path class="st275" d="M99.3,130.1c2.8-0.8,4.9-3.7,8.2-3.2c0.5,0.5,0.4,1,0.1,1.6c-0.8,0.5-1.5,1.1-2.3,1.6
		c-1.6,0.6-3.1,1.3-4.9,1.2C99.9,131.1,99.5,130.7,99.3,130.1z"/>
	<path class="st276" d="M115,85.1c0.3,0.1,0.5,0.1,0.8,0.1c0.9,0.7,2,1.2,2.4,2.4c0.8,1.1,1.7,2.2,2.5,3.2c-2.5-0.2-3.7-2.5-5.8-3.4
		C113.7,87,114.8,85.9,115,85.1z"/>
	<path class="st277" d="M90.4,133.4c-0.3-0.5-0.6-1-0.8-1.6c2.2-0.3,4.4-0.6,6.6-0.9c0.5,0.4,1.2,0.7,0.9,1.5
		C95,134.3,92.9,135.1,90.4,133.4z"/>
	<path class="st278" d="M73.5,121.1c0.5-0.3,0.9-0.5,1.4-0.8c0.5,1.9,2.8,3.3,1.8,5.7c-0.3-0.1-0.5-0.2-0.8-0.3
		c-1.1-0.3-1.6-1.3-2.3-2.1C73.3,122.8,72.6,122,73.5,121.1z"/>
	<path class="st269" d="M83.1,92.6c0.1-1.3,0.6-2.4,1.6-3.3c0.8,0.9,0.3,2.1,0.2,3C84.8,95.4,83.7,92.6,83.1,92.6z"/>
	<path class="st279" d="M97,131.8c-0.3-0.3-0.6-0.6-0.9-0.8c1.1-0.3,2.1-0.6,3.2-0.9c0.3,0.2,0.6,0.5,0.9,0.7
		C99.6,132.5,98.5,132.7,97,131.8z"/>
	<path class="st280" d="M94.5,108.9c0.6-1.5,1.9-1.7,3.3-1.6C97,108.5,96.4,109.9,94.5,108.9z"/>
	<path class="st281" d="M107.7,128.4c0-0.5-0.1-1.1-0.1-1.6c0.3-0.2,0.6-0.3,0.9-0.5c0.3,0,0.5-0.1,0.8-0.2l0.2,0.3l-0.3,0.3
		c-0.3,0.5-0.6,1.1-0.9,1.6c-0.1,0.1-0.2,0.2-0.3,0.3C107.9,128.7,107.8,128.6,107.7,128.4z"/>
	<path class="st282" d="M97,131.8c1.2,0.2,2.2-0.5,3.2-1c1.6-0.4,3-1.6,4.8-1.4c0.7,1.1-0.1,1.6-0.7,2.3c-0.6,0.2-1.4,0.1-1.7,0.9
		c-0.7,1.1-1.8,1.6-3,1.8c-1.2,0.1-2.3,0.4-3.5,0.8c-2,0.4-3.9,1-5.8,1.5c-0.8,0.2-1.6,0.3-2.5,0.3c-3.3,0.1-6.6-0.1-9.9,0.2
		c-0.4,0.1-0.8,0.1-1.2,0c-1.5-0.3-2.6-1.5-4.2-1.8c-0.7-0.3-1.4-0.4-1.7-1.3c0-0.5,0-0.9,0-1.4c0.5-0.8,1.2-1,2.1-0.9h-0.1
		c1.6,1.2,3.8,1,5.4,2.3c0.5,0.1,1.1,0.2,1.6,0.3c2.2,0.4,4.3,0.4,6.5,0c1.3-0.5,3,0.3,4.1-1C92.8,133.4,95,133.1,97,131.8z"/>
	<path class="st283" d="M99.3,133.5c1.1-0.4,2.2-0.7,3.4-1.1c1.9,2.3-1.7,2.6-1.6,4.2c-1.7-0.2-3.3-0.3-4.1,1.6
		c-0.3,0.3-0.5,0.6-0.8,0.8c-4-1.2-8-0.8-12.1-0.3c-3.3,0.4-7.1,0.7-9.9-2.1c0.8-0.8,1.7-0.6,2.5-0.1h-0.1c4.1,0.2,8.1,0,12.2,0.1
		c1.3,0.2,2.4-0.6,3.6-0.8c1.5-0.1,2.8-0.9,4.2-1.1C97.4,134.3,98.5,134.3,99.3,133.5z"/>
	<path class="st284" d="M104.3,131.6c0.2-0.8,0.5-1.5,0.7-2.3c0.9-0.3,1.8-0.6,2.7-0.9h-0.1c0.2,0.2,0.2,0.3,0.2,0.5
		s-0.1,0.3-0.1,0.3C106.6,130.1,106.3,132,104.3,131.6z"/>
	<path class="st285" d="M123.9,112.6c0.8,0,1.3,0.4,1.3,0.9c0.1,0.8-0.6,0.6-1.1,0.6c-0.3,0-0.6-0.2-1-0.4
		C123.5,113.3,123.8,112.9,123.9,112.6z"/>
	<path class="st286" d="M109.2,126.8c0.1-0.2,0.1-0.4,0-0.6c0.3,0,0.5-0.1,0.8-0.1C109.8,126.4,109.5,126.6,109.2,126.8z"/>
	<path class="st287" d="M107.6,129.2c0-0.2,0-0.5-0.1-0.7c0.2,0,0.5,0,0.7,0C108.3,128.9,108.1,129.2,107.6,129.2z"/>
	<path class="st288" d="M118.2,87.7c-1-0.6-2.2-1-2.4-2.4c1.4-0.1,2.4,0.7,3.2,1.7C118.7,87.2,118.5,87.4,118.2,87.7z"/>
	<path class="st289" d="M113.3,71.3c1.5,2.6,1,5.9,3.3,8.2c0.4,1.1,0.5,2-1.1,1c-2.1-1.4-1.8-4-3-5.9
		C112.6,73.5,112.1,72.2,113.3,71.3z"/>
	<path class="st290" d="M90.5,74.5c0.8-1.2,2.3-0.3,3.4-1.1c-0.4-1.6-2-3.2,0.1-5.3c0.4,2.7,1.3,4.9,3,6.5c-0.1,0.5-0.5,0.6-0.8,0.8
		C94.2,75.3,92.2,76,90.5,74.5z"/>
	<path class="st291" d="M74,99.1c0.6,2-0.9,3.7-0.8,5.7c-1,0.1-1.9,1-3,0.8c-0.1-0.2-0.2-0.5-0.3-0.7c-0.7-1.2-0.9-2.3,0.2-3.3
		C71.7,101.2,72.1,98.9,74,99.1z"/>
	<path class="st292" d="M97.8,82.7c-1.9-0.2-4,0.8-5.8-0.8c0-0.3,0-0.6,0-0.9c3.3,0.4,6.7-0.3,9.9,0.9C100.8,83,99.1,81.8,97.8,82.7
		z"/>
	<path class="st293" d="M70.1,96.7c-2.2-2.7,0.8-5.5,0-8.2c0.7-0.7,0.2-1.7,0.6-2.5c0.3-0.2,0.6-0.2,0.9,0c0,1.1,1.1,2.2,0,3.2
		c0.2,1.4,0.1,2.7,0,4.1c-0.3,0.9-0.4,1.9-1.3,2.6C70.2,96.1,70.1,96.4,70.1,96.7z"/>
	<path class="st294" d="M71,93.4c0-1.4-0.8-2.9,0.6-4.1c0.6,0.3,2.2-0.1,1.6,0.7c-1,1.4,0,3.2-1.5,4.3C71.3,94,71.1,93.7,71,93.4z"
		/>
	<path class="st295" d="M109.2,84.4c-1.9-0.7-4.4,0.1-5.6-2.3C105.5,82.7,108.1,81.7,109.2,84.4z"/>
	<path class="st296" d="M69.2,104.8c-0.3,0-0.5,0-0.8,0c-1.6-1.9-1.3-3.9-0.6-6c0.2-0.2,0.3-0.3,0.5-0.5c0.3,0,0.7-0.1,1-0.1
		c1,0.7,0.5,1.6,0.5,2.5C69.2,102,70.1,103.5,69.2,104.8z"/>
	<path class="st297" d="M71.5,86c-0.2,0-0.5,0-0.7,0c-1-1.2,0.2-2.9-0.8-4.1c0-0.3,0.1-0.5,0.2-0.7c0.5-0.6,1-1.1,1.4-1.7
		C71.6,81.7,71.6,83.9,71.5,86z"/>
	<path class="st298" d="M96.2,75.3c0.3-0.3,0.6-0.5,0.8-0.8c1.1,0.6,2.4,1,3.1,2.2C98.5,77.2,97.4,76.1,96.2,75.3z"/>
	<path class="st299" d="M71,93.4c0.2,0.3,0.4,0.5,0.7,0.8c0,1.1,0,2.1,0,3.2c-1.2,0.1-0.6-1.3-1.4-1.5C70.5,95,70.7,94.2,71,93.4z"
		/>
	<path class="st300" d="M75.8,85.2c-0.7,1,1.4,2,0.1,3c-0.1,0.2-0.1,0.5-0.3,0.7c-0.3,0.4-0.7,0.4-0.7-0.1
		C75,87.6,74.4,86.2,75.8,85.2z"/>
	<path class="st301" d="M97.8,82.7c1.2-1.3,2.8-0.5,4.2-0.8c0.2-0.1,0.5-0.1,0.7,0.1C101.3,83.5,99.4,82.5,97.8,82.7z"/>
	<path class="st302" d="M69.2,104.8c0.1-1.4-0.5-2.9,0.6-4.1c0.1,0.3,0.2,0.5,0.3,0.8c-0.1,1.1-0.2,2.2-0.2,3.3
		C69.7,104.8,69.5,104.8,69.2,104.8z"/>
	<path class="st303" d="M107.6,68c1.2,0.9,0.6,1.9,0.2,2.9c-0.2,0.5-0.9,1.2-0.2,1.8c0.6,0.4,2.1-1.2,2,0.6
		c-0.1,1.4-1.9,1.4-2.9,1.7c-3.6,1-6.4-0.8-8.5-3.3c-1.5-1.8-0.9-4.2,0.5-6c1.5-1.8,3.5-2.4,5.6-0.9c0,0.5-1.6,0.3-0.4,1.2
		c0.3,1.5,1.2,2.3,2.6,2.5C107.4,69.7,107.1,67.9,107.6,68z"/>
	<path class="st304" d="M111.7,59.1c0.2,0,0.4,0,0.7,0c0.1,0.5,0.2,1,0.2,1.4c-0.1,1.2-0.3,2.3-0.5,3.8c-1.5-0.8-1.8-2.2-2.1-3.6
		c0.3-0.3,0.5-0.6,0.8-0.8c0.1-0.1,0.1-0.3,0.2-0.4C111.3,59.4,111.5,59.3,111.7,59.1z"/>
	<path class="st305" d="M99.8,60.4c-1.3,1.4-2.9,2-4.6,2.6C96.7,60.9,96.7,60.9,99.8,60.4z"/>
	<path class="st232" d="M103.7,65.7c-0.1-0.2-0.3-0.4-0.4-0.6c0.4-0.1,0.7-0.2,1.1-0.3c0.8,0.6,1.6,1.1,2.4,1.7
		c-0.3,0.5-0.5,1-1.2,1.1C104.5,67.4,103.9,66.7,103.7,65.7z"/>
	<path class="st306" d="M105.9,61.4c-0.3,0.2-0.7,0.4-0.7,0.3c-0.2-0.3-0.6-0.6-0.6-0.9c0-0.5,0.5-0.7,0.8-0.4
		C105.7,60.6,105.8,61,105.9,61.4z"/>
	<path class="st307" d="M105.9,67.3c0.3-0.3,0.5-0.6,0.8-0.8c0.3,0.5,0.6,1.1,0.9,1.6c-0.1,0.4-0.2,0.7-0.3,1.1
		c-0.2-0.1-0.4-0.3-0.6-0.4C106,68.5,105.5,68.1,105.9,67.3z"/>
	<path class="st308" d="M88.7,64.6c0-0.3,0.1-0.5,0.3-0.6c0.6,0.3,1.4,0.5,1.6,0.9c0.3,0.7-0.5,0.6-1,0.7c-0.3,0-0.6,0-0.8,0
		C88.8,65.3,88.7,64.9,88.7,64.6z"/>
	<path class="st309" d="M66.8,93.4c2.9,0.9,1.1,3.3,1.6,4.9l0,0c-0.9,1.2-1.4,2.8-3.1,3.2c-1.7,0-3.5,0.5-5.1-0.7
		c-1.9-2.5-3.4-5.1-1.9-8.5c0.8-1.8,2.2-2.7,4-2.9c2-0.2,3.2,1,3.6,3C65.5,93.3,65.6,93.8,66.8,93.4z"/>
	<path class="st310" d="M60.2,100.7c1.9,0,3.8,0,5.7,0c0.2,0.2,0.2,0.4,0.2,0.6s0,0.3-0.1,0.3c-0.4,0.6-1.3,0.2-1.8,0.7
		c-1.4-0.2-2.9,0.6-4.1-0.8C60.2,101.3,60.2,101,60.2,100.7z"/>
	<path class="st311" d="M66.8,93.4c-0.1,0.8-0.1,1.5-0.2,2.4c-1.7-0.8-2.6-1.9-2-3.7c0,0,0.9,0.2,1.4,0.3
		C66.2,92.7,66.5,93,66.8,93.4z"/>
	<path class="st312" d="M70,81.9c1.4,1.1,0.6,2.7,0.8,4.1c-0.1,0.9,0.1,1.9-0.8,2.5C70,86.3,70,84.1,70,81.9z"/>
	<path class="st313" d="M65.9,101.5c0-0.3,0-0.6,0-0.8c0.6-1.1,1.4-1.9,2.5-2.4c0,2.2,0,4.4,0,6.5c0.8,2.5,1.6,4.9,2.4,7.4
		c-0.7,1.9-1.9,2.8-4,1.8c0-1.1-0.1-2.3-0.1-3.4c-0.2-1-0.1-2.2-1.6-2.5c-0.3-0.5-0.6-1.1-0.8-1.6C63.3,104.3,66.8,103.6,65.9,101.5
		z"/>
	<path class="st314" d="M66.9,114c1.7,0.2,2.9-0.7,4-1.8c0.3,0.5,0.6,1.1,0.8,1.6c-0.1,3.3,0.7,6.7-0.4,10c-2.3,1-2.7,0.8-4.8-2.3
		c-0.1-0.4,0-0.9,0.2-1.2c-0.1-0.3-0.1-0.5,0.1-0.8c0.6-1.6,0.5-3.2,0.1-4.8C66.8,114.4,66.8,114.2,66.9,114z"/>
	<path class="st106" d="M65.9,101.5c2,2.5-1.7,3.1-1.6,4.9c-0.4-0.9-4.4-1.6-0.1-2.6c0.9-0.2,0.7-0.9,0.1-1.5
		C64.7,101.7,65.3,101.6,65.9,101.5z"/>
	<path class="st315" d="M62.7,121.1c1.2-2.1,1.5-4.4,1.7-6.8c0.2,0,0.5,0.1,0.7,0.2c0,1.9,0,3.8,0,5.7c-0.9,0.5-1.2,1.7-2.4,1.7
		C62.8,121.7,62.8,121.4,62.7,121.1z"/>
	<path class="st316" d="M65.1,108.1c3.3-1,2.3,0.9,1.6,2.5C66.2,109.7,65.7,108.9,65.1,108.1z"/>
	<path class="st317" d="M66.9,114.6c1,1.6,1.1,3.3-0.1,4.8C66.8,117.9,66.9,116.3,66.9,114.6z"/>
	<path class="st315" d="M66.7,120.2c0.1,0.1,0.2,0.3,0.1,0.4c0,0.8,0,1.5,0,2.3c-0.1,0.6-0.3,1.1-0.8,1.5c-1.3-1.2-0.8-2.7-0.7-4.2
		C65.7,120.2,66.2,120.2,66.7,120.2z"/>
	<path class="st318" d="M84.6,56.6c-1.6,0-3.2,0-4.7,0c1-1.3,3-0.1,4-1.4C85,55.1,84.6,55.9,84.6,56.6z"/>
	<path class="st319" d="M110.1,59.1c0.2,0,0.4,0,0.6,0l0.2-0.1c0.2,0.3,0.1,0.6-0.2,0.8l0.1,0.1C110.4,59.8,110,59.7,110.1,59.1z"/>
	<path class="st320" d="M110.8,59.8c0.1-0.3,0.1-0.5,0.2-0.8c0.2,0,0.5,0,0.7,0.1C111.4,59.3,111.1,59.6,110.8,59.8z"/>
	<path class="st321" d="M89.6,143c-0.6,0.1-1.1,0.2-1.7,0.4c-2.7,0.3-5.4,0.4-8,0c-0.5-0.1-1.1-0.2-1.6-0.3
		C82,141.9,85.8,142,89.6,143z"/>
	<path class="st322" d="M70.9,134c0.6,0.3,1.3,0.5,1.9,0.8c-0.1,0.6-0.7,0.6-1,0.9c-1.8-0.1-3.4-0.8-4.9-1.6
		c0.3-0.2,0.6-0.5,0.8-0.7C68.7,133.6,69.8,133.8,70.9,134z"/>
	<path class="st323" d="M71.7,135.7c0.3-0.3,0.7-0.6,1-0.9c1.5,0,2.8,0.7,3.9,1.8c-0.8,0-1.7,0.1-2.5,0.1
		C73.3,136.4,72.5,136,71.7,135.7z"/>
	<path class="st324" d="M91.9,143.1c0.6,0.2,1.2,0.5,1.8,0.7c-0.4,0.6-0.9,0.8-1.6,0.5c-0.2-0.1-0.4-0.1-0.6-0.2
		c-0.6-0.3-1.2-0.5-1.8-0.8C90.4,143.2,91.1,143.1,91.9,143.1z"/>
	<path class="st325" d="M65.9,124.4c0-0.6,0-1.1,0-1.7c1.8,0.5,3.3,1.1,3.2,3.4c0,0.3-0.1,0.6-0.1,0.8c-0.2,0.3-0.5,0.5-0.7,0.8
		h-0.1c-0.6-0.1-1.3,0.2-1.6-0.7C66.5,126.1,66.2,125.3,65.9,124.4z"/>
	<path class="st284" d="M72.9,131.7c-0.7,0.3-1.4,0.6-2.1,0.9c-1.1-0.4-1.8-1.2-1.5-2.5C70.7,130.4,72,130.6,72.9,131.7z"/>
	<path class="st326" d="M79.9,143.3c2.7,0,5.4,0,8,0C85.2,144.4,82.5,144.4,79.9,143.3z"/>
	<path class="st134" d="M92,144.3c0.5-0.2,1.1-0.3,1.6-0.5c0.6,0.2,1.2-0.6,1.7,0.2s-0.2,1.2-0.7,1.7c-0.1,0.2-0.2,0.5-0.3,0.7
		c-0.2,0.4-0.4,0.4-0.6,0C92.8,146.1,92.1,145.4,92,144.3z"/>
	<path class="st327" d="M93.8,146.5c0.2,0,0.4,0,0.6,0c0,1.4,0,2.8,0,4.1C93.2,149.3,93.8,147.8,93.8,146.5z"/>
	<path class="st328" d="M94.7,145.7c0.2-0.6,0.5-1.1,0.7-1.7c0.8-0.5,1.2-1.8,2.5-1.6c-0.8,1.7-1.6,3.4-2.4,5.1
		C95.2,146.9,94.9,146.3,94.7,145.7z"/>
	<path class="st329" d="M101.8,146.5c-0.5-0.3-0.9-0.6,0-0.8C101.9,146,101.8,146.2,101.8,146.5z"/>
	<path class="st330" d="M88.8,86.8c-0.3,0-0.5,0-0.8,0.1c-2-1.4,0.7-1.6,0.8-2.4C88.8,85.2,88.8,86,88.8,86.8z"/>
	<path class="st331" d="M80.6,90.3c-2.1,0.8-2.3-0.4-2.2-2c0,0,0.2-0.1,0.4,0c0.1,0,0.2,0.2,0.3,0.2C79.9,88.9,80.6,89.3,80.6,90.3z
		"/>
	<path class="st332" d="M80.6,90.3c-0.5-0.6-1.1-1.2-1.6-1.8c0.6-0.5,1.1-1.3,1.8-0.3C81.4,88.9,82,89.8,80.6,90.3z"/>
	<path class="st333" d="M70.8,124.5c-0.1-3.6-0.1-7.2,0.9-10.7c1.3,2.3,0.1,5.2,1.8,7.4c0.2,0.8,0.5,1.5,0.7,2.3
		c0.3,0.9-0.1,1.1-0.9,1c-2-1.3-1.5,1.4-2.5,1.6C70.4,125.5,70.3,125,70.8,124.5z"/>
	<path class="st334" d="M70.8,124.5c0,0.5,0,1-0.1,1.5c-0.5,0-1,0.1-1.6,0.1c-1.1-1.1-2.2-2.2-3.2-3.4c-0.1-0.8,0-1.6,0.8-2
		C67.9,122.2,69.1,123.6,70.8,124.5z"/>
	<path class="st335" d="M78.2,134c-1.9-0.6-4.4,0.4-5.4-2.3c2.5,0.3,5,0.7,7.5,1c0.3,0,0.5,0.2,0.5,0.5
		C80,133.5,78.9,133.2,78.2,134z"/>
	<path class="st336" d="M73.3,124.4c0.3-0.3,0.6-0.6,0.9-1c0.6,0.8,1.1,1.5,1.7,2.3c-0.2,0.6,0,1.7-1,1.3
		C73.8,126.6,73.3,125.6,73.3,124.4z"/>
	<path class="st337" d="M80.9,133.2c-0.2-0.2-0.3-0.3-0.5-0.5c2.1,0,4.2,0,6.3,0C84.8,133.6,82.8,133,80.9,133.2z"/>
	<path class="st338" d="M68.4,127.7c0.2-0.3,0.5-0.5,0.7-0.8C68.9,127.2,68.7,127.4,68.4,127.7z"/>
	<path class="st339" d="M70.2,105.6c0.9-0.4,1.2-3.4,3-0.8c-0.2,0.8-0.3,1.7-0.5,2.5c-0.1,1-0.3,2-0.5,3.6
		C70.6,109,70.3,107.3,70.2,105.6z"/>
	<path class="st340" d="M86.3,134.3c-2.2,1.1-4.3,1.1-6.5,0C82,134.3,84.2,134.3,86.3,134.3z"/>
	<path class="st341" d="M89.6,137.3c-4.4,0-8.8,1.1-13-0.7c3.8-1.6,7.7-0.1,11.5-0.6C88.5,136.5,89.8,135.9,89.6,137.3z"/>
	<path class="st342" d="M97.1,135.2c-1.4,0.8-2.8,1.2-4.4,1.3c-0.7-0.5-1.7,0.2-2.3-0.6c1.8-0.9,3.8-1.2,5.8-1.5
		C96.6,134.5,97.1,134.6,97.1,135.2z"/>
	<path class="st343" d="M90.4,135.8c0.8,0.2,1.7-0.1,2.4,0.6c-1.1,0-1.9,1.4-3.2,0.8c-0.5-0.4-1-0.8-1.5-1.3
		C88.8,135.9,89.6,135.9,90.4,135.8z"/>
	<path class="st344" d="M97.1,135.2c-0.3-0.3-0.6-0.6-1-0.9c0.9-0.8,1.9-1.1,3.1-0.8C99.3,135.1,98.1,135,97.1,135.2z"/>
	<path class="st345" d="M105.9,67.3c0.2,0.5,0.5,1,0.7,1.4c-3,1-3.9-0.1-3-3C104.4,66.2,105.2,66.8,105.9,67.3z"/>
</g>
</svg>
