<?xml version="1.0" encoding="utf-8"?>
<!-- Generator: Adobe Illustrator 19.0.0, SVG Export Plug-In . SVG Version: 6.00 Build 0)  -->
<svg version="1.1" id="Layer_1" xmlns="http://www.w3.org/2000/svg" xmlns:xlink="http://www.w3.org/1999/xlink" x="0px" y="0px"
	 viewBox="0 0 200 200" style="enable-background:new 0 0 200 200;" xml:space="preserve">
<style type="text/css">
	.st0{fill:#03050B;}
	.st1{fill:#03050A;}
	.st2{fill:#5D5D5D;}
	.st3{fill:#5F5F5F;}
	.st4{fill:#2D65E8;}
	.st5{fill:#0A0907;}
	.st6{fill:#050404;}
	.st7{fill:#101216;}
	.st8{fill:#161513;}
	.st9{fill:#111317;}
	.st10{fill:#12141A;}
	.st11{fill:#1E1D1B;}
	.st12{fill:#15171B;}
	.st13{fill:#0C0F15;}
	.st14{fill:#151920;}
	.st15{fill:#191D25;}
	.st16{fill:#1C1B19;}
	.st17{fill:#0A0A0A;}
	.st18{fill:#3B3B3B;}
	.st19{fill:#1E2128;}
	.st20{fill:#262420;}
	.st21{fill:#191D26;}
	.st22{fill:#282724;}
	.st23{fill:#2B211C;}
	.st24{fill:#1E1C18;}
	.st25{fill:#0B0C0E;}
	.st26{fill:#131414;}
	.st27{fill:#070A10;}
	.st28{fill:#0E1421;}
	.st29{fill:#141821;}
	.st30{fill:#161A24;}
	.st31{fill:#1B1D21;}
	.st32{fill:#0B0909;}
	.st33{fill:#030405;}
	.st34{fill:#03060C;}
	.st35{fill:#050505;}
	.st36{fill:#0C0A09;}
	.st37{fill:#030305;}
	.st38{fill:#060605;}
	.st39{fill:#040508;}
	.st40{fill:#090807;}
	.st41{fill:#060608;}
	.st42{fill:#271F1E;}
	.st43{fill:#05070B;}
	.st44{fill:#0B0A0B;}
	.st45{fill:#080A10;}
	.st46{fill:#060A13;}
	.st47{fill:#17140D;}
	.st48{fill:#070D1D;}
	.st49{fill:#0B0908;}
	.st50{fill:#030711;}
	.st51{fill:#090805;}
	.st52{fill:#06070A;}
	.st53{fill:#030506;}
	.st54{fill:#050B19;}
	.st55{fill:#070D1B;}
	.st56{fill:#0C0C0C;}
	.st57{fill:#19140B;}
	.st58{fill:#050C1C;}
	.st59{fill:#050913;}
	.st60{fill:#040914;}
	.st61{fill:#070D1C;}
	.st62{fill:#080E1A;}
	.st63{fill:#040912;}
	.st64{fill:#090D17;}
	.st65{fill:#EFD097;}
	.st66{fill:#C19F5E;}
	.st67{fill:#D2B262;}
	.st68{fill:#342A25;}
	.st69{fill:#271F1F;}
	.st70{fill:#0E0C09;}
	.st71{fill:#363636;}
	.st72{fill:#383838;}
	.st73{fill:#3F3F3F;}
	.st74{fill:#373737;}
	.st75{fill:#323232;}
	.st76{fill:#0E0C0C;}
	.st77{fill:#B78F66;}
	.st78{fill:#C49B6E;}
	.st79{fill:#221F1D;}
	.st80{fill:#FCDC9E;}
	.st81{fill:#120E12;}
	.st82{fill:#21181B;}
	.st83{fill:#08060E;}
	.st84{fill:#FCE3A0;}
	.st85{fill:#EDCE96;}
	.st86{fill:#211E1D;}
	.st87{fill:#80142F;}
	.st88{fill:#C7AD7F;}
	.st89{fill:#BE9C5F;}
	.st90{fill:#CEB171;}
	.st91{fill:#191417;}
	.st92{fill:#BF9F64;}
	.st93{fill:#7F6A43;}
	.st94{fill:#262115;}
	.st95{fill:#353535;}
	.st96{fill:#303030;}
	.st97{fill:#43372B;}
	.st98{fill:#11100E;}
	.st99{fill:#211A1C;}
	.st100{fill:#392D2A;}
	.st101{fill:#070605;}
	.st102{fill:#FCE1A1;}
	.st103{fill:#C09E5C;}
	.st104{fill:#42362B;}
	.st105{fill:#EDCF95;}
	.st106{fill:#3C312D;}
	.st107{fill:#816C45;}
	.st108{fill:#14110D;}
	.st109{fill:#2E2E2E;}
	.st110{fill:#080706;}
	.st111{fill:#B9995B;}
	.st112{fill:#C2A262;}
	.st113{fill:#311E20;}
	.st114{fill:#BD9F5D;}
	.st115{fill:#15101A;}
	.st116{fill:#020101;}
	.st117{fill:#2F2624;}
	.st118{fill:#E9CB92;}
	.st119{fill:#E4C084;}
	.st120{fill:#1B1913;}
	.st121{fill:#FEE79E;}
	.st122{fill:#FCE7A6;}
	.st123{fill:#1F1D19;}
	.st124{fill:#ECCD93;}
	.st125{fill:#090706;}
	.st126{fill:#302725;}
	.st127{fill:#BA9A5C;}
	.st128{fill:#7F1130;}
	.st129{fill:#15191C;}
	.st130{fill:#CDAA65;}
	.st131{fill:#453727;}
	.st132{fill:#BB9C5E;}
	.st133{fill:#BE9D5D;}
	.st134{fill:#281D21;}
	.st135{fill:#D1B072;}
	.st136{fill:#F1D199;}
	.st137{fill:#1C181A;}
	.st138{fill:#DEC283;}
	.st139{fill:#CCAD71;}
	.st140{fill:#BF9F65;}
	.st141{fill:#271F21;}
	.st142{fill:#342A27;}
	.st143{fill:#302523;}
	.st144{fill:#271A1D;}
	.st145{fill:#392424;}
	.st146{fill:#2A2221;}
	.st147{fill:#1E161B;}
	.st148{fill:#352C28;}
	.st149{fill:#292122;}
	.st150{fill:#3E352D;}
	.st151{fill:#28201D;}
	.st152{fill:#342524;}
	.st153{fill:#090016;}
	.st154{fill:#241D1B;}
	.st155{fill:#07050F;}
	.st156{fill:#FBDCA0;}
	.st157{fill:#2F1D1F;}
	.st158{fill:#3D312C;}
	.st159{fill:#FDE4A5;}
	.st160{fill:#F2CA8A;}
	.st161{fill:#392922;}
	.st162{fill:#F2D49C;}
	.st163{fill:#372824;}
	.st164{fill:#C1A561;}
	.st165{fill:#443A32;}
	.st166{fill:#FDE5A4;}
	.st167{fill:#111419;}
	.st168{fill:#1F1717;}
	.st169{fill:#151518;}
	.st170{fill:#B89A5F;}
	.st171{fill:#C99C70;}
	.st172{fill:#F1D59A;}
	.st173{fill:#F1D89F;}
	.st174{fill:#554B42;}
	.st175{fill:#FEDBA3;}
	.st176{fill:#B31F35;}
	.st177{fill:#E9D098;}
	.st178{fill:#251C1C;}
	.st179{fill:#0F1319;}
	.st180{fill:#403529;}
	.st181{fill:#181717;}
	.st182{fill:#332518;}
	.st183{fill:#3C2E2E;}
	.st184{fill:#0F0914;}
	.st185{fill:#281D1C;}
	.st186{fill:#EED096;}
	.st187{fill:#261D1E;}
	.st188{fill:#3A2F25;}
	.st189{fill:#DFC28A;}
	.st190{fill:#C09F61;}
	.st191{fill:#141015;}
	.st192{fill:#BA9B5C;}
	.st193{fill:#0F0D12;}
	.st194{fill:#161316;}
	.st195{fill:#342A26;}
	.st196{fill:#261B1C;}
	.st197{fill:#282024;}
	.st198{fill:#1F181F;}
	.st199{fill:#4C3E31;}
	.st200{fill:#EFD69D;}
	.st201{fill:#382E29;}
	.st202{fill:#BD9D54;}
	.st203{fill:#F0D399;}
	.st204{fill:#322827;}
	.st205{fill:#F7D89A;}
	.st206{fill:#8B795E;}
	.st207{fill:#05030D;}
	.st208{fill:#D8B97C;}
	.st209{fill:#130F10;}
	.st210{fill:#665742;}
	.st211{fill:#FAD99D;}
	.st212{fill:#FCDFA2;}
	.st213{fill:#0F0A13;}
	.st214{fill:#322824;}
	.st215{fill:#FBE1A2;}
	.st216{fill:#E2C58B;}
	.st217{fill:#372B24;}
	.st218{fill:#FDE3A3;}
	.st219{fill:#E7C98F;}
	.st220{fill:#FDDFA2;}
	.st221{fill:#EBCC94;}
	.st222{fill:#100B11;}
	.st223{fill:#201815;}
	.st224{fill:#E6BF7D;}
	.st225{fill:#05000B;}
	.st226{fill:#0F0C11;}
	.st227{fill:#0E0A11;}
	.st228{fill:#F8DC9F;}
	.st229{fill:#E3C387;}
	.st230{fill:#1D1717;}
	.st231{fill:#E1C286;}
	.st232{fill:#FBDE9F;}
	.st233{fill:#0D0811;}
	.st234{fill:#B11F35;}
	.st235{fill:#251E20;}
	.st236{fill:#CAA361;}
	.st237{fill:#EBCD95;}
	.st238{fill:#E2C68B;}
	.st239{fill:#211D1C;}
	.st240{fill:#080413;}
	.st241{fill:#302821;}
	.st242{fill:#2D1D1D;}
	.st243{fill:#322525;}
	.st244{fill:#403429;}
	.st245{fill:#EED39A;}
	.st246{fill:#07040E;}
	.st247{fill:#251D23;}
	.st248{fill:#8A1530;}
	.st249{fill:#473C30;}
	.st250{fill:#0C1210;}
	.st251{fill:#2A1B1D;}
	.st252{fill:#C9A663;}
	.st253{fill:#312422;}
	.st254{fill:#302220;}
	.st255{fill:#0E0B17;}
	.st256{fill:#E8B421;}
	.st257{fill:#D8A921;}
	.st258{fill:#3C2E20;}
	.st259{fill:#1C1620;}
	.st260{fill:#282220;}
	.st261{fill:#D6AB21;}
	.st262{fill:#78122B;}
	.st263{fill:#695542;}
	.st264{fill:#3E3328;}
	.st265{fill:#251F1F;}
	.st266{fill:#261C1D;}
	.st267{fill:#43372C;}
	.st268{fill:#EDCF96;}
	.st269{fill:#201A1E;}
	.st270{fill:#161218;}
	.st271{fill:#291F1E;}
	.st272{fill:#191416;}
	.st273{fill:#22191D;}
	.st274{fill:#3F3226;}
	.st275{fill:#312826;}
	.st276{fill:#251D21;}
	.st277{fill:#1F171C;}
	.st278{fill:#3D3123;}
	.st279{fill:#D1B987;}
	.st280{fill:#E9D398;}
	.st281{fill:#B51F36;}
	.st282{fill:#3A2D27;}
	.st283{fill:#A41C33;}
	.st284{fill:#FCEAA8;}
	.st285{fill:#010B0C;}
	.st286{fill:#C9B485;}
	.st287{fill:#281E20;}
	.st288{fill:#2A211F;}
	.st289{fill:#D7B372;}
	.st290{fill:#221A20;}
	.st291{fill:#161014;}
	.st292{fill:#F9DB9D;}
	.st293{fill:#110D13;}
	.st294{fill:#201818;}
	.st295{fill:#0B080F;}
	.st296{fill:#1F171B;}
	.st297{fill:#FCDEA0;}
	.st298{fill:#FBDBA0;}
	.st299{fill:#191218;}
	.st300{fill:#5C4E41;}
	.st301{fill:#261F1F;}
	.st302{fill:#0B0114;}
	.st303{fill:#261E1C;}
	.st304{fill:#261F1B;}
	.st305{fill:#1A120F;}
	.st306{fill:#22181B;}
	.st307{fill:#251E1E;}
	.st308{fill:#3F332B;}
	.st309{fill:#F4F1F1;}
	.st310{fill:#2D2521;}
	.st311{fill:#42362C;}
	.st312{fill:#ECCF96;}
	.st313{fill:#CEAF71;}
	.st314{fill:#3D3327;}
	.st315{fill:#FDE6A5;}
	.st316{fill:#292324;}
	.st317{fill:#E7D188;}
	.st318{fill:#6D583F;}
	.st319{fill:#BE2037;}
	.st320{fill:#251A1E;}
	.st321{fill:#0D0F12;}
	.st322{fill:#0E1317;}
	.st323{fill:#BFA062;}
	.st324{fill:#2F161E;}
	.st325{fill:#91764C;}
	.st326{fill:#291F22;}
	.st327{fill:#CFA31F;}
	.st328{fill:#1A1515;}
	.st329{fill:#1A1415;}
	.st330{fill:#DDDADA;}
	.st331{fill:#C3A362;}
	.st332{fill:#352C27;}
	.st333{fill:#2C2624;}
	.st334{fill:#DABB7C;}
	.st335{fill:#C7B483;}
	.st336{fill:#B9994D;}
	.st337{fill:#C2A25F;}
	.st338{fill:#E5CE95;}
	.st339{fill:#372E29;}
	.st340{fill:#382929;}
	.st341{fill:#0E1117;}
	.st342{fill:#231A1B;}
	.st343{fill:#D8D6D6;}
</style>
<g>
	<path class="st0" d="M5.4,89.7c0.1-3.6,0.6-7.1,1.8-10.4c1.4,0,1.4,1.1,1.7,2c-1,10.4-2,20.8-0.6,31.2c0.4,3.2,1.8,6.3,1.5,9.6
		c-0.3,0.9-0.4,2-1.7,2c-1.6-4.4-2.5-9-2.7-13.7c-0.7-1.3,0.3-2.9-0.7-4.2c0-4.1,0-8.2,0-12.2C5.7,92.7,4.7,91.1,5.4,89.7z"/>
	<path class="st1" d="M81.5,8.3c2.1-0.3,4.3-0.7,6.4-1c1.9-0.8,4,0.3,5.8-0.7c3.3,0,6.5,0,9.8,0c1.8,1.1,4-0.1,5.8,0.7
		c1.9,1.7,4.7-0.3,6.4,1.6c0.3,0.5,0.2,0.9-0.3,1.3c-1.3,0.7-2.6,0.4-4,0.2c-8.1-1.1-16.1-1.4-24.2-0.2c-1.8,0.3-3.7,0.7-5.6,0
		C81,9.7,81,9.1,81.5,8.3z"/>
	<path class="st2" d="M109.4,7.3c-2,0.2-4,0.5-5.8-0.7c1.9,0,3.8,0,5.7,0C109.2,6.9,109.2,7.1,109.4,7.3z"/>
	<path class="st2" d="M93.7,6.6c-1.8,1.2-3.8,0.9-5.8,0.7C88,7.1,88.1,6.9,88,6.6C89.9,6.6,91.8,6.6,93.7,6.6z"/>
	<path class="st3" d="M5.4,89.7c0.3,1.5,0.6,3-0.7,4.2c0-1.4,0-2.7,0-4.1C4.9,89.6,5.1,89.6,5.4,89.7z"/>
	<path class="st3" d="M4.7,106.2c1.3,1.2,0.9,2.7,0.7,4.2c0,0-0.4,0.1-0.4,0.1l-0.3-0.2C4.7,108.9,4.7,107.6,4.7,106.2z"/>
	<path class="st4" d="M81.5,9.8c11.4-2.1,22.9-1.9,34.3,0c2.9-0.9,5.5,1.2,8.4,1l0.3,0c1.9,1.1,4.1,1.5,6.2,2.3
		c1.1,0.3,2.1,0.8,3.1,1.2c1.3,0.8,2.8,0.9,4.1,1.8c3.8,2,7.7,3.8,11.2,6.3c1.2,0.8,2.6,1.4,3.7,2.4c1.2,0.8,2.6,1.4,3.3,2.7
		c1.8,1.5,3.7,2.7,5.4,4.3c2,2.1,4.6,3.5,5.9,6.3c1.5,1.5,3.2,2.9,4.2,4.8c1.7,0.9,2.2,2.8,3.4,4c0.5,0.5,0.7,1.2,1.2,1.8
		c1.8,2.2,2.6,5.2,4.4,7.4c0.7,1.1,1.2,2.2,1.8,3.3c0.4,0.8,0.7,1.7,1.2,2.5c1,1.7,0.9,3.8,2.1,5.4c1.8,4.6,3.3,9.3,4.1,14.1
		c2.8,12.2,2.8,24.5,0,36.7c-0.3,1.3-0.4,2.6-0.7,3.9c-0.8,3.6-2.2,7-3.4,10.5c-1.2,1.6-1,3.7-2.1,5.3c-0.7,1.3-1.2,2.7-2,3.9
		c-0.3,0.7-0.6,1.3-1,1.9c-1.8,2.2-2.5,5.1-4.4,7.4c-0.4,0.6-0.7,1.3-1.2,1.8c-1.2,1.5-2.1,3.3-3.6,4.6l0.1-0.1
		c-1.4,1.7-2.9,3.2-4.2,4.9c-1.6,2.2-2.7,4.9-5.6,5.8c-3.2,0.5-2.7-2-2.7-3.7c-0.2-7.3-2.1-14.2-4.3-21c-0.5-1.2-0.7-2.4-1.3-3.6
		c-1.3-3.3-2.1-6.8-3.7-10c-0.4-1.1-1.1-2.1-1.7-3.1c-1.2-4.3-1.9-8.7-3.2-13c-0.4-1.7-0.7-3.3-2.3-4.4c-0.9-1.9-3.1-2.7-3.7-4.8
		c-0.2-1.1-0.4-2.3-1-3.3c-0.9-2.2-2.3-4.3-3.1-6.6c-1-4.1,0.6-8.1,0.1-12.1c-0.2-7.3-2.8-13.8-6.2-20c-0.7-1.2-1.2-2.4-2.4-3.2
		c-3.3-4.1-3.2-5.5,0.6-7.8c1.7-0.6,3.4-1.4,4.3-3.1c2.1-2.7,5.7-4.5,4.8-8.8c0-4-2.6-5.3-5.9-6c-1.6-0.3-3.2-0.1-4.9-0.1
		c-8.4-0.4-16.4,1.8-24.6,3c-2.2,0.7-4.5,0.6-6.7,1.1c-2.5,0.2-4.6,1.3-6.3,3.1c-0.9,0.6-2,0.8-3,1.3c-1.8,0.9-3.2,2.1-4.2,3.9
		c-2.2,3.2-5.3,5.3-8.8,6.9c-2.3,0.8-3.5,3.1-5.7,4c-1.3,0.6-2.5,1.4-3.6,2.3c-1.2,0.9-2.7,1.1-4,1.6c-0.8,0.3-1.7,0.5-2.4,1.1
		c-1.8,2.5-3.3,5.3-5.5,7.6c-0.9,1-1.8,1.9-2.9,2.7c-2.4,1.3-3.3,3.7-4.4,5.9c-0.6,0.9-1.2,1.7-1.7,2.6c-0.3,0.6-0.6,1.2-1,1.8
		c-0.9,1.3-1.7,2.7-2.4,4c-1.2,1.6-2,3.4-3.1,5c-0.6,0.9-1.1,1.8-1.5,2.9c-0.4,3.4-2.1,6.7-0.2,10.1c0.8,1.7,2.4,2.6,3.9,3.6
		c2.3,2.4,5.3,3.3,8.3,4c2.4,0.4,4.2-0.4,5.5-2.4c0.9-1.3,1.9-2.3,3.6-1.8c1.2,0.5,2.2,1.1,3,2.2c0.5,0.9,0.6,2,0.5,3
		c-0.1,1.5-1,2.5-2,3.5c-1.3,1-2.4,2-3,3.6c-0.4,0.8-0.8,1.6-1.2,2.3c-0.6,0.9-1.2,1.8-1.5,2.8c-0.4,1.1-0.5,2.4-0.8,3.5
		c-0.8,6.8-1.4,13.6-3.3,20.3c-1.9,6.8-1,13.9-0.8,20.9c0,1.2,0.4,2.4-0.4,3.5c-1.7,1.3-2.7-0.3-4-1.1c-2.2-1-3.3-3.2-5.3-4.4
		c-2.4-1.4-4.5-3.1-5.7-5.8c-1.2-1.8-3.1-2.9-4.2-4.8c-1.1-1.6-2.2-3.2-3.4-4.7c-0.5-0.5-0.7-1.2-1.2-1.8c-1.8-2.3-3-5-4.7-7.4
		c-0.7-1.3-1.2-2.7-2-4c-1-2.1-1.8-4.3-2.8-6.3c-1.4-3.6-2.7-7.2-2.8-11.2c-2.7-11.8-3.1-23.7-1.7-35.8c0.2-1.8,1-3.6,0.9-5.5
		c0.7-1.2-0.3-2.4,0.2-3.6c1.1-3.6,1.9-7.4,3.4-10.9c0.6-1.6,1.6-3,2.1-4.7c0.6-1.3,1.2-2.6,1.9-4c0.4-0.6,0.6-1.3,1-1.9
		c1.9-2.2,2.6-5.2,4.6-7.3c0.5-0.7,0.8-1.6,1.3-2.3c1-1,1.4-2.5,2.6-3.4c2-2.6,4.4-4.9,6.8-7.1c1.2-2,3.1-3.1,4.7-4.7
		c1.4-2,3.9-2.8,5.4-4.6c1.5-1.2,3-2.2,4.6-3.3c6.1-4.4,12.8-7.7,19.9-10.1c2-0.7,4.1-1.4,6.1-2.1c1.1-0.5,2.4-0.2,3.5-0.9
		C77.9,10.1,79.6,8.9,81.5,9.8z"/>
	<path class="st5" d="M43.9,174.1c1.6-2.7-0.1-5.4-0.2-8.1c-0.1-8,0.5-15.8,2.8-23.5c1-3.4,0.9-7.1,1.3-10.7
		c0.2-1.3-0.4-2.7,0.8-3.8c0.3,0.2,0.6,0.5,0.8,0.9c0.1,0.4,0.2,0.8,0.3,1.1c0.1,1.1,0,2.3,0.2,3.4c0.1,0.8,0.4,1.5,0.7,2.2
		c0.6,2.3,1.8,4.4,1.5,6.8c-0.1,0.4-0.2,0.7-0.4,1.1c-1.7,1.8-2.1,4.2-2.9,6.5c-1.4,5.3-1.5,10.6-1.4,16c-0.2,5.9,2,10.7,6.5,14.5
		c-0.1,0.7-0.4,1.2-1.3,0.8c-3.7-1.1-6.3-4-9.6-5.9C42.8,174.7,43.3,174.4,43.9,174.1z"/>
	<path class="st6" d="M155,142.8c3.3,6.9,4.5,14.2,5,21.7c0.1,1.3-1.2,3.5,1.5,3.8c0.1,1.7-1.1,2.2-2.5,2.5c-1-3.2,0-6.4-0.5-9.1
		c-0.2,2.9,0.4,6.4-0.3,9.9c-0.2,0.9-0.7,1.5-1.6,1.7c-0.7-0.3-1.1-0.7-1.2-1.4c2.2-8.6-0.6-16.6-3.2-24.6
		c-2.1-6.2-5.4-11.9-6.2-18.4c0.1-0.4,0.2-0.8,0.5-1.2c0.8-0.9,1.5,0,2.2,0.2c1.2,0.5,0.8,1.7,1.2,2.5c1.3,3.5,2.2,7.2,4,10.6
		C154.7,141.3,154.1,142.5,155,142.8z"/>
	<path class="st7" d="M189.1,119c0.6-7.1,2-14.1,1.7-21.3c-0.2-5.5-1.6-10.9-1.7-16.4c-0.2-0.9-0.8-1.9,0.9-1.9
		c3.4,13.9,3.4,27.7,0,41.6C188.4,120.9,189,119.8,189.1,119z"/>
	<path class="st8" d="M117.7,191.3c-9.2,2.8-18.7,2.7-28.1,1.9c-4.7-0.4-9.6-0.3-13.8-2.9c0.1-0.1,0.3-0.3,0.4-0.4
		c1.5-0.7,3-0.5,4.5-0.3c0.4,0.1,0.7,0.2,1.1,0.3c1.2,0.4,2.3,0.5,3.5,0c0.3-0.1,0.7-0.3,1-0.4c0.7-0.2,1.4-0.4,2,0.1
		c0.2,0.9,0.7,1.5,1.8,1.1c7-0.1,14,0.7,21-0.6c1.5,0,3-0.2,4.6-0.2C116.5,190.1,117.3,190.4,117.7,191.3z"/>
	<path class="st9" d="M190,79.3c-0.7,0.5-0.8,1.2-0.9,1.9c-1.4-4.6-2.7-9.2-4.1-13.8c-0.3-0.5-0.2-1,0.2-1.4
		C188.1,70,189,74.7,190,79.3z"/>
	<path class="st10" d="M149,23.1c-3.8-2.2-7.7-4.3-11.5-6.5c0.4-0.5,0.9-0.6,1.5-0.3c4.4,0.7,7.5,3.7,11,5.9
		C150,22.9,149.9,23.4,149,23.1z"/>
	<path class="st9" d="M8.9,122.4c1.1,3.7,2.2,7.5,3.3,11.2c0.5,1-0.1,1.1-0.9,1.2c-1.4-3.4-2.8-6.9-3.3-10.6
		C8.8,123.8,8.8,123,8.9,122.4z"/>
	<path class="st11" d="M75.8,190.3c-3.8-0.2-7.4-1.1-10.6-3.4c-0.2-0.5-0.1-0.8,0.4-1.1c3.5-0.7,6.5,1.2,9.6,2.3
		C76.1,188.4,76.5,189.3,75.8,190.3L75.8,190.3z"/>
	<path class="st9" d="M185,132.8c1.1-3.5,2.2-7,3.3-10.5c0.8,0.4,0.3,1.4,0.9,1.8c-0.9,3.5-1.6,7.1-3.9,10
		C184.8,133.7,184.8,133.3,185,132.8z"/>
	<path class="st12" d="M17.1,143.7c1.6,2.5,3.1,4.9,4.7,7.4c-0.3,0.4-0.3,1-0.9,1.1c-2-2.3-3.7-4.7-4.8-7.6
		C15.9,143.7,16.3,143.5,17.1,143.7z"/>
	<path class="st12" d="M175.4,151.1c1.6-2.5,3.1-5.1,4.7-7.6c0.5,0.4,0.6,0.9,0.2,1.4c-1.2,2.5-1.9,5.3-4,7.3
		C175.7,152.1,175.7,151.5,175.4,151.1z"/>
	<path class="st13" d="M11.4,134.8c0.3-0.4,0.6-0.8,0.9-1.2c1.8,1.6,2.1,4,3,6.1c-0.3,0.5-0.1,1.3-0.7,1.7
		C12.9,139.5,12.5,136.9,11.4,134.8z"/>
	<path class="st12" d="M180.1,56.6c-1.6-2.5-3.1-5.1-4.7-7.6c0.3-0.4,0.3-1,0.9-1.1c1.8,2.2,2.9,4.8,4,7.3
		C180.7,55.8,180.6,56.2,180.1,56.6z"/>
	<path d="M124.2,10.8c-3,1.3-5.6-0.9-8.4-1c0-0.3,0-0.6,0-0.8C118.8,8.7,121.6,9.2,124.2,10.8z"/>
	<path class="st14" d="M130.5,13.8c-2.1-0.9-4.8-0.4-6-3c2.9-0.3,5.3,1,7.8,2.2C131.9,13.8,131,13.4,130.5,13.8z"/>
	<path class="st11" d="M132.3,187.1c-2.2,1.3-4.7,2.1-7.2,2.5c-0.5,0.2-1,0.2-1.1-0.4c-0.2-0.9,0.6-1.3,1.2-1.8
		c1.6-0.9,3.3-1.6,5.2-1.6C131.2,186,131.9,186.3,132.3,187.1z"/>
	<path d="M26.1,157.6c1.8,1.3,3.7,2.6,3.9,5.1c-2.7-0.6-4-2.7-5-4.9C25.3,157.3,25.6,157.3,26.1,157.6z"/>
	<path d="M35.6,168.4c2.7,0,3.7,2.2,5.1,3.8c0.3,0.4,0.3,0.7-0.1,1.1C38.2,172.4,36.4,171,35.6,168.4z"/>
	<path class="st15" d="M174.4,47.6c-1.1-1.4-2.1-2.8-3.2-4.2c-0.4-0.4-0.4-0.8,0.2-1.1c2.4,0.5,3,2.6,4,4.3
		C175.3,47.1,175,47.5,174.4,47.6z"/>
	<path class="st16" d="M146,180.4c-1.9,1.1-3.5,2.7-5.8,3.2c-0.6-0.2-1-0.5-1-1.2c1.5-1.8,3.3-3.2,5.9-3.2
		C145.7,179.4,146.1,179.7,146,180.4z"/>
	<path class="st15" d="M171.3,157.7c0.1-2.3,1.8-3.6,3.1-5.2c0.5,0.1,0.9,0.5,1,1C174.3,155.2,174,157.6,171.3,157.7z"/>
	<path class="st15" d="M26.1,157.6c-0.4,0-0.8,0.1-1.1,0.1c-1.4-1.1-2.4-2.5-3.1-4.1c0.1-0.6,0.4-0.9,1-1
		C24.2,154,25.7,155.5,26.1,157.6z"/>
	<path class="st17" d="M117.7,191.3c-0.8-0.1-1.6-0.3-2.1-1.1c0.1-0.1,0.2-0.2,0.4-0.3c0.4-0.2,0.9-0.4,1.4-0.5
		c1-0.2,1.8-0.9,2.7-1.2c0.5-0.1,1.1-0.1,1.6,0.1c0.7,0.5,1.8,0.7,1.5,2C121.4,190.8,119.6,191.5,117.7,191.3z"/>
	<path d="M65.2,186.2c-0.1,0.2-0.1,0.5,0,0.7c-2.1,0.7-3.5-0.5-4.9-1.7c0-0.8,0.5-1.1,1.1-1.3C63.1,183.9,64.8,183.8,65.2,186.2z"/>
	<path d="M161.5,32c-2.4-0.8-4.2-2.3-5.8-4.1c0.4-0.4,0.8-0.4,1.2-0.1C158.7,28.7,160.8,29.6,161.5,32z"/>
	<path class="st18" d="M158.3,171.6c0-3.3,0-6.6,0-10c0.3,0,0.5,0,0.8,0c0,3.1,0,6.1,0,9.2C158.8,171.1,158.5,171.4,158.3,171.6z"/>
	<path class="st19" d="M156.8,27.7c-0.4,0-0.8,0.1-1.2,0.1c-1.1-0.8-2.1-1.6-3.2-2.4c0.1-0.6,0.4-0.9,1-1.1
		C154.8,25.2,156.7,25.6,156.8,27.7z"/>
	<path class="st20" d="M153.4,175.8c-1,1-1.9,2-3.4,2.1c-0.6-0.2-1.1-0.5-1-1.3c0.7-1.7,2-2.5,3.8-2.3
		C153.4,174.7,153.8,175.1,153.4,175.8z"/>
	<path class="st16" d="M52.7,181.4c0.3-0.3,0.7-0.5,1-0.8c2.1-0.7,3.4,0.3,4.3,2c-0.1,0.7-0.5,1.1-1.1,1.2
		C55.2,183.7,54.1,182.3,52.7,181.4z"/>
	<path d="M137.8,184.8c-1.4,0.7-2.7,1.4-4.1,2.1c-0.5-0.5-0.6-1.1-0.4-1.8c1.1-1.6,2.6-2.2,4.5-1.5
		C138.1,184,138.1,184.4,137.8,184.8z"/>
	<path class="st13" d="M185,132.8c0.1,0.5,0.1,0.9,0.2,1.4c0.3,1.9-0.2,3.5-1.7,4.8c-0.5-0.1-0.6-0.5-0.8-0.9
		C183.4,136.2,183.8,134.3,185,132.8z"/>
	<path class="st21" d="M153.4,24.3c-0.3,0.4-0.6,0.7-1,1.1c-1.1-0.8-2.3-1.6-3.4-2.4c0.3-0.3,0.7-0.6,1-0.8
		C151.5,22.4,152.4,23.4,153.4,24.3z"/>
	<path d="M167.1,162.5c0.7-2.3,2.1-3.9,4.2-4.9C170.6,159.9,169.5,161.8,167.1,162.5z"/>
	<path class="st13" d="M185.2,66c-0.1,0.5-0.1,0.9-0.2,1.4c-1.2-1.6-1.7-3.5-2.2-5.3c0.2-0.3,0.3-0.8,0.8-0.9
		C185.1,62.5,185.5,64.1,185.2,66z"/>
	<path d="M14.5,141.4c0.2-0.6,0.5-1.1,0.7-1.7c0.6,1.3,1.3,2.7,1.9,4c-0.3,0.3-0.7,0.6-1,1C15.3,143.7,14.7,142.7,14.5,141.4z"/>
	<path class="st22" d="M153.4,175.8c-0.3-0.4-0.7-0.7-1-1.1c0.3-1.9,1.5-2.7,3.4-2.4c0.3,0.3,0.6,0.7,0.9,1
		C155.9,174.6,154.7,175.3,153.4,175.8z"/>
	<path class="st23" d="M123.1,190.2c-0.5-0.5-1-1-1.6-1.5c0.3-0.6,0.9-1,1.4-1.4c0.4-0.3,0.8-0.6,1.3-0.7c0.7,0,1.4,0.1,1.4,1.1
		c0.2,0.8-2,0.9-0.5,1.9C124.4,189.8,123.8,190,123.1,190.2z"/>
	<path class="st24" d="M149,177.1c0.3,0.3,0.7,0.6,1,0.8c-1.4,0.8-2.7,1.6-4.1,2.5c-0.3-0.3-0.7-0.6-1-0.8
		C145.6,177.6,146.8,176.6,149,177.1z"/>
	<path d="M171.4,42.3c-0.1,0.4-0.1,0.8-0.2,1.1c-1.3-1.7-3.1-3.1-4-5.2C169.6,38.6,170.7,40.3,171.4,42.3z"/>
	<path d="M56.9,183.9c0.4-0.4,0.7-0.7,1.1-1.1c1.7-0.6,2.8,0,3.3,1.6c-0.4,0.3-0.7,0.5-1.1,0.8C59.2,184.7,57.8,184.9,56.9,183.9z"
		/>
	<path d="M182.8,138.1c0.3,0.3,0.5,0.6,0.8,0.9c-0.1,1.3-0.6,2.4-1.6,3.2c-0.4,0.3-0.7,0.3-1-0.1
		C181.5,140.7,182.2,139.4,182.8,138.1z"/>
	<path d="M40.6,173.3c0-0.4,0.1-0.7,0.1-1.1c1.4,0,2.2,1.1,3.2,1.9c-0.3,0.5-0.5,0.9-0.8,1.4C41.8,175.3,41.3,174.2,40.6,173.3z"/>
	<path class="st25" d="M139,16.3c-0.5,0.1-1,0.2-1.5,0.3c-1.4-0.4-2.8-0.7-3.9-1.7c0.1-0.5,0.6-0.6,0.9-0.8
		C136.1,14.6,138,14.6,139,16.3z"/>
	<path class="st9" d="M189.2,124.2c-0.7-0.4-0.8-1.1-0.9-1.8c0-1.2,0.1-2.4,0.8-3.4c0.1,0.7,0.1,1.5,0.9,1.9
		C189.7,122,189.5,123.1,189.2,124.2z"/>
	<path d="M180.1,56.6c0.1-0.5,0.2-0.9,0.2-1.4c1.2,0.9,1.8,2.3,2.2,3.7c-0.2,0.4-0.2,0.9-0.7,1C180.9,59,180.4,57.8,180.1,56.6z"/>
	<path d="M134.5,14.1c-0.3,0.3-0.6,0.5-0.9,0.8c-1-0.3-2.1-0.7-3.1-1c0.6-0.3,1.2-0.5,1.8-0.8C133,13.4,133.8,13.7,134.5,14.1z"/>
	<path d="M133.7,185.3c0,0.5,0,1,0,1.5c-0.5,0.1-1,0.2-1.4,0.3c-0.6-0.3-1.2-0.5-1.8-0.8C131.3,185.1,132.2,184.5,133.7,185.3z"/>
	<path d="M137.8,184.8c0-0.4,0-0.8-0.1-1.2c0.1-0.9,0.7-1.1,1.5-0.7c0.3,0.3,0.7,0.5,1,0.8C139.3,183.9,138.9,184.9,137.8,184.8z"/>
	<path d="M181.8,59.8c0.2-0.3,0.5-0.6,0.7-1c0.4,0.7,1.2,1.3,1,2.3c-0.3,0.3-0.5,0.6-0.8,0.9C182.5,61.4,182.1,60.6,181.8,59.8z"/>
	<path class="st26" d="M22.8,152.6c-0.3,0.3-0.7,0.7-1,1c-0.3-0.4-0.6-0.9-0.9-1.3c0.3-0.4,0.6-0.8,0.9-1.1
		C22.2,151.6,22.5,152.1,22.8,152.6z"/>
	<path class="st26" d="M175.4,153.6c-0.3-0.3-0.7-0.7-1-1c0.3-0.5,0.7-1,1-1.4c0.3,0.4,0.6,0.8,0.9,1.1
		C176,152.7,175.7,153.1,175.4,153.6z"/>
	<path d="M180.9,142.1c0.3,0,0.7,0.1,1,0.1c0,1.2-0.7,2.1-1.6,2.8c-0.1-0.5-0.2-0.9-0.2-1.4C180.4,143.1,180.7,142.6,180.9,142.1z"
		/>
	<path class="st26" d="M174.4,47.6c0.3-0.3,0.7-0.7,1-1c0.3,0.4,0.6,0.9,0.9,1.3c-0.3,0.4-0.6,0.8-0.9,1.1
		C175.1,48.6,174.8,48.1,174.4,47.6z"/>
	<path class="st27" d="M66.7,13.8C59.6,16.4,53,19.8,46.7,24c-0.9,0.4-1.1-0.2-1.1-0.9c5.8-4.6,12.2-8,19.3-10
		C65.7,12.9,66.7,12.3,66.7,13.8z"/>
	<path class="st9" d="M12.2,66.6c-1.1,3.8-2.2,7.5-3.3,11.3c-0.8-0.4-0.5-1.3-0.9-1.8c0.5-3.7,1.8-7.2,3.3-10.6
		C12.1,65.4,12.7,65.6,12.2,66.6z"/>
	<path class="st28" d="M31.9,35.9c-1.5,3.2-4,5.5-6.7,7.7c-0.5-0.4-0.5-0.9-0.2-1.4C26.8,39.6,28.2,36.5,31.9,35.9z"/>
	<path class="st12" d="M21.8,49.1c-1.6,2.5-3.1,5.1-4.7,7.6c-0.7-0.7-0.6-1.4-0.2-2.2c0.6-2.6,2.3-4.6,4-6.5
		C21.5,48,21.6,48.6,21.8,49.1z"/>
	<path class="st29" d="M42.3,27.1c-1.6,1.8-3.2,3.6-5.8,4.1c0.3-2.9,2.9-3.6,4.8-5.1C42.2,25.9,42.5,26.3,42.3,27.1z"/>
	<path class="st10" d="M66.7,13.8c-0.6-0.3-1.2-0.5-1.8-0.8c2.1-1.2,4.3-2.1,6.8-2.2c0.4,0.2,0.9,0.3,1,0.9
		C70.7,12.4,68.7,13.1,66.7,13.8z"/>
	<path d="M81.5,9.8c-1.9,0.3-3.8,0.7-5.7,1c-0.2-0.2-0.3-0.4-0.3-0.7c0.1-0.2,0.1-0.3,0.2-0.3c1.7-1.3,3.9-0.7,5.7-1.5
		C81.5,8.8,81.5,9.3,81.5,9.8z"/>
	<path class="st30" d="M42.3,27.1c-0.3-0.3-0.7-0.6-1-1c1.3-1.2,2.5-2.5,4.2-3.1c0.4,0.3,0.7,0.6,1.1,0.9
		C45.3,25.1,44.1,26.5,42.3,27.1z"/>
	<path class="st13" d="M12.2,66.6c-0.3-0.4-0.6-0.8-0.9-1.2c0.8-1.6,1.6-3.3,2.4-4.9c0.7,0.4,0.4,1.1,0.7,1.6
		C14,63.7,13.7,65.4,12.2,66.6z"/>
	<path d="M14.5,62.1c-0.2-0.5-0.5-1.1-0.7-1.6c0.2-1.3,0.6-2.4,1.6-3.3c0.5,0.1,0.8,0.4,1,0.9C15.7,59.4,15.1,60.8,14.5,62.1z"/>
	<path d="M75.7,9.8c0,0.3,0,0.7,0.1,1c-0.9,0.8-2,0.8-3.1,0.9c-0.3-0.3-0.7-0.6-1-0.9C72.9,9.8,74.3,9.8,75.7,9.8z"/>
	<path class="st31" d="M25,42.2c0.1,0.5,0.1,0.9,0.2,1.4c-0.6,1.2-1,2.5-2.3,3.1c-0.4,0.3-0.8,0.3-1.1-0.1
		C22.5,44.9,23.7,43.5,25,42.2z"/>
	<path class="st9" d="M8.1,76c0.7,0.4,0.8,1.1,0.9,1.8c0,1.2-0.1,2.3-0.8,3.3C8,80.5,8,79.7,7.3,79.3C7.2,78.1,7.3,77,8.1,76z"/>
	<path d="M16.3,58.1c-0.3-0.3-0.6-0.6-1-0.9c0-1.2,0.6-2.1,1.5-2.8c0.1,0.7,0.2,1.5,0.2,2.2C16.9,57.1,16.6,57.6,16.3,58.1z"/>
	<path class="st26" d="M21.8,46.6c0.4,0,0.7,0.1,1.1,0.1c-0.1,0.9-0.4,1.7-1.1,2.4c-0.3-0.4-0.6-0.8-0.9-1.1
		C21.2,47.5,21.5,47,21.8,46.6z"/>
	<path class="st32" d="M148.4,128.3c-0.5-0.3-1.1-0.5-1.6-0.8c-3.2-1-2.2-4.1-3.1-6.3c-0.5-2.3-1.1-4.6-1.9-6.8
		c-0.8-3.2-3.7-5-5.1-7.7c-0.4-0.6-0.7-1.3-1-1.9c-0.5-1.2-1.1-2.3-1.9-3.3c-0.8-1.3-1-2.8-1.5-4.2c-0.4-1.5-0.4-3-1-4.4
		c-0.3-1.1-1-2-1.4-3.1c-0.3-0.9-0.3-1.9,0.1-2.8c2.4-0.4,2.9-1.9,2.1-4c-0.2-1.7-0.6-3.4-0.4-5.2c0.7-0.9,1.4-1.5,2.3-0.4
		c0.6,1.2,0.2,2.6,0.5,3.9c0.2,0.5,0.3,1,0.9,1.3c2.1,2.6-0.7,5.2-0.1,7.9c0.4,1.6,0.1,3.4,0.1,5.1c-0.1,2.4,1.7,4.1,2.4,6.2
		c0.6,0.9,0.8,2,1.4,2.8c0.4,2.1,3.9,2.1,3.4,4.9c1.7,0.8,1.5,2.9,2.7,4.1c1.8,4.4,2.7,9,3.1,13.7
		C148.9,127.6,148.9,127.9,148.4,128.3z"/>
	<path class="st33" d="M99.4,36.7c0.3-0.4,0.5-1.3,0.8-1.3c8.5-0.4,16.7-4,25.5-2.4c0.8,0.2,1.5,0.3,2.3,0.5
		c0.7,0.2,1.7-0.4,1.9,0.7c0.2,1.4-0.9,1.7-1.9,2c-6.9,0.2-13.7,1.1-20.4,2.4c-2.6,0.5-5.4,0.8-7.9-0.6
		C99.2,37.6,99.1,37.2,99.4,36.7z"/>
	<path class="st34" d="M135.5,82.5c-0.4-0.3-0.7-0.6-1.1-0.9c-0.8-1.2,0.2-2.6-0.7-3.8c-0.4-1-0.9-0.4-1.4-0.1c-2-2.5-2.8-5.6-4-8.4
		c0.1-1.7,0-3.3-1.2-4.7c-0.8-1.8-2.2-3.5-0.7-5.6c4,3.3,5.2,8.2,7.2,12.6C135.1,74.8,136,78.6,135.5,82.5z"/>
	<path class="st35" d="M126.4,58.9c0,2,0.9,3.8,1.6,5.7c0.3,1-0.2,1.5-1,1.8c-3.6-3.3-5.3-7.7-6.7-12.2c0.3-1.2,1-2.2,1.8-3.1
		c2.1-1.5,4.1-3.1,6.8-3.5c0.8,0,1.6,0.3,1.8,1.2c-0.4,1.3-1.4,2.1-2.6,2.1c-1.5,0-0.2,1.2-0.8,1.5C122.7,54,124.5,56.5,126.4,58.9z
		"/>
	<path class="st36" d="M70.9,52.4c3.4-1.7,6.4-3.9,8.9-6.6c0.7-0.6,1.4-0.7,2.3-0.4c0.3,0.2,0.6,0.6,0.7,1c0.1,1.3-0.7,2.2-1.6,3
		c-1,0.6-1.4,1.5-1.7,2.6c-0.5,0.9-1.3,1.4-2.1,1.8c-2.8,0.4-4.8,3.4-8,2.8C68.3,54.6,70.1,53.7,70.9,52.4z"/>
	<path class="st37" d="M54.5,108.7c-1.4-0.4-1.9,0.2-2.6,1.5c-1.5,2.7-3.8,4.3-7.1,3.2c-0.6-1.4-0.4-2.5,1.1-3.1
		c2.6-0.7,2.7-3,3.1-5.1c0.5-1.5,0.2-3.1,1-4.5c1-0.9,1.8-0.3,2.7,0.2c0.3,0.3,0.5,0.6,0.6,1c0,0.4,0,0.8-0.1,1.1
		c-0.4,0.7-1,1.5,0.1,2.2c0.7,0.6,1.4,1.1,1.7,2C55.1,107.8,55,108.3,54.5,108.7z"/>
	<path class="st38" d="M32.5,105.5c-3.2-3.9-0.7-7.6,0.2-11.4c1.4-0.2,1.8-1.4,2.5-2.3c0.7-0.7,1.3-1.5,2.4-1
		c0.2,0.3,0.4,0.7,0.5,1.1c-0.9,3.6-3.3,6.6-3.5,10.4c-0.2,0.8-0.3,1.5-0.7,2.2C33.5,105,33.1,105.3,32.5,105.5z"/>
	<path class="st39" d="M128.8,35.2c0.5-0.4,1.3-1.1,0-1.1c-1.3,0-2.2-0.5-3.1-1.1c6-0.8,9.4,0.7,11,4.7c0.4,1,0.7,1.7-0.4,2.4
		c-0.5,0.5-1.1,0.5-1.7,0.3C133.3,37.9,129.8,37.9,128.8,35.2z"/>
	<path class="st40" d="M45.6,111.1c-0.3,0.8-0.5,1.5-0.8,2.3c-3-1.2-6.8-0.9-8.2-4.7c-0.2-0.3-0.3-0.7,0-1c0.6-0.6,1.3-0.9,2.1-0.9
		C41,108.2,44.4,107.8,45.6,111.1z"/>
	<path class="st41" d="M134.7,40.1c0.5,0,1,0,1.6,0c1.9,4.9-2.4,6.5-4.9,9c-0.3,0.3-0.6,0.3-0.9,0c-0.4-0.6-1-0.8-1.6-0.8
		c-0.4-1.1,0.2-1.9,1-2.4C132,44.4,133.2,42.1,134.7,40.1z"/>
	<path class="st42" d="M57.1,113.6c-0.1-1.1-0.2-2.1-0.4-3.2c0.2-0.3,0.6-0.5,1-0.6c2.4,0.6,4.4,1.6,5.2,4.1
		c-0.2,0.9-0.9,1.6-1.3,2.4c-0.7,1-1.3,2.1-2.1,3c-0.3,0.2-0.7,0.2-1.1,0.1c-0.6-0.5-1-1.1-1.2-1.8
		C56.6,116.3,58.3,114.9,57.1,113.6z"/>
	<path class="st38" d="M37.4,91.6c0-0.3,0-0.6,0-0.9c-1-1.1-0.7-2.2,0.1-3.3c1.3-1.4,1.9-3.2,2.3-5c0-0.6,0-1.3,0.8-1.6
		c0.9-0.2,1.4-1.8,2.7-1c0.5,0.3,0.8,0.8,1,1.4C42.9,85.3,41.5,89.3,37.4,91.6z"/>
	<path class="st43" d="M57.7,60.4c1.1-1.3,3-0.6,4.2-1.5c0.9-0.5,1.7-0.1,2.4,0.4c0.4,0.4,0.5,0.9,0.5,1.4c-0.1,0.3-0.2,0.6-0.4,0.9
		c-0.3,0.4-0.6,0.7-0.9,1.2c-0.1,0.3-0.3,0.6-0.5,0.9c-0.2,0.3-0.5,0.5-0.8,0.6c-0.5,0.1-1,0.1-1.6,0c-1.2-0.3-2.5-0.3-3.6-0.9
		c-0.3-0.3-0.4-0.6-0.4-1C56.9,61.6,57.6,61.2,57.7,60.4z"/>
	<path class="st44" d="M57,62.2c0,0.3,0.1,0.7,0.1,1c0,0.9-0.8,1.3-1.3,1.9c-0.6,0.7-1,1.7-1.5,2.5c-0.8,1.2-1.6,2.3-3,2.8
		c-0.8,0.1-1.4-0.2-1.7-1c1.9-2.7,3.4-5.8,5.8-8.2C56,61.3,56.6,61.5,57,62.2z"/>
	<path class="st45" d="M153.4,141.3c-2.3-3.2-3-7-4.1-10.7c0.3-0.3,0.4-0.8,0.9-0.9c2,3,2.6,6.6,3.8,10
		C153.7,140.2,154,140.9,153.4,141.3z"/>
	<path class="st46" d="M87,40.8c1.2-3.2,4.1-3.1,6.7-3.8c0.8,1,0.2,1.8-0.5,2.6c-1.6,1-3.2,2.2-5.3,1.9C87.5,41.3,87.2,41.1,87,40.8
		z"/>
	<path class="st47" d="M58.1,110.2c-0.4,0.1-0.9,0.1-1.3,0.2c-1.2,0-1.9-0.7-2.2-1.7c0-0.6,0-1.2,0-1.7c-0.5-0.4-0.5-0.9-0.3-1.5
		c0.3-0.3,0.6-0.4,1-0.5c2.1-0.1,3,1.3,3.3,3.1C58.6,108.8,58.6,109.6,58.1,110.2z"/>
	<path class="st48" d="M42.2,78.4c1-2.7,1.6-5.6,4.9-6.6c0.5,0.4,0.6,1,0.5,1.5c-0.7,1.5-1.6,2.9-2.5,4.4c-0.5,0.6-1.1,1.1-1.9,1.1
		C42.9,78.9,42.5,78.7,42.2,78.4z"/>
	<path class="st49" d="M47.2,73.5c0-0.6,0-1.1,0-1.7c0.5-1.1,1.4-1.9,2.4-2.4c0.6,0.3,1.1,0.6,1.7,0.8c0.1,0.2,0.2,0.3,0.2,0.5
		c0,1.7-0.6,3-2.2,3.8c-0.4,0.1-0.7,0.2-1.1,0.2C47.7,74.5,47.3,74.1,47.2,73.5z"/>
	<path class="st50" d="M70.9,52.4c-0.5,1.4-1.1,2.7-1.6,4.1c0.1,1.1-0.8,1.3-1.6,1.5c-0.8,0.1-1.6,0-2.4-0.4
		C65.1,57.4,65,57.2,65,57c0-0.3,0.1-0.4,0.1-0.4C67.4,55.6,68.4,53.1,70.9,52.4z"/>
	<path class="st51" d="M48.8,129.1c0-0.3-0.1-0.7-0.1-1c0.1-1.1-0.4-2.4,0.8-3.2c1-0.3,1.1-1.8,2.4-1.7c0.3,0.2,0.6,0.5,0.8,0.8
		c0.5,1.8,0.2,3.4-0.8,4.9C50.9,129.6,49.9,129.5,48.8,129.1z"/>
	<path class="st52" d="M92.9,39.3c0.3-0.8,0.6-1.5,0.8-2.3c1.9-0.3,3.7-1.2,5.7-0.3c0,0.3,0,0.6,0.1,0.9c-1.7,2-4.1,2.3-6.4,2.7
		c-0.2-0.2-0.3-0.4-0.3-0.6C92.8,39.4,92.8,39.3,92.9,39.3z"/>
	<path class="st53" d="M57.1,113.6c3.2,0.8-0.1,2.8,0.7,4c0,0.5-0.1,1-0.4,1.5c-0.2,0.3-0.5,0.5-0.8,0.6c-0.4,0.1-0.7,0-1.1-0.1
		c-0.3-0.2-0.6-0.5-0.7-0.8c-0.2-0.8-0.1-1.5,0.5-2C55,115.2,57.2,115.1,57.1,113.6z"/>
	<path class="st54" d="M38.2,87.4c-0.5,1-0.9,2.1-0.8,3.3c-0.6,0.5-1.1,1.1-1.7,1.6c-0.9,0.4-1.3-0.1-1.6-0.8c1-1.7,1.5-3.7,3.2-5
		C37.9,86.6,37.9,87.1,38.2,87.4z"/>
	<path class="st55" d="M82.3,45.8c-0.8,0-1.6,0-2.5,0c0.3-2.4,2.4-3.1,4.1-4.1c0.8,0.3,1.1,0.8,1.1,1.7
		C84.5,44.6,83.7,45.5,82.3,45.8z"/>
	<path class="st56" d="M137.8,102.1c-1.1-2.1-3.8-3.6-2.3-6.6c1.4,1.7,2.1,3.8,2.9,5.8C138.4,101.7,138.2,102,137.8,102.1z"/>
	<path class="st57" d="M51.2,122.5c0.3-0.8,0.7-1.6,1-2.4c0.9-0.6,1.7-1.9,3.1-0.9l0,0c0.3,0.2,0.4,0.5,0.5,0.9c0,0.3,0,0.7-0.2,1
		c-0.3,0.6-0.6,1.3-1.1,1.7c-0.7,0.5-1.5,0.9-2.4,0.5l-0.3-0.1C51.6,123.1,51.4,122.9,51.2,122.5z"/>
	<path class="st58" d="M130.5,49c0.3,0,0.6,0,0.9,0c-0.4,2.3-2.3,2.8-4.1,3.4C126.2,49.3,129.6,50.3,130.5,49z"/>
	<path class="st59" d="M38.2,87.4c-0.3-0.3-0.6-0.6-0.8-0.9c0.5-1.6,1-3.1,2.4-4.1C40.7,84.5,40,86.1,38.2,87.4z"/>
	<path class="st60" d="M36.6,107.8c0,0.3,0,0.5,0,0.8c-2.2,0-3.2-1.5-4.1-3.2c0.3-0.3,0.6-0.6,0.8-0.9
		C34.9,105.2,36.6,105.7,36.6,107.8z"/>
	<path class="st61" d="M55.4,119.2c-1,0.3-2.1,0.6-3.1,0.9c0.5-1.6,1-3.2,3.1-3.3C55.4,117.6,55.4,118.4,55.4,119.2z"/>
	<path class="st62" d="M65.2,56.6c0,0.2,0,0.4,0,0.7c0.8,1.2,0.3,1.9-0.8,2.4c-0.8-0.3-1.6-0.5-2.4-0.8
		C62.5,57.5,63.9,57.1,65.2,56.6z"/>
	<path class="st63" d="M34.1,91.5c0.5,0.3,1.1,0.5,1.6,0.8c-1.2,0.3-0.4,4-3.1,1.7C33.2,93.2,33.7,92.4,34.1,91.5z"/>
	<path d="M42.2,78.4c0.3,0,0.6,0.1,0.9,0.1c0.5,0.5,0.4,1,0,1.5c-1.2-1.2-1,3-2.5,0.7C40.8,79.8,41.1,78.8,42.2,78.4z"/>
	<path d="M145.4,113.5c-1.7-0.8-1.8-2.7-2.7-4.1C145.4,109.6,145.2,111.7,145.4,113.5z"/>
	<path d="M57,62.2c-0.7,0-1.3-0.2-1.6-0.9c0.6-0.9,1.5-0.9,2.3-0.9C59.1,61.7,58.1,61.9,57,62.2z"/>
	<path class="st64" d="M84.7,43.3c-0.3-0.5-0.5-1.1-0.8-1.6c0.8-1.2,2.1-0.7,3.1-0.9c0,0,0.2,0.2,0.2,0.2
		C87.2,42.5,86.4,43.4,84.7,43.3z"/>
	<path d="M137.8,102.1c0.2-0.3,0.4-0.5,0.6-0.8c0.7,1,1.3,1.9,0.9,3.2C138.3,104.1,137.8,103.3,137.8,102.1z"/>
	<path d="M51.2,122.5c0.2,0.3,0.5,0.5,0.7,0.8c-1.1,0-0.8,2.3-2.4,1.5C49.7,123.8,50.1,122.9,51.2,122.5z"/>
	<path d="M153.4,141.3c0.2-0.5,0.4-1.1,0.6-1.6c0.6,1,1.2,1.9,1,3.1C153.4,143.5,154.4,141.3,153.4,141.3z"/>
	<path d="M150.1,129.7c-0.3,0.3-0.6,0.6-0.9,0.9c0-0.9,0.1-1.8-0.8-2.4c0-0.3,0-0.7,0.1-1C149.9,127.5,150.2,128.5,150.1,129.7z"/>
	<path class="st65" d="M139.2,182.8c-0.5,0.2-1,0.5-1.5,0.7c-1.3,0.6-2.7,1.2-4,1.8c-1.1,0.4-2.1,0.7-3.2,1.1
		c-1.6,0.4-3.2,0.9-4.9,1.3c-0.3-0.8-1-0.7-1.6-0.6c-1.2-0.1-2.3,0.1-3.2,1c-0.7,0.2-1.3,0.4-2.1,0.4c-0.4,0-0.7-0.1-1.1-0.2
		c-1.6-0.4-3.1-0.5-4.6,0.2c-0.5,0.3-1,0.5-1.5,0.7c-0.5,0.1-1.1,0.1-1.6-0.2c-1.3-1-2.7-1.6-4.3-1.7c-0.7-0.1-1.4-0.2-2-0.6
		c-0.9-0.6-1.7-1.2-2.6-1.7c-1-0.7-1.9-1.4-3-0.1c-0.3,0.2-0.5,0.5-0.8,0.6c-1.6,0.8-3.1,1.9-4.6,2.9c-0.6,0.4-1.2,0.8-1.9,1.2
		c-0.9,0.4-1.8,0.7-2.7,0.1c-0.6,0.2-1.1,0.3-1.7,0.5c-1.6-0.1-3.2,0.5-4.8,0.1c-1.9,0.1-3.9,0.1-5.8,0.2c-0.1-2.7-2.6-1.8-4-2.4
		c-2.1-0.8-4.2-2-6.6-1.8c-1-1.3-2.3-1.6-3.8-1.7c-0.9-0.9-2.1-1.3-3.3-1.6c-1.3-1.1-2.7-1.9-4.3-2.2c-6.7-2.5-6.6-8.4-7.2-14
		c0.6-2.6,0.1-5.2,0.3-7.8c0.2-0.4,0.4-0.6,0.9-0.6c0.8,0.5,0.9,1.2,0.6,1.9c0.6-0.8-0.3-1.9,0.2-2.9c0.1-1.5,2.9,1.3,2.2-1.4
		c0-1.9-0.6-3.8,0.1-5.7c0.5-1,1.4-1.3,2.4-1.4c0.6,0,1.1,0,1.7,0c0.4-0.1,1-0.4,0.8-0.7c-2.4-4.5-1.8-9.5-2.5-14.2
		c1-4.1,2.3-4.4,6.4-1.8c0.3,0.2,0.6,0.4,1,0.6c0.9,0.7,1.7,1.3,2.6,2.1c1,1.3,2.4,2.1,3.6,3.2c0.3,0.3,0.5,0.6,0.7,0.9
		c4.3,3,9.2,4.2,14.2,5.5c1.3,0.3,2.7,0,3.5,1.5c0,0.1,0,0.3,0,0.4c-0.1,0.3-0.1,0.5,0,0.5c4.2,0,8.7-1.6,12.4,1.7
		c0.4,0.6,0.5,1.2,0.6,1.9c0.9,4.5,2.2,5.3,6.7,3.8c1.1-0.5,2.2-0.9,3.2-1.7c0.9-0.8,1.2-1.9,1.9-2.9c0.2-0.3,0.4-0.5,0.6-0.8
		c0.6-1.1,0.6-2.2-0.2-3.3c-0.2-0.3-0.4-0.6-0.6-0.9c-0.8-1.4-1.1-2.8,0.3-4.1c1.8-1.3,3.9-2,5.6-3.4c0.6-0.4,1.2-0.7,1.8-1.1
		c1.5-0.9,2.9-1.9,4.1-3.3c2.4-2.3,4.7-4.7,7-7c1-1,1.7-2.2,2.5-3.3c0.6-0.8,1.1-1.7,1.6-2.6c0.7-1.3,1.1-2.6,1.7-3.9
		c0.7-1.6,1.2-3.4,3.2-3.9c1.6,0,2.7,0.8,3.6,2.1c0.5,1.9-0.4,3.7,0,5.6c0-1.1-0.1-2.1,0.1-3.2c1.6-0.7,1.7,0.6,1.9,1.5
		c0.4,1.5,0.8,3,1.6,4.3c0.2,0.3,0.3,0.7,0.3,1.1c-0.7,4.6-0.7,4.6,0.1,6.7c0.7-0.4,0.6-2,2-1.3c1.3,6.4,4.2,12.2,6.5,18.3
		c2.5,6.9,4.4,13.9,4.2,21.3c0,1.7-0.3,3.2-1.6,4.3c-1.1,0.8-2.2,1.6-3.4,2.4c-1.3,0.6-2.5,1.2-3.4,2.4c-1.8,0.2-2.7,1.7-4,2.5
		C142.8,180.2,141,181.6,139.2,182.8z"/>
	<path class="st66" d="M53.8,133.9c1.6,2.9,0.7,6.3,1.4,9.5c0.4,1.4,0.9,2.7,1.6,3.8c1,1.5,0.2,2.1-0.9,2.8c-0.1,0-0.3,0-0.4-0.1
		c-0.1-0.1-0.1-0.2-0.2-0.3c-2.1-1.7-2.5-4.5-4.1-6.5c0.2-2.6-1-4.8-1.5-7.3c0.2-0.5,0.3-1,0.9-1.3C51.7,134.3,52.7,134,53.8,133.9z
		"/>
	<path class="st67" d="M47.3,158.5c-0.5,2.7,0.6,5.5-0.8,8.1c-0.4-6-0.1-12,1.5-17.9c1.1-0.3,1.3,0.5,1.6,1.2
		c0.3,1.1,0.7,2.2,0.5,3.4c-0.2,0.5-0.4,1-0.7,1.5C48.5,155.9,48,157.3,47.3,158.5z"/>
	<path class="st68" d="M51.2,143c2.7,1.3,3.3,4,4.1,6.5c-0.5-0.1-1-0.1-1.4-0.2c-1.7-0.9-2.6-2.3-3.2-4.1c-0.1-0.6,0-1.2,0.4-1.7
		C51.1,143.4,51.2,143.2,51.2,143z"/>
	<path class="st69" d="M51.1,143.6c0,0.6,0.1,1.1,0.1,1.7c0,0.7,0,1.4-0.3,2.1c-0.6,1-0.2,2.6-1.9,2.9c-0.2-0.6,0.1-1.5-1-1.6
		C49.5,147.2,48.5,144.3,51.1,143.6z"/>
	<path class="st70" d="M50.6,134.8c-0.3,0.3-0.6,0.6-0.8,0.9c-0.3-0.6-0.6-1.3-0.8-1.9c0.6-1.3,0.6-2.6,0-3.8c0-0.3,0-0.6,0-0.9
		c0.7-0.4,1.5-0.6,2.3,0C52,131.1,51.8,133,50.6,134.8z"/>
	<path class="st71" d="M45.2,159.2c-0.5-1.3-0.7-2.6-0.1-4.1C46,156.6,45.3,157.9,45.2,159.2z"/>
	<path class="st72" d="M48.4,142.7c-0.5-1.8-0.5-2.8-0.1-4C49.1,139.9,48.9,141,48.4,142.7z"/>
	<path class="st73" d="M46.3,150.4c0,0.7-0.1,1.5-0.1,2.2c-1-0.1-0.4-0.9-0.5-1.3c-0.1-0.3,0.1-0.7,0.2-1.1
		C46,150.3,46.1,150.3,46.3,150.4z"/>
	<path class="st74" d="M48.9,130c1.1,1.3,1.1,2.6,0,3.8C48.9,132.6,48.9,131.3,48.9,130z"/>
	<path class="st75" d="M46.1,174.7c-0.6-0.8-0.7-1.7-0.1-2.5C46.7,173,46.2,173.9,46.1,174.7z"/>
	<path class="st76" d="M146.7,128.4c-1.3,0.4-0.7,1.9-1.5,2.6c-2.8-2.3-1-5-0.8-7.6c0.1-0.3,0.1-0.5-0.1-0.8
		c-0.4-0.6-0.5-1.2,0.2-1.7c1.3,2,0.4,4.8,2.3,6.5C146.8,127.8,146.7,128.1,146.7,128.4z"/>
	<path class="st77" d="M103.9,186.2c0.7,0,1.4,0,2.2,0c0.6,0.6,1.2,1.2,1.7,1.9c0.9,1.5,3.5,0.6,3.9,2.8c-7.4,1.5-14.9,0.8-22.3,0.8
		c-1.2-0.9-1.2-1,0.8-2.2c1.2-0.6,2.4-1.3,3.6-2c1.4-0.7,2.4-2,4.1-1.8c1.7,0.4,3.4,0.3,5.1,0.1C103.2,185.8,103.6,186,103.9,186.2z
		"/>
	<path class="st78" d="M111.7,190.9c-1.5-1.1-3.8-0.4-4.9-2.3c1.2-1,2.3-0.8,3.5,0.1c0.4,0,0.9,0,1.3-0.1c1.5,0.3,3.5-1,4.1,1.6
		c0,0,0,0,0,0C114.4,191.1,113.1,191.2,111.7,190.9z"/>
	<path class="st79" d="M90.5,189.6c-0.2,0.8-1.8,0.8-1.2,2.1c-2.5,0.6-1.2-1.2-1.3-2.1c0.8-0.3,1.6-0.6,2.5-0.9
		C90.9,189,90.9,189.3,90.5,189.6z"/>
	<path class="st80" d="M81.5,190.1c1.6-1,3.2-1,4.8-0.1c-0.3,0.1-0.5,0.2-0.8,0.4c-1.4,0.4-2.7,0.4-4.1-0.1L81.5,190.1z"/>
	<path class="st79" d="M81.5,190.4c1.4,0,2.7,0,4.1,0.1C84.2,191.5,82.8,191.5,81.5,190.4z"/>
	<path class="st81" d="M115.6,190.2c-0.9-1.6-3.2,0.2-4.1-1.6c0.3-0.3,0.7-0.6,1-0.9c1.2,0.1,2.4-0.5,3.7,0c1.1,0.5,2.2,1,1.2,2.5
		C116.8,190.2,116.2,190.2,115.6,190.2z"/>
	<path class="st82" d="M117.4,190.3c0.1-1.2-1.1-1.6-1.7-2.3c0.7-0.8,1.6-0.5,2.5-0.3l0,0.3c0.5,0.4,1.2,0.1,1.6,0.7
		C119.4,189.7,118.6,190.3,117.4,190.3z"/>
	<path class="st83" d="M119.8,188.7c-0.5-0.2-1.1-0.5-1.6-0.7c0.8-0.1,1.6-0.2,2.5-0.4c0.9-0.5,1.7-0.5,2.4,0.3
		c-0.5,0.2-1,0.5-1.6,0.7C121,188.7,120.4,188.7,119.8,188.7z"/>
	<path class="st84" d="M123.1,188c-0.8-0.1-1.6-0.2-2.4-0.3c0.8-2.4,2-1.6,3.3-0.5C123.7,187.4,123.4,187.7,123.1,188z"/>
	<path class="st85" d="M128.8,68.6c1.4,2.9,3.2,5.7,3.5,9c0.3,1.9,0.6,3.8,0.9,5.7c-0.4,0.9-1.1,1.4-2,1.5c-0.3,0-0.7,0-1,0
		c-0.5-0.1-1-0.2-1.5-0.3c-0.5,0-1,0-1.5-0.1c-1.5-0.7-2.3-1.8-2.2-3.5c0.6-3.5,0.9-6.9,0.2-10.4c0.5-1.2,1.5-1.7,2.6-2.1
		C128.2,68.3,128.5,68.4,128.8,68.6z"/>
	<path class="st86" d="M132.1,92.3c1,1.6,0.8,3.4,0.9,5.1c1.3,4.2-0.9,7.7-2.4,11.3c-2.4,4.7-5.7,8.8-8.6,13.1
		c-1,1.5-2.1,3.3-4.5,2.5c-0.7-1.3-0.1-2.4,0.3-3.6c3.1-4.7,7.4-8.6,9.7-13.9c1.5-3.4,2.7-6.8,2.8-10.5c0.1-1.4-0.8-2.8,0.2-4.2
		C131,91.9,131.6,91.9,132.1,92.3z"/>
	<path class="st87" d="M129.7,108.7c1.1-3.7,3.3-7.2,3.3-11.2c1.4,1,0.4,2.9,1.6,3.9c0.5,1.1,0.6,2.5,1.3,3.6
		c0.5,1.7,0.7,3.3,0.3,5.1c-0.5,1.3-0.5,2.9-1.8,3.8c-1.7-0.1-1.7-1.5-1.9-2.6C132.1,109.5,131.1,109,129.7,108.7z"/>
	<path class="st88" d="M125.5,81c0,1.7,1.3,2.4,2.5,3.2c0.1-0.1,0.2-0.2,0.3-0.3c0.1,0,0.3,0,0.4,0.1c0.2,0.2,0.5,0.3,0.7,0.5
		c0.1,0.1,0.2,0.2,0.3,0.3c0.2,0.2,0.3,0.5,0.4,0.7c0.2,0.4,0.3,0.8,0.3,1.2c0,1.1,0,2.1-0.1,3.2c-2.5,0.4-3.4-2.1-5.2-2.8
		c-1.3-1.1-3.1-1.7-3.5-3.6c0-1.5,0.9-2.5,1.9-3.4C124.7,79.7,125.2,80.2,125.5,81z"/>
	<path class="st89" d="M141.2,116.2c-0.1,1.3-0.1,2.5-0.2,3.8c-0.2,0-0.4,0-0.5,0c-0.1-2.1-0.2-4.3-0.3-6.4
		c-1.1-0.8-1.2-2.8-3.2-2.5c-0.7-1.7-1.3-3.3,0.1-4.9c2,2.4,4.4,4.4,5.5,7.4C141.8,114.3,142,115.5,141.2,116.2z"/>
	<path class="st90" d="M141.2,116.2c-0.1-1.1-0.4-2.4,1.3-2.6c0.7,2.4,1.3,4.9,2,7.3c-0.1,0.6-0.1,1.1-0.2,1.7
		C141.8,121.1,142.3,118.2,141.2,116.2z"/>
	<path class="st91" d="M125.6,86.6c2.4,0,2.9,2.8,5,3.4c1.1,0.4,1.6,1.3,1.6,2.4c-0.6,0-1.2,0.1-1.9,0.1c-2.6-0.7-3.7-2.9-5.1-4.8
		C125.2,87.2,125.3,86.8,125.6,86.6z"/>
	<path class="st92" d="M130.6,86.7c-0.3-0.3-0.6-0.7-0.9-1c0.2-0.2,0.4-0.5,0.3-0.8c0-0.3,0.2-0.6,0.5-0.7c0.9-0.3,1.8-0.6,2.7-0.9
		c1.4,1.7-0.4,3-0.5,4.4C132,87.4,131.3,87.1,130.6,86.7z"/>
	<path class="st93" d="M137,106.1c0.1,1.7,0.1,3.4,0.2,5.1c-0.2,0-0.4,0.1-0.6,0.1c-1.5-1.9-0.5-4.1-0.7-6.2
		c0.1-0.2,0.3-0.3,0.4-0.5C136.9,105,136.9,105.6,137,106.1z"/>
	<path class="st94" d="M135.3,104.6c-1-0.9-0.7-2.1-0.7-3.3c1,0.9,1.5,2.1,1.7,3.4c0,0,0,0,0,0C135.9,105,135.6,105,135.3,104.6z"/>
	<path class="st95" d="M134,87.8c0.8,1.6,0.5,2.7,0.3,4.2C133.5,90.5,133.8,89.3,134,87.8z"/>
	<path class="st96" d="M133.8,77.8c1.3,1.1,0.6,2.5,0.7,3.8C133.2,80.5,133.9,79.1,133.8,77.8z"/>
	<path class="st97" d="M92.9,40.1c1.9-1.6,4.3-1.8,6.5-2.5c6,0.9,11.8-1,17.6-1.8c3.9-0.5,7.8-0.5,11.7-0.6c2,1.6,5.6,1.2,5.9,4.9
		c0.6,4.5-4.1,5.3-5.8,8.2c-2.2,1.1-4.3,2.2-6.5,3.3c-2.7,1.9-5.5,1.1-8.2,0.1c-5.3-2-10.7-3.8-16.1-5.8c-1.3-0.6-2.6-1.4-4.1-1.4
		c-2.1-0.3-4.4,0.6-6.1-1.4C88.7,40.7,90.9,40.5,92.9,40.1z"/>
	<path class="st74" d="M112.5,34.5c1.1,0,2.2,0,3.7,0C114.8,35.5,113.7,35,112.5,34.5z"/>
	<path class="st72" d="M118.7,34.1c1-0.9,1.9-0.4,3.5-0.5C120.7,34.6,119.8,34.3,118.7,34.1z"/>
	<path class="st72" d="M104.5,36.4c-0.9,0.6-1.8,0.5-2.9,0C102.7,35.8,103.6,35.8,104.5,36.4z"/>
	<path class="st98" d="M128.8,68.6c-0.3,0-0.5,0-0.8-0.1c-1.1-0.4-1.7-1.1-0.9-2.3c0.3-0.6,0.6-1.1,0.8-1.7
		C129.3,65.7,129.9,67,128.8,68.6z"/>
	<path class="st65" d="M127.2,66.3c-0.2,0.9,0.5,1.5,0.9,2.3c-0.5,1-1.6,1.3-2.5,1.8c-2.2,0.7-3.5-1.3-5.3-1.8
		c-1.3-0.7-2.1-1.8-2.6-3.1c-0.3-0.9-0.3-1.9-0.2-2.8c0.3-1.1,0.5-2.3-0.4-3.3c-0.4-0.4-0.9-0.8-1.5-0.8c-0.5,0.1-0.9,0.2-1.4,0.3
		c-0.5,0.1-1,0.1-1.5,0.1c-1.6-0.3-3.1-0.8-4.8-0.5c-1.1,0.2-2.2,0.4-3.2-0.3c-0.7-0.3-1.2-1-2-1c0,0,0.3,0.5,0.1,0.8
		c-2.9,2.1-6.2,3.7-8.9,6.2c-1.1,0.6-2.4,0.6-3.6,0.9c-0.5,0.2-0.2-0.4-0.4,0.1c-0.2,0.3-0.4,0.2,0.1,0.2c0.7,0,1.3,0.2,1.8,0.5
		c0.3,0.2,0.6,0.5,0.7,0.8c0.4,1.9,1.3,3.8-0.4,5.6c-1.5,0.7-2.6-0.3-3.8-0.9C87.6,70.9,87,70.2,86,70c-0.3,1,0.1,2.4-1.1,3.1
		c-1.3,0.8-2.5,1.2-3.6-0.2c-0.6-1.2-1.4-2.2-2-3.3c-0.5-1.5-0.1-3.1-0.5-4.6c-0.1-0.3-0.2-0.6-0.3-0.8c0,0-0.3-0.2-0.3-0.2
		s-0.4,0.1-0.4,0.2c-0.4,0.8-0.3,1.7-1,2.3c-1.6,0.5-3.3-0.3-4.9,0.1c0,0,0.1,0.3,0.1,0.3s0.3,0,0.3,0c1.6,0,3.1,0.1,4.6,0.8
		c1,0.5,1.9,1.2,2.6,2.3c0.7,0.9,1.4,1.8,1.8,2.9c0.6,1.1,0.8,2.2,0.7,3.4c-0.2,0.6-0.6,1-1.2,1.2c-1,0.3-1.9,0.3-2.9,0.1
		c-1.1-0.3-2.3-0.9-2,1.2c0.1,0.8-0.1,1.5-0.7,2.1c-2.1,1-3.7-0.9-5.7-0.9c-0.3-0.1-0.6-0.2-0.9-0.4c-0.1-0.2-0.3-0.6-0.4-0.6
		c-0.3,0.1-0.2,0.5-0.4,0.7c-0.5,0.7-1.1,1.3-1.9,1.6c-0.8,0.1-1.5-0.1-2-0.7c-0.1-1.7-2-1.7-2.6-2.9c-0.7-3.4-0.5-6.6,1.4-9.5
		c0.9-1.2,2.5-2,2.1-3.9c-0.2-0.6-0.4-1.3-0.6-1.9c0-0.4,0.1-0.6,0.3-0.9l-0.1-0.3c0.7-1.7,1.9-2.9,3.5-3.8c0.6,0,1.3,0,1.5-0.8
		c2.8-0.7,4.6-3.7,7.9-3.5c0.7-0.3,1.4-0.5,2,0.2c0.6,1.2-0.2,1.8-1,2.3c-0.2,0.2-0.2,0.4,0,0.6c1.6,0.2,3.2,0,4.8-0.2
		c0.4,0,0.7,0,1.1,0c1.7,0.1,3.5,0.8,5.1-0.3c-1-2.4-3.8-1.7-5.4-3.1c-0.3-0.5-0.4-1-0.3-1.6c0.6-0.8,0.9-1.8,1.1-2.8
		c0.3-0.2,0.6-0.4,0.9-0.6c1-0.5,2.2,0.3,3-0.8c-0.1-0.3-0.2-0.6-0.2-0.9c0-0.7-1.4-1.6,0.2-2.1c1.9-0.2,3.8,0.6,5.7,0.4
		c1.2,0,2.2,0.7,3.3,1.2c1,0.5,2.1,1,3,1.6c2.1,1.8,4.7,2.8,7.1,4c1.7,0.7,3.4,1.3,4.7,2.7c1.1,2.1,1.2-1.2,2.1-0.4
		c1.7-0.3,3.5-0.3,5.2-0.4c0.7,0.1,1.1,0.4,1,1.2C122.9,58.1,125,62.2,127.2,66.3z"/>
	<path class="st99" d="M120.8,54c-0.2-0.5-0.4-0.8-0.9-0.7c-3.7,0.5-7.2-0.3-10.5-1.8c-3.1-1.2-6.2-2.4-9.2-3.8
		c-0.8-0.5-1.7-1-2.5-1.6c-0.3-0.4-0.3-0.7,0.1-1.1c5.3,1.3,10.3,3.2,15.3,5.3c3,1.3,6,1.3,9.2,1.3C122.3,52.6,121.8,53.4,120.8,54z
		"/>
	<path class="st100" d="M84.9,48.3c1.6,1.6,1.6,2.6-1,2.6c-1.5,1.3-3,2.1-4.9,0.7c-1.1-1.8-0.2-2.4,1.5-2.5
		C82,48.9,82.9,45.7,84.9,48.3z"/>
	<path class="st101" d="M92.9,40.1c-1.6,0.8-3.2,1.7-4.8,2.5c-0.5,0.6-0.8,1.4-1.4,1.9c-0.3,0.4-0.7,0.7-1.1,0.9
		c-0.6,0.3-1.1,0.7-1.7,1c-0.6,0.2-1.2,0.9-1.7,0c0-0.2,0-0.4,0-0.6c0.5-1.1,1.4-1.9,2.5-2.5c0.8-0.8,1.7-1.6,2.5-2.4
		c2.1,0.2,3.6-1.5,5.7-1.7C92.9,39.5,92.9,39.8,92.9,40.1z"/>
	<path class="st102" d="M79.1,51.6c1.6-0.2,3.2-0.5,4.9-0.7c0,0.5,0,1,0,1.4c-1.1,2.1-2.6,3-4.9,1.6c-0.4-0.7-1.2-0.8-1.9-0.9
		C77.8,52.6,78.4,52.1,79.1,51.6z"/>
	<path class="st103" d="M82.3,46.4c0.5-0.2,1.1-0.5,1.6-0.7c0.7,0.1,1.5,0.2,2,0.9c0.2,0.6,0.2,1.1-0.2,1.6
		c-0.3,0.1-0.5,0.1-0.8,0.1c-1.8-1.4-2.7,1.4-4.3,0.8C81.1,48.2,81.7,47.3,82.3,46.4z"/>
	<path class="st104" d="M48,74.3c0.3,0,0.6,0,0.8,0c1.9,1.1,0.6,2.6,0.6,4c0.8-1.4,0-4.1,3-3.9c1.3,1.8-0.3,3.8,0.4,5.7
		c0.1,0.8,0.1,1.6-0.3,2.4c-0.5,0.9-1.2,1.6-1.5,2.6c-1.9,6.7-0.5,13.6-1.4,20.4c0,2.9,0.1,5.7-4.1,5.7c-2.1-2-5.3-2-7.4-4
		c-3-0.3-3.9-2.7-4.9-5c0.6-3.8,2.3-7.1,4.1-10.5c2.6-3.3,4.7-6.9,6.4-10.7c-0.6-1,0-1.8,0.7-2.5C45.9,77.3,45.8,74.8,48,74.3z"/>
	<path class="st105" d="M52,82.6c0-0.8,0.1-1.7,0.1-2.5c-0.2-0.2-0.3-0.4-0.2-0.6c0-0.2,0.1-0.3,0.1-0.3c1.8-0.5,0.7-1.7,0.7-2.6
		c-0.1-0.7-0.1-1.4,0-2.1c0.1-0.8,0.4-1.4,1-1.9c1.2-0.3,2.4-0.7,3.6,0.1c0.5,1.2-0.3,2.6,0.3,3.8c0.9,0.7,2.5,0.7,2.8,2.3
		c0.3,2,0.6,3.9,0.6,5.9c-0.3,1.8-1,3.4-1.4,5.2c-0.2,0.9-0.6,1.9-0.6,2.8c-0.1,1.1-0.1,2.3-0.5,3.4c0.8,1-3.9,1.3-0.3,2.7
		c0.3,0.5,0.5,1,0.5,1.5c-0.5,2,0.8,3.9,0.8,5.8c0,0.6-0.2,1.1-0.5,1.6c-0.3,0.3-0.7,0.3-1,0c-0.9-0.8-1.7-1.5-2.6-2.3
		c-0.7-0.8-1.2-1.7-1.7-2.6c-0.2-0.3-0.4-0.6-0.6-0.8c0-0.2-0.1-0.4-0.2-0.6c-1-1.8-2.4-3.4-3-5.4c-0.2-2.9-0.4-5.7,0.6-8.5
		C50.6,85.7,50.3,83.8,52,82.6z"/>
	<path class="st106" d="M51.2,87.4c-0.9,2.9-0.5,5.9-0.5,8.9c0.2,1.4,1.1,2.8-0.2,4.1c-0.2,1.7,0.5,3.6-0.8,5.1
		c-0.7-7.1-1.8-14.3,0.7-21.3C51.4,85.1,50.4,86.4,51.2,87.4z"/>
	<path class="st107" d="M50.5,100.3c0.1-1.4,0.1-2.7,0.2-4.1c1.2,1.5,3,2.8,2.2,5.2C52,101,51.2,100.7,50.5,100.3z"/>
	<path class="st108" d="M52.9,102c0.2,0.1,0.4,0.1,0.7,0.1c0.7,0.9,1.7,1.7,1,3.1c0,0.6,0,1.2-0.1,1.7c-0.9-0.3-1.4-0.9-1.7-1.7
		c-0.7-0.7-0.6-1.4,0-2.2C52.9,102.7,52.9,102.4,52.9,102z"/>
	<path class="st109" d="M52.9,103.1c0,0.7,0,1.4,0,2.2c-0.5,0.2-1.3,0.9-1.5-0.1C51.1,104,51.4,103,52.9,103.1z"/>
	<path class="st110" d="M33.4,102c1.6,1.7,3.2,3.3,4.9,5c-0.3,0.6-0.9,0.8-1.6,0.8c-1-1.2-2.7-1.6-3.3-3.3
		C33.3,103.7,33.3,102.9,33.4,102z"/>
	<path class="st111" d="M59.5,119.3c-0.7-1.7,0.8-2.3,1.7-3.2c0.3-0.2,0.7-0.2,1,0.1c0.3,0.4,0.5,1,0.6,1.5c0.1,1.2,0.6,2.3,1.4,3.2
		c1.6,1.7,3.8,2.7,5.3,4.5c0.5,0.5,1,1.1,1.4,1.7c0.6,1,1.3,1.9,1.5,3.1c0,0.8-0.3,1.5-1.1,1.9c-0.5,0.2-1.1,0.2-1.6,0.1
		c-1.1-0.3-2.1-1.2-3.3-1.2c-1.1-0.4-1.5-1.5-2-2.3c-1-1.6-2.1-3-3-4.6c-0.5-0.9-0.9-1.9-1.4-2.8C59.6,120.6,59.4,119.9,59.5,119.3z
		"/>
	<path class="st112" d="M57.9,107.8c0.2,0,0.5,0,0.7,0c1.1-0.5,1.3-1.4,0.9-2.5c-0.2-1.3-1-2.5-0.3-3.9c2.8-1,3.8,0.9,4.7,3
		c0.1,0.4,0.1,0.7,0.1,1.1c-0.3,1.7,0.4,3.1,1.4,4.4c0.2,0.3,0.3,0.7,0.4,1c0.1,0.6,0,1.1-0.2,1.7c-0.2,0.5-0.6,1-1,1.3
		c-0.6,0.4-1.3,0.9-2.1,0.3c-0.7-2.2-3.1-2.5-4.4-4.1C58,109.4,57.9,108.6,57.9,107.8z"/>
	<path class="st113" d="M60.3,120.9c0.5,0.8,1,1.7,1.5,2.5c-0.3,0.6,0,1.4-0.8,1.8c-0.4,0.1-0.7,0.1-1.1-0.1
		c-0.8-0.4-1.5-1.1-2.1-1.8c-1.4-1.4-0.6-3.2-0.8-4.8c0.2-0.3,0.5-0.6,0.7-0.9c0.7,0.4,0.8,1,0.9,1.7
		C59.2,119.8,59.5,120.6,60.3,120.9z"/>
	<path class="st114" d="M62.5,114.3c0.6-0.3,1.1-0.5,1.7-0.8c1.4,0.6,1.7,1.5,0.9,2.7c-1.1,0.7-2.2,0.5-3.2-0.3c-0.2,0-0.4,0-0.6,0
		C61,114.9,61.3,114.3,62.5,114.3z"/>
	<path class="st115" d="M60.3,120.9c-1.8,0.8-1.4-0.7-1.6-1.6c0.3,0,0.6,0,0.8-0.1C60.3,119.5,60.2,120.3,60.3,120.9z"/>
	<path class="st116" d="M44.8,78.5c-0.3,0.8-0.6,1.6-0.9,2.4c-0.2-0.3-0.5-0.5-0.7-0.8c0-0.5,0-1,0-1.5c0.5-0.3,1.1-0.6,1.6-0.9
		c0.3,0.2,0.3,0.4,0.3,0.6C44.9,78.4,44.8,78.5,44.8,78.5z"/>
	<path class="st117" d="M60.2,84.9c-0.2-2.1-0.4-4.2-0.7-6.2c0.5-1.3-0.6-2.4-0.3-3.6c0-1,0.1-2.1,0.3-3.1c0.9-2.7,1-5.8,3.1-8.1
		c0-0.4,0.1-0.7,0.1-1.1c0.2-0.1,0.3-0.1,0.5-0.2c0.2,0,0.3,0.1,0.5,0.1c0.3,0.2,0.5,0.5,0.7,0.8c0.2,0.3,0.3,0.6,0.4,1
		c0.3,1.4-0.6,2.3-1.3,3.4c-2.1,3.2-1.4,7-2.2,10.5c0.6,1.1,1.1,2.3,1.3,3.6c0.2,1.1,0.2,2.2-0.3,3.1C61.7,86.2,60.8,86.8,60.2,84.9
		z"/>
	<path class="st118" d="M62.7,63.9c-0.8,2.7-1.5,5.4-2.3,8.1c-3.7,1-4.8,0.4-5.7-3.5c0.1-0.6,0.5-1.2,1-1.6c3.3,1.6,3.2-2.8,5.4-3.1
		C61.6,63.8,62.1,63.8,62.7,63.9z"/>
	<path class="st119" d="M61.1,63.7c-0.2,0.3-0.7,0.6-0.7,0.9c-0.2,2.8-1.2,4.3-4.1,2.4c-1-0.6-0.9-1.5-0.9-2.5
		c0.5-0.5,1.1-0.9,1.6-1.4C58.4,63.2,59.9,62.6,61.1,63.7z"/>
	<path class="st120" d="M67.8,57.3c-0.2,2.1-2.5,2.4-3.5,3.8c0-0.5,0-1,0.1-1.5c0.3-0.8,0.5-1.6,0.8-2.4
		C66,57.3,66.9,57.3,67.8,57.3z"/>
	<path class="st121" d="M64.4,61.4c0,0.2,0,0.5,0,0.7c0.2,0.2,0.3,0.4,0.2,0.6c0,0.2-0.1,0.3-0.1,0.3c-0.3,0.2-0.6,0.2-0.9-0.1
		l0-0.3c-0.3,0-0.5-0.2-0.7-0.5C63,61.1,63.8,61.4,64.4,61.4z"/>
	<path class="st122" d="M62.9,62.1c0.2,0.2,0.4,0.3,0.7,0.5c-0.3,0.1-0.5,0.1-0.8,0.2C62.7,62.6,62.7,62.3,62.9,62.1z"/>
	<path class="st123" d="M55.4,64.6c1,0.6,0.5,1.7,0.9,2.5c-0.3,0.3-0.6,0.6-1,0.9c-0.3,0.2-0.5,0.2-0.8,0.1
		c-0.4-0.3-0.5-0.8-0.8-1.1C54.3,66.2,54.9,65.4,55.4,64.6z"/>
	<path class="st49" d="M53.7,67c0.3,0.3,0.6,0.7,0.9,1c0.2,0.4,0.2,0.7,0,1.1c-0.8,1.1-1.6,2.3-3.3,1.3c0,0,0,0,0,0
		C52.1,69.2,52.9,68.1,53.7,67z"/>
	<path class="st124" d="M54.6,105.2c-0.3-1-0.7-2.1-1-3.1c1.7,0.5,1.8,1.9,1.7,3.3C55.1,105.4,54.8,105.3,54.6,105.2z"/>
	<path class="st125" d="M44.8,78.5c0-0.3,0-0.6,0-0.8c0.3-1.7,0.8-3.2,2.4-4.1c0.3,0.3,0.5,0.5,0.8,0.8
		C46.9,75.7,46.4,77.5,44.8,78.5z"/>
	<path class="st126" d="M51.3,70.3c1.4,0.1,2.1-1.1,3.1-1.7c0.9,1.5,1.2,2.9-0.5,4.1c-0.2,0.6,0,1.4-0.9,1.6c-0.3,0.5-0.6,0.5-0.9,0
		c-2,1.5-1.4,4.5-3.6,6.2c-0.3-2.2,1.4-4.2,0.4-6.3C50.3,73.4,50.6,71.7,51.3,70.3z"/>
	<path class="st127" d="M50.6,134.8c0.1-1.9-0.3-3.9,0.5-5.7c0.7-1.8,1.4-3.6,1.1-5.7c0.7-0.4,1.5-0.7,2.2-1.1
		c0.6,0.4,0.7,0.9,0.6,1.5c0,0.3,0,0.3,0,0.2c-0.2-0.5,0.8,0.1,0.3-0.2c0.3-0.1,0.6,0,0.9,0.1c0.2,0.2,0.4,0.5,0.5,0.8
		c0.3,1.2,0.7,2.2,1.4,3.2c0.2,0.3,0.3,0.6,0.4,1c0.3,1.3,1.8,2.4,0.9,4c-4.4-2.9-4.7-2.9-5.8,0.9C53.1,135.5,52,135.7,50.6,134.8z"
		/>
	<path class="st128" d="M57.1,118.6c1.5,1.2,0.2,3.5,1.6,4.7c0.2,0.9-0.3,1.2-1.1,1.3c-0.5,0-0.8-0.3-1-0.8
		c-0.9-1.6-0.5-3.1,0.3-4.6C56.9,119,57,118.8,57.1,118.6z"/>
	<path class="st129" d="M56.9,119.2c0.1,1.6,0.1,3.3,0.2,4.9c-0.3,0.3-0.6,0.3-0.9,0.1l-0.1,0.1c-1.2-1.3,0-2.9-0.7-4.3
		c0-0.3,0-0.5,0-0.8C55.9,119.3,56.4,119.2,56.9,119.2z"/>
	<path class="st130" d="M55.4,124.1c-1.8,1.8-0.5-0.5-0.9-0.7c-0.2-0.1-0.1-0.7-0.1-1.1c0.1-0.6,0.1-1.3,0.9-1.4
		C56,122,55.9,123,55.4,124.1z"/>
	<path class="st131" d="M55.4,124.1c0-1,0-2.1-0.1-3.1c0-0.3,0-0.6,0-0.9c1.3,1.2,0.7,2.8,0.7,4.3C55.8,124.2,55.6,124.2,55.4,124.1
		z"/>
	<path class="st132" d="M84.9,146.1c-4.6-1.1-9.3-2.2-13.7-4.1c-1.9-0.8-4.2-1.1-5.1-3.4c1.1-0.7,2.2-0.1,3.3,0
		c0.5,0.1,1.1,0.3,1.5,0.5c1.2,1.1,2.6,1.7,4.2,1.6c0.4,0,0.7,0.2,1,0.3c1.3,0.9,2.8,1.6,4.4,1.4c0.8-0.1,1.6-0.1,2.3,0.1
		c2.7,1.4,5.8,0.3,8.6,1.2c1,0.8,3.4,0.1,2.7,2.7C91,147,87.9,147.1,84.9,146.1z"/>
	<path class="st133" d="M105.2,154.5c-5.4,3.1-8.1,1.3-8.3-5.9c-0.3-0.5-0.4-1-0.1-1.6c2.8-0.2,1.3,3.1,3.1,3.6
		c0.9,0.5,1.6,1.3,2.4,1.9C103.1,153.4,104.6,153.4,105.2,154.5z"/>
	<path class="st134" d="M110.1,140.6c-1.5,1.2,0.2,2.8-0.4,4.1c0,0.4-0.2,0.7-0.4,1c-0.5,0.3-1,0.3-1.6,0.1
		c-0.6-0.5-0.5-1.3-0.7-1.9c-0.9-1.9-2.7-1.1-4.1-1.5c-0.3-0.2-0.5-0.5-0.7-0.9c-0.2-0.6-0.1-1.1,0.1-1.7c0.3-0.5,0.7-0.9,1.2-1.2
		c0.9-0.2,1.7-0.4,2.5-0.9c0.4-0.1,0.7-0.1,1.1-0.1c1.1,0.7,1.8,1.8,2.9,2.4C110,140.2,110.1,140.4,110.1,140.6z"/>
	<path class="st135" d="M64.6,176.2c-5.2-0.4-7.7-2.8-6.7-6.5c0.4-0.1,0.7-0.1,1.1,0c1.5,1.1,2.7,2.5,4,3.8
		C63.7,174.3,64.7,174.9,64.6,176.2z"/>
	<path class="st136" d="M97.2,147.1c-0.1,0.5-0.2,1-0.3,1.5c-4-2.3-8.5-0.7-12.7-1.7c-0.1,0-0.2-0.3-0.2-0.3
		c0.3-0.2,0.6-0.4,0.9-0.5c3.2,0,6.4,0,9.6,0C95.7,145.5,96.8,145.2,97.2,147.1z"/>
	<path class="st137" d="M128.9,125.9c-2,2.9-4.4,5.4-7.4,7.4c-0.6-0.2-1-0.6-1.1-1.2c2.2-2.8,4.4-5.7,7.8-7.4
		C128.8,124.9,129.2,125.2,128.9,125.9z"/>
	<path class="st138" d="M47.3,158.5c-0.2-1.6,0.2-3.1,1.5-4.1c0.6,0.2,1.2,0.6,1.7,0.9c0.3,0.2,0.5,0.4,0.7,0.7c0.4,1,1.6,2.3,0.1,3
		c-1.9,0.9-1.5-1.7-2.6-2.2c-0.6,0.4-0.2,1.3-0.9,1.7l-0.3,0L47.3,158.5z"/>
	<path class="st5" d="M51.3,156l-0.3,0l-0.3,0c-0.9-0.6-0.9-1.5-0.9-2.4c0.4-1.2-1.4-2-0.6-3.3c0.4-1.1,0.9-2.2,1.3-3.2
		c1.4,0.8,0.4,2.2,0.9,3.2C50.8,152.2,52.5,154.1,51.3,156z"/>
	<path class="st139" d="M144.4,123.3c1,2.5-1.3,5.3,0.8,7.6c-1.1,1.7-2.1,1.4-2.2-0.4C142.8,128.1,142.7,125.5,144.4,123.3z"/>
	<path class="st140" d="M51.3,150.3c-1.1-0.9-0.6-2.2-0.9-3.2c0.2-0.7,0.1-1.5,0.9-1.8c0.9,1.4,1.8,2.7,2.7,4.1
		C53,149.5,51.9,149.3,51.3,150.3z"/>
	<path class="st141" d="M105.2,154.5c-1.3-0.3-3.1,0.5-3.3-1.8c0.1-0.1,0.3-0.3,0.4-0.4c1.6-0.7,3.4-0.7,5.2-0.9
		c0.6,0.2,1.1,0.4,0.9,1.2C107.7,153.9,106.4,154.1,105.2,154.5z"/>
	<path class="st142" d="M62.6,174c-1.7-1-3.2-2.3-4-4.1c-0.4-0.8,0.1-1,0.7-1.2c0.4,0,0.7,0.2,0.8,0.6c1.1,1.3,2.3,2.5,3.4,3.8
		C63.7,173.9,63.5,174.3,62.6,174z"/>
	<path class="st143" d="M62.6,174c0.3-0.3,0.6-0.6,0.9-0.9c2,0.5,3.1,1.9,3.8,3.7c-1.2,1.2-1.8-0.6-2.7-0.5
		C64,175.5,63.3,174.7,62.6,174z"/>
	<path class="st144" d="M116,137.3c-1.7,1.6-3.5,2.8-5.8,3.2c0,0-0.1-0.1-0.1-0.1c-0.6-3.7,2.6-3.4,4.6-4.4
		C115.3,136.3,115.8,136.7,116,137.3z"/>
	<path class="st145" d="M133.8,113.6c0.5-1.1,1-2.2,1.5-3.4c0.5,0.4,0.7,1.2,1.5,1.3c0.1,0.1,0.3,0.2,0.4,0.3c-1.4,1-1.2,3-2.4,4.2
		c-0.4,0.3-0.8,0.3-1.2,0C133,115.2,133,114.4,133.8,113.6z"/>
	<path class="st146" d="M120.8,132.4c0.2,0.3,0.5,0.6,0.7,0.9c-1,1.5-2.5,2.4-4.1,3.1c-0.6-0.2-1-0.6-1.1-1.2
		C117.4,133.6,118.4,131.9,120.8,132.4z"/>
	<path class="st147" d="M97.9,186.3c-1.3,0.5-2.7,1.1-4,1.6c-0.6,0.4-1.3,0.5-1.9-0.1c1.5-1.4,3.1-2.5,5-3.1c0.4,0.2,0.8,0.3,1,0.7
		c0,0.1,0,0.3,0,0.4C98,186,97.9,186.2,97.9,186.3z"/>
	<path class="st148" d="M138.7,150c-0.5,2.1-2.2,2.2-4,3.3C135.7,150.1,135.7,150.1,138.7,150z"/>
	<path class="st149" d="M110.2,188.7c-1.2,0-2.3,0-3.5-0.1c-0.2-0.8-0.5-1.6-0.7-2.3C107.6,186.8,109.8,186.2,110.2,188.7z"/>
	<path class="st150" d="M109.3,145.1c0.1-0.3,0.2-0.4,0.5-0.4c0.3,0,0.6,0,0.9,0c1.1,1.6,0.8,3.2,0.2,4.8c-0.2,0.1-0.4,0.1-0.6,0.2
		c-0.9-0.4-1.3-1.2-1.6-2.1C108.4,146.6,108.7,145.8,109.3,145.1z"/>
	<path class="st151" d="M65.9,138.1c-1.4-0.8-3.2-1.2-3.1-3.3c0.2-0.1,0.3-0.2,0.5-0.3c2.1-0.1,3.2,1.2,3.9,3
		C66.9,138.1,66.6,138.6,65.9,138.1z"/>
	<path class="st152" d="M128.9,125.9c-0.2-0.3-0.5-0.6-0.7-0.9c-0.7-2.2,0.6-3.1,2.3-3.7c0.7,0.2,1.2,0.4,0.8,1.3
		C130.9,124,130.2,125.2,128.9,125.9z"/>
	<path class="st153" d="M109.4,147.9c0.3,0.6,0.5,1.2,0.8,1.8c-0.2,1.2-0.7,2.3-1.8,2.9c-0.3-0.2-0.6-0.5-0.9-0.7
		C107.2,150.1,107.4,148.6,109.4,147.9z"/>
	<path class="st154" d="M59.6,133.1c-0.2-1.5-2-2.4-1.7-4.1c0.3-0.2,0.7-0.3,1.1-0.2c1.5,0.8,2.4,2,2.5,3.7
		c-0.2,0.6-0.5,1.1-1.3,0.8C60,133.2,59.8,133.2,59.6,133.1z"/>
	<path class="st155" d="M98,185.5c-0.3-0.3-0.6-0.5-1-0.8c0.3-0.1,0.5-0.2,0.8-0.3c1.1-0.8,2.2-0.7,3.3,0c1.2,0.2,2.5,0.3,2.8,1.8
		c-0.4,0-0.8,0.1-1.2,0.1c-0.3,0.2-0.7,0.2-1,0.1C100.5,186,99,186.5,98,185.5z"/>
	<path class="st156" d="M101.1,184.4c-1.1,0-2.2,0-3.3,0c-0.2-0.6-0.6-1.4,0.5-1.4C99.4,182.9,100.8,182.6,101.1,184.4z"/>
	<path class="st157" d="M133.6,116c0.4,0,0.7,0.1,1.1,0.1c-0.2,1.5-0.8,2.9-1.9,4c-0.6-0.1-1.1-0.5-1.3-1.1
		C131.6,117.5,131.7,116.1,133.6,116z"/>
	<path class="st158" d="M139.6,148.2c-0.2-2,0.6-2.8,1.8-4.1C141.9,146.3,141.4,147.4,139.6,148.2z"/>
	<path class="st159" d="M118.2,187.7c-0.8,0.1-1.7,0.2-2.5,0.3c-1-0.5-2.3,1.1-3.2-0.3C114.4,186.6,116.3,186.7,118.2,187.7z"/>
	<path class="st160" d="M137.2,111.2c2.6-1.2,2.3,1.1,2.9,2.3c-1.3,0-2-1.1-2.9-1.7l-0.3,0.1c-0.2-0.2-0.2-0.4-0.2-0.6
		c0.1-0.2,0.1-0.3,0.2-0.3l0.1,0.2L137.2,111.2z"/>
	<path class="st161" d="M65.9,138.1c0.3-0.3,0.6-0.5,0.9-0.8c1.7-0.3,3.1-0.2,2.4,2.2c-1-0.3-2.1-0.5-3.1-0.8
		C66,138.5,65.9,138.3,65.9,138.1z"/>
	<path class="st162" d="M60.2,169.3c-0.2,0-0.5-0.1-0.7-0.2c-0.8-0.5-1.6-1-1-2.1c0.9-1.6,1.4,0.9,2.2,0.2
		C61.2,168,60.3,168.6,60.2,169.3z"/>
	<path class="st163" d="M132.1,119.3c0.3,0.3,0.6,0.5,0.8,0.8c-0.1,1.1-0.7,2-1.6,2.6c-0.3-0.3-0.5-0.6-0.8-0.9
		C130.1,120.3,130.3,119.3,132.1,119.3z"/>
	<path class="st164" d="M48,158.5c0.1-0.7,0.2-1.3,0.9-1.7c0,1.3,0,2.7,0,4.2C47.5,160.3,48.2,159.3,48,158.5z"/>
	<path class="st165" d="M58.5,167c0.3,0.7,0.7,1.4,1,2.1c-0.3,0.3-0.6,0.5-0.8,0.8c-0.2-0.1-0.5-0.2-0.7-0.2
		C57.9,168.8,56,167.4,58.5,167z"/>
	<path class="st166" d="M110.8,149.5c-0.1-1.6-0.1-3.2-0.2-4.8C112.3,146.2,112.1,147.8,110.8,149.5z"/>
	<path class="st167" d="M60.2,133.2c0.3-0.2,0.6-0.5,0.8-0.7c2-0.2,2.4,0.6,1.6,2.3c0,0,0,0,0,0C61.4,135.1,60.7,134.3,60.2,133.2z"
		/>
	<path class="st168" d="M92,187.8c0.6,0,1.3,0.1,1.9,0.1c-0.9,1-2,1.5-3.4,1.7c0-0.3,0-0.6-0.1-0.9C91,188.4,91.5,188.1,92,187.8z"
		/>
	<path class="st169" d="M116.5,135.6c0.3,0.3,0.6,0.6,0.9,0.9c-0.5,0.3-1,0.6-1.4,0.9c-0.3-0.3-0.7-0.5-1-0.8
		C115.2,135.7,115.6,135.3,116.5,135.6z"/>
	<path class="st170" d="M49.7,153.5c1.1,0.5,0.7,1.6,0.9,2.4c-1.1,0.1-1.7-0.5-1.7-1.6C49.1,154.1,49.4,153.8,49.7,153.5z"/>
	<path class="st171" d="M102,186.1c0.2,0,0.5,0.1,0.7,0.2c-1.6,1.1-3.2,1.1-4.8,0c0,0-0.1-0.1-0.1-0.1
		C99.2,185.6,100.6,185.7,102,186.1z"/>
	<path class="st172" d="M120.6,67.9c2,0,3.2,1.9,5,2.4c2.1,3.6,1,7.1-0.1,10.7c-0.5-0.3-1-0.6-1.5-1c-0.1-0.2-0.2-0.3-0.3-0.5
		c0.1-2.1,0-4.2-1.3-6C121.8,71.7,120.1,70.1,120.6,67.9z"/>
	<path class="st173" d="M130.5,84.2c0,0.3-0.1,0.6-0.1,0.9c-0.3,0.2-0.6,0.1-0.8-0.1l0.1,0.1c-0.1-0.1-0.2-0.3-0.3-0.4
		c0.1-0.2,0.2-0.3,0.3-0.5C129.9,84.1,130.2,84.2,130.5,84.2z"/>
	<path class="st174" d="M128.9,84.2c-0.3,0-0.5,0-0.8,0c-0.1-0.7,0.2-0.9,0.9-0.8c0.2,0.2,0.2,0.4,0.2,0.6
		C129,84.1,128.9,84.2,128.9,84.2z"/>
	<path class="st175" d="M128.9,84.2c0-0.3,0-0.6,0-0.8c0.2,0.3,0.5,0.5,0.7,0.8c0,0,0,0.1,0,0.1C129.3,84.4,129,84.4,128.9,84.2
		L128.9,84.2z"/>
	<path class="st97" d="M131.3,96.6c-1,10-6.3,17.6-13.1,24.4c-0.9,2.2-3.2,3.1-4.2,5.1c-0.3,0.5-0.7,0.8-1.3,1
		c-3,0.8-5.5,2.7-8.5,3.6c-1.1,0.5-2.2,0.9-3.4,1.1c-2,0.3-4,1-6.1,0.9c-0.8,0-1.7,0-2.5,0c-4.2-1-7.9-3-11-6.1
		c-0.2-2.4-1.4-4.3-2.4-6.4c-1.3-4.3-1.2-8.8-0.8-13.2c0.5-3.7,2-7.1,2.6-10.7c0.2-0.9,0.5-1.8,0.7-2.7c0.4-1.9,1.4-2.6,3.1-1.4
		c1.1,0.8,2.1,1.2,3.2,0.2c2.6-0.2,0.7-2.4,1.5-3.4c0.3-0.6,0.8-0.9,1.5-0.7c0.6,0.3,1,0.7,1.3,1.3c3.4,5.2,3,10.3,0.4,15.8
		c-2.9,6.3-4.3,12.8-1.4,20.3c-0.1-0.2,0.5-0.9,0.1-0.6c-0.1,0.1-0.2,0-0.3-0.2c-2.6-6.1-1.2-12,0.9-17.8c1-2.8,1.5-6.1,3.4-8.2
		c2.1-2.5,5.1,0.9,7.9,0.4c2.7-0.5,5.6-0.1,8.5,0.5c4.8,1,8.8,2.9,11,7.7c-3-6.6-9-7.8-15.2-8.3c-2.3-0.2-4.7,0.2-6.9-0.1
		c-2.6-0.4-5.1-1.3-6-4.1c0.4-2.6,1.5-4.5,4-5.4c0.6-0.2,1.3-0.5,1.6-1.2c1.3-2.7,2.8-3.5,5-0.9c0.4,0.5,1.2,0.8,1.8,0.2
		c2.4-2.4,5.7-2.5,8.7-3.4c1.3-0.4,2.6-0.3,3.9-0.1c0.6,0.2,0.9,0.6,1.1,1.2c0.8,2.9,3.5,3.5,5.6,4.9
		C128.8,91.3,129.7,94.2,131.3,96.6z"/>
	<path class="st176" d="M116.5,135.6c-0.5,0.3-1,0.7-1.6,1c-1.7,1.3-4.3,1.4-4.9,3.9c-1.4-0.3-3-0.5-3-2.5c-0.8-0.2-1.4-0.5-1.5-1.4
		c-0.2-1.8,1.5-2.8,1.6-4.5c0.3-0.7,0.9-1.1,1.6-1.3c1.2-0.3,2.1-1,2.8-1.9c0.3-0.3,0.7-0.7,1-1c0.4-0.5,0.9-0.9,1.3-1.4
		c0.3-0.4,0.6-0.8,0.9-1.2c0.8-0.5,1.4-1.7,2.6-1c2.4,0,3.1-2,4.1-3.4c2.8-4,5.4-8.1,8.2-12.1c1.3-1.1,2.5-1.8,3.1,0.6
		c0.4,1.4,0.6,2.9,0.9,4.3c0,0.8-0.1,1.6-0.1,2.4c-0.9,0.9-1.3,2.1-1.6,3.3c-0.5,0.8-1,1.6-1.5,2.5c-1.1,0.9-1.9,2-2.3,3.3
		c-2.5,2.4-4.9,4.9-7.4,7.3C119.4,133.4,118,134.5,116.5,135.6z"/>
	<path class="st177" d="M131.3,96.6c-2.9-1-2.7-4.9-5.7-5.9c-1.2-0.8-2.5-1.4-2.9-3.1c0.1-0.6,0.5-1,1-1.2c0.9-0.2,1.3,0.5,1.7,1.1
		c1.6,1.7,3.1,3.3,4.7,5C130.6,93.8,131,95.2,131.3,96.6z"/>
	<path class="st178" d="M117.4,124.2c-0.8,0.6-1.6,1.1-2.4,1.7c-0.2,0.2-0.5,0.3-0.8,0.3c-0.3,0.1-0.5,0-0.8-0.1
		c0.1-3.2,3.3-3.4,4.8-5.2C118.4,122.1,117.9,123.2,117.4,124.2z"/>
	<path class="st179" d="M136.8,111.1c0,0.3,0,0.6,0,0.9c-1.1-0.1-1.5-0.8-1.5-1.7c0-1.9,0-3.8,0-5.6c0.3,0,0.6,0,1,0
		C136.5,106.8,135.4,109,136.8,111.1z"/>
	<path class="st180" d="M124,80.1c-0.1,1.4-1.2,2.2-1.8,3.3c-1.1,0.9-2.4,0.1-3.6,0.4c-2.6-0.3-3.9-2.2-4.9-4.3
		c0-2.5,3.1-3.1,3.5-5.4c1.7-0.1,1.7,1.3,2.2,2.4c0.5,1.1,0.5,2.9,2.5,2.4c1-0.1,1.7,0.3,2,1.3L124,80.1z"/>
	<path class="st181" d="M119,83.4c1.1-0.8,2.2-0.1,3.3,0c0.3,1.9,3.1,1.3,3.4,3.2c0,0.3,0,0.6,0,0.9c-0.6-0.2-1.1-0.5-1.7-0.7
		c-1.2-0.2-2.3-0.6-3.3-1.1c-0.3-0.2-0.5-0.5-0.6-0.8c-0.2-0.2-0.5-0.5-0.7-0.7c-0.3-0.1-0.4-0.2-0.4-0.4
		C118.8,83.5,118.9,83.4,119,83.4z"/>
	<path class="st182" d="M129.6,84.9c0.3,0,0.5,0.1,0.8,0.1c-0.2,0.2-0.5,0.4-0.7,0.6C129.7,85.4,129.6,85.2,129.6,84.9z"/>
	<path class="st183" d="M128.8,84.1c0.3,0,0.5,0.1,0.8,0.1c0,0.3,0.1,0.5,0.1,0.8C129.4,84.7,129.1,84.4,128.8,84.1z"/>
	<path class="st184" d="M86.4,44.2c0.3-0.8,0.9-1.4,1.8-1.6c2,1.5,4.3,0.4,6.4,0.8c0.5,0.5,0.5,1,0,1.5c-2.2,0.8-4.2-1.3-6.5-0.5
		C87.4,44.7,86.9,44.6,86.4,44.2z"/>
	<path class="st185" d="M94.5,44.9c0-0.5,0-1,0-1.5c1.3,0.1,2.4,0.5,3.3,1.6c0,0.4-0.1,0.7-0.1,1.1C96.7,45.6,95.6,45.2,94.5,44.9z"
		/>
	<path class="st186" d="M119,83.4c0.1,0.3,0.1,0.5,0.3,0.8c-1.1,1.3-2.3,0.3-3.5,0.2c-0.5,0.3-1.1,0.4-1.6,0.2
		c-1.8-1.2-3.8-1.3-5.8-1.8c-0.4-0.1-0.8-0.1-1.2-0.2c-0.4-0.1-0.8-0.2-1.2-0.3c-2.8-0.6-5.7,0.1-8.6-0.5c-6.2-2.9-11,0.1-15.6,3.8
		c-0.6,0.5-0.8,1.3-1.2,1.9c-1,1.8,0.9,0.1,0.8,0.7c1.7,1.9-0.5,3.7,0,5.6c-0.9,1.6-0.5,3.6-1.7,5c-1.8,0.5-2.5,2.9-4.7,2.7
		c-0.3-0.2-0.6-0.5-0.7-0.8c-0.3-0.9-0.5-1.8-0.6-2.7c0-0.8,0.2-1.5,0.6-2.1c0.2-0.3,0.5-0.5,0.9-0.6c2.4,0.8-0.4-1.5,0.8-1.4
		c0.4-1.3,0.2-2.8,1.1-3.8c1.6-1.7-1.2-0.2-0.7-1c-0.4-1.3-0.6-2.6-0.8-3.9c-0.1-1.9-0.1-3.7,0.4-5.5c0.2-0.4,0.4-0.7,0.8-0.9
		c1.3-0.9,3-1,4.3-2c0.2-0.1,0.3-0.2,0.5-0.3c-0.3-2.6,2-2.5,3.5-3.3c1.1-0.7,0.8-2.7,2.7-2.6c2,1,3.8,2.7,6.3,2.5
		c0.7,0.1,1.4,0.3,2.1,0.5c1.6,0.7,3.3,0.5,4.9,0.8c1.5,0.3,2.7,1.3,4.3,1.2c3.7-0.5,6.6,0.8,8.7,3.8C116,80.4,116.6,82.9,119,83.4z
		"/>
	<path class="st97" d="M114.1,79.4c-3-1.1-5.3-4.3-9-2.9c-1.4-0.5-2.6-1.3-3.8-2.1c-1-0.8-1.7-2-2.2-2.9c1.8,4.4-2,2.3-3.6,2.8
		c-0.5-0.2-1.1-0.4-1.6-0.6c-1-0.3-1.6-0.8-1.8-1.8c1.4-1.7-0.5-3.8,0.6-5.6c0.4-0.3,0.9-0.6,1.2-0.9c0.1-0.3,0.1-0.5,0.1-0.8
		c-0.2-0.2-0.3-0.5-0.4-0.7c2.3-3.4,5.7-5.1,9.4-6.5c0.8-0.7,1.5-0.7,2.3,0c0.8,1.6,1.7-0.3,2.5,0c1.3,0.6,3-0.1,4.2,1.1
		c1.2,0.6,2.5,0.9,3.4,1.8c0.8,2.3,1.7,0.8,2.5,0c0.9,0.4,1,1.1,0.4,1.8c0.1,1.1,0.1,2.1,0.2,3.2c-0.3,1.7,1.7,3,1,4.8
		c-0.1,0.5-0.4,1-0.6,1.5c-0.5,0.9-0.5,2.1-1.4,2.8C117.1,76.6,116.1,78.3,114.1,79.4z"/>
	<path class="st104" d="M75,96.4c-0.2,0.5-0.4,1-0.7,1.5c-0.3,0.3-0.7,0.3-1,0.1c-1.3-1.2-0.6-3.3-2-4.4c-0.4-0.4-0.7-0.8-1.1-1.3
		c-1.1-1.7-2.5-2.6-4.4-1.5c-1.9,1.1-2.2,2.9-2,4.9c0.2,1.8,1.8,3,1.7,4.9c-0.1,0.4-0.4,0.7-0.8,0.9c-3.2,0.2-4.2-1.9-4.6-4.5
		c-0.4-2.8,0.4-5.4,1.7-7.8c1.9-3.6,4-7.1,6.6-10.2c2.4-0.5,4.2,1.2,6.4,1.7c0.2,0.1,0.3,0.3,0.5,0.4c0.2,0.4,0.3,0.8,0.4,1.2
		c0.1,1.9,0,3.9,0.1,5.8C76.6,91.1,74.6,93.7,75,96.4z"/>
	<path class="st187" d="M68.5,79.2c-0.6,3-2.5,5.3-4.1,7.8c-1.8,2.7-3.2,5.6-3.3,8.9c-0.1,2.9,0.9,5,4.1,5.4
		c1.3-0.3,2.6-0.3,3.9,0.1c3.1,1.1-0.5,3,0.6,4.3c0.4,0.6,0.8,1.1,1.2,1.8c0.5,1,1.1,2,1.5,3c0.3,0.9,0.3,1.9,0.4,2.9
		c0,0.4,0,0.8,0,1.2c0,1.4,0,2.8-0.2,4.2c-0.1,0.4-0.3,0.8-0.5,1.1c-0.5,0.5-1.1,0.6-1.8,0.4c-0.4-0.2-0.7-0.5-0.8-0.9
		c-0.6-1.6-0.4-3.3-0.4-4.9c0.8-4.7-2.8-6.7-5.6-9.3c-0.8-1.9-1.8-3.4-4-3.9c-1.1,0.3-1.3-0.5-1.5-1.2c0-0.4,0-0.9,0-1.3
		c-0.5-0.4-0.6-1-0.4-1.6c1.3-1.5,0.8-3.2,0.5-4.9c-0.2-1,0.2-1.7,0.7-2.5c2.3,0.4,1,1.9,1.1,3.2c0.7-4.9,3.3-8.8,6.1-12.5
		c0.5-0.5,1-0.9,1.6-1.4C67.8,78.8,68.1,78.8,68.5,79.2L68.5,79.2z"/>
	<path class="st188" d="M65.8,80.6c-1.1,4.5-4.8,7.9-5.7,13.1c-1.1-1.4-0.2-3.1-1.5-3.8c-0.1-1.9,0.5-3.5,1.6-5
		c0.8,0.8,1.4,0.7,1.6-0.4c0.2-1.2,0.1-2.4,0.1-3.6c0.5-1.3,1.3-1.6,2.5-1C64.5,81,65.2,80.7,65.8,80.6z"/>
	<path class="st180" d="M119,70.3c0.1-1.7-2.2-3.1-0.6-5c1,0.6,0.8,2.2,2.2,2.6c0.9,1.8,1.8,3.5,2.7,5.3c0.2,1.4,1.2,3.3-0.6,3.8
		c-2.2,0.6-2.7-1.6-3.3-3.2C118.8,72.7,119,71.5,119,70.3z"/>
	<path class="st189" d="M79,53.9c1.9,0.2,3.3-0.9,4.9-1.6c2.6,0.7,6.4-0.5,6.5,4.1c-0.3,0.3-0.7,0.3-1,0.1c-0.7-0.4-1.4-0.6-2.2-0.6
		c-2.4-0.2-4.9-0.3-7.3,0.3c-1.2,0.3-2.4,0.5-3.4-0.7C77.4,55,78.2,54.4,79,53.9z"/>
	<path class="st190" d="M109.4,50.7c3.5,0.8,6.8,2.4,10.5,2.6c-1.8,1.3-3.8,0.4-5.7,0.7c-0.6-0.5-1.1-0.1-1.7,0
		c-1.6-0.8-3.3-1.6-4.9-2.4C107.5,50,108.4,50.3,109.4,50.7z"/>
	<path class="st191" d="M76.6,55.5c4.1-0.2,8.1-1.4,12.2-0.6c-0.4,2.4-2.5,1.1-3.7,1.7c-0.4,0.1-0.8,0.2-1.1,0c-0.3,0-0.6,0-0.9,0
		c-2.2-0.2-4.8,1.5-6.6-1L76.6,55.5z"/>
	<path class="st192" d="M109.4,50.7c-0.7,0.1-1.4,0.2-1.8,0.9c-2.6-1-5.3-1.9-7.4-4C103.5,48,106.4,49.3,109.4,50.7z"/>
	<path class="st193" d="M87.8,71.2c-2-0.3-0.7,2.3-2.2,2.4c-0.9,0.3-1.1-0.1-0.9-0.9c1.1-1.7-0.7-3-0.9-5.2c1.9,1.1,3.4,2,4.9,2.9
		C88.8,71.1,88.7,71.6,87.8,71.2z"/>
	<path class="st194" d="M87.8,71.2c0.3-0.3,0.7-0.5,1-0.8c1.3-0.1,1.6,2,3.2,1.4c0.9,0.3,1.5,1,1.8,1.8
		C91.2,74.4,89.5,72.9,87.8,71.2z"/>
	<path class="st195" d="M77.4,79.2c-0.2,0.1-0.5,0.1-0.7,0.1c-0.7,0.4-0.2,1.8-1.4,1.7c0,0-0.3-0.1-0.3-0.1c0.8-1.9-1-3.5-0.6-5.3
		c1.5-0.5,1.9,1.3,3.1,1.4C77.1,77.7,76.6,78.4,77.4,79.2z"/>
	<path class="st196" d="M84.7,72.7c0.3,0.3,0.6,0.6,0.9,0.9c-1.2,1.3-3.8,0.5-4.2,2.9c-1.3-1-0.6-2.5-0.7-3.7c0.2-0.3,0.4-0.3,0.6,0
		C82.5,73.8,83.6,72.9,84.7,72.7z"/>
	<path class="st197" d="M85.7,48.1c0.1-0.5,0.1-0.9,0.2-1.4c0.9-1.1,2-0.9,3-0.3c0.6,0.2,1.6,0.3,1.7,0.6c0.3,1-0.5,1.2-1.4,1.1
		C88,48.2,86.8,48.2,85.7,48.1z"/>
	<path class="st198" d="M79,70.4c-0.8-0.6-1.6-1.2-2.4-1.8c-0.3-0.8,0-1.4,0.5-2c0.7-0.8-0.2-2.8,1.8-2.7l0.2-0.1
		c0.7,1.8,0.2,3.6,0.3,5.4C79.5,69.6,79.3,70,79,70.4z"/>
	<path class="st199" d="M77.4,79.2c-1.2-0.7-1.1-1.5,0-2.2c1.2-0.1,2.4-0.1,3.6-0.2C80.2,78.3,79.3,79.5,77.4,79.2z"/>
	<path class="st200" d="M64.4,80c-1.1-0.4-1.6,0.6-2.5,1c-1.2-0.7-0.9-1.6-0.4-2.6C63.3,77.3,64,78.3,64.4,80z"/>
	<path class="st201" d="M67.6,72.7c0.8,0.1,2.1-0.4,2.2,0.8c0.1,1.2-1.7,0.9-2.2,1.8c-0.6,0.3-1.2,0.4-1.8,0
		C64.9,73.4,66.7,73.4,67.6,72.7z"/>
	<path class="st202" d="M90.1,60.8c-0.9,1.4-1.6,2.3-3.1,1.8c-0.2-0.1-0.5-0.7-0.4-1C87.3,60.1,88.6,60.5,90.1,60.8z"/>
	<path class="st203" d="M63.7,67.8c-0.6-1.4,1.5-2.4,0.8-3.8c0.1-0.5,0.3-0.6,0.7-0.3C66.7,65.8,65.5,67,63.7,67.8z"/>
	<path class="st189" d="M76.5,55.6c1.9,2.5,4.5,0.4,6.6,1c-1.9,1.3-4,0.6-6.1,0.6C76.1,57.2,75.7,56.5,76.5,55.6z"/>
	<path class="st204" d="M115,60.5c-1.3-0.1-2.5-0.6-3.3-1.6c0.4-0.6,1.1-0.3,1.6-0.6c0.6,0,1.1-0.1,1.7-0.1c0.3,0.1,0.5,0.3,0.6,0.6
		c0.2,0.4,0.4,0.8,0.4,1.3C115.8,60.5,115.6,60.8,115,60.5z"/>
	<path class="st205" d="M70.1,66c2.2-1,4.4-0.8,6.5,0.2c0.3,0.4,0.3,0.7-0.1,1.1c-0.6,0.3-1.2,0.2-1.8,0
		C73.2,66.6,71.2,67.8,70.1,66z"/>
	<path class="st206" d="M70.1,66c1.6,0.7,3.5-0.4,5,0.9c-1.1,1.3-2.9,0-4.1,0.9c-0.7,0.1-1.4-0.1-1.7-0.7
		C68.9,66.3,69.6,66.2,70.1,66z"/>
	<path class="st207" d="M70.9,67.8c1.1-1.5,2.8-0.4,4.1-0.9c0.5,0,1,0,1.5,0.1c0.3-0.2,0.5-0.3,0.8-0.1c0,0.2,0,0.3-0.1,0.5
		c-0.3,0.4-0.5,0.8-0.8,1.3C74.8,67.7,72.8,68,70.9,67.8z"/>
	<path class="st208" d="M88.9,46.5c-1,0.1-2,0.2-3,0.3c-0.7-0.2-1.6-0.2-2-1.1c0.3-0.8,1-0.8,1.7-0.7c1.2-0.3,2.3,0.2,3.3,0.8
		C88.8,46,88.8,46.3,88.9,46.5z"/>
	<path class="st209" d="M91.3,66c-1.4,0.5-2.2,0.2-1.6-1.5c1.2-0.5,2.5-0.2,3.7-0.2c0.4,0.1,0.7,0.4,0.7,0.9
		C93.4,66.3,92.1,65.5,91.3,66z"/>
	<path class="st210" d="M78.9,63.9c-1.3,0.8-0.3,2.6-1.5,3.4c0,0-0.1-0.2-0.1-0.2l0.2-0.2c-0.4-1.6-1-3.2,0.3-4.7
		C78.6,62.4,79.1,62.9,78.9,63.9z"/>
	<path class="st211" d="M67.6,72.7c-0.3,1.1-2.2,0.9-1.8,2.5c-0.1,0.4-0.4,0.6-0.7,0.7C63.4,72.9,65.6,72.9,67.6,72.7z"/>
	<path class="st212" d="M84,56.6c0.3-0.1,0.5-0.2,0.8-0.3c1.6-0.4,3.2-0.5,4.7,0c0.3,0,0.6,0.1,1,0.1C88.3,57.7,86.1,57.6,84,56.6z"
		/>
	<path class="st213" d="M113.3,58.2c-0.5,0.2-1,0.4-1.6,0.6c-1.3-0.5-2.7-1-4-1.5C109.6,57,111.5,57.3,113.3,58.2z"/>
	<path class="st214" d="M79,70.4c0-0.3,0.1-0.7,0.1-1c0.3-0.2,0.6-0.1,0.7,0.3c0.7,1,1.7,1.8,1.6,3.2l-0.3,0c0,0-0.3,0-0.3,0
		C79.8,72.2,79.5,71.2,79,70.4z"/>
	<path class="st215" d="M79.8,69.6c-0.2-0.1-0.5-0.2-0.7-0.3c0-1.9,0-3.7,0-5.6C80.5,65.6,79.6,67.6,79.8,69.6z"/>
	<path class="st216" d="M88.8,45.8c-1.2,0.1-2.3-0.3-3.3-0.8c0.3-0.3,0.5-0.5,0.8-0.8c0.6,0,1.1,0.1,1.7,0.1
		C88,45,89.7,44.7,88.8,45.8z"/>
	<path class="st189" d="M88.9,50.7c-0.5-0.1-1.2,0.1-1-0.6c0.1-0.3,0.7-0.7,1.1-0.8c0.5-0.1,1.1,0,1.1,0.7
		C90,50.6,89.4,50.6,88.9,50.7z"/>
	<path class="st217" d="M91.3,66c0.6-0.9,1.6-0.5,2.4-0.6c0.3-0.3,0.6-0.3,0.8,0c-0.7,0.1-0.2,3.3-2,0.8
		C92.1,66.2,91.7,66.1,91.3,66z"/>
	<path class="st218" d="M77.7,62.2c-0.1,1.6-0.2,3.2-0.3,4.7c-0.3,0-0.5,0-0.8,0c0-0.2,0-0.5,0-0.7C76.9,64.8,75.9,63.1,77.7,62.2z"
		/>
	<path class="st85" d="M118.2,62.1c-0.2-0.6-0.4-1.2-0.7-1.8c-0.5-0.3-0.7-0.8-0.7-1.3c0.1-0.4,0.2-0.7,0.5-0.9
		C118.5,59.2,119.9,60.3,118.2,62.1z"/>
	<path class="st219" d="M65.1,76c0.2-0.2,0.5-0.5,0.7-0.7c0.6,0,1.2,0.1,1.8,0.1C66.9,76,66.7,78.7,65.1,76z"/>
	<path class="st85" d="M112.5,54c0.5-0.8,1.1-0.8,1.7,0c-0.6,0.5-1.2,1.3-1.7,1.3C111.8,55.2,112.5,54.4,112.5,54z"/>
	<path class="st220" d="M105.1,57.3c-0.8,0-1.5,0-2.3,0c-0.3-0.1-0.6-0.1-0.7-0.2c-0.4-0.4-0.2-0.6,0.2-0.6
		C103.4,56.4,104.5,56.2,105.1,57.3z"/>
	<path class="st221" d="M93.6,64.4c-1.3,0-2.7,0.1-4,0.1c1.1-1.2,2.5-0.6,3.8-0.6c0.2,0.1,0.4,0.1,0.5-0.1
		C94.1,64,94,64.3,93.6,64.4z"/>
	<path class="st222" d="M68.5,79.3c-0.4,0-0.7,0-1.1,0c0.4-0.7-0.3-2.2,1-2C69.4,77.4,68.3,78.5,68.5,79.3z"/>
	<path class="st223" d="M117.3,58.1c0,0.3,0,0.5,0,0.8c-0.2,0.3-0.5,0.4-0.8,0.5c-0.2,0-0.3-0.1-0.5-0.1c-0.3-0.2-0.5-0.4-0.6-0.7
		c0-0.5,0-1,0.5-1.3C116.3,57.6,116.8,57.8,117.3,58.1z"/>
	<path class="st224" d="M115.9,57.3c-0.1,0.5-0.1,1.1-0.2,1.6c-0.2,0.3-0.4,0.3-0.6,0c-0.1-0.2-0.2-0.5-0.1-0.8
		C115.2,57.8,115.6,57.6,115.9,57.3z"/>
	<path class="st225" d="M65.1,63.8c-0.2,0.1-0.4,0.2-0.7,0.3c0,0-0.1-0.3-0.1-0.3c-0.2-0.2-0.3-0.4-0.3-0.6c0-0.3,0.1-0.4,0.1-0.4
		c0-0.2,0.1-0.4,0.2-0.6C65.4,62.3,65.1,63.1,65.1,63.8z"/>
	<path class="st226" d="M52.1,74.4c0.3,0,0.6,0,0.9,0c0,0.8,0,1.6,0.1,2.5c0.5,1.1,0.1,1.8-0.8,2.4c0,0.3-0.1,0.5-0.2,0.8
		C50.4,78.2,52.8,76.3,52.1,74.4z"/>
	<path class="st227" d="M51.2,87.4c-1.1-0.9-0.6-2.1-0.8-3.2c0.1-0.9,0.5-1.6,1.6-1.6C51.7,84.2,51.4,85.8,51.2,87.4z"/>
	<path class="st228" d="M53.9,72.7c0.1-1.4,0.9-2.7,0.5-4.1c0.1-0.2,0.2-0.4,0.2-0.7c0.2-0.1,0.5-0.1,0.7,0c0,3.5,2.3,4.1,5.1,4
		c-0.1,1.1-0.2,2.2-0.4,3.2c-2.2,1.8-2-0.4-2.5-1.5c-0.1-0.3-0.3-0.7-0.5-1C56,72.7,54.9,73.6,53.9,72.7z"/>
	<path class="st118" d="M57.9,72.7c1.7,0-0.5,3.4,2.2,2.5c0.1,1.2,0.1,2.4-0.5,3.5c-0.6-1.9-2.7,0.6-3.3-1.1
		C57.5,76.2,56.5,74.1,57.9,72.7z"/>
	<path class="st124" d="M57.9,100.2c0.5,0.4,1,0.8,1.5,1.2c0.3,1.3,0.6,2.7,0.9,4c-0.4,0.6-0.7,1.3-1.6,0.8
		C58.6,104.2,56.9,102.3,57.9,100.2z"/>
	<path class="st229" d="M58,97.2c0,0.6,0,1.1-0.1,1.7c-0.9,0.4-1.8,0.8-3.2,1.5c0.5-2,0.8-3.6,3-3.9c0.3,0.1,0.5,0.2,0.4,0.4
		C58.1,97.1,58,97.2,58,97.2z"/>
	<path class="st230" d="M57.9,72.7c0.1,1.8,0.9,3.9-1.7,4.8c0.2-1.6-0.3-3.3,0.8-4.8C57.3,72.7,57.6,72.7,57.9,72.7z"/>
	<path class="st231" d="M58.6,106.2c0.5-0.3,1.1-0.5,1.6-0.8c0.3,0.8,1.2,1.7,0.5,2.5c-0.3,0.3-1.4,0-2.1-0.1
		C58.6,107.3,58.6,106.7,58.6,106.2z"/>
	<path class="st232" d="M52.3,79.3c0.3-0.8,0.5-1.6,0.8-2.4c0.3,0.7,0.6,1.4,0.9,2.1c0.2,0.5,0.3,1.1-0.3,1.3
		C52.9,80.6,52.9,79.5,52.3,79.3z"/>
	<path class="st233" d="M58,97.2c-0.1-0.3-0.2-0.5-0.3-0.8c0.1-1.3,0.2-2.7,0.3-4C59,94,59,95.6,58,97.2z"/>
	<path class="st234" d="M62.7,134.8c-0.2-1-0.6-1.9-1.6-2.3c-0.8-1.2-1.6-2.4-2.4-3.6c-1.1-1.9,0.3-2.9,1.6-3.9
		c0.3,0,0.5,0.1,0.8,0.1c2,0.3,2.4,2.6,4,3.4c0.4,0.7,0.9,1.5,1.3,2.2c1.2,0,1.9,1,2.9,1.3c1,0.4,2.1,0.7,3,1.2
		c1.5,0.7,3.2,1.2,4.8,1.5c1,0.3,1.9,0.8,2.7,1.4c3.3,1.3,6.6,1.7,10.2,1.3c3.8-0.4,7.8-1.8,11.2,1.2c0.6,0.8,0.7,1.6,0.4,2.5
		c-0.8,1.8-2.7,2-4.3,2.5c-0.8,0.2-1.6,0.3-2.5,0.2c-0.4,0-0.8-0.1-1.2-0.3c-3.5-0.4-6.9-0.2-10.4-0.1c-0.4,0-0.8-0.1-1.2-0.3
		c-0.4,0.2-0.9,0.4-1.3,0.7c-1.6-1.1-3.7-1.1-5.3-2.3l-0.1,0c-1.7-0.1-3.2-0.6-4.5-1.6c-0.5-0.1-1.1-0.2-1.6-0.2
		c-0.1-1.6-1.4-1.7-2.4-2.2C65.4,136.4,64.5,134.9,62.7,134.8z"/>
	<path class="st235" d="M69.4,126c-2-1.7-4.7-2.6-5.9-5.1c0.2-0.3,0.5-0.5,0.8-0.7c0.8-0.4,1.7-0.7,2.7-0.6c0.6,0.2,1,0.5,1.3,1
		c0.2,0.3,0.4,0.7,0.5,1C69.2,123.1,70.4,124.4,69.4,126z"/>
	<path class="st236" d="M66.8,119.7c-0.6,0.7-1.3,1.2-2.3,1.1c-1.3-0.6-1.6-2.2-2.6-3.1c0-0.6,0-1.2-0.1-1.8c1.1,0,2.1,0,3.2,0
		c0.9,0.4,1.1,1.4,1.5,2.1C66.8,118.7,66.9,119.2,66.8,119.7z"/>
	<path class="st237" d="M69.4,126c-0.6-1.4-1.1-2.9-1.7-4.3c0.8-0.6,0.8-2.3,2.4-1.7l0,0c1,1.1,0.8,2.5,1.5,3.7
		c0.4,0.9,0.8,1.8,0.4,2.9c-0.5,0.7-1.1,1.3-2,0.7C69.8,126.9,69.6,126.4,69.4,126z"/>
	<path class="st238" d="M70.8,131.5c0.8-0.3,0.8-1,0.9-1.7c0.6-0.3,1.4,0.4,1.9-0.2c0.3,0,0.6,0.2,0.9,0.4c0.7,0.8,1.4,1.6,1.7,2.7
		c0.1,0.6,0,1.1-0.5,1.5c-1.2,0.1-2.2-0.2-3.3-0.6C71.8,133,70.5,132.9,70.8,131.5z"/>
	<path class="st239" d="M65,128.4c-2.5,0.3-2.6-2.3-4-3.4c0.2-0.6,0.5-1.1,0.7-1.7C62.8,125.1,63.9,126.8,65,128.4z"/>
	<path class="st240" d="M73.4,129.9c-0.6,1.5-1.2-0.3-1.7-0.1c-0.3-1-1.8-1.2-1.7-2.5c0.5-0.2,1.1-0.3,1.6-0.5
		c0.7-0.1,1.3,0.2,1.7,0.7C73.6,128.3,73.8,129.1,73.4,129.9z"/>
	<path class="st241" d="M61.9,117.8c1.9,0.1,2.2,1.6,2.6,3.1c-0.3,0-0.7,0.1-1,0.1C62.2,120.3,61.7,119.2,61.9,117.8z"/>
	<path class="st242" d="M70.8,131.5c0.6,0.5,1.1,1.1,1.7,1.6c-0.2,0.4-0.5,0.6-0.8,0.7c-0.9-0.3-1.9-0.6-2.5-1.5
		c-0.2-0.2-0.3-0.4-0.2-0.5c0.1-0.2,0.1-0.3,0.2-0.3C69.8,131.5,70.3,131.5,70.8,131.5z"/>
	<path class="st243" d="M69.2,131.5c0,0.3,0,0.5,0,0.8c-1.3,0-2.1-0.7-2.9-1.7C67.7,129.7,68.4,130.7,69.2,131.5z"/>
	<path class="st244" d="M63.4,105.3c5.1,1.8,6.5,3.6,6.7,9c-0.2,0.4-0.5,0.5-0.9,0.4c-1.5-1-2.8-2.2-4.1-3.5c-0.1-0.2-0.1-0.4,0-0.6
		C63.9,109,63.5,107.2,63.4,105.3L63.4,105.3z"/>
	<path class="st245" d="M65.1,111.1c2.2-0.2,3.1,1.6,4.3,3c0.1,2.4,0.9,5.1-1.7,6.8c-0.3-0.4-0.6-0.8-0.9-1.1
		c-0.3-0.5-0.6-0.9-0.9-1.4c0.3-2-0.5-3.8-0.7-5.7C65.2,112.1,65.2,111.6,65.1,111.1z"/>
	<path class="st246" d="M65.2,112.6c1,1.8,2.6,3.5,0.7,5.7c-1.1-0.5-0.4-1.6-0.9-2.3c0.3-1-0.5-1.6-0.8-2.5
		C64.5,113.2,64.9,112.9,65.2,112.6z"/>
	<path class="st247" d="M63.4,105.3c1.2,1.5,1.2,3.4,1.7,5.2C63.1,109.2,62.1,107.7,63.4,105.3z"/>
	<path class="st248" d="M60.3,125c-0.5,1.3-1.1,2.6-1.6,3.9c-0.3,0-0.6,0-0.8,0c-0.1-0.1-0.1-0.3,0-0.4c-0.4-1.4-1.9-2.8-0.1-4.3
		c0.3-0.3,0.6-0.6,0.9-0.9C59.2,123.8,59.7,124.4,60.3,125z"/>
	<path class="st249" d="M64.2,62.7c0.1,0.3,0.1,0.7,0.2,1c-0.3-0.3-0.6-0.5-0.9-0.8C63.7,62.8,63.9,62.7,64.2,62.7z"/>
	<path class="st250" d="M57.7,124.2c-0.9,1.5,0.5,2.9,0.1,4.3c-1.5-1.1-1.7-2.7-1.7-4.3c0.3,0,0.6,0,0.9-0.1
		C57.3,124.2,57.5,124.2,57.7,124.2z"/>
	<path class="st251" d="M82.1,143c0.4-0.1,0.7-0.1,1.1-0.2c0.6-0.3,1.2-0.3,1.8-0.1c2.6,0.3,5.2,0.4,7.8,0c0.6-0.2,1.2-0.2,1.8,0.1
		l0,0.3c0.5,0.6,1.9-0.1,1.7,1.3c-1.6,1.3-3.3,0.4-4.9,0.3C88.3,143.9,84.7,146,82.1,143z"/>
	<path class="st252" d="M91.3,144.7c1.7-0.4,3.5,0.2,5-0.9c0.3-0.3,0.6-0.3,0.9-0.1c0.8,0.8,1.4,1.7,1.9,2.7
		c0.4,1.2,0.5,2.5,0.7,3.8c0,0.4-0.1,0.7-0.4,1c-3-0.1-0.7-3.1-2.3-4c-0.6-1.1-1.7-0.8-2.7-1C93.8,144.9,92.1,145.9,91.3,144.7z"/>
	<path class="st253" d="M75.5,141.3c1.8,0.7,4.3-0.3,5.3,2.3C78.8,143.3,76.4,143.9,75.5,141.3z"/>
	<path class="st254" d="M70.8,139.7c1.7,0.1,3.2,0.7,4.5,1.6C73.2,142.5,71.7,141.8,70.8,139.7z"/>
	<path class="st255" d="M99.4,151.1c0-0.3,0-0.5-0.1-0.8c-0.6-1.2-0.2-2.5-0.3-3.7c-0.1-0.4,0-0.8,0.2-1.2c1.1-0.4,1.4,0.5,1.8,1.2
		c0.4,1.7,1.2,3.4,1.3,5.2c-0.1,0.4-0.3,0.7-0.6,1c0,0,0.1,0,0.1,0C100.7,152.8,100.1,151.9,99.4,151.1z"/>
	<path class="st256" d="M101.8,152.8c0.1-0.3,0.3-0.6,0.4-0.9c-0.2-1.3,0.2-2.5,1.2-3.5c1-0.6,2.1-1.2,2.6-2.4
		c0.2-0.3,0.4-0.6,0.7-0.8c0.3-0.2,0.7-0.2,1-0.1c0.5,0,1,0,1.6,0c0.1,0.9,0.1,1.9,0.2,2.8c-0.6,1.3-1.3,2.7-1.9,4
		C105.7,153,103.8,152.8,101.8,152.8z"/>
	<path class="st257" d="M103.5,149.1c-0.4,0.9-0.9,1.9-1.3,2.8c-1.8-1-1.4-3-1.9-4.6c0.5-1.7-0.2-3.8,1.8-4.9c0.2,0,0.4-0.1,0.5-0.1
		c2.5-1.7,4.3-1.2,5.6,1.5C105.6,144.4,103.6,145.8,103.5,149.1z"/>
	<path class="st258" d="M103.5,149.1c-1.3-4.2,0.1-5.7,4.9-5.3c-0.2,0.5-0.5,0.9-0.7,1.4c-0.3,0.1-0.6,0.3-0.9,0.4
		c-0.2,0.2-0.3,0.3-0.2,0.5c0.1,0.2,0.1,0.3,0.2,0.3C107.1,148.8,105,148.6,103.5,149.1z"/>
	<path class="st259" d="M105.9,136.4c0.4,0.5,0.7,1,1.1,1.5c-0.4,0-0.8,0.1-1.1,0.1c-0.7,0.6-1.7,0.1-2.4,0.8
		c-0.3,0.3-0.5,0.5-0.8,0.8c-1-0.4-1.4-1.1-1.3-2.1C102.6,135.6,104,135,105.9,136.4z"/>
	<path class="st260" d="M96.8,142.8c1.4-0.5,2.8-1,4.2-1.6c0.5-0.4,1-0.5,1.6-0.1c0,0.3,0.1,0.7,0.1,1c0,0,0,0,0,0
		c-1.1,0.2-1.2,1.6-2.2,1.9c-0.7-0.7-1.4,0.1-2.1,0C97.8,143.8,97.2,143.4,96.8,142.8z"/>
	<path class="st261" d="M103.5,138.8c0.2-2.2,1.5-1,2.4-0.8C105.9,140.6,104.7,139.6,103.5,138.8z"/>
	<path class="st262" d="M102.6,141.2c-0.5,0-1.1,0.1-1.6,0.1c0-0.8,0-1.6,0-2.4c-0.2-0.7,0.1-0.9,0.8-0.8c0.3,0.6,0.6,1.1,1,1.7
		C102.7,140.2,102.7,140.7,102.6,141.2z"/>
	<path class="st263" d="M102,186.1c-1.4,0-2.8,0.1-4.2,0.1c0.1-0.2,0.1-0.4,0.2-0.6C99.4,185.4,100.8,184.9,102,186.1z"/>
	<path class="st264" d="M119,70.3c1.2,0.8,0.6,2.2,1.2,3.2c0.6,1,0.2,3.1,2.1,2.8c1.4-0.3,0.6-2,0.9-3.1c1.6,2.2,2.2,4.5,0.6,6.9
		c-0.8-0.3-1.5-0.6-2.3-0.8c-3.4-1.8-2.9-5.2-3.3-8.2C118.5,70.8,118.8,70.6,119,70.3z"/>
	<path class="st265" d="M80.7,85c2.1-2.3,5.1-3.3,7.7-5c2.9-2,5.8-0.4,8.6,0.8c0.2,0.3,0.4,0.6,0.4,1c0,0.8-0.1,1.6,0.8,2.1
		c0.9,0.6,2.5,1.2,1.9,2.6c-0.7,1.3-2.3,1-3.6,0.9c-0.9-0.1-1.9-0.2-2.7-0.6c-0.6-0.2,0-1.4-0.8-1.2c-0.6,0.2,0.1,0.8,0.2,1.2
		c-0.5,1.3-1.6,1.3-2.7,1.3c-0.3,0.3-0.5,0.5-0.8,0.8c-0.5,1.1-0.5,2.5-1.6,3.3c-0.5,0.9-1,1.8-1.8,3.2c-0.8-1.7-1.8-3-3.4-3.4
		c-1.1,0.9,0.1,2.7-1.3,3.5c-0.7-0.3-0.4-1.2-0.8-1.7c-0.8-2,1.3-3.9,0.1-6C80.7,87,79.8,86,80.7,85z"/>
	<path class="st266" d="M94.6,94c1.8,3.2,4.6,4.3,8.2,4.1c5.2-0.3,10.3,0.2,14.9,3c3.2,1.9,5.5,4.6,6.4,8.5c-1.4,0-1.7-0.9-1.9-1.5
		c-2.9-6.9-9-7.9-15.4-8.3c-3.2-0.2-6.5,0.7-9.6-1.1c-0.6-0.4-1.4-0.4-1.6,0.5c-2.2,7.4-6.6,14.4-4.9,22.6c0.5,2.1,1.7,4.1,2.2,6.4
		c-2.9-1.4-3.6-4.3-3.9-7c-0.6-5.3-0.3-10.6,2.3-15.5c2.6-4.9,4-9.8,0.2-14.8c-0.3-0.4-0.1-1.1-0.1-1.6C94.1,89.6,95.2,91.2,94.6,94
		z"/>
	<path class="st267" d="M94.6,94c-0.6-2-1.6-3.7-3.3-4.9c-0.3-0.3-0.6-0.6-0.8-0.8c0.8-0.5,1.6-1.1,2.4-1.6c0.2-0.3,0.5-0.3,0.8-0.1
		c1.9-0.9,4,0.9,6-0.4c-0.2-1.9-5.7-0.7-2.7-4.5c1.9,0,3.8,0,5.7,0c1.6-0.3,3.3,0.5,4.9,0c0.3,0,0.6,0.1,0.9,0.1
		c1.5,1.6,4.1,0.8,5.6,2.3c0.6,0.1,1.1,0.1,1.7,0.2c-1.1,3-4.4-0.1-5.9,2.1c-0.1,0.1-1.3,0.3-1.5,0.8c-1.8,3.2-3.7,1.4-5-0.2
		c-0.7-0.9-1.4-1.2-1.5-0.4C101,90.8,95.8,90.5,94.6,94z"/>
	<path class="st268" d="M73.4,129.9c-0.8-0.7-0.9-1.5-0.2-2.4c0-0.2,0-0.3,0-0.5c0.1-0.3,0.2-0.6,0.3-0.9c0.2-0.3,0.4-0.5,0.6-0.7
		c0.4-0.3,0.8-0.6,1.2-0.9c0.8-1.1,1.7-1.9,3-0.6c0.7,0.6,1,1.7,2.2,1.6c0.3,0,0.6,0.1,0.9,0.3c3.2,2.6,6.5,4.8,10.6,5.8
		c0.1,0.9-0.4,1.2-1,1.5c-1.7,0.6-3.5,0.3-5.3,0.4c-2.4,0.1-4.7-0.2-6.9-0.9c-0.4-0.1-0.8-0.2-1.2-0.3c-1.3-0.5-2.5-1.2-3.4-2.3
		C74,129.9,73.7,129.9,73.4,129.9z"/>
	<path class="st269" d="M79,107c-0.5,4.4-0.6,8.8,0.8,13.1c-0.4,0.8-1,1.3-1.9,0.8c-1.9-1.9-1.1-4.5-1.9-6.7c-0.3-0.7-0.6-1.4-1-2.1
		c-1-2.3-2.4-4.5-2-7.2c0.2-0.4,0.5-0.6,0.9-0.7c0.4,0,0.8,0,1.2,0.2c0.3,0.2,0.5,0.5,0.7,0.9c1.1,0-0.7,3.3,1.8,1.5
		C78.1,106.5,78.6,106.6,79,107z"/>
	<path class="st270" d="M79,107c-0.5,0-0.9,0-1.4,0c-0.8-0.9-0.4-1.9-0.4-2.9c0.2-1.9,0.9-3.6,1.7-5.2c1.3-1.4,0.4-3.5,1.8-4.9
		c0.7,0.4,0.8,1,0.8,1.7C81.5,99.6,79.4,103.1,79,107z"/>
	<path class="st271" d="M99.4,108.7c-0.8,0.2-1.5,1.2-2.8,0.4c1.8-3.2,4.8-3.8,8-4.1c0.3,1.6-1.2,1.5-1.9,2.1
		C101.7,107.8,100.5,108.1,99.4,108.7z"/>
	<path class="st272" d="M91.6,132.5c0.5-0.1,0.7-0.5,0.5-1c0.8,0,1.6,0,2.3,0.1c0.9,0.5,1.5,1.1,1.1,2.2c-1.2,1.5-2.9,1.2-4.4,1.3
		c-2.1,0-4.2,0.1-6.2-0.1c-0.7-0.1-1.4-0.3-1.9-0.9c0-2,1.5-1.1,2.5-1.3C87.6,132.7,89.6,133,91.6,132.5z"/>
	<path class="st273" d="M104.3,129.8c2.8-0.8,4.9-3.7,8.2-3.2c0.5,0.5,0.4,1,0.1,1.6c-0.8,0.5-1.5,1.1-2.3,1.6
		c-1.6,0.6-3.1,1.3-4.9,1.2C104.8,130.8,104.4,130.5,104.3,129.8z"/>
	<path class="st274" d="M119.9,84.9c0.3,0.1,0.5,0.1,0.8,0.1c0.9,0.7,2,1.2,2.4,2.4c0.8,1.1,1.7,2.2,2.5,3.2
		c-2.5-0.2-3.7-2.5-5.8-3.4C118.6,86.8,119.7,85.7,119.9,84.9z"/>
	<path class="st275" d="M95.4,133.1c-0.3-0.5-0.6-1-0.8-1.6c2.2-0.3,4.4-0.6,6.6-0.9c0.5,0.4,1.2,0.7,0.9,1.5
		C100,134,97.8,134.9,95.4,133.1z"/>
	<path class="st276" d="M78.4,120.9c0.5-0.3,0.9-0.5,1.4-0.8c0.5,1.9,2.8,3.3,1.8,5.7c-0.3-0.1-0.5-0.2-0.8-0.3
		c-1.1-0.3-1.6-1.3-2.3-2.1C78.2,122.5,77.6,121.7,78.4,120.9z"/>
	<path class="st267" d="M88,92.3c0.1-1.3,0.6-2.4,1.6-3.3c0.8,0.9,0.3,2.1,0.2,3C89.7,95.2,88.7,92.3,88,92.3z"/>
	<path class="st277" d="M101.9,131.5c-0.3-0.3-0.6-0.6-0.9-0.8c1.1-0.3,2.1-0.6,3.2-0.9c0.3,0.2,0.6,0.5,0.9,0.7
		C104.5,132.2,103.4,132.5,101.9,131.5z"/>
	<path class="st278" d="M99.4,108.7c0.6-1.5,1.9-1.7,3.3-1.6C102,108.3,101.3,109.7,99.4,108.7z"/>
	<path class="st279" d="M112.6,128.2c0-0.5-0.1-1.1-0.1-1.6c0.3-0.2,0.6-0.3,0.9-0.5c0.3,0,0.5-0.1,0.8-0.2l0.2,0.3l-0.3,0.3
		c-0.3,0.5-0.6,1.1-0.9,1.6c-0.1,0.1-0.2,0.2-0.3,0.3C112.8,128.4,112.7,128.3,112.6,128.2z"/>
	<path class="st280" d="M101.9,131.5c1.2,0.2,2.2-0.5,3.2-1c1.6-0.4,3-1.6,4.8-1.4c0.7,1.1-0.1,1.6-0.7,2.3
		c-0.6,0.2-1.4,0.1-1.7,0.9c-0.7,1.1-1.8,1.6-3,1.8c-1.2,0.1-2.3,0.4-3.5,0.8c-2,0.4-3.9,1-5.8,1.5c-0.8,0.2-1.6,0.3-2.5,0.3
		c-3.3,0.1-6.6-0.1-9.9,0.2c-0.4,0.1-0.8,0.1-1.2,0c-1.5-0.3-2.6-1.5-4.2-1.8c-0.7-0.3-1.4-0.4-1.7-1.3c0-0.5,0-0.9,0-1.4
		c0.5-0.8,1.2-1,2.1-0.9l-0.1,0c1.6,1.2,3.8,1,5.4,2.3c0.5,0.1,1.1,0.2,1.6,0.3c2.2,0.4,4.3,0.4,6.5,0c1.3-0.5,3,0.3,4.1-1
		C97.7,133.2,99.9,132.9,101.9,131.5z"/>
	<path class="st281" d="M104.2,133.3c1.1-0.4,2.2-0.7,3.4-1.1c1.9,2.3-1.7,2.6-1.6,4.2c-1.7-0.2-3.3-0.3-4.1,1.6
		c-0.3,0.3-0.5,0.6-0.8,0.8c-4-1.2-8-0.8-12.1-0.3c-3.3,0.4-7.1,0.7-9.9-2.1c0.8-0.8,1.7-0.6,2.5-0.1l-0.1,0c4.1,0.2,8.1,0,12.2,0.1
		c1.3,0.2,2.4-0.6,3.6-0.8c1.5-0.1,2.8-0.9,4.2-1.1C102.3,134,103.4,134.1,104.2,133.3z"/>
	<path class="st282" d="M109.2,131.4c0.2-0.8,0.5-1.5,0.7-2.3c0.9-0.3,1.8-0.6,2.7-0.9c0,0-0.1,0-0.1,0c0.2,0.2,0.2,0.3,0.2,0.5
		c0,0.2-0.1,0.3-0.1,0.3C111.6,129.9,111.2,131.8,109.2,131.4z"/>
	<path class="st283" d="M128.9,112.4c0.8,0,1.3,0.4,1.3,0.9c0.1,0.8-0.6,0.6-1.1,0.6c-0.3,0-0.6-0.2-1-0.4
		C128.4,113.1,128.7,112.7,128.9,112.4z"/>
	<path class="st284" d="M114.2,126.6c0.1-0.2,0.1-0.4,0-0.6c0.3,0,0.5-0.1,0.8-0.1C114.7,126.1,114.4,126.4,114.2,126.6z"/>
	<path class="st285" d="M112.6,129c0-0.2,0-0.5-0.1-0.7c0.2,0,0.5,0,0.7,0C113.3,128.7,113,129,112.6,129z"/>
	<path class="st286" d="M123.1,87.4c-1-0.6-2.2-1-2.4-2.4c1.4-0.1,2.4,0.7,3.2,1.7C123.6,87,123.4,87.2,123.1,87.4z"/>
	<path class="st287" d="M118.2,71.1c1.5,2.6,1,5.9,3.3,8.2c0.4,1.1,0.5,2-1.1,1c-2.1-1.4-1.8-4-3-5.9
		C117.5,73.2,117.1,72,118.2,71.1z"/>
	<path class="st288" d="M95.4,74.3c0.8-1.2,2.3-0.3,3.4-1.1c-0.4-1.6-2-3.2,0.1-5.3c0.4,2.7,1.3,4.9,3,6.5c-0.1,0.5-0.5,0.6-0.8,0.8
		C99.1,75.1,97.1,75.7,95.4,74.3z"/>
	<path class="st289" d="M78.9,98.8c0.6,2-0.9,3.7-0.8,5.7c-1,0.1-1.9,1-3,0.8c-0.1-0.2-0.2-0.5-0.3-0.7c-0.7-1.2-0.9-2.3,0.2-3.3
		C76.7,101,77,98.7,78.9,98.8z"/>
	<path class="st290" d="M102.7,82.5c-1.9-0.2-4,0.8-5.8-0.8c0-0.3,0-0.6,0-0.9c3.3,0.4,6.7-0.3,9.9,0.9
		C105.7,82.7,104,81.5,102.7,82.5z"/>
	<path class="st291" d="M75,96.4c-2.2-2.7,0.8-5.5,0-8.2c0.7-0.7,0.2-1.7,0.6-2.5c0.3-0.2,0.6-0.2,0.9,0c0,1.1,1.1,2.2,0,3.2
		c0.2,1.4,0.1,2.7,0,4.1C76.2,94,76,95,75.2,95.6C75.1,95.9,75.1,96.2,75,96.4z"/>
	<path class="st292" d="M75.9,93.2c0-1.4-0.8-2.9,0.6-4.1c0.6,0.3,2.2-0.1,1.6,0.7c-1,1.4,0,3.2-1.5,4.3
		C76.3,93.8,76,93.5,75.9,93.2z"/>
	<path class="st293" d="M114.1,84.2c-1.9-0.7-4.4,0.1-5.6-2.3C110.4,82.5,113,81.5,114.1,84.2z"/>
	<path class="st294" d="M74.2,104.6c-0.3,0-0.5,0-0.8,0c-1.6-1.9-1.3-3.9-0.6-6c0.2-0.2,0.3-0.3,0.5-0.5c0.3,0,0.7-0.1,1-0.1
		c1,0.7,0.5,1.6,0.5,2.5C74.1,101.8,75,103.3,74.2,104.6z"/>
	<path class="st295" d="M76.5,85.8c-0.2,0-0.5,0-0.7,0c-1-1.2,0.2-2.9-0.8-4.1c0-0.3,0.1-0.5,0.2-0.7c0.5-0.6,1-1.1,1.4-1.7
		C76.6,81.4,76.5,83.6,76.5,85.8z"/>
	<path class="st296" d="M101.1,75.1c0.3-0.3,0.6-0.5,0.8-0.8c1.1,0.6,2.4,1,3.1,2.2C103.4,77,102.3,75.9,101.1,75.1z"/>
	<path class="st297" d="M75.9,93.2c0.2,0.3,0.4,0.5,0.7,0.8c0,1.1,0,2.1,0,3.2c-1.2,0.1-0.6-1.3-1.4-1.5
		C75.4,94.8,75.7,94,75.9,93.2z"/>
	<path class="st298" d="M80.7,85c-0.7,1,1.4,2,0.1,3c-0.1,0.2-0.1,0.5-0.3,0.7c-0.3,0.4-0.7,0.4-0.7-0.1C79.9,87.4,79.4,86,80.7,85z
		"/>
	<path class="st299" d="M102.7,82.5c1.2-1.3,2.8-0.5,4.2-0.8c0.2-0.1,0.5-0.1,0.7,0.1C106.2,83.3,104.4,82.3,102.7,82.5z"/>
	<path class="st300" d="M74.2,104.6c0.1-1.4-0.5-2.9,0.6-4.1c0.1,0.3,0.2,0.5,0.3,0.8c-0.1,1.1-0.2,2.2-0.2,3.3
		C74.6,104.6,74.4,104.6,74.2,104.6z"/>
	<path class="st301" d="M112.5,67.8c1.2,0.9,0.6,1.9,0.2,2.9c-0.2,0.5-0.9,1.2-0.2,1.8c0.6,0.4,2.1-1.2,2,0.6
		c-0.1,1.4-1.9,1.4-2.9,1.7c-3.6,1-6.4-0.8-8.5-3.3c-1.5-1.8-0.9-4.2,0.5-6c1.5-1.8,3.5-2.4,5.6-0.9c0,0.5-1.6,0.3-0.4,1.2
		c0.3,1.5,1.2,2.3,2.6,2.5C112.3,69.5,112,67.7,112.5,67.8z"/>
	<path class="st302" d="M116.6,58.9c0.2,0,0.4,0,0.7,0c0.1,0.5,0.2,1,0.2,1.4c-0.1,1.2-0.3,2.3-0.5,3.8c-1.5-0.8-1.8-2.2-2.1-3.6
		c0.3-0.3,0.5-0.6,0.8-0.8c0.1-0.1,0.1-0.3,0.2-0.4C116.2,59.2,116.4,59,116.6,58.9z"/>
	<path class="st303" d="M104.8,60.2c-1.3,1.4-2.9,2-4.6,2.6C101.6,60.7,101.6,60.7,104.8,60.2z"/>
	<path class="st230" d="M108.6,65.5c-0.1-0.2-0.3-0.4-0.4-0.6c0.4-0.1,0.7-0.2,1.1-0.3c0.8,0.6,1.6,1.1,2.4,1.7
		c-0.3,0.5-0.5,1-1.2,1.1C109.4,67.2,108.9,66.5,108.6,65.5z"/>
	<path class="st304" d="M110.8,61.2c-0.3,0.2-0.7,0.4-0.7,0.3c-0.2-0.3-0.6-0.6-0.6-0.9c0-0.5,0.5-0.7,0.8-0.4
		C110.6,60.3,110.7,60.8,110.8,61.2z"/>
	<path class="st305" d="M110.9,67c0.3-0.3,0.5-0.6,0.8-0.8c0.3,0.5,0.6,1.1,0.9,1.6c-0.1,0.4-0.2,0.7-0.3,1.1
		c-0.2-0.1-0.4-0.3-0.6-0.4C110.9,68.2,110.5,67.8,110.9,67z"/>
	<path class="st306" d="M93.6,64.4c0-0.3,0.1-0.5,0.3-0.6c0.6,0.3,1.4,0.5,1.6,0.9c0.3,0.7-0.5,0.6-1,0.7c-0.3,0-0.6,0-0.8,0
		C93.7,65,93.7,64.7,93.6,64.4z"/>
	<path class="st307" d="M71.7,93.1c2.9,0.9,1.1,3.3,1.6,4.9c0,0,0,0,0,0c-0.9,1.2-1.4,2.8-3.1,3.2c-1.7,0-3.5,0.5-5.1-0.7
		c-1.9-2.5-3.4-5.1-1.9-8.5c0.8-1.8,2.2-2.7,4-2.9c2-0.2,3.2,1,3.6,3C70.5,93,70.5,93.6,71.7,93.1z"/>
	<path class="st308" d="M65.2,100.5c1.9,0,3.8,0,5.7,0c0.2,0.2,0.2,0.4,0.2,0.6c0,0.2,0,0.3-0.1,0.3c-0.4,0.6-1.3,0.2-1.8,0.7
		c-1.4-0.2-2.9,0.6-4.1-0.8C65.2,101,65.2,100.8,65.2,100.5z"/>
	<path class="st309" d="M71.7,93.1c-0.1,0.8-0.1,1.5-0.2,2.4c-1.7-0.8-2.6-1.9-2-3.7c0,0,0.9,0.2,1.4,0.3
		C71.1,92.5,71.4,92.8,71.7,93.1z"/>
	<path class="st310" d="M75,81.7c1.4,1.1,0.6,2.7,0.8,4.1c-0.1,0.9,0.1,1.9-0.8,2.5C75,86.1,75,83.9,75,81.7z"/>
	<path class="st311" d="M70.9,101.3c0-0.3,0-0.6,0-0.8c0.6-1.1,1.4-1.9,2.5-2.4c0,2.2,0,4.4,0,6.5c0.8,2.5,1.6,4.9,2.4,7.4
		c-0.7,1.9-1.9,2.8-4,1.8c0-1.1-0.1-2.3-0.1-3.4c-0.2-1-0.1-2.2-1.6-2.5c-0.3-0.5-0.6-1.1-0.8-1.6C68.2,104.1,71.7,103.4,70.9,101.3
		z"/>
	<path class="st312" d="M71.8,113.7c1.7,0.2,2.9-0.7,4-1.8c0.3,0.5,0.6,1.1,0.8,1.6c-0.1,3.3,0.7,6.7-0.4,10c-2.3,1-2.7,0.8-4.8-2.3
		c-0.1-0.4,0-0.9,0.2-1.2c-0.1-0.3-0.1-0.5,0.1-0.8c0.6-1.6,0.5-3.2,0.1-4.8C71.8,114.2,71.7,114,71.8,113.7z"/>
	<path class="st104" d="M70.9,101.3c2,2.5-1.7,3.1-1.6,4.9c-0.4-0.9-4.4-1.6-0.1-2.6c0.9-0.2,0.7-0.9,0.1-1.5
		C69.6,101.5,70.2,101.3,70.9,101.3z"/>
	<path class="st313" d="M67.7,120.9c1.2-2.1,1.5-4.4,1.7-6.8c0.2,0,0.5,0.1,0.7,0.2c0,1.9,0,3.8,0,5.7c-0.9,0.5-1.2,1.7-2.4,1.7
		C67.7,121.5,67.7,121.2,67.7,120.9z"/>
	<path class="st314" d="M70.1,107.8c3.3-1,2.3,0.9,1.6,2.5C71.1,109.5,70.6,108.7,70.1,107.8z"/>
	<path class="st315" d="M71.9,114.4c1,1.6,1.1,3.3-0.1,4.8C71.8,117.6,71.8,116,71.9,114.4z"/>
	<path class="st313" d="M71.6,120c0.1,0.1,0.2,0.3,0.1,0.4c0,0.8,0,1.5,0,2.3c-0.1,0.6-0.3,1.1-0.8,1.5c-1.3-1.2-0.8-2.7-0.7-4.2
		C70.6,120,71.1,120,71.6,120z"/>
	<path class="st316" d="M89.5,56.3c-1.6,0-3.2,0-4.7,0c1-1.3,3-0.1,4-1.4C90,54.9,89.6,55.7,89.5,56.3z"/>
	<path class="st317" d="M115.1,58.9c0.2,0,0.4,0,0.6,0c0,0,0.2-0.1,0.2-0.1c0.2,0.3,0.1,0.6-0.2,0.8c0,0,0.1,0.1,0.1,0.1
		C115.3,59.6,114.9,59.5,115.1,58.9z"/>
	<path class="st318" d="M115.7,59.6c0.1-0.3,0.1-0.5,0.2-0.8c0.2,0,0.5,0,0.7,0.1C116.3,59.1,116,59.4,115.7,59.6z"/>
	<path class="st319" d="M94.5,142.8c-0.6,0.1-1.1,0.2-1.7,0.4c-2.7,0.3-5.4,0.4-8,0c-0.5-0.1-1.1-0.2-1.6-0.3
		C87,141.7,90.7,141.8,94.5,142.8z"/>
	<path class="st320" d="M75.8,133.8c0.6,0.3,1.3,0.5,1.9,0.8c-0.1,0.6-0.7,0.6-1,0.9c-1.8-0.1-3.4-0.8-4.9-1.6
		c0.3-0.2,0.6-0.5,0.8-0.7C73.6,133.3,74.7,133.6,75.8,133.8z"/>
	<path class="st321" d="M76.6,135.5c0.3-0.3,0.7-0.6,1-0.9c1.5,0,2.8,0.7,3.9,1.8c-0.8,0-1.7,0.1-2.5,0.1
		C78.2,136.2,77.4,135.8,76.6,135.5z"/>
	<path class="st322" d="M96.8,142.8c0.6,0.2,1.2,0.5,1.8,0.7c-0.4,0.6-0.9,0.8-1.6,0.5c-0.2-0.1-0.4-0.1-0.6-0.2
		c-0.6-0.3-1.2-0.5-1.8-0.8C95.3,143,96.1,142.9,96.8,142.8z"/>
	<path class="st323" d="M70.9,124.2c0-0.6,0-1.1,0-1.7c1.8,0.5,3.3,1.1,3.2,3.4c0,0.3-0.1,0.6-0.1,0.8c-0.2,0.3-0.5,0.5-0.7,0.8
		c0,0-0.1,0-0.1,0c-0.6-0.1-1.3,0.2-1.6-0.7C71.4,125.9,71.1,125,70.9,124.2z"/>
	<path class="st282" d="M77.8,131.5c-0.7,0.3-1.4,0.6-2.1,0.9c-1.1-0.4-1.8-1.2-1.5-2.5C75.6,130.2,76.9,130.4,77.8,131.5z"/>
	<path class="st324" d="M84.8,143.1c2.7,0,5.4,0,8,0C90.2,144.1,87.5,144.2,84.8,143.1z"/>
	<path class="st132" d="M97,144c0.5-0.2,1.1-0.3,1.6-0.5c0.6,0.2,1.2-0.6,1.7,0.2c0.5,0.8-0.2,1.2-0.7,1.7c-0.1,0.2-0.2,0.5-0.3,0.7
		c-0.2,0.4-0.4,0.4-0.6,0C97.7,145.8,97.1,145.1,97,144z"/>
	<path class="st325" d="M98.7,146.2c0.2,0,0.4,0,0.6,0c0,1.4,0,2.8,0,4.1C98.1,149.1,98.7,147.6,98.7,146.2z"/>
	<path class="st326" d="M99.6,145.5c0.2-0.6,0.5-1.1,0.7-1.7c0.8-0.5,1.2-1.8,2.5-1.6c-0.8,1.7-1.6,3.4-2.4,5.1
		C100.1,146.7,99.9,146.1,99.6,145.5z"/>
	<path class="st327" d="M106.8,146.3c-0.5-0.3-0.9-0.6,0-0.8C106.8,145.8,106.8,146,106.8,146.3z"/>
	<path class="st328" d="M93.7,86.6c-0.3,0-0.5,0-0.8,0.1c-2-1.4,0.7-1.6,0.8-2.4C93.7,85,93.7,85.8,93.7,86.6z"/>
	<path class="st329" d="M85.6,90.1c-2.1,0.8-2.3-0.4-2.2-2c0,0,0.2-0.1,0.4,0c0.1,0,0.2,0.2,0.3,0.2C84.8,88.6,85.6,89,85.6,90.1z"
		/>
	<path class="st330" d="M85.6,90.1c-0.5-0.6-1.1-1.2-1.6-1.8c0.6-0.5,1.1-1.3,1.8-0.3C86.3,88.7,86.9,89.6,85.6,90.1z"/>
	<path class="st331" d="M75.8,124.3c-0.1-3.6-0.1-7.2,0.9-10.7c1.3,2.3,0.1,5.2,1.8,7.4c0.2,0.8,0.5,1.5,0.7,2.3
		c0.3,0.9-0.1,1.1-0.9,1c-2-1.3-1.5,1.4-2.5,1.6C75.3,125.2,75.3,124.7,75.8,124.3z"/>
	<path class="st332" d="M75.8,124.3c0,0.5,0,1-0.1,1.5c-0.5,0-1,0.1-1.6,0.1c-1.1-1.1-2.2-2.2-3.2-3.4c-0.1-0.8,0-1.6,0.8-2
		C72.8,122,74,123.4,75.8,124.3z"/>
	<path class="st333" d="M83.2,133.8c-1.9-0.6-4.4,0.4-5.4-2.3c2.5,0.3,5,0.7,7.5,1c0.3,0,0.5,0.2,0.5,0.5
		C84.9,133.3,83.9,133,83.2,133.8z"/>
	<path class="st334" d="M78.2,124.1c0.3-0.3,0.6-0.6,0.9-1c0.6,0.8,1.1,1.5,1.7,2.3c-0.2,0.6,0,1.7-1,1.3
		C78.8,126.4,78.2,125.3,78.2,124.1z"/>
	<path class="st335" d="M85.8,133c-0.2-0.2-0.3-0.3-0.5-0.5c2.1,0,4.2,0,6.3,0C89.7,133.4,87.7,132.8,85.8,133z"/>
	<path class="st336" d="M73.4,127.5c0.2-0.3,0.5-0.5,0.7-0.8C73.8,126.9,73.6,127.2,73.4,127.5z"/>
	<path class="st337" d="M75.1,105.3c0.9-0.4,1.2-3.4,3-0.8c-0.2,0.8-0.3,1.7-0.5,2.5c-0.1,1-0.3,2-0.5,3.6
		C75.6,108.8,75.2,107.1,75.1,105.3z"/>
	<path class="st338" d="M91.3,134.1c-2.2,1.1-4.3,1.1-6.5,0C86.9,134.1,89.1,134.1,91.3,134.1z"/>
	<path class="st339" d="M94.5,137c-4.4,0-8.8,1.1-13-0.7c3.8-1.6,7.7-0.1,11.5-0.6C93.4,136.2,94.8,135.7,94.5,137z"/>
	<path class="st340" d="M102.1,135c-1.4,0.8-2.8,1.2-4.4,1.3c-0.7-0.5-1.7,0.2-2.3-0.6c1.8-0.9,3.8-1.2,5.8-1.5
		C101.5,134.3,102,134.4,102.1,135z"/>
	<path class="st341" d="M95.3,135.6c0.8,0.2,1.7-0.1,2.4,0.6c-1.1,0-1.9,1.4-3.2,0.8c-0.5-0.4-1-0.8-1.5-1.3
		C93.8,135.7,94.5,135.6,95.3,135.6z"/>
	<path class="st342" d="M102.1,135c-0.3-0.3-0.6-0.6-1-0.9c0.9-0.8,1.9-1.1,3.1-0.8C104.3,134.9,103,134.7,102.1,135z"/>
	<path class="st343" d="M110.9,67c0.2,0.5,0.5,1,0.7,1.4c-3,1-3.9-0.1-3-3C109.3,66,110.1,66.5,110.9,67z"/>
</g>
</svg>
