<?xml version="1.0" encoding="utf-8"?>
<!-- Generator: Adobe Illustrator 19.0.0, SVG Export Plug-In . SVG Version: 6.00 Build 0)  -->
<svg version="1.1" id="Layer_1" xmlns="http://www.w3.org/2000/svg" xmlns:xlink="http://www.w3.org/1999/xlink" x="0px" y="0px"
	 viewBox="0 0 200 200" style="enable-background:new 0 0 200 200;" xml:space="preserve">
<style type="text/css">
	.st0{fill:#020202;}
	.st1{fill:#FDFEFF;}
</style>
<g>
	<ellipse class="st0" cx="99" cy="101.1" rx="92" ry="92.2"/>
	<path class="st1" d="M81.5,9.8c11.4-2.1,22.9-1.9,34.3,0c2.9-0.9,5.5,1.2,8.4,1l0.3,0c1.9,1.1,4.1,1.5,6.2,2.3
		c1.1,0.3,2.1,0.8,3.1,1.2c1.3,0.8,2.8,0.9,4.1,1.8c3.8,2,7.7,3.8,11.2,6.3c1.2,0.8,2.6,1.4,3.7,2.4c1.2,0.8,2.6,1.4,3.3,2.7
		c1.8,1.5,3.7,2.7,5.4,4.3c2,2.1,4.6,3.5,5.9,6.3c1.5,1.5,3.2,2.9,4.2,4.8c1.7,0.9,2.2,2.8,3.4,4c0.5,0.5,0.7,1.2,1.2,1.8
		c1.8,2.2,2.6,5.2,4.4,7.4c0.7,1.1,1.2,2.2,1.8,3.3c0.4,0.8,0.7,1.7,1.2,2.5c1,1.7,0.9,3.8,2.1,5.4c1.8,4.6,3.3,9.3,4.1,14.1
		c2.8,12.2,2.8,24.5,0,36.7c-0.3,1.3-0.4,2.6-0.7,3.9c-0.8,3.6-2.2,7-3.4,10.5c-1.2,1.6-1,3.7-2.1,5.3c-0.7,1.3-1.2,2.7-2,3.9
		c-0.3,0.7-0.6,1.3-1,1.9c-1.8,2.2-2.5,5.1-4.4,7.4c-0.4,0.6-0.7,1.3-1.2,1.8c-1.2,1.5-2.1,3.3-3.6,4.6l0.1-0.1
		c-1.4,1.7-2.9,3.2-4.2,4.9c-1.6,2.2-2.7,4.9-5.6,5.8c-3.2,0.5-2.7-2-2.7-3.7c-0.2-7.3-2.1-14.2-4.3-21c-0.5-1.2-0.7-2.4-1.3-3.6
		c-1.3-3.3-2.1-6.8-3.7-10c-0.4-1.1-1.1-2.1-1.7-3.1c-1.2-4.3-1.9-8.7-3.2-13c-0.4-1.7-0.7-3.3-2.3-4.4c-0.9-1.9-3.1-2.7-3.7-4.8
		c-0.2-1.1-0.4-2.3-1-3.3c-0.9-2.2-2.3-4.3-3.1-6.6c-1-4.1,0.6-8.1,0.1-12.1c-0.2-7.3-2.8-13.8-6.2-20c-0.7-1.2-1.2-2.4-2.4-3.2
		c-3.3-4.1-3.2-5.5,0.6-7.8c1.7-0.6,3.4-1.4,4.3-3.1c2.1-2.7,5.7-4.5,4.8-8.8c0-4-2.6-5.3-5.9-6c-1.6-0.3-3.2-0.1-4.9-0.1
		c-8.4-0.4-16.4,1.8-24.6,3c-2.2,0.7-4.5,0.6-6.7,1.1c-2.5,0.2-4.6,1.3-6.3,3.1c-0.9,0.6-2,0.8-3,1.3c-1.8,0.9-3.2,2.1-4.2,3.9
		c-2.2,3.2-5.3,5.3-8.8,6.9c-2.3,0.8-3.5,3.1-5.7,4c-1.3,0.6-2.5,1.4-3.6,2.3c-1.2,0.9-2.7,1.1-4,1.6c-0.8,0.3-1.7,0.5-2.4,1.1
		c-1.8,2.5-3.3,5.3-5.5,7.6c-0.9,1-1.8,1.9-2.9,2.7c-2.4,1.3-3.3,3.7-4.4,5.9c-0.6,0.9-1.2,1.7-1.7,2.6c-0.3,0.6-0.6,1.2-1,1.8
		c-0.9,1.3-1.7,2.7-2.4,4c-1.2,1.6-2,3.4-3.1,5c-0.6,0.9-1.1,1.8-1.5,2.9c-0.4,3.4-2.1,6.7-0.2,10.1c0.8,1.7,2.4,2.6,3.9,3.6
		c2.3,2.4,5.3,3.3,8.3,4c2.4,0.4,4.2-0.4,5.5-2.4c0.9-1.3,1.9-2.3,3.6-1.8c1.2,0.5,2.2,1.1,3,2.2c0.5,0.9,0.6,2,0.5,3
		c-0.1,1.5-1,2.5-2,3.5c-1.3,1-2.4,2-3,3.6c-0.4,0.8-0.8,1.6-1.2,2.3c-0.6,0.9-1.2,1.8-1.5,2.8c-0.4,1.1-0.5,2.4-0.8,3.5
		c-0.8,6.8-1.4,13.6-3.3,20.3c-1.9,6.8-1,13.9-0.8,20.9c0,1.2,0.4,2.4-0.4,3.5c-1.7,1.3-2.7-0.3-4-1.1c-2.2-1-3.3-3.2-5.3-4.4
		c-2.4-1.4-4.5-3.1-5.7-5.8c-1.2-1.8-3.1-2.9-4.2-4.8c-1.1-1.6-2.2-3.2-3.4-4.7c-0.5-0.5-0.7-1.2-1.2-1.8c-1.8-2.3-3-5-4.7-7.4
		c-0.7-1.3-1.2-2.7-2-4c-1-2.1-1.8-4.3-2.8-6.3c-1.4-3.6-2.7-7.2-2.8-11.2c-2.7-11.8-3.1-23.7-1.7-35.8c0.2-1.8,1-3.6,0.9-5.5
		c0.7-1.2-0.3-2.4,0.2-3.6c1.1-3.6,1.9-7.4,3.4-10.9c0.6-1.6,1.6-3,2.1-4.7c0.6-1.3,1.2-2.6,1.9-4c0.4-0.6,0.6-1.3,1-1.9
		c1.9-2.2,2.6-5.2,4.6-7.3c0.5-0.7,0.8-1.6,1.3-2.3c1-1,1.4-2.5,2.6-3.4c2-2.6,4.4-4.9,6.8-7.1c1.2-2,3.1-3.1,4.7-4.7
		c1.4-2,3.9-2.8,5.4-4.6c1.5-1.2,3-2.2,4.6-3.3c6.1-4.4,12.8-7.7,19.9-10.1c2-0.7,4.1-1.4,6.1-2.1c1.1-0.5,2.4-0.2,3.5-0.9
		C77.9,10.1,79.6,8.9,81.5,9.8z"/>
</g>
</svg>
